<mxfile>
  <diagram id="G4OkX1j3vqIOI-4_Kl7h" name="Página-1">
    <mxGraphModel dx="3460" dy="875" grid="1" gridSize="10" guides="1" tooltips="1" connect="1" arrows="1" fold="1" page="0" pageScale="1" pageWidth="1169" pageHeight="827" background="#000000" math="0" shadow="1">
      <root>
        <mxCell id="0" />
        <mxCell id="1" parent="0" />
        <mxCell id="2" value="&lt;font style=&quot;color: rgb(204, 0, 0);&quot;&gt;DIAGRAMA DE PROCESOS&lt;/font&gt;&lt;div&gt;&lt;font style=&quot;color: rgb(204, 0, 0); font-size: 20px;&quot;&gt;Versão 1.0 - Ago 2025&lt;/font&gt;&lt;/div&gt;" style="text;html=1;align=center;verticalAlign=middle;whiteSpace=wrap;rounded=0;fontSize=36;fontColor=#CC0000;fontStyle=1;labelBackgroundColor=none;" parent="1" vertex="1">
          <mxGeometry x="-590" y="-240" width="730" height="90" as="geometry" />
        </mxCell>
        <mxCell id="36" style="html=1;exitX=1;exitY=0.5;exitDx=0;exitDy=0;entryX=0;entryY=0.5;entryDx=0;entryDy=0;rounded=1;strokeColor=#FFFF00;strokeWidth=1.9685;align=center;verticalAlign=middle;fontFamily=Helvetica;fontSize=11;fontColor=default;labelBackgroundColor=default;endArrow=classic;edgeStyle=orthogonalEdgeStyle;" parent="1" source="10" target="15" edge="1">
          <mxGeometry relative="1" as="geometry" />
        </mxCell>
        <mxCell id="44" style="edgeStyle=none;html=1;exitX=0.5;exitY=1;exitDx=0;exitDy=0;entryX=0.5;entryY=0;entryDx=0;entryDy=0;rounded=1;strokeColor=#FFFF00;strokeWidth=1.9685;align=center;verticalAlign=middle;fontFamily=Helvetica;fontSize=11;fontColor=default;labelBackgroundColor=default;endArrow=classic;" parent="1" source="10" target="13" edge="1">
          <mxGeometry relative="1" as="geometry" />
        </mxCell>
        <mxCell id="68" style="edgeStyle=elbowEdgeStyle;elbow=vertical;html=1;exitX=1;exitY=0.5;exitDx=0;exitDy=0;rounded=1;strokeColor=#FFFF00;strokeWidth=1.9685;align=center;verticalAlign=middle;fontFamily=Helvetica;fontSize=11;fontColor=default;labelBackgroundColor=default;startArrow=classic;startFill=1;endArrow=classic;entryX=0;entryY=0.5;entryDx=0;entryDy=0;" edge="1" parent="1" source="10" target="31">
          <mxGeometry relative="1" as="geometry">
            <mxPoint x="-1210" y="230" as="targetPoint" />
            <Array as="points">
              <mxPoint x="-1450" y="265" />
            </Array>
          </mxGeometry>
        </mxCell>
        <mxCell id="10" value="&lt;font style=&quot;font-size: 14px; color: rgb(255, 128, 0);&quot; face=&quot;Comic Sans MS&quot;&gt;LOGIN&lt;/font&gt;&lt;div&gt;&lt;u&gt;&lt;font style=&quot;color: rgb(255, 128, 0);&quot;&gt;(NIVEL 3)&lt;/font&gt;&lt;/u&gt;&lt;/div&gt;" style="label;whiteSpace=wrap;html=1;image=img/clipart/Gear_128x128.png;align=center;strokeColor=#FF8000;fillColor=#000000;glass=0;shadow=1;fontColor=#FF8000;" parent="1" vertex="1">
          <mxGeometry x="-1787.5" y="240" width="125" height="50" as="geometry" />
        </mxCell>
        <mxCell id="11" value="&lt;font face=&quot;Comic Sans MS&quot; style=&quot;font-size: 14px; color: rgb(0, 255, 255);&quot;&gt;LOGIN&lt;/font&gt;&lt;div&gt;&lt;u&gt;&lt;font style=&quot;color: rgb(0, 255, 255);&quot;&gt;(NIVEL 1)&lt;/font&gt;&lt;/u&gt;&lt;/div&gt;" style="label;whiteSpace=wrap;html=1;image=img/clipart/Gear_128x128.png;align=center;rounded=1;shadow=1;glass=0;strokeColor=#00FFFF;verticalAlign=middle;spacingLeft=52;spacing=2;fontFamily=Helvetica;fontSize=12;fontColor=#FF8000;fontStyle=1;fillColor=#000000;" parent="1" vertex="1">
          <mxGeometry x="-365" y="250" width="120" height="50" as="geometry" />
        </mxCell>
        <mxCell id="43" style="edgeStyle=orthogonalEdgeStyle;html=1;exitX=0;exitY=0.5;exitDx=0;exitDy=0;entryX=1;entryY=0.75;entryDx=0;entryDy=0;rounded=1;strokeColor=#FFFF00;strokeWidth=1.9685;align=center;verticalAlign=middle;fontFamily=Helvetica;fontSize=11;fontColor=default;labelBackgroundColor=default;endArrow=classic;" parent="1" source="12" target="15" edge="1">
          <mxGeometry relative="1" as="geometry">
            <Array as="points">
              <mxPoint x="300" y="195" />
              <mxPoint x="300" y="730" />
              <mxPoint x="-530" y="730" />
              <mxPoint x="-530" y="578" />
            </Array>
          </mxGeometry>
        </mxCell>
        <mxCell id="45" style="edgeStyle=none;html=1;exitX=0.5;exitY=1;exitDx=0;exitDy=0;entryX=0.5;entryY=0;entryDx=0;entryDy=0;rounded=1;strokeColor=#FFFF00;strokeWidth=1.9685;align=center;verticalAlign=middle;fontFamily=Helvetica;fontSize=11;fontColor=default;labelBackgroundColor=default;endArrow=classic;" parent="1" source="12" target="14" edge="1">
          <mxGeometry relative="1" as="geometry" />
        </mxCell>
        <mxCell id="12" value="&lt;font style=&quot;font-size: 14px; color: rgb(51, 255, 51);&quot; face=&quot;Comic Sans MS&quot;&gt;LOGIN&lt;/font&gt;&lt;div&gt;&lt;u&gt;&lt;font style=&quot;color: rgb(51, 255, 51);&quot;&gt;(NIVEL 2)&lt;/font&gt;&lt;/u&gt;&lt;/div&gt;" style="label;whiteSpace=wrap;html=1;image=img/clipart/Gear_128x128.png;align=center;rounded=1;shadow=1;glass=0;strokeColor=#33FF33;verticalAlign=middle;spacingLeft=52;spacing=2;fontFamily=Helvetica;fontSize=12;fontColor=#FF8000;fontStyle=1;fillColor=#000000;" parent="1" vertex="1">
          <mxGeometry x="501" y="170" width="120" height="50" as="geometry" />
        </mxCell>
        <mxCell id="57" style="edgeStyle=none;html=1;exitX=0.5;exitY=1;exitDx=0;exitDy=0;entryX=0.5;entryY=0;entryDx=0;entryDy=0;rounded=1;strokeColor=#FFFF00;strokeWidth=1.9685;align=center;verticalAlign=middle;fontFamily=Helvetica;fontSize=11;fontColor=default;labelBackgroundColor=default;endArrow=classic;" parent="1" source="13" target="54" edge="1">
          <mxGeometry relative="1" as="geometry" />
        </mxCell>
        <mxCell id="13" value="&lt;font style=&quot;font-size: 14px; color: rgb(255, 128, 0);&quot; face=&quot;Comic Sans MS&quot;&gt;GEOLOCALIZAÇÃO&lt;/font&gt;&lt;div&gt;&lt;font style=&quot;color: rgb(255, 128, 0);&quot;&gt;BARBEIRO&lt;/font&gt;&lt;/div&gt;" style="label;whiteSpace=wrap;html=1;image=img/clipart/Gear_128x128.png;align=center;strokeColor=#FF8000;fillColor=#000000;glass=0;shadow=1;fontColor=#FF8000;" parent="1" vertex="1">
          <mxGeometry x="-1830" y="340" width="210" height="50" as="geometry" />
        </mxCell>
        <mxCell id="14" value="&lt;font style=&quot;color: rgb(51, 255, 51);&quot;&gt;GEOLOCALIZAÇÃO&lt;/font&gt;&lt;div&gt;&lt;font style=&quot;color: rgb(51, 255, 51);&quot;&gt;CLIENTE&lt;/font&gt;&lt;/div&gt;" style="label;whiteSpace=wrap;html=1;image=img/clipart/Gear_128x128.png;align=center;fillColor=#000000;strokeColor=#33FF33;" parent="1" vertex="1">
          <mxGeometry x="468.5" y="270" width="185" height="50" as="geometry" />
        </mxCell>
        <mxCell id="38" style="edgeStyle=orthogonalEdgeStyle;html=1;exitX=1;exitY=0.5;exitDx=0;exitDy=0;entryX=0;entryY=0.5;entryDx=0;entryDy=0;rounded=1;strokeColor=#FFFF00;strokeWidth=1.9685;align=center;verticalAlign=middle;fontFamily=Helvetica;fontSize=11;fontColor=default;labelBackgroundColor=default;endArrow=classic;" parent="1" source="15" target="11" edge="1">
          <mxGeometry relative="1" as="geometry">
            <Array as="points">
              <mxPoint x="-650" y="545" />
              <mxPoint x="-650" y="275" />
            </Array>
          </mxGeometry>
        </mxCell>
        <mxCell id="15" value="&lt;font face=&quot;Comic Sans MS&quot; style=&quot;font-size: 14px; color: rgb(255, 128, 0);&quot;&gt;FUNÇÃO LOGIN&lt;/font&gt;&lt;div&gt;&lt;ul&gt;&lt;li&gt;&lt;span style=&quot;font-size: 10px;&quot;&gt;&lt;font style=&quot;color: rgb(255, 128, 0);&quot;&gt;Campo Usuário de Login;&lt;/font&gt;&lt;/span&gt;&lt;/li&gt;&lt;li&gt;&lt;font style=&quot;font-size: 10px; color: rgb(255, 128, 0);&quot;&gt;Campo Senha;&lt;/font&gt;&lt;/li&gt;&lt;li&gt;&lt;span style=&quot;font-size: 10px; background-color: transparent;&quot;&gt;&lt;font style=&quot;color: rgb(255, 128, 0);&quot;&gt;Botão Logar | Cancelar | Recuperar Senha&lt;/font&gt;&lt;/span&gt;&lt;/li&gt;&lt;/ul&gt;&lt;/div&gt;" style="label;whiteSpace=wrap;html=1;image=img/clipart/Gear_128x128.png;align=left;strokeColor=#FF8000;fillColor=#000000;glass=0;shadow=1;fontColor=#FF8000;" parent="1" vertex="1">
          <mxGeometry x="-1150" y="480" width="240" height="130" as="geometry" />
        </mxCell>
        <mxCell id="55" style="edgeStyle=orthogonalEdgeStyle;html=1;exitX=1;exitY=0.5;exitDx=0;exitDy=0;entryX=0;entryY=0.5;entryDx=0;entryDy=0;strokeColor=#FFFF00;strokeWidth=1.9685;startArrow=classic;startFill=1;" parent="1" source="18" target="54" edge="1">
          <mxGeometry relative="1" as="geometry" />
        </mxCell>
        <mxCell id="18" value="&lt;div style=&quot;text-align: center;&quot;&gt;&lt;span style=&quot;background-color: transparent;&quot;&gt;&lt;font face=&quot;Comic Sans MS&quot; style=&quot;color: rgb(255, 128, 0); font-size: 14px;&quot;&gt;FUNÇÃO AGENDAR HORÁRIO&lt;/font&gt;&lt;/span&gt;&lt;/div&gt;&lt;div&gt;&lt;ul&gt;&lt;li&gt;&lt;span style=&quot;background-color: transparent;&quot;&gt;&lt;font style=&quot;color: rgb(255, 128, 0);&quot;&gt;Consultar o Perfil do Proffional e sua Pontuaçãoe Comentários.&lt;/font&gt;&lt;/span&gt;&lt;/li&gt;&lt;li&gt;&lt;span style=&quot;background-color: transparent;&quot;&gt;&lt;font style=&quot;color: rgb(255, 128, 0);&quot;&gt;Ver Localização da Empresa por GEOLOCALIZAÇÃO.&lt;/font&gt;&lt;/span&gt;&lt;/li&gt;&lt;li&gt;&lt;span style=&quot;background-color: transparent;&quot;&gt;&lt;font style=&quot;color: rgb(255, 128, 0);&quot;&gt;Ver Fotos do Ambiente.&lt;/font&gt;&lt;/span&gt;&lt;/li&gt;&lt;li&gt;&lt;span style=&quot;background-color: transparent;&quot;&gt;&lt;font style=&quot;color: rgb(255, 128, 0);&quot;&gt;Ver Serviços Disponíveis.&lt;/font&gt;&lt;/span&gt;&lt;/li&gt;&lt;li&gt;&lt;span style=&quot;background-color: transparent;&quot;&gt;&lt;font color=&quot;#ff8000&quot;&gt;Visualizar Agenda com horários disponíveis.&lt;/font&gt;&lt;/span&gt;&lt;/li&gt;&lt;li&gt;&lt;span style=&quot;background-color: transparent;&quot;&gt;&lt;font style=&quot;color: rgb(255, 128, 0);&quot;&gt;Realizar Agendamento por data.&lt;/font&gt;&lt;/span&gt;&lt;/li&gt;&lt;li&gt;&lt;span style=&quot;background-color: transparent;&quot;&gt;&lt;font style=&quot;color: rgb(255, 128, 0);&quot;&gt;&amp;nbsp;Realiza Agendamento Futuro.&lt;/font&gt;&lt;/span&gt;&lt;/li&gt;&lt;li&gt;&lt;span style=&quot;background-color: transparent;&quot;&gt;&lt;font style=&quot;color: rgb(255, 128, 0);&quot;&gt;Cancelar um Agendamento Realizado&amp;nbsp;&lt;/font&gt;&lt;/span&gt;.&lt;/li&gt;&lt;li&gt;&lt;span style=&quot;background-color: transparent;&quot;&gt;&lt;font style=&quot;color: rgb(255, 128, 0);&quot;&gt;Consultar o Histórico dos Agendamentos.&lt;/font&gt;&lt;/span&gt;&lt;/li&gt;&lt;li&gt;&lt;span style=&quot;background-color: transparent;&quot;&gt;&lt;font style=&quot;color: rgb(255, 128, 0);&quot;&gt;Indicar para Amigos.&lt;/font&gt;&lt;/span&gt;&lt;/li&gt;&lt;li&gt;&lt;span style=&quot;background-color: transparent;&quot;&gt;&lt;font style=&quot;color: rgb(255, 128, 0);&quot;&gt;Programa Ponts de Fidelidade;&lt;/font&gt;&lt;/span&gt;&lt;/li&gt;&lt;/ul&gt;&lt;/div&gt;" style="label;whiteSpace=wrap;html=1;image=img/clipart/Gear_128x128.png;align=left;strokeColor=#FF8000;fillColor=#000000;glass=0;shadow=1;fontColor=#FF8000;spacingLeft=31;" parent="1" vertex="1">
          <mxGeometry x="-2590" y="30" width="310" height="420" as="geometry" />
        </mxCell>
        <mxCell id="59" style="edgeStyle=orthogonalEdgeStyle;html=1;exitX=1;exitY=0.5;exitDx=0;exitDy=0;entryX=0.25;entryY=1;entryDx=0;entryDy=0;startArrow=classic;startFill=1;strokeColor=#FFFF00;rounded=1;strokeWidth=1.9685;align=center;verticalAlign=middle;fontFamily=Helvetica;fontSize=11;fontColor=default;labelBackgroundColor=default;endArrow=classic;" edge="1" parent="1" source="20" target="54">
          <mxGeometry relative="1" as="geometry" />
        </mxCell>
        <mxCell id="20" value="&lt;div style=&quot;text-align: center;&quot;&gt;&lt;span style=&quot;background-color: transparent;&quot;&gt;&lt;font face=&quot;Comic Sans MS&quot; style=&quot;color: rgb(255, 128, 0); font-size: 14px;&quot;&gt;AVALIAÇÃO BARBEIRO&lt;/font&gt;&lt;/span&gt;&lt;/div&gt;&lt;div&gt;&lt;ul&gt;&lt;li&gt;&lt;span style=&quot;background-color: transparent;&quot;&gt;&lt;font color=&quot;#ff8000&quot;&gt;Pontuação;&lt;/font&gt;&lt;/span&gt;&lt;/li&gt;&lt;li&gt;&lt;span style=&quot;background-color: transparent;&quot;&gt;&lt;font color=&quot;#ff8000&quot;&gt;Indique um Amigo;&lt;/font&gt;&lt;/span&gt;&lt;/li&gt;&lt;li&gt;&lt;font color=&quot;#ff8000&quot;&gt;Pontos de Fidelidade;&lt;/font&gt;&lt;/li&gt;&lt;/ul&gt;&lt;/div&gt;" style="label;whiteSpace=wrap;html=1;image=img/clipart/Gear_128x128.png;align=left;strokeColor=#FF8000;fillColor=#000000;glass=0;shadow=1;fontColor=#FF8000;spacingLeft=31;" parent="1" vertex="1">
          <mxGeometry x="-2570" y="750" width="270" height="120" as="geometry" />
        </mxCell>
        <mxCell id="22" value="" style="group" parent="1" vertex="1" connectable="0">
          <mxGeometry x="-350" y="110" width="120" height="80" as="geometry" />
        </mxCell>
        <mxCell id="6" value="&lt;font style=&quot;font-size: 15px; color: rgb(0, 255, 255);&quot;&gt;SISTEMA&lt;/font&gt;" style="rounded=1;whiteSpace=wrap;html=1;fillColor=#000000;strokeColor=#00FFFF;strokeWidth=1;align=center;verticalAlign=middle;fontFamily=Comic Sans MS;fontSize=12;fontColor=default;spacingBottom=-50;movable=1;resizable=1;rotatable=1;deletable=1;editable=1;locked=0;connectable=1;" parent="22" vertex="1">
          <mxGeometry width="90" height="80" as="geometry" />
        </mxCell>
        <mxCell id="21" value="" style="shape=image;verticalLabelPosition=bottom;labelBackgroundColor=default;verticalAlign=top;aspect=fixed;imageAspect=0;image=data:image/png,iVBORw0KGgoAAAANSUhEUgAAAgAAAAIACAYAAAD0eNT6AAAAAXNSR0IArs4c6QAAIABJREFUeAHsvQWYHFeWJuruHeiZ2elZ+N7u0A7t4PbbnffeUPf09G5lpKS2zCSz3W5Tm5nbdsssyMgqMTMzM7MttsXMLFuyZblKqog4z39KYaXSCRFxT0TcyDz1ffVFZmTgufee/7/nHrjiCvkTCYgEtJTAj9vT76ZNusYwqd7I0HLDpB2GSZ8bJpGm/58bWdpumLQsZZKZ6khX13Wjf6+lcOWhRAIiAZGASEAkoJsE0ln6i7RJnQyTzmoK9H4ISJORpcGpBvob3eQszyMSEAmIBEQCIgEtJIAZf8qknoZJdhUAfyFJsAyTurTqSL+jhbDlIUQCIgGRgEhAJKCDBFpk6N9SJu2uQuAvJAI760z6oQ4yl2cQCYgERAIiAZFArBK4uM7fWAPg75KBplSWro9V6HJzkYBIQCQgEhAJxCkBw6Q2hknnawj8XRJwLmXSdXHKXu4tEhAJiAREAiKBWCSQytIPqsTRzwV1v9szdRn621iELzcVCYgERAIiAZFAHBKAM5xh0uYanPkXkoT1dW3pe3G0gdxTJCASEAmIBEQCkUvAMKmtgP83+QxejrwB5IYiAZGASEAkIBKIWgL/9gH9R8OkU0IALhKADJ1s3Zm+H3U7yP1EAiIBkYBIQCQQqQRSGXpLwP+b2f+FJYEMvRJpI8jNRAIiAZGASEAkELUEjAxtFQJQQABMWht1O8j9RAIiAZGASEAkEJkEWnagvxLw/xb456wArTrSn0fWEHIjkYBIQCQgEhAJRCkBw6RnhAAUJwCGSY9G2RZyL5GASEAkIBIQCUQmASNLY4QAlCQAQyJrCLmRSEAkIBIQCYgEopSAkaUDQgBKEoCdUbaF3EskIBIQCYgERAKRSKBFA/2JgH9J8M/5AdR1oN+PpDHkJiIBkYBIQCQgEohKAqks3cpBAFbusGnXYUur/7kb7cIMf4G+S5GgqHqj3EckIBIQCYgEIpOAkaUGVQJwYzeio59a2v0fPGHRlQ3lZ/ce371dZA0iNxIJiAREAiIBkUAUEjBM+sgjCJacPb88xtEO/F1C8ugQp+Rz+3jvRVG0hdxDJCASEAmIBEQCkUgABW8Mk875AMKiYNp3oa0tAcjOYiEAX/1DL/r1SBpFbiISEAmIBEQCIoGwJZCqpx+rgj/OX7hZXwIweS2TH0CG/iHs9pDriwREAiIBkYBIIBIJGCa9oEoAWtUT7T+u3/q/uwSw5aBV1Grh+72z9EQkjSI3EQmIBEQCIgGRQNgSMLI0zjcQmpc71T04UN/1f5cE3Nrr8mcO+M7Dwm4Pub5IQCQgEhAJiAQikYBh0sGAYPjNrLr9dP0JwC/Hq/sBpEzaHUmjyE1EAiIBkYBIQCQQpgTq6unPVMEf549bpe/6v2sBGLiUxw9AEgKF2SPl2iIBkYBIQCQQiQSMDN3BQQA27NV3/d8lAMu38RCAdIZuiKRx5CYiAZGASEAkIBIISwKGSZ1VCcANmiYAcoHf3XIlBEqZ1D6s9pDrigREAiIBkYBIIBIJpE1apUoAXtI4AZAL/u720aEsfgBLImkcuYlIQCQgEhAJiATCkMCPsvRb1Z4AyAV+d5udrU4ADJMa27Sl3wijTeSaIgGRgEhAJCASCF0C6Sz9RHX2j/MXbtLfAdAlAFPXsfkB/FPoDSQ3EAmIBEQCIgGRQBgSSGfoJVUCoHsCIBf43e32QzwJgVImPRVGm8g1RQIiAZGASEAkELoEDJMmqBKABxKQAMgFf3d7W2+GhEAZGhF6A8kNRAIiAZGASEAkEIYEDJOOqBKAdtP0TwDkAr+7fWMiix/A3jDaRK4pEhAJiAREAiKBUCWQztJfqII/zk9CAiAX+N3tkGU8fgBGlv4o1EaSi4sERAIiAZGASIBbAukM3cVBAD5JQAIgF/jd7Yc7eAhAKkM3cbeLXE8kIBIQCYgERAKhSiBlUldVApCUBEAu8LvbQycsuqoTgx+ASR1DbSS5uEhAJCASEAmIBLglYJi0RpUAvDQ6eev/Lgl4fBiLH8BS7naR64kERAIiAZGASCA0CVzbi37bMKlZlQD0WZic+H8X+N1twxwWAtDUujP9ZmgNJRcWCYgERAIiAZEApwRSWfo/quCP85OUAMgFfnc7bT2TH0BH+hfOtpFriQREAiIBkYBIIDQJGBl6RZUAtKwn2ndM/wqALuAXbnccsihtsvgBPBNaQ8mFRQIiAZGASEAkwCkBw6RJqgQgiQmACknAnTwJgUZxto1cSyQgEhAJiAREAqFJwDDpqCoB+CCBCYAKCcCvGBICpUzaH1pDyYVFAiIBkYBIQCTAJYG6LP2lKvjj/HErk+sA6BIBroRAde3pj7naR64jEhAJiAREAiKBUCRgZOgeDgKQxARALvC7W66EQOkM3RJKY8lFRQIiAZGASEAkwCUBw6TuqgQgqQmAXOB3t4dP8iQESplkcrWPXEckIBIQCYgERAKhSCCdoXWqBCDJCYBc8He3T3AkBMrQ8lAaSy4qEhAJiAREAiIBDgm06ki/w5EAqPeC5K//uwSgkyQE4uhacg2RgEhAJCAS0FkCaZNSqrN/nL9gU/UQgBlMCYHqTPqhzm0vzyYSEAmIBEQCNSyBdIZeUyUASAC0N8EJgNyZv7vdeZgnIVAqQ8/WcNeSVxcJiAREAiIBnSVgmDRFlQDcPyC5BYBc0C/c3tWHJSPgaJ3bXp5NJCASEAmIBGpUAm1G078zTPpMlQBUQwKgQgLAkRDIMOnIFUTfqdHuJa8tEhAJiAREArpKIJ2lK1XBH+ePqYIEQIUEYNhynsJA6Sz9RNf2l+cSCYgERAIigVqUANF3UiYt4SAA6/cmtwBQIfC731fu4CEAhkmzarF7yTuLBEQCIgGRgKYSSGfpeQ7wRwKgI59WHwFAQqCrO7P4AaDC4C807QbyWCIBkYBIQCRQSxIwTHrUMMnmIABvTKw+B0DXCvDSGIc4ZJTLs5ChJ2upj8m7igREAlUqgdad6fupevpxOkst0hlqaWSpVauO9OdwKqvSV66K12rZgf4qbdJYJlDLgeP4VdUT/+8Cv7sdvoJtGSAnq5RJQ1uZ9N+qojNV6Uu0bUvfNTL0p6ks/R/oN2xTJv39j7L0W1X6yvJaIoHyEsCguJgwZoBh0g7DJKcEiJwzTFqK+GcMovJXlV/DlgDarS5L/5gy6VXDpEVcs3637RH/v+tw9Zn/XQKw+QBPPgBXXhe3FvwCMEbqOtL/HXYfkOtXlkAO8KGzTFpsmNRY0F6uFajZMGmDkaEe6Xr6UeWryhEigYRLIMeGTXrIMGlPiUHhDo5iW8fI0AjMOhMuhkQ9fjpLf5HK0MNGlsYYJn0aoN2KtWXRfc+Prl7zv0sCHuOoC2CW9iVIm3TYyNLglEn3/qSe/iBRnS3hD1uXob+9OE5KTWiK9vuLY2pLOkN3SZhnwjuBPH5xCRhZ+mfDpNUMAHLeMKlLi3b0e8XvJHtVJPAPvejXYao0TOpsmLSLob3KKb3LfuNK/7vvmEWrd9k0b6NNcxX/cQ1cC9d0QVxlO5UpLbCPdtmYMqm9YdK/goCr9A05t7gE/u0D+o/pLPXiqIGRs3ia9PfF7yR7RQIJlEDapNvKmMIuAwGvig0zHamRztMZru1Fv21k6VrMHA2TTnltA87jHhioPvsHgYAV4acNpWfIQZ8Z18S1VUkKIhzu7sv/fJ7eK0MnL7Zxm7pu9O95ek9tXyU3bkw66En+ZSw3Bec3pbJ0Z21LVt6+KiSQytBbZdb4A4H/ZYMlS+Natqc/rAphRfgSmLUYGXowZdIMw6Smy2TqXVGpt9/Fe01bH9z5b/9xixA9ENU7vDnRIdwzqCUAiY6ietYy9/nSyNI4mJ2FDPgfeHC+5Eh7XaZ9HPja+H8yOUMkoIkEUll6r0wH51SCp9MZelpMnOUbvq4tfe/ijGW0YRIcLDnbIPC1VNb+Dx63KOx19WJyenyYQ4cCkgBYAZ4cHh1hKfb8BfvgqIYaDm3atKXfKN+LavxXJLyCT4xJnxfIMHD/L3eddIY61LjE5fWTKIEIwT9/4C1NZ+h/JFFeYT0zQilbZOjfLq5RflFO2cTxG5LjbN4ffDaNugFxPDfu2X568GWLdXusUJYqGGRxKrdMkKVr69rSr4XVL5N4XURZGBlaziBjX31WSEASe0sNPzM6bNSDJO9+TeksvVnrM5lUA/3NxXY4licbX4onivNGK+T9X7XTphbZ+KwYuPeaXcHJS//FWiwFlOwTKZP2Gya1bdFAf1LD6uyK1p3pN9MmvR2r1SxD79RyG8i7J0QCMc38v63EsrQduQYSIjaWx4Sighk3laE5ofpdMC0d1M8OPoPG+nu7GGf/LjnqMEPtHd6bGp8Fw30HD1v7Yp+quSUCJCj7ekxt8iCjb+sgpnHi3lssASxqUi4SlgRinvkXG4B2yqSuyDQY1jvrcN0WWfqfF8P2lEvxusom7O2Lox06cjL47BkE4M7e8c3+Xfnc1YcCOwPiHeBHAH8C93oJ2B5FWGG15+NAmHHKpJ7aEWmxBOigcuUZCiWgzcy/COuuxpBBODxejNeH81aQxCOxgQ5y4qt40QM4QR6QOTBuwGxVT8pEBjkGnh2ZKBIAuTs5q0CWrq225DVwlL24/BF7/yrWv8USUIg+8j1WCegM/gUDaEpde/rjWIWlePMft6ffveiFvKXg3bRUVoXP+PZkhw6dUJv5gwCAQBReO67vqmTGtQT8cnziSMCFNsByW4aebtWRfkexe8d6el0H+n3DJETIaNO3Sj2LkIBYu4rc3JWAhmb/SoMXiW4eStqsxehA/z1tUqeowo9KKZ6g+69sIBqyLHisP0Cy8P+aLvEr6mu7qi0B5L8TrBrd59sEq0JQOcd6XoZOpk1638jSH7n6IRFbou8YWXrEMOl0rPLzSzxkOSAR3atqHzJBM/9vKdSUSUta1NPf6d44qSz94GL2NhQP+dZ7JGHfQ4McQthbPthxfH5Kg1h6mO453iX/Gohu+PmAhFoDLvTR8+iziETRfXzVZekvjSzNS8I4KvaMYgnQvYdV6fMlcOZfDDwbUya9oWPIIKruGSaNT9r6fr6Suq030cgPbRaTfz5Aup+HLY8/jA4lft3n4dweOG5R30U23dAtmaTvYj9oRslikFjd1CDGPMKFdciCmT9mAn0WS4Bu3au6n6dKwD+fEGzQpSRnOks/SZs0M5Ai0MRCcG8/h0assOkgw1p/OVCFB/3tMUYCgOAgE2G5Z1T9DQ6CIAK39Ew0EbBBZlMZ+gcdNCPGumHSxiSPsW89u5AAHbpW9T9D2OB/Y/fYFB2UVBc42cXRiheV0vxvDWxNQL3Sc6HATde5DsF8rQp6fs5ftNmmliEU/6n0vlinVy0M5Oc9kT540RY7l33w5h6xjZF80hzoczpLU1MxVbvD2MYYN0zCWA/0/CrnhVGk6rLnERIQh+qunXuGvebfazFRUzPRwOUUmyMUQgZTJt0cVavCD+Gi53GiQvmu70b06jiHYIbfsC/cWXAloJy42o40rS4cGietiZboFMrgk71WTvZoAx2cIS8Dosrgir4+OspcAqmOdLVh0j6fz8lCEtJZolfHOrRoo0XPhRzuKT4BUWnuGrtP2DP//kvpsr/tx4h+MSR6lp6nIEYjLCisZm7Vkf78onNfLLORvPf0pOQw44XTHczRH+6wCTPSQlCK8zue6ReDw3ece2SIQx9ujxf8C+WMpRBYIzrPcQhlldOVAdhTm/vtIwGOP29kqEeY1TzjDu27s49D4z6yaeU2K/f/4VaLng7beVUsAWGp7dq8btjg368A/F0mYNlEo1YRte4UGxH4DCVzOUMGW3Wk/4LshLHmFfcIECjUgxnmuJU27TqsF+AXgqD7HUsC2dkOocLgg4MuACJAMeg/rvHCaCd3TZjg3fvovEVxJYRcPj3CiWV5JAAR+ArZBevq6T+waVii76Sz9IBhUizZMWHubz/NphVbLwC/SwCwFRLA1spyobAlEDb49y0B/i4JwPbwaaIXx8ZGAjBbWpg26a9VZH3R6/h53WON4XX+/lSHZn1ih+7gpjOIVsuz7T5iEZZIkGToqviItFeLwwnE46OCpcpYw9JCKksLAhARr89Z9rgHBzo0Y+23gV9IgEqryrmRSyDsNf+ei/JhvvLnhduIborPSfC8YVK7ICGDF1P2aut1jDVtzPSnrw/fc79agDWJ74HQQrQx2joOx0kfgLwlnaUr/So8lC9GRkLDpC993KssmPu5DixmXWbb9NFFc38+4Bf7/NFW8Qnw28ZyfEQS0A38QQ8ch2jfcZtirqC2oc6kH3ppBlgN4PXsR4lEdWyrBsqZyVGOF6FmSQQ0eebg7bbriEVoeyyV6FBToUS/n5LO0l94GWt19fT/GCatLnEdNpAvdX3IEY6Zq3eUn/kXEgEhAV5aV46JVAJhm/37LKk82y88AuD/6eeX1mBhor6tV2zLAnY6S71K1UlHvYGL1flgNQhd+fi5x30DHBq0NDlr+gLywUHeq+zgM4AUxLfGN57KjZFGWN5+0pn+r2JKEGmH4UhomGT5GQdcx7bpSTRj/SW9BCuLXxIgPgHFWlb2xSKBsMG/9+JCaK/8vRD8XcWGmWtmpkMtsrGBrJU2aZWRof5QUqkMDUSK4biUUSmlhrXfd6Y4tHTrJUXlylC24QNsUmSMWgQg1ghZ03CJ4Jxh0uycfsrQKyDgRoaWGybFkiIboX0dpju05+i3+4+QgFigS26qKoEkgX++Ul2+3ab7k507vdwMKPBvkAlS1RZTUvnyk8/fVuK1LpPthy5kIES2w1LEslb3/6x/ZTItJEAVjeT8SCUQ9pp/j4WVZ/qFR5Sa+RdTzigxO3CJnQRP51AVKmYmWI+cu1G/WP1i7Sb79CYfsArAcRA5IBKUXyCUMYbQvm7zHELeBS/9NggJEJ+ASGFPbgYJhA3+3UMG//zBCEccxD/X2uwEHshwjgyj6l6+fOWzN+VfjXJCsiX0MUSN1Nr4enSoQ2t3+297IQGCsVpLIGyzfy+foX6wAviZ+RdTtMhSN/ojm1CrvdoV1S09iAYsETN/sX4g+/wDlheZbTtkUZc5Dl3bpfrHF3QIKlqqZL4MQgLEMVBr2KyOh6ummX8xxYXsdTGHDIZGQBABgSUPKJdi7y77RC5h94G9xy4su90cX26O0MYXJg5YStt8gKcfBSEBshxQHTir5VtUO/jnK79ZH2sb4uRbgd3Rh3JFYODzkP+O8lnkEVcfQElkFIVKeMnib8YiCM3ktfwRM0ICtITC2nuoVIbeCtM0HuWav1elh9lKxxmxhgx+o2CCyB7ldlGBDk5ZXt9ZjhNZRdkH4ByXZCIAB9r2JUL7uOQYhAREsRyQMunV2kPCGnzjdJZuN0wKrfRstwWFvvyVv6uu+fsZnHBkQmGYICAcxzmYVUGpyoxfwNxPP4/zWJcI3NgtOT4CCO1bElGejCAkIILlAMfI0B01CIm188qpjvQvYVah03HmX0wRHjxhUa+FttbezCjKA+c+mFeLvYPsE7no3gdQiKjrXL2LECG0r8eC6GtgBCEBqCwYcinhr9Id6X/VDiLW0JuiwpZh0tqwZrG6z/yLKcv1eyx6Yphe1gCUPu42T7z6i7WX7Esm6UFSIZjWW9XrZRF4bFi8YbM6kgBkMuUsf15DEKv3q6LMpoB/cQWKtfXrYzZXIskKqrRt3Ff8GQX8RC5J7wPIUQHP+rD0kNfrXtPlQgSNDv40QUhA2MsBqSzdqTeaydP5kkDbtvRdw6R9XgeIn+Mw83cqL/NfdkSUa/5elSZim381MR7lBJ+ERZv5vY69vrscJ+Qiyj6ALJX39otnrOVC+/br1d5BScCzI0OSYYa2+gIYOVhvCRhZauUH1L0e23V+dYB/vvJDZS+E2nmVgcpxCDcas1I8+/PlL5/1Aqew2gN+OP0X24TZuMoY8nouahpMy6vaF9Z7Bb0uCput2uavlHCoPgFZ+me9UU2ezrMEUiYN9TpQvB4XBPxhBjj9pf4zXXgxD1wa3rIAlht6L7AJoYlBFYacJ7Krhj4A/4DsLIfg++JV9/g57rqulCMaSXCm3XnIHwFYuc2isEhAyqSungFGDtRbAoZJe/0MmkrHdgkw8wf4n292EgV48GLGLAUhQpVk4uX323sT9V0owF8NwCXvwEvAQATqZzuE6BcvY6nSMcib0WehTbuO8D5n2O2+fpc2JGC93qgmT+dJAumu9J8rDRY/v3ee59/s7zoAnD6j/+y/1ABHyWHMVH4x2HutdHg93zfAoYY5Dq3Yntx3LyUT2Z8scElCex0+adG8jTa9P9UhP6WIW9ZTriR4h+kOLd6S3LGG9OWY2fv9D8EScL6uLX3PE8jIQfpKIJ2ln/gB+HLHdlIAf5CAY59Vh8KE0w6ShkxcY9OgpXYu1hmzl54L7FzsPtb1P9xuey4bmgTFLM9YHX03ae2IGfyCTTYNXmZTrwV2zkrwwTSHMjMd6rvIzvnQzN9UPVa1wyf8g79LFrhJQMqkv9cX2eTJPEnAyFDrcqDu9TdzdvCZP8DftilR5v+kKUp5XgFo6QPV0QfWbA9OAhAiyBgd8K+eQEYO0lcCqSxd7xXkSx3XpheRZbuG/GBbyxICIAq6OhS0tKO0Y5h9YM3O4AQA1oAlmyxq3aDuS5E2KaUvssmTeZJAqiNdXQrY/eyfuD4Y8LtnIfY/zEEj1xalXKwP7D9u0ZaDFn2y98L/+r1Wzh8DPhn5/6gR4R6DZExYi8VST7Fryj6RS5h9YJWCBQAE4J1JPE7LWD72BDJykL4SqMvQ3/oB+lLH3t3PhfLg2xOnRXGEqThq4doI0dy038o5ek1eY9PAJRecM9+c6NAzIxx6aJBDd/WhnDd5K4ZZ0JUNRDf3oFwkyKNDHXpxtJNLGIUc9yjShLwRK3fYtPOw9O1a6H9hvyPCFd01/SDbyatsaplVn/0DB1q2pz/UF9nkyTxJoE1b+g3DJKsUsPvZv/tEcPDHmWe+Sq53btgDX65/CUCRonXDXotmfXLB+avdtAvgDq9wlGz102ejPBZkARnuXh3rUKfZDo1eadOybckLRZO+eKkvRi2LHQeDEwCs//+ML8Pil1ITwBPE6n9Q2qRVHIpw7hY1AgBHwGqJBIhaMVTr/TCjh/l95Ic2wbv7kSHhJYXhGANBr3FTd6JnRznUZY5DU9fZtFmzdLTV2r+S9F5HPrVo7Y7gBCA70+Ykxwv1RzZ5Qk8SSGfotaCKK/+8SYp+AKAPZxuTlQwoSQokCc+65YBFE1fbhFn9/QP1qxCX39/D/oykN/DY7jbPIYSywV8hCW0ozxhOO207EBz8Z63ncfz7ps9n6ElP4CIH6S+BVAP9zTcNawY3oc5TtAC49oNPP5elgFpRonCsw+wehZaiqrHA0dfjuEbLBiL4GXSe4+SWPyRVdDhAq+PYy639Kzj/PTqEx/HvYr+369rTH+uPbPKEniVgZGiyqlLbc9KFcLVtsyVWAB2VEMczYRaLam9IjIQqh6p9rpbPb5GlnAxhIUDEAkzEHG0k19BPjh/vDj777z2f1fRPRoZGeAYWOTAZEmiRpf9pmGQHVaiIAvBb9rccTThzNn4rACpwrd1t0Uc7bEI5YFGMwWSA9WwUT4I5G45wQfuYnFdedrf1opyfxMyPbQlRVCBDGOsY8xj7Oiy7BCkC5EYILNxo0bVdy/cbn+OqGRbjZKCaPKUvCTw0mJb47AzfKHPVPACFZABk4mQMYYHwMJ+w2qbHhzmE/OH58oCJGuZXxIALGSgvA4TioVASaiOkFZaV8uUvny/vj+XkcXVnIoQ+Tl8vKae9jFWEaSIyo3AZCvU6oAvglwLd4OVanMccOmHRagXTP8JSy/UTv7+ls9TLF6jIwcmRQHYm/eXNPfyHBD41Qj0TYCEBwPdzEVcH3HzAygFWpUFxbReiqRrXDudUQH6uhYQ6AvreQbpSP+P6Hf217aQLfgMHT0QPYn76UBzHTlln0zVdKrcbyCx0RJTPuGFPcNP/8GU2N/k++tMs/afkIJo8qW8JjF1Lr6AevVfl8/OBRJ9+WQy+efZ9/mU0SwEw993c3ft7I94czmtRKgMd74UwvUlrbXp+9LctJl77kBznvd+pygqRBeZMJ2fe1rE/Rf1MGMN+ckdAR0BXRPGcuwNW/oP5f9lmi9r05O1XaZNu8w0ockLyJLD9KM15YnjlzvP2VKIvGnmAvtRVkCL4+KlwBxwGNOKw/SpXeGUjkUsUykC3e2CNtMMMh/yQRb/yleP990k/MoNn+KiPbIKvi279K4rnQcVOmPj9yAzHQleETQJQ9niNQsx/24m8pn/DpCnJQzJ54kASIKI/dIhOL99F9NYUolt7XRgkWBO/px8RKv9tOVIKsvn3N54LLypg3R4rl8rVrxJwj0dq2Vrxvob5ePwqmx4ezK5cfCthV/6y9Q9ghTKDv8B7Ux1atbO2yCxM+oWy8PodlpTVu8KT16Z9wU3/E1fZhAgRr+/i4bgvWjTQnwQCEzkpmRL42gfviUIo5/TyL7x2pe+nzvAPtqAz/8IBgxCsKGYscd1j+yGLeiywlYhSoczkO6uCZlH2cNZ8eoRDsz6u/pBCWO5U+2BYloB9R4ODP9L93ts3OLEpKhNJ+pNMEFd5aiL6LhEtrQTMUf2OcsOcaYK5wB8DBuAYFziHeV8UsUGCHo6iOUUVi0QHKINQWHK9uy/lihnpEAYXRh9H7gQO2bGTgJMWrVUo95udoU5s8uWSNmlF27b0XRUskXMTKgEi+lsiaooK5CvdhytNsKrZP3+A4DPW28JQUnFdc+lWm14YLeF7he1ci9/h49F9vk27j1SXn8AbE3gIAPoE53LAVsV0v8x5Ns4jP0xC4Usem0MCX1sC3q4EzFH+rpommHPm7wLCS2OqgwAs2nzBm999L9nqZ6aPq03gJ4DsjdWSA+MqI83kAAAgAElEQVQl5vh4DkvA/mMWrVKI+X9sKB+pyfWzDL3DgSFyjQRLgIh+k4g2RQny5e6FNMHHAmb5CgP8MVDenZJsAoDUvMy5wlnMq3GBndy3NPFBvHzXucknAu9MYQZLhuiAj3cFX/tnT/dr0ra6tvS9BEOXPDqXBIjoJ8Sb6bccxlf87cxX/tfcuc3++SCR1HwAKLMLp6/8d6nWzzCN3tDNoTt62fTzfjY9MtiiZ4Y304sjm+mVMc30+tjz9NbE8/TOxf/3J5+jDlMv/eM7fntz3PncsS+PaqYXRjbTE0MteniQRT/ra9PtvWy6oWttVDCERQBLA0kNIRy+gnet3B03QZcDth8MDv4LNlh0nYdERu4zetg6qSz9Hy78kOtUgQSIqFdFZI7oAL9pgsOa+WMgwUEOGfDiWq8Pct+P91j0+oTqWuNHiGqbHjY9OMCiZ4c30xvjzlP7Keeo2+wmGriwkYYujva/7/wm6jTzHIE4/HLseXp6WDP9rN8FgsAcohUrgbulx4WEWIhbD9IX4zoHYxZ5PDyAoe9j/C4HIJmWiun/hVHsJL53FUCWvAKnBIjo+0R0MCKMr3gbr2mCwwR/KI8PpiXH/I9wvnbTnNAUXxjKtNg1McsG0GMWDoDtPruJhi6KFuBVCMXghY3UdVYTvTvxPD0zopnu7WfT1Z3Ylbhv4Coma6/77htwIdVwXIAe5L4Yu17fz+9xfkiASrrfYUt5LRlpkw7X1dN/4MQOuVaVSICIbq6IzBEeUClNcJhmfyiEu/pQIryjMTsbsszmrgoWmvLMV7atOzl0Xz+bXhrVnDPJ91+QHKD3SxJ6z23KERpYMLBUUViMKl8uun5+ZoQTaoKcIEBf6pw9Ry1CuGNYsvSyHACnSrdyn98t0v3CAsP5/OkM3VIlcCWvEYYEiGhChBhf9lbl0gTDzA0Wzjk48q+Fa4NglFIuuuxftMWm+weEN9PJlwnH59YNDv28v0WvjTlPnWcma2bvF/ArHT9oUSOZ08/lLB339EkOIUB63exsJxH+ARjDYeoJ1A7YsK+4njh8wqI1Cl7/IaT7nRQGZsg1q0gCX/sC/AERnSqLzGV+/LyR6LOzZQ7w+VOxNMEHjlu5lMUcgFTsGn7Me3ERAZQ37TDd8VXopNi7RrHvpu5OziEPTneDE2TKrwTg3L/DlwEygvPirT3ZK72xk+WbexCNXunfYTfqMRP2MuH9Ax1CWd/C91JJ9ztplU0tmdP9tjLpv1URVMmrhCUBInrMK07DYW/RNqJfTiBq3enSjBzOcy+MIZq+gajZ9nq14scVpgkesIR3XSwfBL2Y9QoHepTfUZdg2HJv5U3z3yvKz3CCg0Pcr8afpz7zmiJ30OMG5riuB9+Hl0c30+09bTJ4wYCVDKBSZKlZcJRjo9y9wiYBQ5dfToT2HAlu+v9wq0X3MKf7TZv0eFh4IdetMglcTBO8pDgcX9p79HMiL1UF7+1PtOP4pfP8frLz0gQDALE2Hwag6Q7+G/Za9NRwPc39AH2s5bcdf56qeR0/LjIA/wFEG9zVW08ygDDM/ottOqJxtECYJOBn/S85C0NHqaT7zUxnnuBkaLmk+60ykA77dYjob4ioZDHgfZ+Sr+IxV3UmWn/AL/RfOv5s04UBhgpdYYC/zmZ/KNXBy2y6Ks/CEoYMglwTsfEIyRPQj855seecJnphVDPd2E0/MvjoUIfgn1NuNh7nb2GSgM0HLrz3lv3BZ/8z11n0U97wxXOpLP0gbLyQ61ehBIio7SUIvvTp7Dmie/r7n4Xf2J3o+BeXruP3E9IET13HTwB0nvmv32vRY8P0UvTXdnFysfi58LyI4+/jmoHret/s9HP02GB20FAi2VgKRFSKrmW0wyIBCzbZlEv3uy04AVApYVyMwKdNersKoUleKQoJXEwTvLkQqAcs8w/+buf8YEbh1bx/b7aIuDN86TzzRwbCfL8KV4ZxbFFK9u4+Nr03+RwNEdDXzq9hwIJGen3cebqlhz5kEctVm/braQ0II4QYZZbXK6T77TmPfXKzpXVn+s0osELuUaUSIKIfEtE3bnxw6EMFsaAglM6qRQnM2MCn4HQF/11HLHp1HN97Bm0rnPfTeqLHh1i5jHu6zoLluS5ffoBV4KEBFumQkRAphSeuvtxBLs4lgPx7c1sC5mywA8f8z99g0bXM6X7TWfpJlcKSvFaUEiCiHu48Hev4KoCCc2dsdK/mf3vglPr98Qy6gj/i+m/txfOOKu10dWcnF58ua/uXg2uSyAZ8BVDLACROpS9wnPveVIf2H9fPGsBFAuAEuXxzcNP/cyN5CX/KpJ5RYoTcq4olQES/56YJnvKxujLpvdg/8Oefcf9AtWfQEfyRzQ/FV+LODnd9VydnSh4UQ379JIFrkp613/ymXFGkqzrzgoxfYoB0wgDc/Fm4Dp85SAAA3G+mP/f4oczpfg2TDrVoR79XxZAkrxa1BIjoGoDwyFVq4AulYc7Oh3P/n+dtCf4MOoL/jkPxh/fBoxzV8mR9P7kz/kqkBKQOeQXirEuASJYxGiYPUiEBWGqZuCqY+X/FVova9Ayuz4qRsFSGbooaH+R+NSABIhoP832xTudnH5wIVf/azfD/HDp6+3+43abbYjT5X9/FySXsEeCvXuAvJAYDFjbSi6OaCWmZ/YxbzmPfnuzQQc2WBIKSgPenBJ/9N8xid/ybUANQJK8YhwSI6A+3HKEzqopg4TZV+CdqPE/07GjvJAAsWzfz49iVNmHtUFWeQc7HGj8Sy6ByXSFAyPfakAkiB54b0UzI7R+kD6meg5C3rZqV2kZ0wB0+Eo39aoJDHwUM+1uyyaLreB3/ThtZ+qM4sEHuWSMS+Dop36N+BkihkkBYG/IIcPzZDlG3+U5ZBYaog1fHOrTtkD5rj8gb3mFGPLMvKHsofeSdF6AXGaAPIMvgLwZZsaQbvqUn0fLtekUJoIJf20lO2SgKLCUiJbe7jh9ky57xz6RHawSG5DXjkgARfWf4R7S9ENi9fu9TMcGwP2qANMEb91vUbZ5Njw9zch708KJHDLI509Guoh+UyxMxJPZBHP8DAyzqNVdy8wvxKU58Os08dyHVsBmtRQBWsHEa+gWs32NRn4U2vTTaoYcHO4Qsh29Ncmj8qgsJf9bsCO71D8JwR2/WScBSSfcbFyrW2H0/PUM/eGYU2V5B3z3uvgF8s/98mvDlV5fycOvgVVzqGZDLP8z65K6cC7dteti5srMCfMWBT+RyuVzenXierunCCk6elhhQYljnWgL543qbQrpfgP+4j1jX/pta1NPf1RgMyevGKYFDp6ndw0O8zxTu7EN0MHCR4Xy4//ZnxyE6fkofE3++onA/L99m040KCZQKQd3Ld8R/vzZGPPsF4C8HeC/ygH/Ak0Oby5rBvfRBv8e8Nk4/50B3DLtbLOGtCrju7y4VwHfAr2zKHP+rOLFA7l2DEiCi32g8T5uzc6iskoDpue1kolNffRu4OfecOavXOqKrLLCdtj76lL4oxyvmfv/A5wUca+kYLAvc1ot1tloR+LCUh2yY+WNIp8/bD6qZ/kEC7u3HRgA2SbrfGgRgHV6ZiH6ENMH7PyPqv5ToyRFEt/WmXFzro0OJeiwk2nqUE+ZLX8uySEuFgSp+UaZkhXf/O5POi4Of1Cvg6wOLGunV0dFGC6C8rltdTyfwx7OsVVz7X7rZopZZ79bTMjN/O1VPP9YBC+QZalQCRDSmNCxH+8sJzZYB4JhYZvCy/wYnP2R9q6UZqrxrdFaObrObCOWfo+rTCN1ds0svSwByF7hm/KDbkct5ZJgyqW+Nwo68ti4S+JoA/CC/WFC0kH/53U6f0WMZAGVQs7PYTHwVFW7rTg69PUFm/UIGwicDSBj18qjmyFJWX9uVaNk2PcY1Zv+7DqkTAKaqf1aLBvoTXXBAnqOGJUBEGy6H4ni+6RANAC/mD6ZFB/739LFzcdwCfuGDn8j4koy7zGqim7pH089RUXDxFj1IgKr3P6wGTPH/K2sYcuTVdZIAEfWNB/Ivv+tXTfGGA6Kgz68mRqMUW9QTvTK6WXL3y1p/bEs+qC3wyGCrooWKY8kANQQWboqfBGzep24BeItBR6RN6qcTBsiz1LAEiKjD5VAcz7fGGAkAQoNeHRcN+F/X1aH66ediU/wyE740ExZZNNI7E89HktIaWUTnbYyXBGxiIABvjFfXE6ksvVfDkCOvrpMEiKhLPJB/+V3PxkQAMPN/nTeut+Ss6r5+tjj6yaxfO/LXY04TIeEUx2y/3DWQNXD2hvhIAIcF4J1JDARAHAB1gsDafRYi+m4t+wDA4Q/pQcspLY7fkE8BzldStU9m37paHbAk8NDA8JcEftoQnyVg6wH1JYD2U1mI0sLaRR15c20kQERtLp+Hx/ct6igAgH8UDn9XNjjUfoqY/HUFPnmuy0kZcgaEnfsCjoFxRAeglkfQ8D/3vM6zWQhA80/q6Q+0AQJ5kNqTAAoDEdG6+CD/8jufPB1tzHAUoX43dnMI8dcCMpeDjMhDb3l0nHqOruoUrmUMIYKrdka7HMCRB2AUUx4AI0vZ2kMdeWNtJEBE110OwfF9izoTYLd54So3LBvc09em/gv0VvQCxNI+pfpA99lNdEO3cMfJzT2IPt4TLfFft1PNCrB4o0VY0mNYGjyXNumvtQEEeZDakgARLYsP8i+/c5Q5AFAHnGHwlr3GY4MtWe8XZ7/EW376LWiiO3qHO15u70205UB0JGAbgx/ALT1YCAB0yJTaQh15Wy0kQEStLofg+L5FWQ1wxno71CxomBm8OLI58Yq/1Kwwjv2DFjXmkiUheU3DjHOX/Xecdo46TD1HmannCIVv4M0O0Bq8SGb2XG0F+T84IFznwPsGOLTnaDQk4NBJ9WqAr43ls4ykMvRTLUBBHqI2JHBx7V+b2f/ZxmgSAK3YbhMSkoQ1+4fj1K/GS0pfP8CDsrUAbhRAAnF6eKBF9/a16daeNiFfAkoiB22vVvVEV3dy6ObuDqG64uNDLHp5dHPuXsjD0Gee+GZ4bStErzw9vDlwW3hpw2dHOYR8HFEUD9q6X20ZgKsewEW5bKprS79WG+gjbxm7BIjo1vjm+5ffOarZ/4Z9Ft3UPTiYVFJgABvx9C896waAwBmy7fjzOSC+s7dNqHxYSa5h/446DHf3senpYc25egw5h02xHpS0YL00qplr/bto2yMqJwoCcPiERasVqgJ+tNWi67ry6ZOUSU/FDgzyANUvASL6HhHt/qKRaMxqotcmEN3Tn+iuvkRPDCfqtoBox/HLQTrMb1+cDd8LGKE/d/flG6yFoIS4ZnOahPnlzyYxs/9g8jl6bkRzbkaPUMhCuen6HVYHrHs/O6KZsMSA+Pj8d6v1z6+PO08GTzncon1iwJLwdQJIxg7FwkBv8+YP+Szdlf5z9SOQvGGsErBtem3sGiKk5SyngN+YRHTqbJjQTwTP/2OfhmvyQ5a/p0eEBz6YQWJdutZBAe+PNXqY2O/qY4ceR16u73L/BusOrASY/aKtJZlTI7014XxobYyltGnrwycByAOyblfwpYAFGyxq3VBej/rsi/WxgoPcvLolcOIs/cE70+i8107ZphfRwc/CIwGnvgh/kIcZ64/15c4za3gdeVEjtZt8jhDxgPV6r/0q6cdd1dnJvTOsA7VMBt6fdJ5Q1CqM9oSvThQ5AvYeDU4AkBiIozBQnvyapERwdWNwrG/39lRan9fZPA3cO/sQfdnETwLOnQ9/rW/Caju09UqAf9dZtQv+cNpDkiO//anajkc/gHNhrZKBd0ECQloOgO7ZfSRcCyGWAjbsCU4CYAVAVkOufi1VAmOFyOq9+esTqFXLgGy9YS4/ATh5OtzZ/0c77NAqnLVucHLm7lo0+2PG+9SwcL3BuZRp1Ne5prNDz4xopp5zaosYggwyJcb5FpC+NNohmOrDdAzMZQfcHpwEZGey5kmw6jL0t9WLRPJmsUjAMGlaUIUIJ7dTX/GRgLDD/nYetui23nysPF9ukEUtr/mHHQqWL+vEfs5SLuzwA9R/qJGIAvgEhEUCei0Md7IAcrFFoUzwiq0W3d6LUd9kaUwsICE3rU4JpDrSv6gq0ykf8xCAsMP+jpy06NmR4Zim4QxWy97+MHOH6f2t2kd1PP/6Lg69OKq5JkpAvzkuHBKAJYY5IZcQzoUFKlgBhixhtQI4dVn6x+pEI3mryCVgZGm6qnI0Z/MQgLBT/vZdyDoQvzFJwtkJGedq0ezvvjM84VX7Ua2eD8vRM8Obqc/86l4eANkJo42v70a0eX+4SwGqyYEeG8I68ZgVOVDIDatPAnUm/ZBjQP5qsjoBsB2i45+FN4hRXhSzdI73zb8GTJswcbpAWIvbXnObZPbPUAAG/fOpoc1VnYXwiaHhpA1+fJhDsPCF5Q+AkGGV5EDT1lrUktEhErq7+hBJ3ihSCaRMmpEPZkE/vz1FnQCcCTHpD/KI39GHH/whL8R/1yLo578zQr6C9h0579v9EkTgyaFWdRKBRY30QP9wSEDvBeH6A2xXLBT0xnhWK4AUCooULavsZul6+hGX8h24XI0A2DbRsRBn/29MZB1434AdQrzygbBWP782RggA11jKvw6WBkAwUXCnmvoW3ueuEKoIgjgt3x4eCUDEwRqFFMELPrEqJlnLb/8Kn52USX9fZbAkrxOVBDjW/t0OuuGgGgH4/MvwBu2YleGsTd/Xz67pRC/5gPTLsUIA3LEQxvaGbg7BypIv86R/RlXG60NIEHVXH6K9x8JbCth5MHhIIJIDvTeZcTKSoVFR4YXcp4okkO5I/8swyeFQVvcNIHIU8D/M2f+m/byJOFx53dTdIeSzT7oS5np+OEC6spHtt036XDKBoyVSKnO1W9zXQbIsWDm45ONe5+3JISYSO2nRWgUrwJJNFl3bhe2drVQD/U0VQZO8ShQSSJs0yB0sqtvZmxTQn4jCKvgDc10YIX/I7999dvUoYQ4Q6L+gMRQHS9W+WY3nI+wN1QmrpQgR8iGEkSNgRoj1ArYrWgHMGaxWyQFRYIbco0okUNee/tgw6RyHcry3PxG894P+4dyw1v5Hfsg6yHKzFCiqdkjgslhm/4UyeHRwOI5dXvppOku5lKs3fB0OdmtPonv6Ot/8IwnLLT0u/N/QlUJLTevlOTmPQarl+unV0RdfGcMfHnhLTyI4/4YRFYBoA5WIgOWbLbqRr/z4eSNDf1ol8CSvEbYEDJM6cimiuZuDQv+F8858Fc7aP2KCr+Ezs31jokQ1u0Lgk+8XyBBCAZEGmatvFV4H5OuFUQ5lptvUe75No1fYNHOdRcu3+F+TXbjRoqlrrNw1+i20c9d8daxDDw50OBVzaLJwZQOZIH9ANTgJPjCAn0C+PzW8pYBtilaArnNYJygdw8YNuX4VSKB1Z/q+YdJpV4GobLH2rzL7R9a/sGb/z47iB6Kf97fE6a+C5QPWkTDMuW4/va+/Q1hDhTNVmP/LNls09kOb6mfa9PxIJ2dVCPO93PcLuoVPStJTUMOnBs6OQWVQ7Dy02YJN4UwycnkBFLIDrtjCagU4VdeN/n0VQJS8QpgSMEx6odhACbJv3ha12X9YWf/C8PpHOVusc8tsv7IM2o4PJ+Wr20cfGOAEmvWrEoZFGy0avNim18dfIATu8+iyhW/Aq6ObE01S4eAYtChZqXZA1cD9x8NZClDNDgiCWeq5/e5Pm/R4mNgh1064BOra0q+lTNrvt2MVOz7n+a+w9p/L+R9C3P+uwxZhHbjYMwfdhzS/SZ9dRU1cwiYBvxjs0I6DFsEZa/2ucK0BpYjDrHUWdZlt0+NDHa0cIO/vbyU6QqXtBP6Q0vrZ4SwFHDpp0SoFaxQsTdd1ZdNX29q2pe8mHKbk8cOSQDpDNwQFwcLzZm5Um/1/1RTOgPxgGq8JEe/96pjqir+OigxEQQJcJ69DJyzaeciiDbvVFHIpsK+0H9aBbnNteniQQ3BILBwvUX+Hg2CSwwUfHsTrD9CygWjt7nCsAJsUKgWiX3WczmcFSHWkq8PCD7luwiVgmDSLQxHd2ouo2VIjACdP86/LfbjDZvfwlmQ/lU3+5QhFmGVg0ZdhCXBJgOvtDTIA68C6mCwD8z6xCDXgb+sZLxFAVryk1qiAPwAqJXLoK/caCAl2+wjn9sAxNQsUfFqu7szTV1IZmpNwmJLHD0MCLTvQX3El/hm5Ug38z53nH4iI+QcYuIOdY3tVJ6c6c7FXcOQrB+hBfouDBLgK/sBxi7Z8nQxqlYKzVqXZf6nfP9pm0fBlNj0xLF6rwJPDmmloAlMJm9P5HUqnruOfeKCvfbJbjQQwZgd0Uln6QRgYItdMsARSJpkcoIjQui+b1AjAqS/4B2EYMf/vVlnq1SDgzXVOnCQAChoe27AKrN2ppqhLgX2l/bPXW9R2okOtQ8h652Vco/hOEkMFnxnBmx/gtt5EIIUuQeTa7jmi1q9QI6AVV9/IUkOCoUoenVsCP8rSbxkmfepFUVQ6psdCNfC3LOIffEf5Hf8eGihFfrjA371O3CQAyh6Wot1H4nMcRP6BdyY7nAVhPFu9UHyn3/xkZbAcvKiR2vTgWyOHfus+n38Cgr61TpFcvjSayYKZoZN1bel73Dgi10uoBIws/bwSsHv5HWuKx79QIwBhpP3tPIdp4Fys535tFwn5c0Gbe6sDCXBnfZi1xRVBAKdBmH1bd+JZ+/UyfnHMzd0dQsIm7nYN83qdZp5j9e25soFo8wF+K8COQ2pWgEmrGIlOhu5IKFzJY3NLIG3SCq8Kotxx705TA/8wQv+2HLAIA7rcc/v97b3J1ZFeNUylrHJtnUgAyECcRACm31fGROsjcE2X5EUIcC8FvDuF3w8Jy0wqIYFYRkImSr/6qujxWZrHjSNyvQRKgNP5T7Xkbxihf+9MYRowF2f/iKFWATc511vUwDuTzrPO6gqV4AMDHUJOCHe272W7+7BFaxTNuJV8AUr9Pm2NRY8wO7EWyiT/+5UNycocCP8FhDbmv4PKZyRNCiMscNNeNSvAgMVsVgCnLkt/mUDIkkfmlEAqS++pDBT33AcGqc3+cfann/OuvWEAc2YNQ1nS3gkzjyaZcLw1MdyMgYgKwXq/F/B3j0GRl22IGlBI7lIK5L3sR10C7kRW7hgu3F7dKVmWAEQFGIw5Fl4Zx28F2HtUjQB8tNWiNkzho2mT3ufEErlWwiSArFCGSfsKB36Q75PWqxEA5A1wlSzX9kUup5mLs/9fjpWEP1ETCh1JAPoncgls2KOmzL0AfrFj4B+AokdBxqnfc67q7FDXWcnxCXiEMUEQ6gQs3847KUHfUXUGRLErv+1Y7Pi0SYfbjKZ/lzDYksflkoDRkYxiHcPvPoT+nT2nRgC4nf+WbOUZJK4sbu1pJzJWOmrADuN+upIAKHP4B6zZEQ8RGLzEjqQy4dWdHeo2OxkkoM/8JsLyhTtuVbdPDee3AiA9dTFi53Xf/A2Mls0steLCE7lOwiSQytBA1QGC8zvNVQN/lAw4zpz3/3nG2T9mAtkqqaseBkBHcU2dSQCcuzYrpnv1qvwLj1u80cpVI+QYx+WuAcfA7nOSQQKQmrvcu/j9jbta4OETFq1UTDz19HA2kjMgYbAlj8shgVYd6XcMk874HQzFjt99Qo0ANJ7jZdlI+ctZmvWhAeL4FwXIV7rH2xP08wnIX66CNWB1TNaA7nNtgo9KsfHJtQ+lePsmIE8AcgMgnJHrvZ8ewauf0Gc2KjoDDlvKZuH8XHICcCBqwq6RztBdHAPkF0PUwB9nc2f+e2Us3+CHE2HS4qIrAWmSf9edBKD6W1y+AYgTv5XJQayUbrijl02DFnqL5Iizn2WmnmMjAJDF8m28vgAgi4XWHD/f4Qx4c3cewpcy6eaEwZc8rqoE0iZNLDXI/ewft1aNANgO0bFP/Xli58+6Cj+v3mWzVlt7YWSzhP1FXBugEnDoTgLQJ5FWOI76Aigcw2geLgqiDw6waIhmfaJYn0GhLj+6rNyxL41htgKcVLcWfTCV5/3SJo1VxRM5P0ESaN2Zvm+Y1Fiuw3v5DZn/Tn2lRgC4Y/9fn8A3+4fz08AEzHaKKb9q35cEErDvqEVrFNd6/cwK3WNRZOjdyXzjoJgueHaE/sQY5Y65lgJxHUwuCiccKt9V/UbmrLe4JjuNLdrR7yUIwuRRVSSQytKdxQa1331vTFQDf5z9GWPhn0/2WqzJYyTsT29T79sa5gkoBISDJ+JLJ9xjrs2aB6NQP/xqvP5hsb9gDAt8YyKvFUA1JwAI30OD2IjefSqYIucmSAKGSRMKB3OQ74u3qxEA2+aN/e84g20w0HVdHRoss3/tlz9AApC1LUj/9XJOkGRBhSQABYZUnb7c2b3f7YhlNlst+UJ5tagnqp+hd1ps+O9wJQPDdTbu41uuRD9RDSHtNodnGcDI0OQEQZg8alAJ/Lg9/S6H+R/ZyJC8R+XvbCMfo95z1GJVdG0TMLupdjO/1/dLAgmAst+mGP/tF/zd46estun6ruGQJBDl/gv0thQ9OYyvZHD9bD6dhT6xdb+aMyCSQmEptpCcBfj+FSLDguKKnJcQCRgZuiNA5/hWBzNnq0D/hXM5U/8O5AuLoZu6O4lwcvIKkLVwXFJIAOoPxOEcOG0tf0lsV4/oXh+jz7wmLpCk67sR7T/OZwXYf0yNAIDkPTmUyfKZpRsTAmPymEElAI9Pd+CqbFfvVSMAnOZ/5Ge/szcLC84RHVSjqwXQrLZ3fCcBywGY9SEELI5aAtPXWqFlDnxtjN5j5smh1rcmMUH138gPeZ0BVZcB+i7gWQZAYriguCLnJUAC/9CLft0w6XTQju+eB/O/ZasRgLNNfKa0aet5BgDe73qs/S/S26RZbcDN+T7vhkwCglQRBOgX/u87ph4G5pr4/Wxnrbfolh58ZNnVCfDDaNDYHwC+AFy+IkiHsmoAACAASURBVPcP4NNd6Beq0QDLN1vUuhNDm2boZF1b+rUEQJk8YhAJpE1KuQNWZdtxlhr442xO739k6lJ5n/xz3xin90yGEyyr9VpJsQTA/Ls6hjDBmeusUHwCkClwgMb+AI8O5rMCLNrMZwXgiAZ4diSTDszQ/w6CLXJOAiRgmNQxH+yCfl65R40AOIzJf+CVm2byAke+c9QVr1ZgrKX3SgoJOHA8HkvAxJU2z6zxYqVMV5c8PkTftNk95/DlBXhjAp8VAEuYqimk2ZYBTDITAGXyiEEkYJi00R2oQbdwgmlWNP9z5v7vNo/P/P/yaP2Tm9QSiKu+6zuT9A8RhAk4txwQgyVg+LIQ8gRkicxp+oYG3j+AxwpwZQPRriPfXtopXOrx+n2TYjEpZIBkCXfM0NYg2CLnaC4BI0N/GhT0889rP1Nt9o+zT5/hMZ+BOd/Wi2Ht6+tc3wil0T2cSRUQa/H8xJCAr8NY43AM7D2ft3AWdMVN3Rxt6wWY0/lqBAxbzqPHQBJ2H1aPBnhkMM8yQIsG+hPN4Uwez68EDJMezQfyoJ8XbVMnAMeYSv/O3cg3+39ssL6my1oEbs53TgoJiCs6oD1TTvl8naJzquBbe/LoDSSJ8jrDr3QcSkqrlgjuPJvnvVIm3e8XX+R4zSWATE/5AzTIZ5iYzjSpEYDzzXyDButwQd6j8Bzk+e46Kxm1zjmBsZaulRQSsPOQ+kzQT1QAjkXtALZY8os+AfC47zxTzzGFOhKFOiDo97W7+ZYBPt6t1vZzP7Z4ah9kaITmcCaP50cCCO0wTPo8aCd3z3tmlBr44+wvv+IhALuPWIR1OPfZVLZ397HF8S8B1d1UCUtSHANVs8P5JQA4fvFGi72UMGbaQzV0qkWY7zWdeSYPnJkBOTJF3tuX5b2Ot21L3/WDMXKsxhKoM+mHKgDpnjtipToB4Mr+N3olj7kL7/beZH2dllRBT86/PKojKSRgw1612WAQEoCUwa2ZSLWrM3RNqvXscJ70wMipAF+kSiZ+L79zZAV8j6sKZD39fxpDmjyaHwmkM/SaOyBVtruOqxEAhP95GQhejnl+NAvTJZT8lcQ/l4NktZOGJJAAFBBavyt6EtCHKaucq2eu7aJnSe3us/lCAhcy5QRAm6uGA45ewTMxSmfoJT8YI8dqLAHDpEXugAy6va03kaOG/9R0nsf8j/CblkwzlaeHSehftQN+sfdLAgnI5QiIITzwOa6kMhf9AV4apecYu6sPD1h2mM6j1zDxUbX8rNjKkxUwlaUFGkOaPJpXCbTqSH9umOQEBX73PI7sf1+c5QmbGf0Rz8DFu3WbraejUjHQkn28loqw0wZzlBKGr0sQc77KOagwd2N3Hv8ajLGfNhD1ma/fOONyBrylJxFm714sl5WO4XACfYynOJBdV09/5hVn5DhNJWBkaJQL4irbOZsVp/9EdPI0zyB5bhSP+f92OCnVgPObvGNp4pAEErD1QPQkYNhS3vwAOmYIRNbP1p14dMmSrTyTm0PH1du6fibPBCll0lBNYU0ey4sEUhl6WAX08889eUaNADRbPGYylFPlMv+/Plby/gs5aCTdSQCczD6OwR/gl+N4wBF6BGGB3efoZwV4ZBBPZsDMTB79BguBqu/HtDU875TT/1n6uReskWM0kgBCOAyTXuAw/aMT3DdADfxx9pmveBjyuFU87BYKqd8C/RSSAHLp2XqYstGdBBw8btGqiP0BlmzmXQpAMZ4w2zDItTtM5ckMeGsvvmWAHQfVrQA38S3hNKdNelwjeJNHKSUBlPtNm3SNYdJH+bN31c99lqgRAHj/H2fK/vfmRJ5Zyb39xPwfRGFW8znval47gAMY/PoG9F3IQ7ihg0C6e8/Ti3QPWcyXE2DVTp5JDrICqkYDvDmeR0/mYcfcFh2p7gqi75TCH9kfsQRad6bfNEz613SWnjeyNM4w6UReg7EkycH1Nh9WIwBcs3+YQm/oxuOc9KvxYv6vZjAP+m66k4ANe9Rnh35JwEOD+MBEx6ibJ4bymMz7LuIhAFgG2Kbo9zH2Qz7iVoApx4wsjUmb9BywBxgUMezV7u2MLP1RyqSbUyaZRoaWGyY1FTQOG+i71723v1r4X7NFxJX7f9k2nk6NmYgU/onH1B4UmKM8T2cScOiERasjXgqYutqilkwltxERoNvYy87gWQZ4cjifH8DRkxatU/D7QHrnm/mWAcrhSlMOi7KUNUxqU9ee/rh2EZrxzWHOT3Wkf0ln6OmUSSMNk/a5oBzldvza4LN/mP5PnuZjxVylf+8T8792a7FRAryXe+lMAuJYCniTqe4GdNeLIzXLC7CoMZcQTFWvwjl57zGeSCdYAZAHQqVCZGY6z4TJr1y+Lia0/2L02TPIQtumLf0GIzRW56V+Uk9/YGTpRsOkjoZJSw2TGv0Knvv467oSnT0XnACc+oIP/DEgHmYqd/nGODH/ewHBWj9GVxIQR5bAhRt5EsxAR13VWb9ywY8M5lkGmLaeV+flKkQGtPgs22wRdDg3LgS4HrBsqZGhTCpDN7VsT39YnSju8a1yznoZ+qeUSU8ZJg03TNobQKihN+y4NcHAHzP/U2d4BwLC/9IMZkhU/us9Vy9HpFoHWp3fX1cSwJE33q8vwPtT+HwBkIRHp3Z/fzLPMsAH0xiXAS4mF9p9OLglwJwRjxXAA57tMzI0IoeBWfpnYKJH+EzeYXUd6PfTGbohnaEOhkmLDZO+8iCg0AG+3DPcP5DIsv0TAJzDVfAHs373H8y63PN6/a1ND/H+10nxJuFZdCUBm/dF6xCIioFXd+aZUSINr05tP2hhI6HcuVc9Uuq4O/vw1TtxdR+2IHxrdvhv7+WbLbq9t/p7lXpfxv1fpUxaAowEVgIzk4f0V1xxBZhMXZb+0cjQk4ZJw1Im7WYUknIH9fIsrRqIth7xD/5nGx02h7/8zo/P5kye2cdzIzRbfyzIRNhvfhNlp58jgE77qeeo55wmQqiSTsqyFp8lbBKA5a19PtePDyFcLKB52O/s3z2+wzQeIg5LHAry6NSX4BvkRT9WOmbboUsTl0I9pvIdUVBb9vvPBzFhpc3mxFnp3Tl/v4idw4ClwFSUtdeOFKQb6L+CsaRMan9xdn+WUwhxXGvMau/gD3M/gP/EqXA6vTtgHmQKRaqfoWfpX3P6Ofp5fysXK13Y5jd1d+iXY8/T4IVCBOIEjPdCzhPwxgT/5mPVcDEX2L1ul2626NouPDNKlOSNsz0L7/3amPMsBGDSWt7lT1cHulukC96631+ugA+m8pCbQt0U8XdgKwrbtUtl6fpWHem/RE4IUg30N0aGHjSyNNgwaWfEAmDpoOWe+b1p5cP+APjnmh36stGhz5id/NwOXriFZy2Hee7KBke72TRKESM22vDg33BbL5t6if9CrKARNgmYsNofeGBWGMQ07BXwix33DlPN+Ws0K8XddVYTi37lTAtcqAvzv8MZFFYjkMANu8tbgz7aatEzw3msqOXwI4bfgMFDDJMeNTL0p6EQgp9m6T9ddNj7JIYXZOmUXp771fFEzQXr/rZNuTK+Z87aubX9Y3nr8vmdMczPszfwsFcdw//8eh/Dg7rLLL1Mp4UzqWr/HiYJeGCgfysARwW5YkBfat/cj/nyArw3WS+L3DVd1EES1sow9WG5ayNl9M7DFsE/ZN3Oy30Glm+x6GEmS6oXPInjmHSG1qVMerV1Z/q+MhnIeetfyHj0eRwvE+U9fzmBqKmZ6HyzkzPpn/7SDt2sX64j5//WeY76oIQsXx2jl8kRZv0gbXx1JyEBcZOMMEnAml0+l9NOWrS2QNmXAm+u/c+N5BmTDw7Qqz7AwwzFgWCt9OvPka/vOD8jrfDeoxetBHssWrbFIpDMIHonYed8amTolbq29L1ARKBFPf2dYdLGhL10oIbNzHLoxGk7NAc+1Q79zAieDtt5pj4z54ELGwlAHrR/CQmI3x/i/ZB8Aiau8bcMgPEVtRVg/Ec8VjlkBkRZ3rgJnXt/pAgPOibzz5u70X8bqupJL+dj2WDvEYve4K8VwCK3fBkyfV6fNumvfZGAVIZ+aph0iukBdBUMXdOFaMxKPTtqfme+niH//1WdHBqqkaJBMiLV/iUkIH7gyJEAhvCx/L7Qb7H/MQnFrlpAxq914L7+wQls/vt+MEWfZQCULM5/tqCfOesC5OtCzs/oZ4j4CvqOCTrvi5RJ13kiAUaGWhsmNSfo5QI14POjHdq036epMYb1fzwjR1votv6PaoQc7yUkoPpIwKiP/BMAAEPUEQGdZvP04UcG6bMMgJBbFcucO6ZfDxDRwQnuXq+1drdFjw3jIXLuu2u6PYeJfVkS0MKk/9cw6QtNX4AFMO4f4JCu5qlinXYqUwKgF0bps/7PlXTE7adCAqqLBMDptdhYqLTvcMSFgpAemCM6B/1Xp1wXHPkA7u4bTkKgSn0gyO+wHo3+yCYkMXJ1SpVuz6K+TlEScG0v+u0kJu3x0lCt6oleHefQgk3BFEuQTsV1Tte5POwUSXXcdb64t1xpR/PbXkhA/CTg+RHNygoUCXLgxR10/ESdHfBJptljx2n6jM+XRqq3IyqO6uII6LUvIaR06jqbHh3Ko3Pz9ZM2n7O0HVj/LRJwMU2v8gDW5UVv6Un0xkSHJq62afeR4ArFa+cJ6zgsVajKFEoVGfbiBn73/o8xFR4plAtIgE6Oju771srWb0hnYfvh+12KqWRRQc7vWr7K8QMW8SwDPDVUHwtdx6k8dQGWbE3ehMvV45v3WzRsuU0vjHboqk7VZRlIm9TpMgLQsgP9VZLX/THDRyrRjjMcggcxGs9tyKRvQWSKKUo/+27o5mgD/gDDaxlijUu9v5CA+CwByNhYql287m87UT2G/OPd0ZGAFVt46gPc2lOf2gD9FzQSJg1e26zUcUOWJZcA5OPGoRMWfbjDJrwP+idIaql3Tsj+5rp6+rNvSICRpYaEPHhO8Dd1J3ppjEN9F9q0cLNN+49XD+DndzyY0DgGok6xxpihh93XhARETwIAGl6yOVZq+6HL1UEDSwgqs3q/53JkmMM4H7Ag+nYrZZ26noGkh1EZMF8/xvkZfWzGepu6zHHoqeEOW5GoSuOD7fcsNeQIQKuO9DuGSafZLszAHPOfBU42SNzQbppD41batGFvdYJ9sc784XYe8+KLI/UxL74yRn19Mb9/lPqMsEdZDogOUNpN4TEbY6ZVbCz42Rd1SGDPeTzjtJ1GWQE5HAEBjH7aLcnHwn9g1U6bhq+w6a1JDt3Tj1jKt5fSbwz7zwD7r0h1pKsZLsY2q0NsPjpOt3kOTV+f7PV71Q6NvOgcbaNTutH7+/OENXqRS+tODjVoWvyo1MwrqfufZ3Aca92JCOZW1XGD86N0Bpy/wWJR9s9oVBzoueHqRP3WXsmJBODoc4XX2HPUokWbbeqz0Cb4cnHkc/Gi97wekwsLjNP5D7P7h4cQdZpHNHsT1dTsvrCzFPvejWlmoVPZUY5c4147OI4TS0A0VoB7+qqT1SeG8c0Ykf7Vrylf5XiOpEC3a+QH8M5E9URd6SxV7fJsMX1daV/OMrXToh7zbHp1rEN39nZYiKMffVhwbMcrUiYtKdjJMussds0buxMh5/6wD4nW7ydqPH+p7O5XTXyDv1JDJOV3JNMoJkc/++AgqUsGQFTy8/PsXMcKCQiXBCCGHdYW1fbqNJtXB0RZJZCj3CxC55AiWwcrEFdlQJjFk6Jvo3rOfOvUkk0WDV9mU7upNj021GErNe1xLC6+IqySvujMDw4mqp9DNGsT0YHPLoF9sU+nz0hHKeyAHEUrdPIu5phVeOzY3wIjIQHhAUu32TzEbtp6Xh2AaCCVWb2fc0cuV7eAoG9np+uRDwDJujicOiev5W3TQh2ZxO+7KzipTl9rEfxKfjnWobv7OgQsDar3yp6Xpe0gACwOgFjfQDndIR8SrdlHdPZcMZgvve/kaekohZ2ZY83ogf76pBlFrHPZDsnsQFp4LyEB4ZAArgIy2w/xrP+742hfhMsASzdbLIoaNTJ0sADgGTjCdbH+7baHbC/07/3H/BFT9C0QzA7TbHpyqEPXdWUjBKdAAJxCRen3+45jpYHd6y8nTvEO/qR3NiQ04QgB1Mmx6I5ePLMkv/0z/3ghAfwk4LEh6o6ddygmACo23qOOBri3r/oyyOND9CHsd/VWH6+I3irWNrW87yBDsqrJq9TbBtgPAqA8K/ui0SvMlz5OBwIAhaFLToGP96grVbTt62P1mFFgnfinzFXjgvZdIQG8JOBmhgRAyNoZBiggbNiPKV/lWI4Ss3f21ich0KMMGTtfHhNOuwbpK9Dt0PFBzuU8h4MALNrIgw81TwBW77Kp/XSHMAOBwxxA5erOF0IRkQoSjcXZ+F6vtXATC8OjDprUAOgdkwNgKZLQukHyBHCYmpG8hsNSNTikrHE7D0VHAPouUB+zcKbkaBeOa7w0Sn3JDhlaveo87uNgRUViqfxEPdDxd/Ym6jDdIeh+7nt6uZ4QgCKGgKgtAGgEZKqq5GCBWNY4igiN5zHxkC4hgCh2UgqM49oPEtBpph5OVxwKO45rgGBytN+K7eEoY+QVUJnV+zl32hqeWRmiZeJoy8J7vjVBPRQQqcy9gCL3MfM32dSmQhp16H5gwKGIJ3lCAGImADAF+akBDdaIokLcnbTc9foyFRmBN2/hwI7j++vj1JUJB9AUXkNIgFr/QJbJQpn6/X5lA9FBpgRAxcbUup3RkIAVWy1qyeCx3X6KHqSUg7Qj1wuy5BVrl7D2YfLkWnO99MXHhzmRLv0KAYiZAGC90UvHyD/mpw1EYc1Sig2EzEz/z5j/vPgMxRoH2Be751PD1IGi8P24vgsJCE4CftZP3eyN8qvFxgDXvi37oiEAsBbc3lvdp0qXSICuTOGdWw9GRwCWb7MJutqvbuAoQuW1v3IQgMXiAxCsU8Gc77dzuMdjPSsqJ5JfBSAp7nO62xs1qgLIARTue4WxFRLgnwTAsRMOlartkWVOAFSoiHdViLv2Y+avdOzTw9XlgTS8xUh01Pvg36Hatjj/I4b6DoVtWuw7dPMvBgeXP5YNil2Xe58QgBgtAMjJrNKpkduZu0MUu96Lis+Jd9TJoxgliVXkjnPfnuwQR3nkUs8hJMAfCYB/SSlZ+tk/ZV24Y4pD4VYCfvf3dyer9/NfDNInFNCPKb1Um0flQ6XqOP3C6HAtUa6e5+iPYgEIEM6B8rpBzEP5HTs7K5pO4sdHIf/58j8/MEAfRYK1wPxnC/IZ1SDX77WEBCz2B9RhzRzbjufx69gSgYl49Y5olgG6zw1uYXTHxN199AkF5CgLzJ3h0QXSwq2puGwKbIgiDFwIQEwWAOSldgdZ0C0sCIUdL4zvP+uvPpPQJalILq0oQ74JMHzIWkiAHgQA/SvoOHLPuy2iinEb9kRDAIYuVdcxOi3d3dJDXQ+NWRmuhcfVv8+NUn/WNbuCLS27z+Bly0EAUEPAHUMq25rKA4A1HhVh4dyHBkVDAG7poT5j1iULYM85PKbiDfsuDU58Bniotmep869skFLClSwHbXqojycUvPKiNFWP2XogGgLAkaENM9FKso/qdywjlhojXveHleOhsE9AN3t9plLHReEHIAQgJgvA3I3qnRkFego7XhjfURu9VCf1uv+FUXo4EzXMUI8VR7IZDJx8WYslID5LAKrWVcqh4aWfDlwSzexwZ0SOgPM38MzMdKkKeB9DlEfPBdG0MUfxNGBEvo4J47MQACEAZTsZvFk5squ9NkaPNMDtpqgTgBu6FU8ogpTJoToGdpJkQcVmmxmmBEDLtoWvcKHE/RZgcZ36/G4/YsoF0GeeHsmAHhqoTmii8psSAuB/0lhTSwBJsQAgKYqX2VOlY94crwcB4MgohvSdpdi4kIDoLQEcaWJh6o4qCxuS0fgF86DHg6xWGpuVfu8xRw8CwOHngVTrpcYu534hAP77nRAAn85pUSwBIFqhkoLw8vs7k/QgALBEeHnecsfcP6C8EhESEC0J+DmDafiRIeXblBMccK01EUUC3FohBW25fu7+1mWWHgTgSYYS3u9PjaadhQAIASjLNJNiAUDiElcRqGzf04QAcMwWvWSL2wjHQIZMbKVkLo6Bl0jG1RwJgCIKqXWJxCe7o7EC3Nlb3Rmtfroe6YCfZsjg+e4UIQBuH8RWfADEB6AsUdl+iIcAvD9ZDyXCkS/+2VHelIiQgEsgXWztnmMfVwKgSWujWf93le+miEoD/6yfOgHoqEkVz2dGqKfwbjvJ29h12ynoViwAYgEoC6xJsQBs3s9DAD7QhAC8wFAw5pVx3pXIJ3utipXASs3yvexHydZariL41kT1JR3IGf08qLIPcl5UoYAPDlQnALqQ9+cZCABqrwRpL7/n1BQB2MyDEeIDoKEPAGLcvQBRpWPaaUIAnmNQIq+N96dEhASEZwl4Yqh6/4yjTOyOQ9EsATyikI/eHdPvarJ89+IodQuA37HrF/jd44UAiAWgLNOsNQtA+yoyI7461h8BgFIQEhAOCbi1p3o+jVd9WHRcBa+63X0kGgKgUpDGJQC6WO84lu/8WO9U2riWCMBSsQD4Nx8mhQCgfKarCFS2iL/nWPNVvcbTw9VnES8FTMEsJICXBHAlAOq/ONr1fwDLvqPREACOJQBdyPvzDMt3UWV7FAIgFoCqsAAga5kK8Lvn6rKOyOFJrFKDYUMEPgHIdqhKlJJwvjlNPakT+ufiLdETgKiSAd3HUMej4zQ9+pM4AfqfaFayYnBEAYgFIEA1wKRYAPYc5SEA70zUIw8Axyzi2ZH+lwDyB+Km/eGHCNbXAAl4mWFNuFUD0YGCtM75bRXWZw7F6yU50N191Z0As1UUBvie5AG4bGLK0Q+FAFQxAYBydGfxKltk4NNhVvnqaPUlgMeHqREAgAosAbeGWEAI0QHVbgm4v79633x4sHpbBiEJh09EswRwB0MeAF2iTDgSAXWQTIDsBGCZ+AD4N80kxQJw+KS6kgVxeHOcHgQAz6FCZHAuyiMHUfqF5wgJUPMJuKaL+uy2wwyetixs20rfUWPDywxe9Zibuvtfiy0cH7pkAnxssLoukloAl2MVhwVACEAVWwCgyFo2qCuRX47VgwAgJXGhgvP7HUq1koL3+jvCLMUS4J8I9JrLU9Z54uro1//dvrFqW7gk4KNtFrWqVx+7kLUO1ruHBqgTgM5zoiF8teQEKASgygkAR0ERXcoBt2eoBtiynggzOFeRq26FBPgnABxEDsQP2RpV2y/o+aqz+0rnL9qoDpioBDpokf/2CYMw/Iyh5kMvKQd8WX8XC0BMqYDnb1KPX35oUDRs9q4+6rOIJ4c1azGLMKfzeI6jRkJQxV/sPDgG3h5q7QCianIM5EgAdHMPPktOsTattK8SgKv+Pm2NOgFo3eBoMW5BKO7ora4zhy2PxuID3ezXslh4PDCiUh9S/V0IQEwEYPUu9c78QsB4dL+dhqMz/2KQpYUi6Tabx3S8bg8vAUCbwBJwmzgGeuont/dSHz8vj4mGQJcab6oAX+n8kcvVZXRTd30IwC091EF14prwQRXtjVDhQkD3+33tbn4dU9gXhQDERAD2H7cINcj9dor847Ozo1FgCHvLv2+QzyjZGoZZ0O81ByxsVH4XvP+sT8JRJEICKpubYZJukVUbO2jDvovCacNCJVvsexROgH0WqBOAu3rrMW4xzq/rqq6H5myIps3hbBhET7rnXNlABIwo1nc493EQgOUSBRCsoVRZ4qKIEpggf7bbMYNu7+iljyKBWTPoe7jnDVkWniKR5YDLSQAy/iHpz2tjztPDgywWIEA7LtocXhtWUtJHTobrAAjrwPtT1AkAHO/8kuwwjh+yuJHge+OOv6DbD3dE0+YLN6vJPirrrhCAmCwAUBALFfwAkOOb0xGtnMJ6f6o6YN7YTR9TYpseaoMTyifseOJaLSUMRd91dhO1nXCeEPaFtuKY7RcCBrzjo5hhlRpXUeQBeI7BcofY+zAA3e81+83nWbpD6G2pNuHe/8iQ4HozKnIqBCBGAoAO9+ZE/50E5qEPt0fDZPGM3eb5f8ZiCtfvoA/r+J8zJJB5dlT4yy+1QAL6L2gk1IlAqdd7+9mEBEaFfSeM78iRz63w/VyPQ/FW8gG4hyELIKwuYY1DP9dFLgKOfoAiTH7aSeXY5dvtQMu8bSdF1zc5+qEsASiEhGEWgsxyXjs3YvKjcmRxO//wFeozZrwfWLyfQR/WsRwZxe7sE40HOerU38EQhVGqf4FM1keU6hWzeyjytuPP05NDLcpV8mNYyy/1buX2t48oI5w7hgq3yLBZCcBVfkcOgNaKPkaQXwdNqnjiOcq1p5ff0NcL2yHs7xNW275yMQALokxNLQQgZgsAOuCh4xZBIVUydSJMDGtLYXfawuvP/JiHAHSeqQcBwKzGi8Iodwzaat+xaGYTSbUE9J3XRCgChSIucCZTdXot1x5+fxu3MvpxlD+u9oZcDXDOevUQQMi0tyZJgEAa/bZx4fEIZ85vg6g+L9hk020VQnzh34BlRWBBVM+F+7AQgC08fe2KwgYL8v2LxiKI7nPXiVPRNoLb4Gt2WYTUpJhduhm8ru1C9MwIhzALj7pzuM+1cgcPAfhAk5LAeI4gfavwnCjJWBQFhFRqBwxe1JirPQBy9dBAi65n8NgulDfnd5Rmdvt3HFuYolVm+JXOHbBYfcxixhyWFc7vdZFITLX9nx4RnWm9sE8BaJGDAM8AnY53gY4HKek4w6EoQv4KnwnfhQAUIQdxEYD8BoKDX5xOSvnPwlUS+A1N6gH0nseznhh1HfnwowO8FxBCeth3J54nJHhChAeHh7aqgvd6PjJb5vfvOD7vOBguAXh7kvdlxVJyQ64Fv0Ad1vHII1LqOb3uf3tyfASgsI9Bt0flxF147/zvHARgBaMFd7hMPwAAIABJREFUwPHamKWO23W8CKL73KUDAchvpLg/o6NymG+f0sSjGErqagZnM4RHRt02cZAANwzvlTHNhAp8HEV4So3fKPa/GFECrXJ9Y+uBcAkAnBxVZalL8i6MV5BM1feBM3O5NqnF31QJwIqtFo39UL1tDJMcLAGcVm1knH9LT6I3JhGNXEn08QGipmZ/DODTz+NdH9SxI2JZQrVtkMs7rBmC3+ve01e902JdL462ioIEoHjT40MuOOpV8k1R7RdRn987onzw5frGpr3hEYAPt1oE872qXF8erUcIIMb2NZ3VCc3ID0WvF/bJ/cf89cP5n1g0cJFNbSc6dP8Ah2VieLGfngIB2KHaaYudD/PkI0OJOs8jmruZ6PDp8oTg9BnpKIUd5blR6gPwBo1yATwzXH1NEX1t68F41pLDJgHFxlG17Fu2Lf7x/fFuf4q30pp//u8TV6qTW7R1Zto5LQg7LFAoSqTa/1CCvVCv1fr3PYdL90MQyQkrbWqYZRNyStzSQ70NSrZhlraDACwteQBDB8i/NgqBvDGRaEQRK8FXTWIqKhwYmZnqBAAzSTiL+Z2th3H8OxPVvYrRn0bH6E0edohg/nipls9wukIWvsL+HfX3NTtKK958MA/yuX6mOgFoUU8E4A1j7Pm9JqKHOPofxkvU7az7/Tbvu9QPF2B2v9gm+I9gCYnDiuS13VImLbkiZZLp9QTu42Al+MUQok7ziGZvIooyY5TunQTPN5ShsAjaDMV4/CqAMI7vzlQU6I2J8ZJFIQH+ZiWIy457vMGnZtW2S4o3CMiXOwdZQlX1o04OgG9NUCfrV3fmLeEddx9Svf/hkxat2G5T59k2vTDKoVt7+htHqv2ryPkdr0h1pKuL/KDcmYNeE97CcBjCmiFiOaOK+1Zt3DDO5yhfjHZ4d5IemcWQlOZqhnVF9JG4Z5RCArwpr9cnxEvW3HHpd921HNgX/rZ0s0WtGNb/dXLYfXqY+nJd3Jkf3baPa7vjkEUz1tvUeY5DTwxz6KpO3sZMUOz0e146S1de8eP29LuGSV/6PTmq42ElgOPDB9McGrvSpvUxxxJH2Zm2HFAPw0E7ISlMGDP6INd8cCDPO0VVYKRcewsJKK/QXh0bbYa1cm21q8y6ayGg+/0+iCH+H+P0PU2IOsb1vQwOu7+K2VJXrj9w/4bZPXK3wGqL98ayV1QYGfA+Z1p1pN+5An+GSV0CXiSWl8QMEJWbei2sbisBzJYwo6m2DfK9BwHrMM55c5y6aRHy6KmBVzmUiJCAb/fPm7pTLgGLDjHXrqLfuj888/9rY9XN/+jTfebpsVSHcc8RAdBLkzHq9gHOLQglsrV2nevQU8MdFj2tqud9nZ+lhhz45whAB/rvhkmWrwswOwiq3DvfSjAGVoI91eN4wrG2CLN7GGAe5Jo95vA4F903QA/TsksC7qyQdlSlf+t+LsbfAwMvWOmmrrdzmc44lS3HtTbsCY8AcKzlolz2YE0cAJFOmqPPTVkXv+8HR9/BcuOqnXYuMyyKBt3dl1giJDhkHPAazXX19GffEAB8SJnUNeDFWDoL971hJcD6I/KPYy2GoyPEcQ0sfXDIBpn4ggB2GOdc34XnnZDGOY42KXZPWAJqhQQgmuflMQ71XWTn6mTokj2zWLu4+9ZsD4cAfLTVYsvIiJwdOpAArrTdSV6u3X7IolEf2fTK2ATO7itNzvNn/y4LwHqAYdJODrDR7RrpLNGzIx2as8HWIhWkq5S8bJFIg0OeH0zWI74YhIIjxShkAvObFxlGdUw1kgA4t8EKhZBUVMRELoSo5Ml1nzCrAM77hMenxR3jIAGDYg7bfY4hX8e1XZMZATDrEztn0gdmuG1SVdssbb+2F/22i/uXbQ2T/tUw6auqeuECNgTT8aQ1yTFNfbidhwAgCU8Ys/kg13ybKR9AVOWB/QBR0knAbb0uWM4GLrFp6db4imH5kXmlY8N0AJy2hpcAQPfGTQLu7qOuc7AuXqlddPp98ho752xezdhnmHS2zqQfXgb6hV9SJl1lmHSuygVBz45yEpF3ANUIOUKM7uitjyPggAWNbGbT5RpkmCtUZDkSoL8XMLXuRIRa6A1zHMLafVwZFgvlx/09P/GKXw//SsejKItbRZRTZ8ZFAhCqy1GDBH2Kux3DuB7G6vOjeZYkOds/hGudS2Xop4V4X/R7OkM3GCadCeEhtDKrIOsSykWG0bE4rwkHK9W2QEbAuE2L+daC+/rzzJx0qjaW3+abD1i5EtOq7cZ1PtK6IjQJIUpDltmEMMpDJ5Jnzs+XsdfPa3eGs/7vkgOO8VmsneMgAV1m8TgATl6rv17F8ipHlFWxttNs3xdGlq4tCvaldtZl6G8Nkz7R7EWUgbDY+2RnO3T8lE3HPtNTIb43VZ0A4L1NTfKMgwi8xbQMABIHE69XMIjyuDhJwDVdLvi9wE9i1se2tjIKuz1AclygDmtrzlA3mRfTS9gXNQlAQapSz+Jnv66+IvDoR1KodkzO1X5kEsex6QytS5v016Vwvuz+H2Xpt1ImvWqY9GkcDx/lPV8ed6GC4flmh842OnT6S5t0KVGM3PccsnhplD5+AJzLAP0X6zvbiIIEwLrzs/4OvTvFyXkuIzoi7kyJYQO71+uHuf7vEgosA9zZh4ekFxvnUZIAlJ4u9gx+9t3YLZ6KncX6BAjgniMWbTtg0Se7LVqx2aKnh4fXVn7kFOqxGTppmPRyXVv6XlmQ9/Jji3b0e+kMvQY2EepDFzjsRX2v1yYQWfblVQttm6jpvENnztqEksXHPo1+trlhn/qghCzh3JNvho/788/78RAbhN/pDHjcJAAhrli3RDKkeRtt2nM0+j5ZTNnquA/1RVygDnOLaoAtQ/Qcj4IEYP2/dSd1cEQGyDj6AnQAIj52HrIIpZ/XFSz9IGTzyWHq7xc1Lvm831ojQ6+07kzf94Ltvo9p1ZH+PG3S4ymThqZM2u3z4ZTZZdj3azeDyLmcA1z2zXGIzjU79GWjQ599Ed3Msw1D4QjMFHWpNpZbBmAoOOL2B2TlikPpeL0n4oqfDDDzgIMZcqrDZFlrqbC9yrbUcQCE1SHF/xcjE93m2hRm+FjYJKBhxjkW/Tx4WTRjEZkm9x21aOsBi1DquVKxp9fHVyX4I3R/SCpLj30ruY9vdA9wQl0H+n04DaZMam+YtLgawghHrboM88t+ASHAkkHYywVvTuTpvDrlAxi0kGfGARLwyJB4Zh2lwKfYfuQLR3jdbWWyBqL+N2ZQ/RbbtGizTUlIslPsXXXYt/doNLP/fDKQZBLw4ij1AkAYi8iaF2b7HzxhEVI7r/ZR3rmBoVyzO9mIcXvWMGmRYVK7VJauTzfQfw0A2eGe8g+96NfTGfonI0NPGiYNN0zaE6PAAjFahMHsPlEW94v+CCIQliMhohU45PjEUEurZQA8D8d74RpzN4areLiUGogAwB1t2m2eQ4OW2oS0qQhJ4rqHXMeiXYeiJwAgA0klAXf1VtcxuUqdIS2TYsaP2f5Kn1ad6WstltBGLj3l9ToXLezDgKV1WfrHurb0a+Gid0hX/0k9/YGRpRsNkzqmTFrytXNCo1chxHXcw4OJmq2iOF92J3wI4CvArYDX7uYByhu66VMXAMsA3WY3seXVfnSo/lYA7n4h1ytPmrYDMLZF/580EtBvfhNhiVBV374yLpwxCM/9wjV9L+2KdX9Uk1V9rwjORwK+xekMdYBFHZb1kOA4/svCSpDqSP+SztDTRoZGGCbti0DAvjvB+LVlsb7kj1gWOHWGlwSA/cI8zCGn7rP1qQsAEnAnQ+YxVy7zN/HKXQC2PMAmQT5CAhorWv3eYvLHCWP9H0s5QX05usxWt2q4uoV5uxcW8pRJT8FiDkyMH5ljfIKW7ekPUybdnDLJNExapoOVoE0vOPyVxPmKP5xidhJ8ZwoPk9UpHBAEgCs1MAYorAA6laFNAkDWwjMKCShPAh4YwGNhhKWSsz/Byc+vyd+1DKzYatHN3XkmTYrgD4v3UljAYQmHRTxGqE3GrbHekcrSD1IZetjI0mDDpE2KjRBo9jwuoBUA7ACWgJOn+WakyK7FIYNbe+oVDogKaFczhB+5skHRGk4lJNfiVepxyTMuEtA95OiAe/raBIdakOkg/8gQypH+9/bevPH/COkLOvMHCYDcXZ0Q5TZt0mHDpCmIw2+RoX9jicVPBmyH+5R17emPvyYCbYwsZY0MLTdMagq7Ye/qWz4ssJIZoNly2HIHIN6bI+840sL2mqvXMsDzI3g8kNEfbu1F4j0fkiNWXODNdd+4SIDOPgHtJvOE/3WYwbf+jxDO9bvUfDdu7xXJ7B8YtAyWa1iwjSz9UbgoKFf/RgKtO9NvooJh2qTnjCyNMUw6GgYh2HqkEsyX/x1JhLgU2BNMiSxeG3M+0GwhyAzDyzlwQuKYhbjtjyQ5XDKX61SHBcBtRyEBl1sKuMpzc0bhqLbRxFWhzf6PGhkaZZj0DCrrtWlLv/ENIMmHmCVA9B0jQ/87laE5LhBwbHssLA/wlX61HWILD+y7iKdj39FLr2UAkIRnGK0AV3Ui2nKguoDLBTDZqrerKsC468x+t7pZApAYjIN4o6gOKpdy9M1cAicfMf7F2uB9Jn8pFz/SJq0wstSqbVv6bswoJ7f3IgFkRjJManYbUGV7x9dV1FT/vmCyAiDPu8q7uOdiGaCHZssAfec3sSxxuO/48hg+kySHYpNr8AAElxyFBDTSO0xFuV5lDP/bflDN9A9CcDdfbQYnnaU3Bfi9oK5mx6RMut8FA9Xt/s/UKACKDHEprnv68axtvTBSn+JA7jLB08P4fAHQ5hNXy1IAV7+rxuvUOgngKss9ZiXfOFNd+5+znmeSBP2RytKLmsGaPI4fCVzMRqg8a564To0A4GyudMHd5vEsA9zQ1SEUAHHBV4dtn3m8VgBkJkMe/moEL3knnnatVRLAlfynJWNJbo7yzVze/+ksTfWDNXKshhJIZ+kvDJNsVQvAGxPVCcDnX/KwZK6sgJCJOf2cVgQAJOSpobxWAE7zpIAuD+jqJsdaJAG/HHteeWIEHfLiaD7r5g4G8/+zI1nypTjpDP0PDSFNHsmvBFJZWqBKAK7t+u1SwX4pQeM5voGC+u+q74TzHxuiV20AEID+C3jzAuA9ZSmgOoGbk0jUGglo04PHkjiBcZlt4x619X+k/r2uC8sS6VK/OCPHayoBJGTgAMuNh/xC/uXHIxqAS2F1n88zeOEBPGCBXssAIAFvjOOZnbjtDi/l9XsEBLn6X7Vep1ZIQD1T6d/WnYj2HeMZV8jg6afCXzHv/wkrefTi/9/ed4BJcWXnrta79q7Xfmu/Z3u9Dhv8/Gw/2+/5s9fP9gbZ09UICYVVZKVFcZXjSlrluKO0gKarZwhDGsIwBJFFzhIDCBBBCImMhBAIkIQkUEAwoav+x2mmoGl1qHBu1a3uw/fxdU9X1a17/xvOf8894ZgB+SOaijOpllcEjHr8iyMIgny2rDpVoPv5iytR0Ku7+AxdSBWow/l/bh3INuGSwTxaDqfPKSkIRRerVOEl7fpi39I8GbbEwv2TbdzUYuOu52z8ZraN2RssUFrZQphVAwm4eTTP+vHo83xaTSIShYS6l9/q5vIQAIrP71XOyP2aIkAuHIaJDxxB4Pfz9vF+RP6pz3x2hMcOgBauG0bzCMiLB+mVIdAhAnWzeSKU5fb307P4FqxCwkN+KyxUw8aFDD8fm24jWSLDHbn3EhEoVLdKJgFNjO62c4vgVwjTcr9tZ8jceF0zy5r4gbj9aSrM/VYrYWJCriDw850Wk48OnyrQvf7V3sEngCifvJ92FHqmbo5+xoBEBH4xkmenktvmKYwuS+UWNbkePiGgWBmXugwDS/EwBi4unECqUknAeQNYhCR+OpAv+A/Nk9feCqYBaN2UYUlpTBlq/coZeU5TBIwUrs8VAn6/z37dq8g/9X4bfFEBKTfAWQ0sBi+4bqR+xoBEAIYsasOZ9TxtdPqc7B6WbS288xOBHb7A5sT8zf0ZUFIap6/dfj4zu7pIgFtcSt2Xms+3mdn/QQZrtwcjAEOY3KONNH6hqRiTavlFwEjhu6UGs9trDz9/qkD389ehz/iEz6+n87D5bmn9EgQ5RwFc7kq5fUzxAV4To8CC6m9OgRx2WaT2z+1nL98pmU2hVNKVqgnwgk3+vaQ54Uz9u3N/MOFPdgJ3jvff96e0TxL6+BWzej9npLHjlI42ve8UzuoHHOnwI/ZPPnO0jY85t27mOwa4fayeWgAyCLy8ia+dzhi4vAmghSdsISXvU4M5GfyVOvN3+r3Up5AAd2vibeP41jCaD5veDkYAVm7NgDwSSvWty2ub9JZiUjvfCBgm6l0OgpIDadmOk8LczzdOd0DasfRqYhn42Tj8I5bolSbY0QJQ3gKOpCX5/U8L2V7xDKgIEjR0CQ9JlOOA8uvJ1LV8Wsxs8p8dwQjA2Jd4+t4wUedbwMiDeiPQrQ41+QLAz9995vkR+6c+c/ATvgnElSGQsNAxP4BDAh5ljg3g9D1FMuPKZCa7ezW7eze4kquf06dBP0UTUJwEkPEfJ2l++71gwp/U//dP4un7bin8RG8pJrXzjUBNLb5ipPBh0MWBJkB756kC3etfnx/lU6HtfDcDSn8btF30/Dn9bIxu1S8wEJEAOgq4QsFRALX7wSk2KA65G0Ej9+iJ081jeISAM4+EBBReUziN/2gubd0djACs2poBBfpy+i3A53vi/udbvMbjwaSJ0QEGyIlBFvQYIGPxRQWkSdR7Dt/i9+Ak/bIEOlqAYYvbsiSFow/zy3h4qo39H+op3IR0lO+XO5/jmwPO2JDjgFMFKxkLv/52+b7wMl5feSMYAWhZxqb+b4qHFJNa+kYgkcJFzuQO8lk7y+ue/4v3f/gx3zEAhbkNagDl4HF2fxujNNUCEBGgAEFkhezUl/OTrMhFE8C7wHsRBkHupQh/nGPBKUs0ASfn2oNT+TSX1Ne7GdT/9/Ak/0GiDuf4FizyYDwQ6F6HbxzLDXDUmdx+P8kb4HDbF4W6l18OMx4D0GS6h+kcjDC5b6K+WgAiAVQ/v31X7rl7J9nYI4aBsTsOoah+5frW73XdSAClvOUi/F4wWb6Nb9NCa9aWPcF2/yu3sFn/f1ZTi6/FQ4pJLQMhYJiY5WXQF7t3wWYv4v6L93IfAyzexLcA9uhnZ7PyOap33T7JHuCaEXztze9jihtPQWWC7Ejl2XDxo9j+vXwEAcrv+2J/V/txwC1jeHf/ND+Cqv9HtLKtAZMCCRV5OD4IUKSnYpPcy+8PTP2iUPf6C1dyIEfY/GIUnxr0V8/prQWgtMHnD+Rrb37fXzEc2LQ7XCHm9KN8+sOdtACqjodofOimCWgMURMw61Xe3T+H9f9tY3nmf9LEpfGRYFLTQAjU1OMPOI4BzqgPnhuA0xuAhMbMV9gYcTYE77AX9IwL4Ggk+s1vZw8VnEsELh4MrNzBu/CJcPcn3N3iNmARj1DIHQe536uRBFCsEfLXd9sHbu7bHDD4zwuvM8X+N/HZeUPxu4GEijwcLwSMNKbmTmq/38ev9rrnP/V+zqBANOlokl41gm8BvLlFz+iADgGgzz4z23mSgBQxLKQARBNeFhLgZlHX5Z76hXxzoNDaUG3HAbeM5Y2VQQHM1gUM/pNiSv1rmBgTL+kltQ2MQDKFSwpNbK+/XT4coAQ/Qf4d/JRXuExby6cFMNJAwzw9MwXmkoAnnu9QqvqlcUF5F8Q4kHcXqJIwVBsJUG0YePcEG+8wGce+xRD7v9cwHpKXTOOswAJFCogXAmTxaZj4xKvAL3T/+t1BxD9wtJ3XuIZ82en8ulBd/fx2+TALucJW1+/3PKfOM8DBjYwDyXJZpeCSsvnwrTYSoNomgDyNOKIAbtwVzPp/6mq2Tc4BChAXL+kltWVBIJFCs7OwB/l8ek4wAmDbwIGDfIseCRDKeR+kTfnPPj2jIxYk4ObRGdZ25+NAf583EOCMhS4Cn3fs5+MpJIBvM0DjPygJoDgbawOq/x+awrP7N0wMYBEmUkj8EEikcGahBd7rb3RG/MnRYCTg0895jwFIC0DZ7ry2pdj95w3QOziQo5VoWXoUVyt0D8zFhyIHiqugWuGdL8z9/i0kgG8toDkQhAQETa+8bFMGPRrY2vOj+EkuqTELAqT6SZrYn7uo+/0+5ZVgBKAzw3sMQAvljPW8WoBfjtXbLdAhAZTL4OrhvG0vNi4uHgQseI2XvPkVcvJcaTIiJIBNaGY3Fn5JwKtvBlP/189nmttp7PgScBqLMJFC4omAkUbvYou7l9+vHAGQKj/IP+6YACQQKHiHl3aUupfigJPbnSNodf5saT2Ka0aqPw5w8KLFUGIGlBbAOhCUaiMBuhkGBvX9X709g0uH8BCZZAr3x1NqSa3ZEEim8VeGCctZyIN8rtoZRPwDR9r4tQAvbeMNjPKzIVY2K5/Owt+pG5GAX4RIAs5qABpf4DGS0kFYVmodhATwCFBnrfTiHbApoO//2JeYdv8mOk+vx7fZBIkUFF8EjDRecAZzkM97JwcjAKRBeJ/ZGJAWcUp1G6Rd+c8+PDkeBoFEBMgm4NoQSQBhRR4YC16XYwGdCUS1kYB+C3g3AvlrgpvjgP0fZLAmoPHf7UyR/ygOTHwlltScFQEjhZ/nD2g/f1MI0rc+CEYCPjnMLzgoU2D3ej7WT2UNWqh3hEBHC+CQgOubwzsOcMYOBU9p3czfnzoL1jjVLSoS8MbeYGfga7b7ez5qErA9YLvnrefLeCq+/6wiNN6F9eiP3zFS+NBZuIN8phYGIwCZDJT4mPedy6sFuGxofI4CiARQ8qC7x6uPE1Bo7Nz1nI0V24UI6EgOhATwbQxo7BfTBFCE0qCJfx7h02Turq3Fl+MttaT2rAgYJuoLLd5ef+vRD/j4SDASwB0ZkBbenfszuKCRd7I/MCkeXgG52oDHp3YoDRtcarzQWSkdDVAYVB2FYbXWSUgA77pQiATsChj5b8nGDMjdutT88nDt16zCQwqLPwLJFP7eMGF7GERFB2PLqmAEoK2D3xiQFvdJzMGByCtgwIL4HAU4RKBudjvOauDViHgZN2QjMG6lJWGFNSJCQgLYhGt2XcwnAa+95e/Ywjnu+M0sNuO/9jP64s/iL7GkBewIGCYWelnIi91LO+0jHcFIwIcf8+8Saed56zhewXfxIBvNrUdj4RroEAD6bFzYpjSVcLGxkfs7RRRMzbfxsmQb1EIjIiRADQnY834w4b9iSwY/HcBWN0n8wy45K6TARB3OyV2gg3yfuDYYAfhcgUsgaQHWvmmxGgQSRrfEIGNgrvB3vje92IYrQwoYVG4sXT3SxvBWC1ve4Sd+Oqn2KQwsV0IZFe0SEsAmaE9oAjYE3P33W8i2+0dNGv9aIeJKmsGNABmGGCa2l1us3VzvOQRo7/RPAlTkB3AWzPQCXi0A4fHU9Pi4BjoEgD7JOPC+iZ2R2QXkj6VkGlktDZGBdTvjbTi494MMlmy2QOPt5jE2LhmMLM50dESBs3rPsbF8m35tFBLASwJuG2tj5VZ/WoBVWzOgaJv588TP3wkTy7llhpRXYQgYadzuZ3AVemb6Bv8EgJ787IiaxfHt9zMgglKozn5/oyA4QxbFzx7AIQPmnHZQvgO/7Vf13KXDjgvKeRusrCGnQ+J0/dy4O4MJL1ugZC3n9C8/xojw9JljY/f7emk+hASU7zsvY/5WnyRgAOPun1LAV5i4kuZwI1DTiN8zTBzyMriL3fvzJqDT8k8CLEWBgUh4LNrIHxiEogRSHH5HqMbtc/iLbaElEio2Zkr9TnEmyIDwyZk2Jq62sP6tDEilHhUZ2HMgg6VbLAxfauGByXagndplwwCKVxFVWwq9V0hAtCSAc/dvmHhb0v5yS8sKLc9IIVVqIfZybe5G/wSAnuTOEpi70D0zm3/He2NzJrYEwDkSeGhyB85kDJzkZbx4vfeMBoDsBx6aamPgYhvT11lYttXK5iXgyNtOO/MNbx9X5ZPnAhkt3j3RBgls2r17rW+p++mIQEjAcRJUqcGCvGgCWHf/adxToeJKmsWNQE09vmeY6Ci1WLm9RlqAjox/EmBZasIDExHY9V4Glw7lXcQJFxKgcdv959d38OI2XKWJgaDbsVbovp8OBK4aYeOO8TZ+Of44UXhkmg0if85/0igQgaD/JNzpvJ7GLcW0KFSmyt+EBJzUglQzCVi1je/s3zDx0Y/74ve55YSUV8EIJFJo5lropgZMFfypgvDAjibgxc38RwFk5JWaHY+sgfmCP//v2mkd6BFhzACuMRincoQECAng3P0bJmorWFRJ01QgUJPC33FlCbxoMPB5u38tQIa0AAqDppARFreAOKefHWujwFwi0PRCG64LOaEQd3/ErTwhAdVLAl7aksEFA9m0T5+emcZ/VyEjpMwKR8AwMYlr4QwaHVBFkiBHC0DnvJc3sU24E2TiwkYbI16Mr2dALgmg78/ObkfPwXw+yVxjq1LLERJQnSSgz2y+OZZM4dkKF1PSPFUIJEz8E1d4YHKJOvS5fy2ASlsAIgIUIIhc+biFSa9hFkYvja9nQD4JoLgBFPPgfA1dBrn7TofyLmwEXtl5UhA6pDXKz2rzDhi4iP+YMHds3dxiY+WW43ECKOY/o+3JUQn7q0o6Vkm5holZuYM1yPfBrf4JAD2p0iOAFtQxK/iYdy5ONzRnsgF38oVpnP8md8f7J3RyJihhJ1+5fRDn7xcPBl4VF8Gsi2SlGwY+No3vODKZQmOViClppioEkvX4Idfi2b0B2HvIPwlQGRfA2VE9yJdy8xSBRql44yzwi9V9+Att+OVYIQJcc6RYOUICTmpBKpUEXN9sc4Ypb+vWgO+okgtSbhUhwJUkiBa3R6f7JwD05OEjajIFOgSA0garcA2ktscxfXAlG6UsAAAgAElEQVQxwZ//O9k63DuxE2T8WEyIye/BjpiEBFQ+CWCbI2k0VJGIkqaqRCCRwg+4bAFogK/Z5Z8EZHMEHDq5EDiCm/NzxXYLFGCGbTKax8uiSHaPTY1/jIB84Z/7N9k7kOvgBY1CBLjHD5UnNgEn535UmgDVNgEM4+azZAO+pVImSNlVhoCRxmSGgZkVqtc2A+Ta5/ff50fVagGITIx+SY09gJEGnny+skkAEYKWpUfx1IwOXNlkgdrMNXakHEA0AdGTgH4L1BoGBhnnSRNPVpl4kuaqRqArLkAmyMDMfXbaer/iH7ABfPDxyUWAc/efWxZFiMutM9d3ChT0mxmVTwIczQBFFfzVc51aJhvi6tOwyxEScHL+R6UJ0JQEfNStD76pWh5I+VWIQNLECK6F7vxG4NOj/klAW4d6LQDFkr+pRR0JeLqKSACRAXIh7D2rHdeOyuCMmOQa4BrvKsoREiAkIH9cJVO4vwpFkzQ5DATIqtQw0ZY/6Pz+Pfwl/wSAnjz4qZp0wblagK17M9k87n7bWOo50gSQT72zU66mz+bWo1ktCCVP6iGGg741TUIChATkrDF7f5jG18OQBfKOKkXAMFGfM+B8L1xUxrkDgmkBOjMIJX0qGQWeqcAokDAgw8AnqsAmoBS5IXsBijJ42xgKgapG48I1Zv2W002hxkNIgJCA7FqSxtVVKpak2WEhkByI/2GYOOh3Icx/btSKYFoA1cGBHG3AlDXqjH6qwTugFAHIvzZscRuenN6RJQQXD7KzJCl/3Oj8N/UnhUy+Y2wmq+EZ9kIbGhe24Zz+6siNkIDqJgFJE2tra/HlsOSAvKeKEUiY+CXXAtxzKECufX7/UXCgAwdPTn5HYKv4HNqqyDOgSxNAfvT5wlD+PorhL7Zljwvuea4zaz9ALoYkZLnGYJBy6BjnokYb147M4J4Jneg7ux2jlhQO/SwkgL/PKKXzuwUShVWZYaDdLYWfVLFIkqaHicAPhuKrhonNQRbO3Gdf3+tX/B9/Lgy3QIdQ9FaQOTAXC1KDj62g3AGqCAyFIu43vx21z3fgrvGduHF0Br2aLFACJm4DQzr+ISFPeR2ubz4u6MnFccCCNrS0Fhb2xdotJEBIQO58Z/mewsQw1395lyDwpUQKZ7IMXhMY+GIwAhBGcCCHAOz/MIP7J6tT5RKmlHq3khIIFROGKn8fueRoVkDXzWlHn1ntWVU8BSh6dEoHHpzcifsnnvz/yJTjv9N1Msp8ZkYHzLntGLSwDUQ0uOspJEBIANfaaZg4WlOP74lIEgRCR4ArUdBVI4MRAHr6syPqPQIcErDnQAY3j1FLAn4+zEJTBaUS5haicS9POQkYJAmEnPlayccBiTSeCX3hlxcKAoRA0sTfGCbag7LZZBo40hGMBHRm1McFcBYU+nxzfwZXjuDfyeRi+dOBdnYXG3dhJ/UvrEUQEsA/f4rZBOzYezzd7prt4X4qDxaUxtwe/fE7IpEEgUgQMNJI5wotv9837w9GAOjpDxTnCMglAPSdYgRc3sS/iOViSOfPfWa2s6uhRSgXFsph4yIkgH/+VCMJqKnF1yIRAPLS6kbg9Hp82zDRmSu0/Hyf/XpwAnDos/COARwysGVPBpcN41/EcjEki3fKJEiR9MIWUPI+9ZgLCeCfP0ICqlsuSetDRMAw0ZorsPx8n7AmOAEI0w7AIQD0uWl3Bj2H8C9i+Tj+YmSmqIuZCGr1glolxkIC+OePkIAQhYC8qnoRMNJoyBdWXv8eGTAsMNGHMN0BcwkAfX9tl7qQwblYkg88uZ+pFEZSdjRkYqDqYEGDgPVvhRMzI39+FPu7fqFaY1ohAdUrl6TlISGQSOGJXCHl53vjkuAagCNt4RoC5i9qr4ZEAsjPnfzfRVBHI6hV4i4kQDQBftbPU55JY67YBIQk/OQ1X6KYAM2nDEAfUdqalgcnAFFqABwyQMcBvRTbBDhYU1a9EeIqWHFEiOIPnDtA3c74wkZg3c7w7WWcOVLos9o0AQMXqQst3rU+LBASINI5FAQME684Qsnv5+R1wQlAWHkBCi1gub+Rd8BVI9Qt4LkYk6sgBa1RuSuVssPXNJAm4FyVuQPkOOBEIrGoXAQHLLRALtC585n1u2gCQpF/Vf2S7nX4vmHCCjpwF28NTgAOhZAeOFfQl/pOcQKuHx0OCSAvgbuf6/QcllYEe/iC3QvmQgL4haNuNgGNpAlQSAISJuaJJqCqRbTaxidNjAgq/On5jQHzARB9CCspUCnBn3tt13sZ3DYuHBJAGFLmvIZ5og3wImR1v1dIgJCAoOurkAC1MrBqS0/U48ccu//uDUBbZzANQEdntAaAuYI/9zuFDX5oangkgLLT3Tm+U0kMe92FZaXWT0iAkAAhAVUrZvVsOIWf5MoIeOu4YMKfnv7ksF5GTbkkgNKVqjZyyl8gKCteao5oAyqFFAgJEBKQP8e9/i2aAD1laSxrdWzw/drrACx2/6DWYATAsoH3D+rl35xLAJzv41dZ7Klqi2FKv5NtAKXJbXpB4gZUAhFQTQIuEsPAyA0DxSYgluKwuiqdaMDfUhrKUsLHy7Vt7wYjALpY/zuCvtTn4k0Wzh3Av5sphXf3emTT37Ys1dvorRKEtOo2qHYRvEBcBKMnAYvVGgYaJsRFsLpENl9ra2vxZcPES6UEjpdr1zYHE/4Z6/juf8V2CwMX23h8uo37Jtl4apYN2nGTS14pgRzFtbVvWsrzBxTqg0sG23h2thwLqBbSqsunsMEqXQRFE3ByzYjKRXCQYhIgxwF8MrGqSjJM3FJIuPj9beLaYATg5Tct3NRS3MjujAag9xwbb717clJHIfTz37lzfwZ3Tyheb794unnuqhGWhBOOeWIlIQH8WjTdXASFBFSVaNW/sV2Z/w65ETJu7rlwEHC4zT8BmP6qDRLwbt5FaXspVG++II7ybzIObGpVru4rjE8auG5UBoMXi32A6h27qvLlOMDd3HezPjj36EYCGhVrAug44IdpfF1/6SM1jBwBw8Q0Z6JwfE5d71/4L98BzwE0dDzfJAIyb4OF8wbyL2Zu+qhbPXDrmAyGCRGIZTRFIQH880ZIQOSiRiqgGwKJFC5yI1Dc3nPFCKAz448AfHIUvg3pdDzfJBKwYVcGV4+M5kiA+owSDN0xVoiAqt26ynLlOKDySYAcB+gmEauoPt364JuGiX1uhbub+1bt9Cf86amhS4NNeF1JwDsHMugzx86677nBUMU9RARuG5MB7SxVCi0pm9cjI0sCFCYQ0nHOqI6toZsmQEhAFQldnZqaTGMop7B5crZ/4W/bQK+mYASA2qLrcQBpAxZttHDxoOBtDNRnaeDqEZZ4DcTIWFCOA/jnTLWRALEJ0EnyalCXZBqnGybsQMIkJz3w+Y3Awc/9E4A9H1qFjdpy3uG2rjruahyjxG17M7jrueiOBHIxvGyohadmdEiyoRiQgfp57aBw0Ln9x/ldxzlTbZoA1YaB4iKogeDVoQpd4X63ci4gczf6F/4U7//lN/gIALVLxwXNIQHkJTBymYWzXHo6cPZTobLO6WfjrvGdGLxIjgd0O8KglNA3NmdCiTSp45wREsBL+pIm5ksWQR2kcIR1SJp4spAg8PvbryYBtn/5jw8/trKufH7fX+w5nY8DiAyQ++ItY/XQBmQxTANXNll4enqHJB2KUCsw4sU2PDS5ExcNCn9sCAk46VIcVbAg1ZoAIQERCt+oX51I4x8ME+3FhKbX33v0A/Ye9C/9Dx85nu1v9/sZUGhbr+8vd7+OC5qjCaDPdz/MoGWFhbP78be9HDalrp/VYOPm0RmkKMKghBpWbjjZ3HoUT8/owHUjw9ntl+r7CxuB9W+dFIS54zWq76IJ4F0fhARELYkjeH823G8KK0tNfq/Xxq32L/wzmVOT/dw2Ts2OR3cSQIvqxt0Z3KmJbUD+GDhvgI07x3UiPVfIAOcRQUvrUfxmZjtuaM7gTE2Og5y+JxLwyk4hATQ3RRMQgbCSV/IjkDRxmzPBOT5vaAE6Lf8E4OCnp6b6nb6O1w4gt426HwfQQkO2AZPWWKDFN7fuOn2nWPW3tGTQd1Y7RotmwLNmYOSS4zv9m0Zn0KOfGsLLNV6EBJwkQEIC+OWRlBgiAjV98ReGiU+4FgeySA6S7e9I23HVf65KkdThpeL/B617HDQBhAflN6ibZ4di+BUEU9q1/mKEhUemdID81Tl3x5VS1phlR9Fvfjvum9iJXsMspZb8Qfqy2LNCAoQEhCim5FWqEDBMzCg2yf383rjE/87fsoADB09OrFwSsOWdjFJf+biQAMJk3U4Ltys6FvHT5+WeoaMCshuondaBQdXqUbD0aDYh06NTO3Dj6IzS7H7l+oPrupCAk2tVVJoA1cGCxCZAleTVoNxkCpdwLQZUzs+bgCMd/gnAx5+dqvrPJQD0nQyQSFBz1jm3rEuHAjv2nZzU+e/X7W86GvnZUHV45GLD+f3s/nZWQ/DAxE6k5rSD1N+VsrN32kFtIkPJeyd24urh5Nqpt1rfb/8KCTi5XggJ0ECoSRXcIVBTjz9Imtjvd+IXem71W/6Ff1vHF1X/hQSuahLw+HR39ShUtyh+23vgeOwACrhUqE/i8ttPB9q4ZmQG90zozFq909FBHGwJWrp29k9O78Dd4zuz0RTPVxiiV8f+FBIgJMCd1JG7tEHAMDGMczF5eo5/4U/hfj84dHISlROkKklAMo1sop5yddDt+q73MhiwyAa5X3L2a6RlpQEiBlc0WVkDQ9IYPPF8B+rmtGdtC0a1qtcc0DsohTIF3qEjjHsndOLmlgwub7Jw/kA7dmf3qvqTSAAdTek0L6rNRVCOA7QRr3pXJJHGf3GG+yVL+kMBwv1++rn3hYOC5Vw8WI2wG7rEe310WfgopHDvOTbO0Mx9TJXgoRgRtOO+ZLCdNaa7ZoSVPWOnlMfkokiRDOk/qeLv7/pPWgbnd0qERPeSUL92ZAaXD6O8DHb2jF5liF1VeERZro4eNUICeNdIsQnQW7aXrV1XuN8tnAvFgs3+d/8U7tev8FSlCbh3kv86+W0L93Pb92VAi58uYYU5x5uUxbuoc+JJJGDtm3oR6GojAYMXWyBNJme/5pW14IdpfL2ssJEb9EPAMPF0XmcGGij3Tg4e7jeI8FNBAm4YHX8C4GBKRCC90MY5/ZUuCIHGEOd4lLLK9/M1o2ycN7D8fX6xFBJw8jhTDAP1k4FVW6Nuafwfw0SH34md/xydN+875H/374T7dYSV309uEkBx+P3WRdfndu7PoPEFG3E3Fswfg/K3O0GeNIG7J9jZ1NM0Rl/eYQkJ8JFRtNR40y2VcBiaAEkgFBM6kQ33a2JFqQHs9dqENf6Ff36436CCk5MEPDGj8giAgy95Dcx4xVIaWMnrOJL73QlxPziRLcivp9sF1fKUaVMlIRRNQPSagBBIwEI5DogBCTBSuMPPAlLsmRtbgAxjuF9HQAX55DIMfH6dXmeYQTAp9WzrZgsPTtU/smCxMSi/FycOlwxBVuNDR0ClxgBpAn6q+DhgzRt6zSexCSg+bnzOqQWiCdCYBHRrwHcME5/67NwvnO9mw/2+53/3Xyjcb6lFysu1oJqAiwcBew6UXjS91CcO927Zc/x4II5BhbjGdCWUQ/Pyvkk25m2wsP9D92OYNAFCAniFYjUeB4gmQFMSwB3ud3Crf+FfKtwvl7AMQgIo6Q5XPeJWDuVcWLrFAi1eFRVPgPmsVzeycMlgZD0+Nu12L/Tzx+ZqxccBZHS4aodec6vaNAFNS5R7B8hxgG4cIGniUs4Fq1cTcDRAuN9DZcL95i9Mfv8mEkC7eS9tJ/95v++rtOco8dC4lRZuGWOrdiny1Ede+rOS76Wz+9/MtrFkswUibhzjT7UmgOpMRIOjrlxlVBsJCMEmQFwEdSEB3frgm4aJfZwL4aqd/nf/bsP9ck1uUm1f11w+Bjv5zA5cbLMtpFz116Ucyo9AmpF7Jom9AOdc8lrWuQOOG/TN3WBh7wc8Qj9/jIWhCVgpmoAsCYrKRVA0AbpIaMX1SKYx1OsiU+r+Z+b6F/5ew/3mL0x+/973QQYTXrZw7agvEoHuDcDD02ztdiV+2xrGc1vfyWD0SxZuGydkoNRc4bpG0S6fnmVjDgn9kGxTVJMAsjcgbUMY49XtO0QT4E1b6mJ8iyZAsXwvWXzSxN8YJjpddJQrFSy59AQK93s4+glPKYVbt1hZI6kV2y28E9KC6nYRitt9u9/PgHajZDNAVudcY63ay7lyxPEzfbLHePcjNTv9cmONLPdVugieNwDQSRNAOD8774ubBM6xaM4vfMQomoCSokwu+kHASGMy5+CNKtxvuYVKrkcjIArhTjvHplYrG3BGIg+6J0SXNx3f5U9dY6Gc214h3FX9ppoEZDUBGh0HhEECJhcxMo6KBAx5QblhoGgC/AjwIM8YKXyXM9nPfVMCqP4BfPhx9Lt/VYuklFuYgJAbGql5m5dbeGiKDcoWx0lI41oW2ZtcMfy4Ad+0tRa27i2Mny7jikgAaf9U4U3eARSLQJf2Uj1UHgeQ5oOichZqr5CAIFJPnj2BQCKFu7kmLLmD7f/YPwHgCvdbaMLIb4UXEl1xeW3X8SiEDYvsrJZApWDhGv9ByqHwu+Q18+jzNkYss7IW+5S2Wdf+KVYvSu6jsq+yJEAjmwDVmoDhS4sTHiEBJ8SYfPGLQMLE8iALV+6zE9f6F/4UKfD9g/Fb8IothPI7f1+SpwbZEQxvtfDkTBuUh0GlsMkd21zfaVd/2TDg7ok2UvPtrPskRVkkV8pKGTNCAvi0IOVyjVQyCZCIgX6lusvnumL+H+VY3G4aEyzc76efF2e6lbIwSjvUCLmd72ZAhppT11qgHdOzc+3sUcJNLccNDs+o51uQy80V8hYhAX/rOBuPT7dBGowxK6wscSEVebUYk4ZBAqohWBBpPMqtG5VKAhIm5lFKepfiTG7zikBX2N/AZ3a0wO543//un548cEiNcCg3eeR65eNOwW/oLPX1tzMgobF4k4WZ662sy+fIZceNEckgsf8iO3umS+e6dfNs9Jlz8u9BL568jwQ6GWiRux15ipCwI+0EeTrIeDqJQbWRABXHAXQ05CZ4U6WSAMPEnJ61+G2vsk3ud4FA0kSi3I7GzfUhS4MJf8suz3JlYT25sAoWgkVcxkAYJEAnF0HqF07DQHKvdNvXlUoCEik0fwk4zYVIk1u8IJBMo5sbAV/qHnLh+rw9GAHozLgf5G4ng9wnQlLGgB5joNpIAKcmgIJoeRnHO97JYM328P+rdhFMpvG4F9km97pAIJnG6aWEu9trT88BaBfv9x8ZAHoZ5HKvHgu79IP0g9sxoJwEULCg7frYEXGRADqicouxc1+FagJsylXjQqzJLW4R6Gbin90K+XL3BSUBleIBQOmBl261QIFaRi230G+RDYrqRfkD6JyZQg0v32bhbTkv9rywOQucfMaTeFQbCaBxGuQ4gNT/fl1Bt1emJuBTilrrVr7JfWUQoJzMnCGAg5CAj0PK/KdCeNDOg4T8jS02uru0OCd3MIrqRiFFs2FcmbK0qWiflBlPgatjv4VBAsgjRJe2B9EE0CYiSDu27wn/KICOHxQfB2wQ98Aygt3LZcPExnK7ey/X/ZKAjk5vZ11BJgbHs8TMST139UiemOCUp520BMUif3HUWcoQQa7DGAiDBOiUQIhIQHqBt3WC1gKOvtpWmZqAei8yTu4tgYCRwmAvAt7NvX5JwMcaJAEqN+kotWrLCnXRzsiocsAiIQLl+kGux5vMqCYBpD6nfBM6jRNyHSW//lJrKNU76M4/v80VSAIsw8SPSog1ueQWgRoT/1FqQPq95ocEUBrgjz7Ra9LmTqYFr1vZcK1+MfHyHCU/IX9zSlGcWwf5LnhUyhioRhJAER8pWBUFiqJY/7QmkNAna3/SKPo98y83JiqQBGyRowC3Ur7MfYaJLV6Ek9t7n5jlPTqgjiSA1PKUxtZtuznvIzuB+a/pS4rKLTxyXQhLqTGw/q0MLh5UelccZD7Rjlu3OAGl8FB5bcvuDF7cmMGIVgu9Z1v41QQb1zfbuHK4jZ5DgF7DbFwz0satY208Ps3GgIUWpq+xsHpbMFuC4UssdEvz93EyhYfLiDa57AaBpIkrgkyyUs8+48NFUBcSQGd3pLaj3XipNoZx7f5JNja8LcJE5QIpZUczvqpRExDmWKMImI0vWLhmlA2KLOh1vaJjybues9GyzMLLPsmAIsPAT5MN+JYbGSf3lEIAOM0w8ZLXgeH2/jiSAMpG98vx0ez6i+FKcebJ2+DNIilCw1xU5F3RCMtKw33Hvkw2d8MZDd4FU7F5Uuh3IvG62QSo7sslmy3c+Zw/oV8IQ/qNcOw7x8Lyzd61AipIQMLEkFKiTa65RCBh4p8ME0eKdXzQ3+NCAujMnbLNnaV4QQqCJzFyik0vsQRECKsWIqrKp7wJNIZpLAeZC16erRYSQEmnyMbACzZe76V+S8/3rhGgZ7y+q8z9nTX1+J5LMSe3lULAMNHTMGGXAdx3B+pOAihRzLXNaicOJ7aUCrf5JQt7D4ggVCWopFzesUVeNGTcepHCc/9Sc4xIgE4ugpzja9+B4+6GYWa/vLzJxvS1lqfww49OZV9jB5WSa3LNAwIJEw+VmkBBr+lIAmg3QrnZVRiqBMXLzfM/GwpMXG2BFlfOBUXKEjy5xgAJp/GrLFw6NLwdf7G5U4kkYPOeDCj9dbE2q/ydgp/Vz3dPAlZty+AXTPFTutp1tOZZ/KkHMSe3lkLASOEplQNGJxJArn2XDot+UeLAm4gA7a6qJec8l3CSctQRHRL841ZaoLHJMca5yqgkEkBeDqQN5MLGbzmPTLVdewws2pDhPv6pLSXT5JpHBCqdBJDx0ePTo2HMfieY2+fIrWrEMrEREMGuTrCXw5ZyYhAZJfcyt+M27PsqgQQs3mTh7H76YHzXeNu1p8DgxXz2AAkTe3pOwm95FHNyeykEKpUEkGsfBd8Ie8EJ+320wJGh1Rv7ohME5QSFXK+svqGxRmNOhx2pm/kWZxJAOUh0Ev4O3vdMsLHaZUriG0fzbcKSJs4tJc/kmg8EKokEkD8s+bM6A7VaPsmj4elZNsjfWgRuZQlcXfqT5lbvObbW3jPF5nscSQDhrfMm5pmZtivDwJnrLFBitGJ94/H3ST5EnDxSDoG4k4Csa99SvV37PA50XxOGgoBQbIN5Gyy8K9kHhQx9FIwMUaAsUkE/MDm+BrTOvIsTCSBj36gM/hy8yn2SUB/7kjvDQApyVq48l9cPU4bbcvJMrvtAIK4kgFx+rh3FNsC4Bmrk5VCI4VHLLQkqFFAI6rIDD7MeFM9+9EsWrhjOtnOLfD6QgIkLCfCaWdCl8GTvAwrDvGRj+YBB89Zn+LQAaVzoQ7zJI24QiBMJICMkmihh+sTmTbQOw8QyyraYMPFYwsTAYxmsFhom2vLuY594Xsqn6IKPTLOzOzna0YUpSORd8cKbzpwpJ4aO585exnype3UnAXSMR253pdqg0zXa3a9xYQ9wJ1/U1VFuZJnc4xOBOJCARRstXBada18mmUJjMb/U0/vjjw0TfQwTR3WaqFSXnzcBQ5dY2PpOvASTEAl1/bV9XybrUXLViOrRomVJwA497WVUR/jjXpPo2HHq6vJHAS3L2TwC3vYp2uQxtwjoSgJ2vW+hNkrXvjReM9L4Nzc4dq/D95MmpnBPOI7yKCASxRCftNoCqXtFwFYXBhRHYuZ6C/dNilSDVmqX22akkTbSeIdjvBcqQ0cS8OJmNiFZClv2a5RdsJwWgJIM0ZFBob7w+lsyjb9yswbLPQEQ0I0ELN6CyMKL0m6eIij+YCi+6hXSbnWoMUxs8DrIw7r/zAbgoSl2ViBIgKHKJQJkWEZpp3893eYO0MKyqDvjnUgzkWeaZzVp/HU1kQAi5Q4OcfokLYCbcMGPTWNr3zVe12G53wcCyknAXMCyUfLfu58AD0zlYY5+JlUijSVnPIv/5QO+E49QAIukiZsMEwf81CGsZ84dgKyGZcZ6CxQ+WTQD8caAovQt3GjhqVk22+5L4Vh8xUjhP09Mmq4v1UICNu7O+Erlq7A/PJERihJYTgtARwVM9e2fP07kb0UIREUCiBhMXgecHWI2sbzBeTCZxnVfAk7jgramHn/QZR/wed67uCYGWzmkGbhnkp2N775tr/6CkAwcWzdb2XTKVO/rR9u4rjnYfyqDyqIUza1bLMTBiHLn/gymrLHw0FS9d/rO+E+a2H8sytu1tbX4crF5ppoEkGr65YhtAhpfYBOOuWvAdiON3kYaFx4zUP5RIoUzsxuRFGYaJtqdPuD4PLc/sGpraY+A1dsy6MET1XBpsbEivytAIGwS8MYB4Jax0e36DROTihn5ccB7ej2+bZgYZJggT4LcCavld/L5Jb9kigC3fJsFirugk3aArNdvDCFRCmFAcdl1ajuREhJelOL6tnGx8tc/lEzh4e51+IabOVXpJOAaXlfm95IpXF6KVNE5umFiGuf6M85FXIAbeCIDfsy5MXMz/qr+nkQKT3AOlvyynpwFfN4ONK8EyHUt/3oYf3ftRi4Oq7ONFL6bTGOoYSITRvu43kEsngIONbVaoBTLUQrE59dZIG0FV9vKlUPvondG2Way3J/xynGXvUsGh9f2cti4vE7arz4/6Y0/9DrPKC+8YWKXy/d4HhPnDQCITIbdt5S3hM7Rmdq1qVsDvuMKW+A0I41Hmd6LJ6aXPwZ4aiaPHUD3OvyJqzbKTXwIqNYEnBOdut8yTAz4cV/8Ph9a7ktK1uH/GsfVcjbXZAyzHEoBSzEZwl48yWo6Cp9peueSzeEKCgp4RWriGAe9IpVz/6CatUrUBJDNDdN8fc+18M9ZnqhfON5/zcjyBGD0Mp621qTxrzlNkK9hIaCaBHAMRL9dcWEAABSDSURBVI9lbErW44dh4VfqPd1M/HOX6yAREq5FIdRyKD4DRSCkQE0qd1LksRBlJjoiPXsVt5Es9ymx1ZUj4jkWusZwW8LEENJ2lRr7Xq6FQgLeCI/g0dEax3xPpNHLC47OvT1r8duGiZ1B60CawXJJghZsyPC0NYWLnPrLZ8gIVAgJaEum8TgN/pDhK/u6bvX430YaLYaJzqCTMqrnKWVx83JLmZAcu5Jn0QyCz7iVaoQE5XEYv8oCkYwg9Yv42cMJE+YZffFnZQe8jxsqiQQ89jyLWnx7qTP/chAnUriRY7wsfq20IeCqbTxhgZMmbivXJrmuEIE4k4CEieU1KfydQnhYiiZDnezuSbPwwl4WiqtH2litYDd1B19oUd9Clvy2ubUcG3ZlcMtYFoHgu11e+rfAvQeTJp6sSeGPWCZBiUIqhQSwRP9Lo3cJqMpe6opgGtgWacrL5aMCns8RECiFB8s2Sm5Qi0AMScDHRho3x82ClHZRiTSeMUx8UGDBjWqhd/3eMxqAoa28bnQR2oucaDcZjXESgDEr4pvR8pgr355kCvf36I//pnbVObV041n8T5XBgrIuggoIbO64ubaZgfAxJMkxTLwZdH0Zv6I8AfjZkOCaLVoPTx0J8lckCMSIBExTpY4MC3hKhWmYuMEwsTHoRI3i+cem26Bz7dzFz893si+Iov6F3slh60Aq/7p5DEIgCruRFFYmTVxaU4uvhDUP8t9DJIAISKH+4fhNNQmgzJ1B65mox4/zcfH6N2lGg9Zj1NLyBODK4cHHetJEP6/tk/sVIaA5CdiXqDSDEeC0ZBrdkmnMNkzEymDw7gl24CiDJDCjsP7PXxypDlQXPyTGeYYMCR+cGnxBzK+b4r8pfsV4t3kxFC07pxQbZxLAkogpje6nAOLjj2MBg14LOm4o6U+5iIBXCAHw0TuaP6IhCbDp/LxbH3xTc+gCVY/CFCdM9DVMvBd08ob1PJ3fB9UE9IouG+SJ3Rrt3BxB7ueTgvg8zBcf/US9lPVjGu9k44Gk8eeBBq2ih+NKAijAVOA+o6PNAP8oXLlh4lDQekxaVZ4A9BrG0N4UUgGaK4+qQEB1sCAPg/MNow6GijbqWmY230Aa3SiKYRy8B56cGcyA7tm5DItIQJV5an6wNjQsir4NLuZUJpHCIsNEzyjV/G7nHbkbxi1Y0K8mMoyDFGa6xajQfck0TncxFsoSldnrSnsBkHbgwkHBjzwoxHGhdshvESMQsSagnSyQe/TH70QMQ6Sv727iL49N5l8bJnZzTGpVZYx+yb8b3bqdFiitsaq6lSv3jHpg/Vv+1f+T1kTvxliyjWnsOJYF84GggXuimAhx0wQw2X+0B0mTa6TwXMnx4IIsU8jwlVvKEwCmyJ2PRDG25J0uEIiEBKSwsqYO/+iielVzC/kFH8tm+F9d4YY/CjrBuZ+nhYDc3vyoz+mZ3nMYdk4uFrZC7SYNhN96b30nA/IgKFRuxL8dSJgYmDUoY0yCFcWEC4MEcIXBZoxpMc2Ph1PX7j9wFFIKS13u/H/pJh4DXopbEMW4kne6RCDE4wCKLf4AqcBdVq0qbztxRHA8wNBnEQuaE8KPEtj4zbJH6W7p+bDbQu+kd/slAA9MDr/OJTA6kj02SuO8HwzFVytpcoRxHLCCIXcAhXku0T/erqXxqJc+7MLoXY73k4FvOQJAcQI43pVM4QIv7ZR7I0AgYeIhw0RgZlliwMwidXcETYv1KykDG4UN7Qo7fLgEviyTtVz5U9f4PwqgkMC108MTqLUzbNA7/Qr/uRt4FsBymJa5/pmRxuRkGpedNxS/G+vBXKbycdAEkCcJuRqW6TMv1we4OQbt2vmzCH+qe+Oi8gaAjYt5xr8u4dvLDD+5nDBxsWGCduleBnC5e99LmLhK0A2OQE0tvpZ1KTTRzzCxl7mfyvVj9jpZ0wd1p2vdbOHeSbaSzIBnNSBbdusW/0TFIQwsFt/+5tIHXeGle7pNwRt8dOlRAu1yj60Xb6ka23ScE1QToMAbZBepySnCX24vdGkCT+8682fbnFE2w4Ubyp//PzSFh6yHEWkyFzf5HgABynbHEWSCrNvpPNtPKtEA1a+aR8lmoMbEf5CFrWHidcXam1PIwbwNwYUrCVkKzPPKzgwoU+DiTcH+UxlUFkewH6obZRBUJYSKlPt6l4voj4LEia+ECdAVVltpsKAgNgE0/ov0YdDfKbwvRfhb1uXnH9jVr1A9r28ur/6n44FeTSwE4KNKGJPV1QbgNFI7H3Mn2lxoAJX5zUqYmJBowN9WF2jRtpYswJMmrkiaGJ00sb9MHwVaqG4f59+oztld6/7J4u5Vevf/fsLE2GQaV59ej29HO3r0e7vOJIDiYlzYyKolDTQfvc71QYvLq/8pURBpCryW/YX7U1ip3+iSGrlGIJnC/zNMDEim8KphgqKKFRoUdDb9opHCHTV98ReuC5cblSFAXhaGibsMEwu4Yw3QwrB1r/+zdd2F/853lUQvpCiQrWQES6mk/ViAKxssmhZMJECleyyd5fvVBFC+jCJroda/U3KfFS7c/wYu4mlfMoVGTYeXVMsrAmSsQkcEFFaUzqK7pfAT2b14RTH8+4mUGSmM5FywJrzMcwygIxl4fh3P4peD9wzRiPkb97qSgF3vaeseWpKAmPPK7/5J/X/jaBb1P4wUrvTX8/KUICAIsCKQTOHyElqckgtHjjDL3vfglMo9BmDK+U442ck07mHtxCosTFcSMHIZO1H0NAfz52S5vymzn5vgP4s2ZECBgsqV5+Y6pYGuwiErTRYE9ESArI3dTNxy95w7ILg3gI67f6rTBVznux79vPUcMXrUKgwSsHKHN63W/g8zuHYU00658NEqixB25rKb5D+0+39mJk+byBZJjrr0mD9SC0HgBAJddgGBF5e1b3pbMHUV+Ln12vA2T/Qz45jxU7Vb858YcExfdCQBFBiIKVxu4PnoCPpCnxTQqlzgH7pO9gE/ZYp8mTAxnKnrpRhBQBDgQsBI4T8LLRJefxu3svIIwBSuuP8MKV+5+ruSytGRBDCGB1ZCAiijnxvDPyIA9fP5jjUkAmAlzTxpS+UgAJzGkZKYIu3l7p4r4TtTzoL3ZPevbrroSAKYkgSxEwDydJi3vnzQHxL+y2n3zxfl8GhNI35P3SiQkgUBQcA3Al2piAMtOFcMR8URAKYz3Um+O0YedIWAchIwAPBiE0DRMR+eynN27lUTV+z+s/sD09e6s/onAvAEY5huigXjqiPlJkFAEAgfgUQKdxdbONz+TvEA3thXOfEAdr+fAaUOdtv+EvfdFX6PVt8buzXgOyrDBpOhq5ewwWQU+PQsPUgA+ftPX+Ne+FPiHy7L/+y8SKFH9Y1IabEgEBMEsmGEGSyP579WOXYAXOF/CduYDIPYV7N7Hb6vNFiQV03ARxkMXGzzClOP85TO/Be86k7tTzv/lVszuGwYC/HNkmey/q+pxVdiP7ikAYJApSJAQZ0ME20ldrGudsIDFlWOHcCwJSwGUG1usrtV6riKol2hkACPqYQXvG7xuZN6IABk7e/W4I+EP7fqv2s9+XUU40DeKQgIAh4QIFe1oATgl+MrhwBQhsKgeBgmVnjoArmVCYEwjgNe2uZN27VzfwbPzg1HG9BzCODWz98R/PQ5ehmz6t/E0WQDvsXUrVKMICAIqEIgYcIMKvDO6Q/Q2WcleACwJHhJIaWqv6Tc0gjoSAJoXpAdwT2TbJ7kOnnaAApaReF93UT4yxX89H3aav4YBgkTQ0r3klwVBAQBLRBIpnBJUAJAz69+w9vOSEey8NoupgBAJnpq0blVWomu44C3OcZ1oTLOI5sAj8cBzninoEHkZkqueYXKdvsbGd9SSl/K6kfn9/mC3c3f5BpIbXH7Tpf3tZN3RpUOPWm2IBAvBIw0/tzlxC65UFAgFGeRi+snVwAgyYYZ/RwIgwR4PQ7InRf7DmSwcKOF+oU2bmqxQVq0UvOwWxq4dChw9wQbjYssLNzgT+g7xICEPx0ZlHqnn2sJEwOj732pgSAgCLhGgMOCunZ6/O0AOAIAJUzscQ283KgUAdUkgFwEF2/iI75b3zl+VEBlzlhvgbxrWjdbWLfTwt4DGWzZHUzoO8Kf3P2CaiCKkIPDNc/iT5V2qhQuCAgCvAhQwI4iE9r1DqFXU/wDAkkAIN5xpUNpqklA93ogjLTY+z7IYG2Xxb4jyP18Ni/lP/N31o6EiYd06HOpgyAgCHhAIJnCnc4k9vsZ94BAXAGAKLiSB+jl1hAQUE0CaM48NcvGngPqDGG3Btz9r96WQZ/Z7Nb+uRuETT1r8dshdKe8QhAQBDgRMNL4N7+CP/e5eRv41KG556VhfJcAQJwjSr+ywiABV42wPUUNdDuu3zmQwdod/tX/81/N4LpmFvfWXIGf+91OpnG6fr0uNRIEBIGyCBBzN0wczRXmfr73i3FAIAkAVHaYxP6Gmnp8zzChzDuA5gwZ6/Wda2MHY3jsTW/7E/7kHdB3jjqV/4k1Io107AeHNEAQqGYEEiaWn5jQeX7Gbn+/fVx8DQHv5wgAlMLKah5DcWh7GCSA5kuPfkC/hTYoEJDbnX6h+3a96134v7wtk3UPvHgQv5V/gbVgg0S9jMPIlzoKAiUQMEzUFZjcuWq+st/P7geQsVKhhUz33zgCAFFQpRIQyyVNEAiLBNB8Ij/7/otsbNjlfV5QcK31b7gnAEs3ZZCeZyEkwU/rweFEGv+gSbdKNQQBQcAvAokULgpKAOj5l3fEzw7g9bclAJDfcRPX57pIwC6OMe+2DPL3b1lhuc6eucWF6n/5lgxGtlq4a7yN7g2h7PidjYBNQcTi2v9Sb0FAEMhB4PR6fNvtQlbqvjEr4kcApq5hSQAECQCUM6Bi8DUKEkBzh+wErh5pZz0HyIUw6+efpzmjo4N8Nz+y5KcMfy3LLDw908YNo22QG2Kp+ajwWm0MuliqKAgIAm4RMEwE3hE9HsOAQBIAyO0Iqbz7oiIBhQQzHRdc3oRsZMA7xtq4dayNG0fbuGakjUsGI0phn08yxn0JOK3yRoO0SBCoYgQME+MLLUxefvt5DAMCMblITarioRPrputEArzMtYjunfWDofhqrDtcKi8ICAJfRMBI4Q6ORYXTBUq18SAFb+FQo0oAoC+Opzj9YqTwXcPETo7xX6llJNJY8sM0vh6nfpW6CgKCgEsEatL4V47Fa06MAgJxBQBK1OHfXcIst2mKQHcTf2mYeINjDlRgGXNE+Gs6cKVaggAHAqTaM0x8HnTxaohRQKCmVhYDwDbxheYYgdGXcUZf/JlhYn3QOVBhz48XtX/0Y1NqIAgoR8AwsSzo4nVbjAIC3ccRAMjECuUdIy8IDYHudfiGkcLMoPOgAp63DRN9amvx5dDAlxcJAoJAdAjQhA+6cJ3VEJ+AQBwBgAwJhRrdgFX05p6T8FtGCinDBAnBfCv4avj7SDKNyxTBK8UKAoKAjggkU7iAY8FbFYOAQBIASMcRqFedEmmcb5g4yDEnYlTG5oSJf9KrJ6Q2goAgoByBZAO+xbFQUcQz1Rb8Qcufupbl/F8CACkfldG+oMtDoJVjXmheBmk7BomxX7TjTd4uCESKAIc71GPP658YqM8chhSpabwTaWfJy8NBADjNMHGLYeJTzYW43+OJN400uocDprxFEBAEtEUgYWJs0EXu0mHQXgMgAYC0HYLaVoxcBRMmJlSQbUB7Io1nZNev7ZCTigkC4SKQNHFbUAJAz2/b6z0DWlC1vtvnJQBQuGOq0t6WrMcPjRRWcsyTiMqwjDRautfh+5XWN9IeQUAQCICAUY9/4ViUZr+qrx1A62ae838SBAGglkdjjoCRQg8O11mO+eayjIyRwsSaOvxjzKGX6gsCgoAKBGpq8RXK9e1yQSl65pheqK8dwHAJAKRi6FRtmd1S+IlhYpJhoj3ovFH0/KdGGg2y46/aISoNFwTcI0Bxv4MuRLeM1ZcA3D+ZwQAwhZXuEZU7qwGB7nX4k0Qa9xkmXg86fxietxIpLDJSuJKCG1UD/tJGQUAQYEAgaeI3QRcgCgi0Ny/PudszetX3XTSIIbiLBABiGGmVW0TSxN8YKTzYZSvQGXQ+uXyeQnnPMEzcQGGNKxddaZkgIAgoQ8BI4zyXC07RIwB6/sXNFnbuz2j1f80bPOf/homeyjpACq4oBGoa8XvJNM4ii/uEiXnHBPQ+hvlFfvu7jDSmHjuyu5eOIWpq8bWKAk4aIwgIAuEjcHp//HEFuTqVJCl+F+KavviL8HtG3lgpCNSk8EdkRJpI42fJNO5JpvBsMo2hhonxXfYEZFPg/B+USOEJStmdTOESitQnrnuVMhKkHYKAhghIatTixwQJE3s07DKpkiAgCAgCgoAgEBwB8hP2uzuu+OdSmBgcYSlBEBAEBAFBQBDQEIGkiZsqXpD7z/R2l4ZdJlUSBAQBQUAQEASCI9CtAd8RO4DCxwBk4R0cYSlBEBAEBAFBQBDQFAHDxHrRAnyBBGzUtLukWoKAICAICAKCAA8CWT9m/2pyJdb3UROShInHeNCVUgQBQUAQEAQEAU0RIP9lw8SBqIWuRu//+Ce98YeadpdUSxAQBAQBQUAQ4EPAMPGARgI4Wq1CGo/yISslCQKCgCAgCAgCGiNA0cWSKbwqJAAbzxuK39W4q6RqgoAgIAgIAoIALwI1afy1YeKTKiYBh5Mp/D0vqlKaICAICAKCgCAQAwSSJs41TLRVIQloN9K4MAZdJFUUBAQBQUAQEATUIJA0kTBMfFZFJKAtmcIFatCUUgUBQUAQEAQEgRghkKjDvxtp7KgCEvCmYeJHMeoaqaogIAgIAoKAIKAWATKGS5roZ5gIK895mNb/GcNE/+51+IZaFKV0QUAQEAQEAUEgpgjU1ON7hok+holDFaAR+IzSsUqY35gORqm2ICAICAKCQPgI0G45kcKZlNPcMLHUSGGbYeJjjUkB1W17wsRyw0SdkUIP2fGHP27kjYKAWwT+PwwgUOmAl1BlAAAAAElFTkSuQmCC;movable=0;resizable=0;rotatable=0;deletable=0;editable=0;locked=1;connectable=0;" parent="22" vertex="1">
          <mxGeometry x="24.75" y="9.5" width="40.5" height="40.5" as="geometry" />
        </mxCell>
        <mxCell id="24" value="" style="group" parent="1" vertex="1" connectable="0">
          <mxGeometry x="-1770" y="100" width="90" height="80" as="geometry" />
        </mxCell>
        <mxCell id="5" value="&lt;font face=&quot;Comic Sans MS&quot; style=&quot;color: rgb(255, 128, 0); font-size: 14px;&quot;&gt;CLIENTES&lt;/font&gt;" style="rounded=1;whiteSpace=wrap;html=1;fillColor=#000000;strokeColor=#FF8000;strokeWidth=1;spacingBottom=-50;" parent="24" vertex="1">
          <mxGeometry width="90" height="80" as="geometry" />
        </mxCell>
        <mxCell id="23" value="" style="shape=image;verticalLabelPosition=bottom;labelBackgroundColor=default;verticalAlign=top;aspect=fixed;imageAspect=0;image=data:image/png,iVBORw0KGgoAAAANSUhEUgAAAK8AAACvCAYAAACLko51AAAAAXNSR0IArs4c6QAAAARnQU1BAACxjwv8YQUAAAAJcEhZcwAAFxEAABcRAcom8z8AAEQGSURBVHhe7Z0FnJzV1f9D/zUkO7JBSoW3fevtW4GWtvRtgfpbo0ZdKEWS7I5sgkMJ7g4JwT1IsRKkSIO7S4BAaSG4E5IQ2Xnu/f++VzaTzezuzKwmec7ncz+zO/M8V8753XPPOddGpZRSSimllFJKKaWUUkoppZTSSkOj20xrvmx+kS1Vivly5y/4P/yUUkojl7Jt5sfZsnkwVzaduYnW8pktmQeyBfOj8EhKKY08yhXMRtly8np+B4G2w9qWov/kf33/Wr5gvhweTSmlEUST7NsE3un5HQXYkoBbWPrTfV80f+e58EZKKY0MypTtt3ITzEI07Wpt1n55f2uPvcF/8j/f8zvPhVdSSmkEkLRppphcnN/e2oxMhdHStsdeb+2bi/3n6Hb/vf89uXjUKLtKeDOllIaXMmXzjVw5WYx2fedYazc5xNr7n7X2qdf956b6n++d9i0nizKFzk3DqymlNLyULZkLccqwb9G6R86w9uk51j76ov88Sv/zPb87562UXBheTSmlYaAOs2qmZP8rV6psLfC+hVZ9l7Tr1w+y9oHnrH38ZWsfEXj55P+v6ft3jfPal+fzRfMX2b8fat3SjA45ppTSwJMcrfePKZofZoumXcA7LFuw5+WK5nr9PUufnQASrbq6HLMj/mnt7Dc8cGPif77ndxd9wHzgvWLyuPK8WemCTMkcLUB3ZMvmR7kJb70/FJ1SSs3R2hPN6tmiPSBXMi/lysbZtDhdhL34ZBIiW/aAfNs21n7vSGsffH6J1o2J//n+O0f453ie93h/qfwANeWUk5cE7v0oP1QlpZQaI2nDY7FR826mTKArSnu2W/vu8d4BwwwgDEY0AeBe97i1/3l1aeDGxPfXPmbtdwXgNfQ87/E++ZAf+bpJDZVDeW6io2Qmh6qklFL9JHt2E4FnUX6CD3OtKoC1Clgf2tnaz+7lbdufT7W2dK61J95s7f2ya//9Wm3gxsTvRB9O0PO8x/vkQ37kS/6U48JqaPWSWaj09VCllFKqj2SP7s1QjjZcU8P5uLOsPfVWay+639qb/23tLJkCT74ujSpAkrqbCj2lx19Z8g7vkw/5ke8pyn+syhmDDQ2AVX6mbPYMVUoppfooUzBHMHQzxK8rEF14n7VvLhLgBLp/CYCzXvKhMFItkPaV4rvkQ37kS/4X3Gvte7ZTuYTVZAtnC+awUKWUUqqPZDJsi8mADUqU4Ev7WXvVw37ioVnA9pTI76k3rL3yEV8O5TnnkPKLlW1ClVJKqT5avWjWlsc/0ztO3rFaf29rr5i5bCisv4n8rlDHIP93MBPHQh4cxaJ5aPWxZq1QpZRWRHofEwYF8/kxZbP+QIaXckX7v7myedqFsQQogPU5OVeXPhg0sIb8WmCsN/E++Vz2kHfauoBLeWXzDOWHqvSb1hxv14A/mcKiz8Ov8HVKw0nZYuVPuVJyV7ZsXtBQ/6LSPbl2s+0oOzCLX/D2s+VkdjWAP72HtX9/wNuptUBZb8Jpu0T5kF81cNWW2dkOs3GoQj/JrqIRZKw6w73wJ/DpTrXrj+GBlIaD8mVTyHckxg3t2IdKbrglLlswO4bH+k0sMlcHeTIC+O0CGpryuses/XcPcd2+Eu8R962hcZ+kvFB0vylbqOzcFTeu5lFZfOsw7eGxlIaSWtvtx9EkeXnm2RCHJdjP33yn3+aMkSkRHu835dvNhtKGj/m8rf1/21rbfvaSyEMtgPaUYoRh/DTls43Pz7Wjw8wSoDYMRfabxrQtWl+dbm7kEfyBT108KpuXWkvmY+HxlIaKsoXkMDRIVoJnuvWHR/ugP6u3nHD4rWiOD48PCLUA4FLyFNqLGbIv7ucnHeqN8cbE8/fpvS/uGxaqoxFL5knyD0UNCNF+zwfPF/jzA/HJTU/TYRz/zCHh8ZSGglo6zIfF9JdYG7CaNMkndrf27qf9+gE8drQLYSYJ702lz4TXBoQEsvMZ3gln/Y9s1Xue8RMPtUDaU+J53sPWJR9nLhTN30IRA0LZdvNZ8WgufIAfnxdfHnzO8wl+wTe3NkN8HF00HwmvpTTYJK17iBsKpT1YH7DTRT5O+rTS3pdpeNR3Tvvi/BTMceG1fpM6TV7D8D3YkGjMbx3uAfFYg5qX5x/Se7wPiJyNXjR3k38oqt8kUB7n2o+5IH7sJb7AH8Jy8Au+Oe3rTApzUHgtpcGkTLv5oATzAgJfVQBCi1wfFsTgBN36pNcyCCwMx6/Jlvyf8Hq/KDNuwYck6LlMIJD/VqcLiLJfm7F5ATDvd63xLSZzyT8U1S/KFhd9hnajdcmf0eg28QX+wCf4Bd/gH3wUP5+Hr+H1lAaDiOFK8x3tNErQuttf4DVKnPVCs+w+3WvGuG9MwjkxXzAtIZumqbXDbMqMG4lJi30u9+Gy6ngv9XhCZsEzc6x97k3/yf9LPaO/WdfAKPEOOX4xz4HYHkQ7pcVPot20Hz5MEj/gUawff28nvtGGqH0z4mu6BHMA6JOT7DvHTDAfzbR3fitfqGyZa0/2BIDSJjOUFualqbDjPv5Xa2/4l8AhbRKBAVDQMp+RPbkqWg1glJKKBHp9tkweyb7Ka1xLwXwPT3u9Sfbdodg+SSZIG9ocgWOrspCmGhRoNsA84zFr9xWwO87T5xX+f77n99jJ2B508i0+H/Jz+RbN+FBUn0S9ibjky+Y7uYLZKlNI9lL7TsqoneJRhXbT/s/s6fkBX7p4hPYV3z62m+cj/ISvuWIyAz4rj31ypcq2LUXzbeSAPEKxKfVEo3cyrbmy2U9MfETMfF7CnIcQ0CJdC7b1P+tniY06W7fbTFe1VkOz8OxSecjD9sO0eUtlvCAwP5bvMAeP2Xree0I1eiQ9O5lhlsU6/7WTtdMf9GUBBjQ+HWni3wQKdSqeQavy+VGBpHyuBwxg53nqzQQF+bhFONi97ckxoageqXV7s64Ae2iukDxG/QW2+T3xiPbTiahjLR7tdKF/pqVnHs1DDk4e5WS/gbTJVyjSkLWWmHQDjGMYc7aYGNgirRQXbxOnxNbEyfnNCX5vGPHSKJSY4s6FLU8L7+kd3uVv8mK5IXmj7VxZLpyU3KYh932hOjUpW0qu4nny4jwGPPcX5nrN9te/W/sp2ZGxfgzZAMAN3fofEwc7czc9d7ue5727Zvt8yM87TskVoaialCvaDwhMdziA9cUj/f0Xtf+hGjs7SPAN/v36eK99e+IRZUQeqfNet/bEuelai+4kDXJgK8BFa0gTsV0GrUAA/336niHu8/tYu9lkaw+/xtqZL9QGLulhJYbJh/XMMddZ+9Njrd1A75LH+5VXXPRNGZRFmXlpQNl9k3s7U0HguhpBsusB7YrZcMhVSxxE8nQTDggcYBGqCn/zfQQJzx9ytd6X2UCdAEsA7z9CUTXIriKz5dhWgBt5tHVw+JQ37SIv2vkztXey2t3FhyreVCf4N1PgPkz8/LH4un7gEfymDOraxSMBGfmoA+8fKpQSxKIRCW4WAmS4+/Cu1v75VGt3udhvXDznbu8hA9i4mLueiQE8evdsADLD+t/uEaCv9U7MNmdY+xGV5YSjIVNgY4brvaFay1CmZPeIwzIhKBLAA5TOOUST+3ye0yiyZ2tBDp7ekS36rBuS9TvP8TzvxTzikK1h+q+hqGWITaDK93HHI9X3IwLZ1qo/mpyt9ueJRzeqfbQz8qieEB58jDyCv/D5XOV1tHi0+yVeDv+9i5eL62AlMzN17KqILeAS3LNoKKZdNz/O2tcWWPviPG9Lwly0BMIgzBSdnnoSz8bQFHmQF3kybFPGH072w6V3xMyLmdKiz4VqLUNuq3vZPOaGUAEOIDrzANDyXcm8Jtvw8NFjl55yHV1a+DG9dzi/O/AHELt3Aa60qdo/KzverBdeWYYy25v11cFfzupdNOKfTlH9F/p21OJRLV70lHriEfx/VTzafKqXSxhNZsOHUK2UXHgHraeejUb64M7WnnCTZ2CjgqgnkedsOSxn3eE1bxy2c0Vptl40L6R6fkUCvJ3nnTZ1QE7eIJIhofYIfIjfs4XkRNnCb/Ceex9tVjbY272eIInmlTb/V+QR9ab+tGPQeCT+IwfkEXmkTvaInMb0rIlqyheTg50wpYlwGth6M/l6750PpHDwtBEK+9HWk53LEO5sXqf9kin1nCPmD4/u/IW05k7SqGMzbWb98FNdlCku3qC1ZMbxfqZofl6fF4/NmxzrnDXVl9GC+tMOZherown9TfCbUN4U8f+9kgPycDzS3zJzDggVSinSWkWztpyBG+OQDKjYy4XtBYAfGwDhIBQEfdLNcnAEgujsUKa06R1ot1CdEUlEG9TB7ow8ov44auxeHqhRygFXecF3+I8cnGlDmSVzA3IK1Vm+iVVQmZKZnJ1gLtPnxdlypZTbxmbCzw1TvmP+ewnHOLswAHht2VmHyWkjLtkf4WDXMVFw/I3yppU/dmMXcMvmVuzuUI0RTW6KumRu9WDy7UA7Tr3Bt68Rf6B7cp1bfD5c/F5btnXXqOTkkVxPjDlUo2ECF8JI2eHE4SWZPNCr6Oom2T5/ynUkr8FEN5SR1FMFvhl92Y29Ub4w/33q4TNyVQBm6/kUCQdHolnhIFhCU2gTF1cN2iRbTm5Z3ub1nYNbNrc43qsdAJh2nSwTgk5eq/19JfgKfzHV4HeXxpUc1Fn+md92fvMyFR7kT1zr/ISIFTrfBPMqO2HCY0NDLLdTr3/D9cgQv3QGPbFAVSxbMGeFR5siNj9qeLw6AhjhEOC/8Qkft6zF/N4SM1q3/cfHQN1aAjSuq3tyQ3862nASEyqyt6+PMni72vWFfcNUsNpbiw+9JfgKfz8uPjtzSnyH/9KUV602ft46odimSObg2S4+LXyAE9cxggz02xwpwgFdttorSTOeHIctFjazlWU9Vc7FAjXcCBQL5FlvEh5vitYpmDXVsMtibJRGE89EO9Rifm+JoRA7F6YRV3WTBmVzTX7b5RO4kZxGQysSwlK7mMljvQTtrcWH3hJ8JaYOn+G3l6OZvobkEIprijLEujuSheQHPsAJeAE3DsAOR8nJ4fHBJXbp5orJPCoDGJiV4cSXg67yFcoQ8Gc4LppzR21u/194rSnKdHRuquGxwqF0zP/venHj4I3D4YFXqr7SKG4VlYTdUjDfCcUs1ySAfdfHX708DpYcaG+j5hXvMCkEn+G343uhn5tAJ9m354UD8AAuwMdBkgN4ATdOA9NJhCdwFd4aPMoWkpO9uvfDOQs/Xprn1xJsdKC3J5nTl2ZbmGtf/NXwWlOUL5mf5ScaEwP6TKk2Cl4Smoh4JZopgled6/ehmH4R5+vmxpn3s8KL4Y9JDreLoVty3+t3t/du3FvvZ1YxZNEvEsj+EMFLSOtEtbMZuxe+wt/Ia/ieb+v8aSimKQpHB7h7OsAF+GCtBXhhOSn40Qgd7eoTw2uDQ5myWV+VeR2ti12EDXnHU97GwiFijtwt8aPxqpB63Tnh1aZIDdqZXkuPZT0CRyH1dApjb8mt4HrQRy7Iywm7kBwYimmYAKFSu4AzFedSGuoxOSSv6m+WFXbq78XLJn3vfpeT4laEJTN4X6mtP4vl5Rsc7EYS8Zz2sdKtGbOB5ZrwFz47HrnhvH87sJ3WBZiqG7hgTQqhSvACbsAPOHIminA1qNpXApvqhgBVhl6+56U+vkjjmVZkldVX1bveuaRCLKn7Sni9QXLnDZwSZ5Q+uJO1N+Gw1QAvZSMwZpv4u/uQiWBY1/B52Vou4C4hC0yXhILqotXHzl1LQPuT2nSVOtWL7mxdnBAiLOTnRps6Es/xbvC83T6yslvaeKXSHyknFFkXCbyX0h7axYIf1jfQ3ur2ww/4gqzgE39X/06Cr/AXPjvnm3bJt6ln0qYWueMCJH9wAB7AxT3CRyybuoCfuALPmZoFMzW83k8qmHe5kAyHbhQrv82Xkv319zyYj62C0c3SvmpGsGsA2xJGOtsXoRbNbapUQV7rz1o6zIb1Okmc6pIvJrfARPLjKFA6RyyPGSUYjjBukQ11xm3WnqaEALoWfoe4MItO2OX7/aP8SjUnmKJ5eNQ29h2huB4Js0D1H5fpSO7vAp0+Ge6i5xwTgugrVT+PNnLDZsjX2X9llVM0Y+ta/LK5faeefZT3aRftc1cKVPEIPsAPIgmn3Wrt6eIR/IJv8C/yCL4CLq4fiNuDZLbdXO/pOqtPNGuNKdoNsqXOHwsv4zWy3OH4JBwgP3wi8EFZsTwiI5/d05cHrtQR5ykdQCfOlDu/MbrNfLS+RUBihBj5E6n6KS5MxQkrRfOkMpqDxnDDiApgSGEhOBv63LRkqEys0L3PWPuV/X3oxnmTCFtDhxpj1JNfUZ6Pq1feIc13gZiza76w8JOhBksRzNDw+jICZWj53Um+DBaPwHR67i3/sXbHC/xugXXEKNKnJvmzb1n4zTMRxNiBfzndL/HzToJ5cUwfu2adp1wyN7g2AC7xgRVdcZH5B6Q5GfpYcskRqNud753KntJ2f7N27Jl6fop/j+ld8oFX5Ov4TDlqh/h1HYojVKUmsctB7XA8ol20j3ZG0NJ+QMuODviCWQGP4NcO4huOE8/AT/gKf397oteU5CkcvIwcQnFLUW68+RTyyxWSCzUi36b0qHjFie6dzmSkHZI/bQMP4KJa0YEbOhA4gp+YPeDL4YyyS2au8pwtHN4vHFwjRTZFI9Rmyygc5uqz7cm5vBTB5gCnhsbFzjCXHsQhGT88ZtnKxOQmA9TD11U+Uci8i4ZZKn8+EVKHhswazpM75KMkW1Hlv11lsjzv+Tf9nDv20h7T/dZzHAESXjLloNH4ny1CeM8AHAG9Mt8zCifBHalfMguU/i8UtzTJS84VKjvKFp3j+ABo1Q60G8L/0dHe4cC+xAFh6pqlhfADIPSU+J3nmMnivctn+nxYS8uMFvlTjgOxKzd5Q3XcvqeoTbbc+QP9vpD20C7aRztp761q965/9/HxyCP4Q4r/A2iWht4pfsJX+MsSS3cQCppQ/G8pmy+E4rpII9EfchPMS3HEiPJEvhqtXRnIHfmDg1Ol7cFFd6zAD44A4CwJygRftL9rs0CN/FX22dUXka+SKZojnf2lF7A/aBgF02sY6uhB9FrW2aJhbldjcZxqLXJ2vV4VPeN2f/8YU5drqlA0NsKhknwyZEbNrB41r6Vovhjq46i1aL6pXmwceFUPtqywzZzh5wuEWSQsgBrjtq6RJP3tYp7KHw3CwXj7SKhEQxCMcyg9eDsF0F+G4rqIYUqd6XiXZ8gLzb+W2oD2P+8erzUYAtFucQki7a4n8SyJ93j/WeXD96wzJn9mtyivq12uDsnUWsO32vAr8ShxoUS1i90ctHNvdQjse/KBDz3xCP7xDPyEr/AXjYzs4Tt5M/qE4hzlS4u/lC0l88kH+cHParkiZ+SN3Dc91NozhQMXulMbu2MF/MADzE9GJPAFzsjXKcqAQReVoA2qEziVfA53lcmOf2s9McH1IhqEkDjJ5btHWvt7MZOh8FB5iWff5W0lp11qaNzqREWpMIub//GwD1OhFQD+L6Za+43DvGakQg7AaqgEtNTpNmGL+xzXm/Ucq/s5pAPmOO0ZG8MwU2a/W3Kont9fbXGnOuIouHCeBIQm+KS0DMM8NpgbUZS3mLDUzE5uG5uRYP7mZvaUN2UhXOxAhEDbMZXiEDtQifzQluRPp49OL+W7NsKfkjm7+1JEjWaf0/dzaQ/ton2002lXeARvxQfeFxCfEc+wJw+RRn8evpE3fORZyoK/8NnJxfEvmaMyllq7q+9OdPkpb95lR8nGUlLRdELOyBu5I/+egFud4qgEvsAZeAN3fxD+sOM5sxhcOgB72b3AIiV5hYs38l94lY19hCpnRf4zYigaBtuESlAAWqNWBWolhELFGDIQDlqGvGgU59zSSej9rhcXzZ2BP54m2bcJkFNaZRcyfw9znYMTGOsFmszV8HV0tm1RV6hJdtgnpMkPlc241MJv3iUPhmQ3hV1Mpi11kmThsXdlCskZvEN5DHtsTNxGGgFHhvo30vZmEvmzogvHlDMd4vDbZUYU5P3LpAk19jwqm2m0h2dq8Ui+xevwI18wXb6FeP1pmWtHqfO+WYtHtB++y56dTBnhNUfi+T3IC7ltKFBh+uAkgg/kC5+QN3JvpJPTdvBFPmAkYo/v7xMey8IlvIgdMlda/BXZlos3dPaNKkzl/3iyMlHBZFCrkP4mKsPqf3bOon3ZD+aGsmJyc+BPF622nV1HjP67AxSJ5wBeh0Bbsqe2lhcvY49F4uANMfoECel1p2V4lzzQ1CVzNSNOeNRRpmT2cs+IF/ABAWJmIASGtlptGaxEeYxu2OxoOITmNLAbHZfeKpSdaNbTyHONa2PkEW3sALTJ8dm2nmPIrbJn9e5psu3nxrBf5LV4dHGtNQ1SCrfyHHJDftMlxxclz8Hq2OAQXvzhFC8XZ/J1GNnFMjPX2MaOEUMep8Gx922hBx8KKr+nzXvNJIYPNMv593pngd7bpVUEnsCfpcjNYBXMVtIeZwmMl+nzkGy7+Vr4uU9ih4KAyHB5qd49J1uotGXG2Vz42ZEE/GNp8AWAA20HH/YIMewYdhrqRLkI7q9yVNGG1Iv6CWxv5do7l3I0MzvZXLZcaXPtKyWX0t6+dmZUk977WnaC+Foy8Pcs+N3Tbgkpk32cvCQ35PdpyZHJDeTal3nQSIr2MDhkyxO4RC7gVKPmrC6nTQIdJ+E5dQyjsIGwd/GIcb4GAsAOuBoGcHjosS4cwxBAZcrmYWfD9EYMX/05/IJ3uw2B0FpuBZt5GG2C3YiNTKiNjjtcwI2J8uF/29leJk54qme2kDyI0glNWEIDwqNJy/ComtD0As8jTrtLfsgRu5cNoMh3IADsgKt2gz9wiN/hzBnMBWcymG1DdTzl2yq7Yz5EAPPCr473wX0EWauQehPeOT3z7Dv9rlfydsB1PTiZNSSLMnogaaj9veb33jJhG5jWzNLLwUjUA5uSywepn+ObAMwpQqEJQ044ihoBHo18Q57sqZt2R9DANdrRSAJv3Gv36xOWOJMRuBoddq8565dtr+wieyLhQbQQlfqlAMxZsv3RQlQG4LKFuhq46sGPsp8rFD/ktAbOXTi0j9AMp9dw3wTTzLXaMVyJ+lx8v9+65OxxzIeSeWY4jybNtC1aXzb1o64jSZ6ADPkSLWh2QTwJnKEwUZxodXDogCtcaoTcJRRfm3Ltle31YCVqYGJ+HGGE/dHMkIAHySwPszpdmgPglpKH1Hs/FYodFpI3vZe3obz9RqQFO7e/mmOgU5yNKp7jQeI8bm9u9XjOw1BQrrjo08ixeuRi2QDyRu612tJbAl/gbILwBu66NK7wmCtWdgjF9k6ZYoXbx9/Cw4VZn9zd35/QjPlAL2Q2DHA4m43KEG7pYVp4qGhdzkVjdZfqgzfPeWJMKRNdqNWO4U4IdcYsr91c9AHbt2ge0hCeDU0aFspPNJ908hQfkS9yRt7NLssEZ25WULhzcWjhUGZlORRXH8mrPJzhiQqhmc7VcIBWqlVob4l33Hw5WhfgFs2r+ZL5Uihm2ChbMD9ys0jymqkb90MAkMEK+fQ3US86FqfkOF6GuudKnd8NTRo2yhcWfxm5Il/qhrybxQo4A2/gzq/xaOIG0HyxsgvgZZ6Zu3DPv6e52C8V2uJU35OcwV00s0ePgEs8MqXk2Ng+1rC6AzyaYPhQJpwhVoVF4Trbt5AcGZo0bIQ85Ts8jXyRM/Juhpfg6wLhrOvuZbUvX6rsHIqpn/Kl5DyGJhwZYrLXPOrDF7UK7S3FWCVxSr+mgMXand8PxQwPTbLvVCe6E1sNB5KTGplfHykRhp4SIwNTqKxFIKTnfQdz66iNq2bdhoGkdb8v/6XTzdJKziyiakbRga9/yjT61B4ed940Ss4NxdRJk+zbVKF7efldGga4O4Ep0loRB4xsVkr1NBWIHcOhGNUr9Ikrh5KGhVhKKPA+w7DE4g+GOZg90hy17on6/Uf15Cw3FsKgmQTep4Z76z7rd5mhQ76t0pon3dKzfwROwEst5x98sTThm4d53LlIRjG5t6ELIXM72g8wDMAc1omy2gmmVRdIJZjDppIsj2S9AkMFdln1c2iLq6W1OVfAzRIJvPmiOTQUNSyUL3R+R+2bz7I7eviOF/p59FjnkZxYP9AhbxzNS/3VCd/MlDr7tVO7v5QrGHetGPJFzm6UltxjncEDuAAfrJkBL+AG/FQrPZ7je5QJuAudU+ZIAycZZYqd39RLc2EOw+oOEi73KzDzgeMQ7Rk0Knd7bXSAtZsc4memqHgENc8QMuEQ5f/ZM8Qo1TiZJNM/ufnwHRWfba/83q0aI+SkxAkxfQ1zMBmB4EXz7EAn8kXAfTmMPMsOXOxe6i+HxqgNm4emDTlx5L8c8OnIFfkSEq3e8eJAqjpjDoAPcAJewA2rz8AUeIK//A3OuGcE3LnOKRxmOpZeltkrcR+BE25wZjigGc1EJagUzg0LqBE86y3xMInLUSChHOLC7BmjUgAZrczzhFFcbyomj1YvKB5qypYq4zAZaB/rZ2FirdAOQAKwtJ0hmzAOkwXM5V9438Al8mOhEjxDiDhmPQGZenIAXnRqcJK4tyM0bchpjQmsjUlmIVdGg82meHkjd9rBnjqUHzNw4INdOBEvxIZ/dIy1ZwpPmBK0DV4fLbw5M5P2qZ2yp7cKxfVN+WJlEsMA8UROa4zz1jAZewvGUQFsnLiwxqt43/uoJE4eK/nRuvQ+tqjwPZVRb5oznCfVZLmzWHVmmGPxMx58HCli4n86Kjeys7b0e0dIq+zlZ+FY88ps10Al8uMYUTZQcpPnLhdZe1UYemvVi4NF1lK9nRmmz1x7Zem5/iEktvFnZLogV+S71Rm+jsh9t4v9wh2wAi7c5Irq6yY1gg/Eb+CJdd4XqCODMw63Bncuni3eCC+7huL6Jmmmol+w7RNa808n+9Xx9Jyltqpo2FLmN8nBe9yBmFiu3qEXomlZsztumgeze498C8lT9NhQ3JCTzIZiBC/belgAHkGCtmNoxk7/4ykeWLSDEYZPbGQEMdCJfAkzud0r+pv9bVurw6PtWQAftTD1ZJsVnc6B1zk1lbGhaUNOa481axH+dCOZ5IuciZnHtdouRCo8uBECvAgnDi8l0wVicAGI3ytes4Lsx9LGEXsOL2XTForrmwQsLqV+yTFGGTjGqiJdoOV7QFpOrs+XKpuPmmTfnmlf8EFVbB+p+BecXatCiUVGoUQt7RY5l5LJPe3LGgqqBV7CNAxdfB51rbUf1TBHR6X38xxaBQa7XcABbP1N1eBF0JQXecW2Hv5nBd6x4ZBBTIqRBl5kL2V0rJNr0Ka0gfbFWLQHKTcvmX3BCe/ky4bzja9DY7s2BBDHd8Gdb5t5cfQE89FQWn2k3jQ+P8FUUNvO7qAQVcINU0wHdpg/1zr1ZUyb+agqeYQq+7J714Hcf/oGmnv62rU72FQLvNjnDNPEKGGcM3HCJ8xkSP+9vOBJMoX2v9yfFNTfdOA/rD1YzhdHNP1VQ+yvZJKxqZQyURaxfOw/ruaiY1HPEQVeEfKUXO9z8q2St5O/cCA8HNVaY2KK/YLym7YQQO/uAnnEmt4Ffxw7EB5vjMSUX6sS1wmsnASzSOr7ZkBdz3x6a9F8Uc9O1RAxmyFCn88rnxPZix8eGTbqDl4chhfm+TMncBLQhGiNt0vzsX/qlJutfV6gGQp6Unb2sXJYuHKV8uPoxRDK3i7uieA09JEEXohZNmHkJC9n6mtmC3jHtrQtu/u4O4GnsJj+ZnDm8OZwZ34VHmmO8oVXWug1re0LP97MIhBidOyfypQWjJhLOKrBCwhwRHHMsLkwCwAMmo/bgoYKtN1ptkYBdrSgeakPZgUbLK+c6W9H6nLYRgh4IyFnt1iniVPmwRc4A2/5373S7+t2V0iqBi+AJdrA7ldsTIDCOtJ2OR2LOgOShoneWmTttupA1Iu4Lp945RySjTc+EsGb0iBTNXiJS7NSi63VLnQj4LJrYb6AMxLozQXWfvNQX684UhB2/NDOKXhXSorgxY5cR8LnsAuAQCLmeP2sgJwRQjMe9U5brCMdDlud+qfgHWk0yb6bM7I495aNmWzBHshbFwXedsCLVwwAXBhPn2i3X8h8qCQBNSOEqM9PJ/v6UU/qixlB/QN4twlN6zfBZ9n96+SKb30A/ruzyv5U/834Ky3J3txAXuquSldkiwneKjezL9DfXId6ba5s9smWFvd6+Fw9lC2akg/jeDDExGKQE24IiBlhRASCu4ar6+vAywhSqNQfxO+BxPOv5zrMPsr3OvHnOcd38d/JAXmUzS6czxweTykSPTxTMkeJeS+5+B7ahHhhiPm5mKG+8weOmLn5spmW7VhySk4jhCbPFc29zNwAAKfB9Ik2Y7PfPx8JaBlhdPVMX8c4SsR6+3aYe/o8OqAH4lASx89yMi8ePFKT93R2yQc55fu4HX+lITGdo9/vd6CVIPD2ibMym8VUaVz4Q6zTCQ5m6tlsR/J0ponVVMSe4+3yzJ4xFOPFj9rK72P710sBLSOMHn/R2+bUk/rCEzf3j/aFH4Xk2NDEuqmlUPmlNOpsB0zxFf7C5+68j3FvN5HAs5IXcgvZrJyUabObSGu86OxPaRFimTCKw+L+fIq1ky6xdq/pPlzEebY4K3Hmy2mIDjNPYPxtyK5PGrOt+YiGQHeoIGUxa3bW7dbucL736M+8zVoTwNIbJQNsE9eTn1HFTr/V15MziakrJ2DSDtojPry45vgFHw5N7ZNkEvxOCsCd9ojdD1/hL3weK37Dd/i/xcleHoCashzvnb9gXlijj/ODV1haq2w/JAbMil4/K+c5eeWYGda++KYEWoUi/nzjLS88DneL8VgH4LJ5Nde2uK6rA/LFyp8ZCqWxnSAOv9rnDy1YHP7og254zC8coUM9+3r4skl6+jU/EbKZ8rvp8fBlH1Rdz8NUfyZTaI+zf0uVLUJTeyXx7KtKr8M/F9cWP+ErHWKO+FxNOIvI42jJhZGJZ12UA7mVzSPL2wWMA0JywE53Q5AYwdD9tQOtnflc4FgvhMC5Qr+aiZlickM9x8/L1t2bMjkkjlVbdz0ZMq2T5i70W1RGban0F2v3lHbqD6HZXF5K31K+5N8I3an6M+vmDiuEl2pfaGrPtI1dLVNIboxKA0UAP+FrXzTzWX/ca4x6YH7lCvbUkPPKQc7OlTfL8kmGKxajPPJ84FAdhCZg+ITx0amQFvhdyL5HUpnH4JSgdRkKn2tw6pfnqauzC1XvrU4LPzRJf9H75EN+5NtofZ6R5ueMA2c6qF20LzS1R+K61OiMoQDoNPCzXkJO7kR61dstfy2b+bmC2Shkv+KTmDwZTcEiGOwszIFG6bpZfrbJaR0JLlM0l3AJTCiiJjnwSuM68ErojQ77r8z1O3dxmtC85XPDD01S6RyfD/ltuK/PvxFy4JWp5cDLiq6+wCv+yLG7zI0+6jBMdGAGNUqn3eKdReQXNH6fnWaFIHf/RcnexbBFz/9fmQvzmpyKdeYDQxiat2ie7+s8CGmJfRAygmPnwr2zQ0Z1Enb4lGv9booN5Ozd/K/wQ5N0k95n9Rj5Tb1uaTu/HrrnKf8u7XGat5jsE5pak1oncNFh8iL8YsSDf80Q5g370OC9Nz/MHd2PjV0hiZsgxeRXGbZwNiaeFzjSBAEkhlwcFoawfLHz26GYmpQrVbZGcDgpLHw+VRqkGSKc9sKc8E8/iXyaDc+xVBMNSHvgZ75o/hKaWpP0+7fdsUziF4Cfen3IqAnq0Kjj1hxjgpTMyxzmHYpZcSlbMBsLvCaexI7GaZaumrlEeGgAMfE3oZialG1f9Fk98xoC5NwDFn83qOxGDBE6+2U8v0Htkd35qobvT4em1qRsh/ktw7zrvDLX+jMhg+LAZPMHyZhKtn1x3Qd+L7ck2/Sb9FZ6P8DDfmqWCC8hhAjefMn0vovW2lU0xF3NswTk8bbPuytktpzR2XdgKvl2uKG7mFwZWtkjoZl5Fn7x3s1PhMyaoFOj1hcPnTwb2Z6+vFJ38DY7dEM3NgpeUabY+VNMB04gxORghdZB/7D2onusfbkBr3s46CXVj3pSX5ZEUn/a4fnZ+ZPQxB7JgTfEdh14+2Gzd5ksKXibo2bAi8ctIZ7jHJwwRexCX3IeMSNYPzsSiXpRP+pJfam3m5hQO7KF5Oy+Ii1QCt5+0rCDV7Rq2/x1Zafd4AAcHDi8b7TZA8+EzEcY3f+0rx/1pL5u9CBMpXaMKc97T2har5SCt580rDZvFa25nV0nW06m5DqSV9BgaDMWvtwnkIxEIqxH/agn9c2Vk1dYjDOmbOoCLtQdvLf0A7wrqc3b6cCLs0Tj6cHNEgF2Ql5LwGvrmtuvJjk6U1jYspry4UgiNNxIJDoV9aOe1DdX6JwcmlA35QtmS/gEv+j09a6nqEUn3+TlhxzpTJmJdlgP+xsSypUXf1WAWUSIBS3CuQXN0gV3h94fwVs0Pw3F1E1u4mJ5BG896xi6kfjz8y7wKp+L7g2ZN0EHXuHl50JlxWRBI/e+LbfU0mE+nC2a/2Cz4Xz85oTAjSZo5wtDoFwMzJbNwtEdjTMQEFAXOgGzVXc3uFhnqIhFRNSPelJfLoMJTaibRhcWb5QtmUXwiynlXS8KmTdBxJiRn6tLMfl3przgQ6GYFZc22Ma+Q730cpwlzkjACXno2cCRBujV+dZ+Yd+wQER2nByX+9YpmDVDMXVTtmAKzmaTNgIYVz4UCqiDmNa+4z/1rciqJp7nvUZ2KF/xoJ8UoJ7O7Co3vvVn7bFzOVfsAfgF3zhP7HXxsVFCXh9UR0J+IdpxGUc4hWJWbMqXKkU39EkDcNTl2DP9jFEjxHFJbi0rJoP3uhu/eEPUWjCbsrwPQLCHbd/LQgF90LyF1rZN8xqM9Qn1zlZdo+dYBM97nA1RL4D3udTXj3pS32yH2Tg0oSESn46Is2wAeH8N/40Q6y9Yy8xpPsgPOcocaQ/Zr/g0eifTqt76AA3H68V5OOqfgTt10IWcGKPhyi1I0aeGwmc4lSdk3xCxUEimgzNjsOFY3VWPNsI25hRwlmWSOEHzAAHhqVfDA93oSX2/nzrce/UOwy3C5+CQekJz1Act6SINbpg2T8j8yocmNERMIYtfz8I3+MfKvEZs3yMlJ0Yo5Ib8MsXkvuE8a3lYKFdKjnDaV1oEJqIJdv+7ta/MC1yqQewiOFrMYymfWwaod30eZnrItgmyq6guR0VtRL6Trw0F9kLU8/tHWjtqa70nQXKqI6usOBkcjXr4NdaecKP/5H/WwPK7czD1PO/98Kje2xuJXQzUq7+jTCQ5zJc6jSn+kS+d8Bi1eWEvJwS9rHpy3i51QF7IzZlrxeG/jWjISML7uDz8M3IdxsVX3ZCthFAJwH9lf2sPvcov9/vPK/7guQdlYx13vbXfPtwzzmmg8J7LY4KZIwBemWs3Xw3FNEQtE80Xs+VkDjtxGUo5VrSexfGsBuNkbxbHAALWGlC3VQRMhnjMGj75n+/5ned4nvfqWU3G7hK231Avt1O4bF4f09bcFnS2S8mxvVy8n1PNe+oGX78j/h53g+c3fIf/d0sOh1zpb0xCPshpKd6Xk1eV57Q1mhz5lhvKtps/5juSp1xYS7YbQw/CJDmNJOEiJBwBBI0z9+Fd9KyYBINhnjMz9Gx8D5MDOzDk+Ybs6d3qmSrtTgT8yQOhcEPQT6fUty2HPV+YA9SV3bbUn3pR35j4n+/5neewq7vvFatFcxb4/XLUh3r5+pmjQpXrJzlTMhd2EO9fd3mIX/CtmofwFf5SX07nge/U1XXIUH/kg5zie850CLxXh3iaSZBQ4gpEMK9s9stPMJ0+MiBmhMZ/+wi/CZEFMggXRsEkfoNReNj8HYcrBLmu8uCiup9MFqOVF0yHydhx5C8tOq1Rm5CzIzScPs77lIUdy3Bf7wLxWS/4i07YnkQ89v0a3hmO+eR/ttsQ0+a5eqgz8bt4cWipDwDJFsyjrW1m3VDluihTslnx+1RnJigxqQC/4NtP1EHhI/WE99F8g9/wHf5H3gNWnvlvtQV50R5+cyMCHUt55Ll0vWgOHrWNfUcofvmm90yyq0mrHecaJ3Bh7+GwfFa24aFXh8s3Xrf2kgc9I9lBDKNgMAAn8TeJ8AzxxWl3+oOgOer+xJv8pkB+79LC3i68Sh1hnVCNukja4/syQeYiZARDnlwOs6CB0yIBO8eTsm7gnw/7KVj+bySaQgSioI4Dn6iHA12HeTPX1thVrauPNWvlS8kV1dqWNn31QM+3eMPRtDs8X+Fv5HU175EHptQWp1k7XXLi2oOZMquQHxdlU894O7tXTsnJA3k813DRKhqujvG9cslQ9esT/M3g3PwCA7l/i9tjYCRXHh0vR2fni6zd9kzfyzlXgRuJrpjpj96HebwDeLmAg3u9Cud4DeCcCQ17ADhbSi7L7WgzoS51UaZUKePRIwiAg5PF3RBvNBEPbYZenuvv/0DzO+CqHgAvWzTjQxXronzBtGSKySWuI4sfUasS3rtb/IJv8A8+wk/4Cn/hM/yG7/B/FzlpyAO5cDI7cuId5Ib8bpIcuTeN/DHnogmn+k4Zzqsb+k2Zgpnghis1iCEI8HIBHheDwIR4w01M8RI5jq7nKicYROJaVXctlpgcLxapTjxLfhyPTyQC08MBGI1TMg3ff6Ghdg+nRQKAGS5xsOod8pslgv8cr4pD5zY3ujpwqrzs+EZI7XVKQ+13/oL4QWiRmC78RUl05yF8hb+O9+J3F+/1LN/xHvLp/h58512uq3JRF8nZ2cGSQ669sn2o0fJFYwqLN5adOz8OwWso7aQGwoR4wVxvKWrWqB1qPVOdoiY4ckZVDNgx0VQk/D+GatVHk+zbpDkmuQ7AkC0gAShuuuFi58GgczR0f2w331Gc/U6nLyfctLQr4bxQs7qI7e20m/bDB+6a46LEZwRC+FSLf9WpUd5z7Sog3lVaGu3LrUCOb5I/OAjVWj6odXszWsK/zQ8f3qhnGKIXMzzVYsBApMfEaC6u22P6EmfDOWAl82Qz1wpIe40lDOftOG//0Z6yTJTZEtZAEFPFbIGnrks7P/aNZo4u1ajxX3I8Z7t2K08cLy6JQXvCn1p8G4jkblKSfMeetYRPznQrJrdKGSxz8c6IJXd4MwKX5qIh35AHjl1aa7ga6AQT0QQs+HlHBIM6key/xkNMopZC5/cE4Eed7RjMH+zRz8tRIfbczNoAiPfYfOouTpG2XcpeLCePtBRNrzuhe6JMITnam0veXse/QNsOptKICeWEnDc9JHTEOHKVK4VQvZFNH9jJ5rKF5GHAy6wTYRhuNMRBqNXgwUjYbjPkYOAh4yD6od+8JDPmU6GaDVFLwfw3gXi9/xY2ZNTCxEQ5hGSvS31Uoa8TbzjkhCjE3nr+i3qP98nHdTDy7TDzZaOfmRnX3AotN/VbNC/TXtr9CbUfPtTyLwYrMfKdc5f3PeiQ4EB1mrleE5fxDDlpiP6ZhFxhnSeC2fI0b+diP9Vq7GAk7gnGvuMaVDRljJPmS6YcqtkwOWAUKne7tQUCG4mhHpCgifmfgzh+f5K1253nAco9a3zyP3e4MXvIczzPe7wf8yJfCfnOtZvsYFC+bDr8KOPbjQ0KH+BHLT4NRkLORCUIezrzQaOJOmSlng2iw04a7nZhmRyRBXofd5zNlsap1dDBTJgoXH0a18C6pXtFMzVUsz7Cay+YjTSMH89iFiVpxirAKdFObMsYQ2U6mOObcPAAKZ/8z/f8znOAls/ueZG/NPyz6vwnuXMQGgz26/3jaCd2LicCXfe4+FCHczzQCXmffnvVXXGYXAWzY6jmyCUxfr+8GAdgAM6VDw+Nrds9YeM9+Jw3HVzkAQYWzZmhmn2QXYXrRQWkC6U1FjutLc3Ifq2oLXFI1tR3HHQXnVKC9QCU0BQmQVfS/3zP7zzH87zH+/xNfuRL/i485mzWpCIz4pKM6hEq1ScJvGfRTsok/4eeHxpbt3tC3pfP9CdxOsUhPIj3De/8GHJSJXeAgfS4tTRkcNUodtDDNRo5mAlT5apH/BGgjoFipADR54FwBPcBuZy0rqtrGYYBHiAEbNhyfJIvU8gzHrV25wt8jJYDn7m3eD2Vy9Qwn/zP9/zO7o9r9XybvHLer86P/CnHARrnjfInCMQlc0Z+kunzUj1pt8m0k3wBDpd/w4da/BmshJyR90k3+xCd07x0xkJlu1DNkUvZcucP0FYwH23zy+O9FzqUTCSODAOL53qt6zQajkOp0uc9tm7kEODiBAVgIo9N5EFz2QrLE9GYfIdgcEin3x88MtGr8/xkw61P+A2ifPI/30fied7jfReHVX4sSSR/ykFzUi7lO02s+uQKyb6hij1Sa8G0ARTWL5BvSe0n9l1PXH2gUozj/+I4L39wIGWwOFfo/F6o5sgl5rRzxeRemMgsEVpr4vkawjWEPfumPHIlPgcjkfdzc72DcoCcJSYrnNb1Hu+zRA1CNWtStrz4axp6n/HRCdlsen+zydaeL++5GnxcnI1gaBtmAKuv6t37dvdT/nne433yIb9IlHPhPb5c6k89XH1KydN93QMxumg+onY+7yI9ajfvs1gIJwq+DDrvlR6QqcYsKh3PzRL6znTXe7axq4VqjmySV/6HuD4A7cKwyInik6b7y58PuXpwEnlzOzrLCBG6Ay6xRhhYqOweqrcMcXJltiinrGjmoSl4l0Up4zW01yIWbf9Z3jROGFqOlV9EGvoKlfE7z7lZNL2HM0c+PS0CH3fmEhvZ1ats5qqeU3s7kVFtmER745Q877L6bm91kMHmPZMhxPQp15kLkr/nZ6Xue0OGnybZt8l0OMoxMWgPwIDQEEZcsTQYiSWTUSu66WGG3GJyEcfZh9p1UUvHG/lsh9ktV06ej/Zt9PzJ4/+O9Pf/1iIW0DDEx7W2tO13J/b8/FuL/QIWAMvzvMf75FOLyIedGtzVEetE/agnEQnWLcscWjZ2OsmuJt5f7EwfPe+0u/JwvK/Br4FK8Iu28TfyduaO5O92WggPoXbLCU2y78yW7QHymBe5RsReKE04mMkBMDJOw62AedoaE+yYUKsukoC/q7rdxhDrh2U/QmArwnyGPf7mNMae6IGnwy4HCQyQYKfuIe1Ti5iy5ndnauh5nLjeTueZdrsvn3pQH/52jp3qSX1zmEKqf0vbsmcS0145p6d38WE4eN9hFmYLZv9Rxy3Ha3vlvX9HvfA82WyvyRlaKOO9U8DBg+ZzoBP5LpLdOkfMu7KlbH45auOlt2S3bmlGi9EHqC5vAVymMAEFThKLxn9wtI9PAzLMge8d0fuOCjYvYpoArjhccj1WNfE/ZfA7z/H8xb1seqQ8tuTEhejES6nXR9RRqCd5da2a65CpUzR7L2NTqt2Zdrs5fHD84LyGweQ7cpV8VdarWck739bc9PbIIw0b+R3M+8Z0mI3VGzfTsDdoqbVovpmZaD5YK8DPDmNpK3c+bzRnCE/hmP1YduEBcm6msrj9YA+SqPFwoHojdkgwbKIlV9Un4bl4iB2fhMvijBrP9XVKECvXmGhw9VP5X1d9qNeBV1n7o+DIxfq54ZnRo8NczoEuoalLSHzIlO2H1GG+VYtfA5YkV+SLnJc/M2GEU7bd/ECa4ck8tq20ljMLBBDOUNjhImtPuNna4wSQE26xdsL5AkN4hqEe23dRL7sp3JYdOVfYsc6B0zsbH+QPMNlEwON/gIZNyNYenu+JcN7Q9jFUxn4yojXUi/odr3qydnb9fXz9ecZpYdpVMk+09HG1QUrLGbG0UNphrjMTBC60KaAgFnnktdaeKGBMvt7aY5Sm3KCkz40O9NqSIZqhu6+zDTj4mX1dnMcAUAEV5gefABqHid95rjeiHN6hXMqnHq5OStSPep4oAB8xw9qfTfXtoD20y5kRZfNatmh+H5qe0vJMuVJle9l9i2LsFkCwM7Z0ntdix97oQVGd0HJl/Q4wAC4ak3ATEYPeiMkI9nQBJsoCgHxi6zLD9lAflyQSYaAcyqNcyqee1Kd7Haeq3tS//Vy/joF2UZbroBPMfAG4oW1DKY0wkh22swsvVdm3gGivy4O2Ddqse0LL8duG+3sgAiS04T/qOMeMw7KxR3kHbcgneZym7/uiK5Q/Dl9850sqn3pErds98Rvt2ONSf9hJF4CJRpSSJN9uioEVKS1PxPJA1icQunFgkGD/V3boIdd4+7YWGKoTWo3pZYZ83scG5SyH3rbCMx3MQmw3OaD3AC+f/I/te2MvF/aRL/nHcBogpPx66sozB8mZ42CQLkcOAE8wC1fMsxRWYMLmy5WTzmgqoMWYEMC+Pa4OMJAwJ466zl8ojUYDgIDx8gcD2qqIy6Wn6FnOKwN8PIem5j0++Z/vOW+Co6R4vjuRL8cvUQ7vUe7RyrOWWVMr0dkOlx3MpYxLAbgsE6JgNgusSWkkU6bNbiKN80oELoLc5FAPRLz1WoLvKTEkj5/m80EbEubiwDuOJ430xMs+grCqyomg4RM7dDNpUj7d9wJmfIZTFnkvEvmxI4P8o9ZtO9uXX6tePSXahyPHuQxxBVxw4p4dU7QbBBalNBKJ+G62ZGblEJgEhwb7ygESKBq3QeCSsCmP1ucXpQWZFYsH03E4xy+O9fvk4gF6aFiABzjZ3/bX6daecpv//Nze/nt+5zme573f6n3yIb+YP59O64bya9Wrt3S82sk6gw3UGagrWt8BuJjcM2br+i5eSWmI6X0dZtVc0VwU47gIDicGW7BeU6FWAvS7CYAfEMDIM2pWzAAS3wFKhnt2VHzvKIHnn94OBXx88j/fx3MNyIP3Yh5OM4fvWIcL4JvpbDFhQuz7D78gnby7ZuOKyemjVpZDoJcnypXM9nG6F4B8QCAGBPU4PH0ltNlOFwkMk7z9zOIiPkkAzoFuR2v/croPYTEbVv0+//P9lvo9zraRYh7kx2bVTyr/nTmhph/AjQmTgzqzbtjZ60RdJhojE2KrwLKURgJJ820g8L7GQpzoIG17VuM2Y28JbXawhuPfnmTtlzSsf1xajXPVGJ5/oqGf8BsdpaewFt+TB8/xPDNkvE8+5Pc75UskhGdqvd9Mov2cL4bGZ3RwfkDJPLfGuIWfCKxLaViJufuC+YcbFgVahsnvH+2H3Z6A1GzC848dYv8rrd1PQ3OcoeuubXtKPMfzvMf75MP3fFdvZKHeRPvJk7XUaPpo/2aL5tzAvZSGkzKlyhZxyR9DMHbeQVf3z2bsKwEKZwrQQZoEHO915THAnaw6RfuXI2RZC+F4NcEs5oiCwMKUhoPcutWiP+CEoRHN0n7OEu2YJp/gx9ZneNMBPjntWzK3s9k0sDKloaZqJ424JksH0WKDqcmWxxT5wXQzfIJf+AfSvlsHVqY0lLTmeLtOtmAeB7ysB8Cr3vXvAxNdWBETfNnuAr8dHafWdfqSub/mVqKUBpfkpJX99Kd3Rr57pLfvmgnsrwwJvmBfM9vonDe0L+s+SpW6LxtPaQAIW83ZbLLdotbd7RKBV8KpJbg0+YT23f5Cf06E075s5iwlM7h6IbA2pcGmXNF8P99BwN1HGDaVNiEklGrd3hP8wf5lgTt8c9q3lCQyv5avA6CXZ8oVkzOx2ZhSJXHIxUAG91fkhPYdf7YfseCd56OZElib0mCSNO57xexnsXfRHqxfOGzGwAf4V9TENPXBVy9Z9+D8hqL590p3BetwEPct5MomYciD+T+fau1Jt9YWVJpqJ+K+LNd0jhtnLbB9vWB+GVic0mCRtO5JnAbDsLeOhrwd5YCkjlpjiT1xHedXhc38zuPJgcUpDQatPdGsJSbfh53GVOen9vC7DVJHrbHE1DSL1lkYBB/9cklze2aczQVWpzTQlC+YL8tkWIzJwDK//zvKr2GI29bTVF9yMV8B+FuHL1kuKSd4QbMXcqdUB2XKZis/L+/NhrHTBncBzoqa6OzwbaszPHjhJ3xtTc97GDzS0OaugmWBCUceTbo0BW+zidDiXy+xdoy0btda36I5NLA6pQEla1fR0HYtTOYwD0I9B1zlpzxrCSdNvSc6PWezccol/HTgLSVXNnrbZkp1ECeuc5MlTGZlFDtk2RGcriBrLsE3FsR/+QDPTx/vTZ5Yb5J9d2B5SgNFnIAos+FVFpOw54sjP9OFOM0n+Ib2xemFn26RetG8kmk3HwwsT2mgKFsyX5dN5o7d53wDLmo5OZ2c6FeCf9UXn4jHc7l3LrA8pYEid7NmySzmBG48ZG5YTGfW+pfg359OCREHFukU3cHcPw4sT2mgKFOyWwi8xl1LpTRuWrrdp78J/rHLmu1T8BX+ZsvmD4HlKQ0UZQuVNiYnYDLhHXcIXQrefiX4x54/Fy4DvOJvS7EyNrA8pYGifKFSxi7jbi9ivJyfm2756V+Cf5z/Cz/hq7N7C6YQWJ7SQBFMhbkE1FlQwu2OKXj7l9C8jGDwE746zVuutAWWpzRQlOXY0qJJcCxYCcXUZuqw9S/BP46ogp/BYUvE5+Xowr/lhEYXzJfF2PkxzsvtPWjeNM7bXIJv8O+HxyyJ8xKKbGk3GwaWpzRQtOZ4u0aumDzOTBChHZbzsSMgXdvQXIJvB4p/TA/DzzDDNmu5uSN4eaNcITkyriqD4RxOR7gnXRLZWHI3ColvvzkxxHjFT89Xc0hgdUoDTS1l84Vs2ZsOLCZZVwzf6WLZbgA4NR/qSvAJfnGXG0cGtIiPzmQoJXMz4+3nAqtTGnDiQu6yOTIeIM0eNg6QA8BoktSE6D3BH/jEpYlcNxC3v8PPvFsOma4oG1TimCd5xXe3un1XXgBoYM7N5RR0hENi0U6afIo84fpXTAU0rgOu+AcfpXVvf0+Ny8VTGgTKlBZ9Thr4MTZiojkwIZwTJ+eDs3k5gbxwjo8FE8dcWRPtLyj9+TS/eiw6Z4TGosbNlZNHpAw+HVib0lBQps2sny0ntzsByGaLWpgLSThMg8A7M0ccbbSyJtd+Zs3ED3eNAPat+AS/4Jv8h1uy7Ys+G1ia0lDSqm3z180VkiMEYnevMAnBZKRVmKtnynNlT8ycuQkIABt4JH7NEXAPXb1o1g6sTGm4KFM268uMODxXMjOVXmN1FFPJxC7dlf4rayJ2q0+ZBQa+CLAP5zrMYdkOk2rbkUZr/96snu8wX5agfpNrq4yVsNpW9iRebJtrr/wmXzJfSk+DTCmllFJKKaWUUkoppZRSSmkIaNSo/w9ykP2UNLBqZwAAAABJRU5ErkJggg==;" parent="24" vertex="1">
          <mxGeometry x="19" y="3" width="50" height="50" as="geometry" />
        </mxCell>
        <mxCell id="42" style="edgeStyle=none;html=1;exitX=0.5;exitY=1;exitDx=0;exitDy=0;entryX=0.5;entryY=0;entryDx=0;entryDy=0;rounded=1;strokeColor=#FFFF00;strokeWidth=1.9685;align=center;verticalAlign=middle;fontFamily=Helvetica;fontSize=11;fontColor=default;labelBackgroundColor=default;endArrow=classic;" parent="1" source="7" target="12" edge="1">
          <mxGeometry relative="1" as="geometry" />
        </mxCell>
        <mxCell id="53" style="edgeStyle=orthogonalEdgeStyle;html=1;exitX=1;exitY=0.5;exitDx=0;exitDy=0;entryX=0;entryY=0.5;entryDx=0;entryDy=0;rounded=1;strokeColor=#FFFF00;strokeWidth=1.9685;align=center;verticalAlign=middle;fontFamily=Helvetica;fontSize=11;fontColor=default;labelBackgroundColor=default;endArrow=classic;startArrow=classic;startFill=1;" parent="1" source="7" target="52" edge="1">
          <mxGeometry relative="1" as="geometry" />
        </mxCell>
        <mxCell id="62" style="edgeStyle=orthogonalEdgeStyle;html=1;exitX=1;exitY=0.75;exitDx=0;exitDy=0;entryX=0;entryY=0.25;entryDx=0;entryDy=0;rounded=1;strokeColor=#FFFF00;strokeWidth=1.9685;align=center;verticalAlign=middle;fontFamily=Helvetica;fontSize=11;fontColor=default;labelBackgroundColor=default;startArrow=classic;startFill=1;endArrow=classic;" edge="1" parent="1" source="7" target="27">
          <mxGeometry relative="1" as="geometry">
            <Array as="points">
              <mxPoint x="730" y="110" />
              <mxPoint x="730" y="408" />
            </Array>
          </mxGeometry>
        </mxCell>
        <mxCell id="7" value="&lt;font face=&quot;Comic Sans MS&quot; style=&quot;font-size: 15px; color: rgb(51, 255, 51);&quot;&gt;BARBEIROS&lt;/font&gt;" style="rounded=1;whiteSpace=wrap;html=1;fillColor=#000000;strokeColor=#33FF33;strokeWidth=1.1810999999999998;pointerEvents=0;align=center;verticalAlign=top;fontFamily=Helvetica;fontSize=12;fontColor=default;gradientColor=none;spacingBottom=0;spacingTop=51.181;labelBackgroundColor=#000000;" parent="1" vertex="1">
          <mxGeometry x="510" y="50" width="100" height="80" as="geometry" />
        </mxCell>
        <mxCell id="25" value="" style="shape=image;verticalLabelPosition=bottom;labelBackgroundColor=default;verticalAlign=top;aspect=fixed;imageAspect=0;image=data:image/png,iVBORw0KGgoAAAANSUhEUgAAAKwAAACsCAYAAADmMUfYAAAAAXNSR0IArs4c6QAAAARnQU1BAACxjwv8YQUAAAAJcEhZcwAAFxEAABcRAcom8z8AAEveSURBVHhe7b0JdJzLVt/L5QIhhACBDJB3b+CGmYRAyEQIyeNCGBZZJLyXd8hieOsGHvckJLlZkJvLPfPX3VKPkjxL6kGDbVmyJVueLcuDLA+SLFu2JM+TPM/T8Xx8PBzX279d9bVbcstu2bIt273X2kut7u+rr76qf+3aU1V9y+tMxpjPhaLJn/US6f8cjCbnBCOpw8FoygSiqcuheE0yFKr6SXdpQfRWS8vn3cciFWn8yIulvxCIJ78ejKc7g7H0rfiUBhOpmGlKEjVG/jeheMbEpsw2JWU1F7xI6t+72/KSF67+Gbl+cihR0yH3bwxG040C/n/nfi5SkZ6e3i9LfykQS5UIKE9HKuoNQC1J1CJRjRdJmg9Lq80HJVXmo3BSgQtoQ4nMSS+S+TFXxDAKRJJfEZCejE+ZI2XNkesbTGJao9xTc0/KKPO8lu9wlxapSIWT8cy3ihR8O1RWMwSowuX1KkU/EoACTj6Xz5hjMg1LzNyFq01V7XwFsYJ2coMRYH7oilLyvPrvDMYyidKy2vvRSTP1Oh/s3BcurzPRSbOMqBj/w91SpCIVRu+XTPuS6KMLkagRB66PwtUqUSsEpA0tbaZ9Q6/p6d9ttuzcZ7bvPWQ2bdtpJlc3KZgjArxAPL3cFSdgzXy/AHh+dPJsUyrApByum5aaZ5L1rUZArKDlPnRiAff3uVuLVKTH04fh6l8XsB5CqqKfegIswDqpqtEsbOs0Xdt3KUC37Tlg+nbvN1t3PeT0rMUiNatUUgai6fWU92649m8JGNutKlGjZTEAGuavNL079pqBA0OmsXWVfo+qIb996pUl/41WpkhFehwFSpL/ScD6MVO6P2VHKurM3MVrTM/AbgVq3+4DKlVzGbDyNzVzURawwVhqxTdjqe8V4K4ArKgQfnmL2zdKWQcV8P37h8zytd0qYeXZ3HfHi1T/tqtSkYqUn4LR1FvhsrobqACAB3BNlSl7TVefA9ejQPV5JGBLy+qMWP7dYqw1xEQNsGCtEiNrllm5vtf07zuUvYfPrSs69XncJ8++HopW/WNXrSIV6VHyIpW/UZqouYIx5IM107DYdIuOClhzwZmPRwIW6Szl3EcF8CVrfMpMs2rjVpXSufdu23PQzFmwUo0vDDsZOGe9isz3u6oVqUjDKRSv+3EB1zEkoQ/WuqZlplfBNLpUzWUfsMkcwAJUGOMKD8DKzl6zXaRpvvsys9F9URdkwMTSva5qw4gAw9tvp7797VTq2z2v89s8z/tW91OR3hTyWlq+Q0C6Eh3T11mRrIDocSrASAZ4cGrWIvNBqFLLgvEGiA5rFq3cYPpHSFYYHRbdGNVDgV1RL4BNLfsgmvzZkkTmt0Lx9De8aCrtRZNtAFnqukfK3ReIpHfK9z3yeZHovNNKopk/+zCc/LIXrf4R92pFeh1JAPXn6KwhmboB6/R0swKoUMmay6gOC5at03J8/qCkWr0BlOdL01xmUGzs26m6LeBGIgsoLws4LyFto5NnqVuNz6OyGHjMDlb9SB+Sd5kXjKf+2/sllV90r1mk14FQBYLxzCkAgUspKtKto3tbQTprPgaQuKkaW9tN2bTZJjF1toC1zfQO7lVJmu8eAIv/lmt9dxfAwy/LZ1QU67N1g0D0XHRd/vI/31spjochoxKaqJkab5HU2ZJYbbVXmv5F98pFepUpEM9UxKfOUWAwHTcvWfuIQTRWBrR9Ik0B4SaRnKNJ1izvsmrB7JY2C8QRIAS4kyobTVXdAo2o1c9dJrxcdWz03hk1LTo4nGTWe2EFrxhwuOdK4jW3gtH07FA080/cqxfpVaNotOrvi674McYQodYpyblm8+CeUSXhWJlyCtWBfT123uI1Ckz0YAIJyzu6TWfvgAYqqBvXbtVyrb7M/z0De3RwdPRsNwtXdCqIy6Y1KOABvw96chYEtFeEQ8Uo2itIYrAErHMfwyhlHfn7nk4VGA8GgEjjfAzw+T0f+wPj4fUHFcALxcirql2g7+cDF4kbnTQbL0RPaayoJrwy5HlTv0cAuw1Dhc6cUt2kEq5QiTjRmfcgGLFlxz7Ttq7HVNbON17U6sFilJn4VI26Xfwokvxj1yRFmsjkRat+taSs5rbmCcjU2bRw1SP+0deBkcC+AYnETYiu60tbDM2Sstp7XjT9nmuWIk1UCsSSH8bFkrb6XY1Z271Np9ORHf66MMBF4q7fMmCq61tVZ0cNQn8Pl88U6VtV6pqmSBONiBAFoskV6K94BkgH3Dy4Vzs1X2e/Tox+S/SuoWWlApYsNNxfNlgxPHe3SBOENC81mjyBdGF6xE3kGzD5Ovl1Y/Rb3G648AIx6+OlLUQ9eiB67p+6ZirSRKEPYpmfFlXgU/JO8XvOX77umX2vrxozOJG2gFaMTwUtETNpk8teeeqXXVMVaSJQSST5GwLY+4RiUQmWre22FnWejn2dGdAibecsaNd2QJ8nYT0QS/cLaP+ma64ivWwKxNO/TxQoGMtoCLR9fe9Th2JfdbZuvP0mNXOhqke0i0sCmuSaq0gvm0LR1J9YwKZFd6t1+alvJmBhvCMbtu7Q6BiSFiMsFE/fCYbT/9o1WZFeJsmU91UfsCxVWbPJribI15lvCvP+S1ZtkjbRzUA080v+tuNRcc1WpJdFFrB244siYC1bL8kBkyaXVwxRDFLhz7x46nddsxXpZVERsPmZNqAtSJTBa0CyjEjZFVO/NvWvuKYr0sugImBHZ4ywmjlL1ADTZPBY5m4wkvyXrumK9DKoCNjRGQOsfcMW9Ragy7LphwC26DF4mVQE7OiMLrt5xx4zI9OiUpZgQjCaPPCNb8T/umu+Ir1oKgL28UwQhQiYVQtYppO6Eyyt+k3XfEV60VQE7OOZkO3qTVu1bfzoVyiWDrrmK9KLpvECrHUFTeyEmaetIwspyWJDyiZY8xZNLvI8r+iTfRn0rIBFAuVez+eJlktLfR6t49jeEW8BkS/0WJG0u0tLkz/kmrBIL5KeFrC4fLbJdes295u5i9aY9OxFJiPMwsFO+Y4yXrbE5flknq3fMmjmiR6aEdBRx7mLVpuO7u0KRJs/kP9+nwG8ZnJFkk6PTd/wwpX/yDVhkV4kPQ1g+Z3VqaxkjU2e6ZZjW+ZzfPIsM3/ZOp1KWWrzooGrQHULKNlULjF11iN1jE6q0w09urY/ea8wgL18bZfqsLQTixe9aPWvuCYs0ouksQB26y4LVpbQsJUQOh3TJDmkH4arlelU/U6kEYv92jp7VYpx3/MGLuWr1BTGf1pdt0DrwRIY6vWh1Is6as4rn+X7yVVNmvDDbDFa/SiTd6aNtJ3YGSeW/j3XhEV6kTQWwCK12jo3m+gUK1W55wPpdABQnZ5rqlNzzUcCEIAQjLKcukqd7slZC03bus26lwBljyd4VZq6MpHopEeyiTKRKZ7PPl4WqDKAknNNMj1PwUu9qT/X8N5L13SP+t6oBKg5lEl5ANaLZt52TVikF0mFApbv2Mc1IlMpgKTj3gtVmcnTG8z27l5z9/xJc+fcCdO9bqNJTK7X33SdlLACWMpHKjeLjotEs+A9pJINQLBMBUlcCHM99+EjZdsj6tyyrMNMzzSTCqjPQ7Ly7PdClSYmdd6wdoO5ffa4uXfhpBncstVMr27U33gPlnuz+JJNlPO9O89b3ztgIuXWtaWAjWT+p2vCIr1IKgSwgAMJw35XCla59j2RsLNnt5pLRw8Zc/2CMR+ftXztvDl3aL9pXbDClCYyCgo/g5+/SGbybqeKtMPyblm6VoHCHl4b+3aYrm07ldn8YsPWQbPJfWf/36HG0oqOHgVoXdNSHQTUm721AJ7/nHdlwADeluZl5vT+vVovc4U6njHmxgVz9fhhM2/uEvN+iZ0huDc6qd6skXo88v4AdosAVp7jA1ba689dExbpRdKTAKtT9459elAGYAOs78vfuU2LzSdnTwhYz5vPLp0exubqOQXv4V07zfyWZSKZagVAlVZ/VKlr1QYrqe2mbUg4gBwR0MBhqUup/J/9Tv7nM9f5sX2/DKszWx313WClCcs1gPHg4KB5cFkAKmB9MLKO186ZOxdPmUWtbfo+vBfqge7WOMgmIg9VFgvYQa1HEbAvmZ4EWD5z8IYvJZGsNXUt5pMzxxUIuSDIZR8o5soZc3LfXtPR3mmqkk2mRMCG/giA3wdwCjYLOB/MDznf/w7wch/SkXIoDxDPkPLXtHWYE3v3WEnK86Ue+eoHM7Dunj9l5sxZrO/lD4LmJWuGtUERsBOIHgdYpAxbxFdUNkpH2mOJ4tJppw/IFCtqQD4QjOQscAUct0UiHxGp29G+zjQ2LjaVqSbVL33JCPjQfWE++zzsO7mO67kPgM5pXGTWSnlDO3aIxJdBdEWk+xOAmstce+nIITOJXWCkXN4R1WejqB/oy0XATjB6HGCtdF2vUo2OYursXN2pagBAzAeA0ViBi46LuuB03qsnDqs03Nffb/o3bzGb13eZjR0b1UDq7uwyWzdttt/J/3zPZ67b3z+g96GHqiSlPKeGjLVeMO+zeUO3SmreE322ZWmHANW2QxGwE4hGA+zWnTbuzlY+6K505pQZDebKsSEFR76OHwsrgDGCkIZiBCk7SazMZ59zv8u9Vu5/GoCOZKTyzVNHTaVIbN4TwGLMAVbaoAjYCUSjARbpQtg1PtVuYYR0XbJopQIlX6ePB2MYPbjsOM93I68fL+YZSNm1KztU7UBHpi3Wdtk9xoqAnUA0GmAJqbKphm/sEAjYtXWbAPbZpetEZAB7cGBAvRC+gYk6RDsUATuBaFQJK4yvU/2bSJzyWnMZn6tMw/k6/FVn9N8rohNPFrUHteB9kbScFUZwogjYCUSjARYLmXMG1NcpEmdq5RxzC1fW6wpYpwsTYsZdht5e17jUbNPI2sEiYCcK5QeszbBiJ0PfOZ/MNGtoE0k0srNfB7ZejDPqY/YBy/kIfq5CEbAThAoFbOoNAWxt/fwiYCcyFQFruQjYV4S8aPLtXMCS99m/b0h12JnzlucAdt4bohI8BGxNwxJth/59BzUxJxew8vcvXBMW6UWSF0v/HnF4P6Fk8aqNZmD/kK4omJZuVrcWVnPdzAWaPkin5uvwV519wDY0LNQcB4IHLDzs2r7TDBwYMivW9eigpo3YUMOLpv7ENWGRXiSVlKW/FIymzrOtJOBkyQuStbJ2gXSOzbB/J1hpVq1YO26RpYnIBCZ4P8LCNhHGgpPsrZnNKzSAwv/2CNHM1VC0+udcExbpRZN0RHvuoXJIF5zn/E/SSdmUmebcoQNPFeXyJdeLArr/vEKTX3IZwH58bEhD0OTTAlqW0tAeGjyR9uBwZvm+x/NmfLdrviK9KPJmtHy3qAI1Il1v+Ms/6Bj8rqgB3wzOMPHJ9WbPtu1jzh9A17VJLmfM3QsnbS7A9fNPBaRCWIFK+fKcuxdO6XM052CMfmMieYd27DAV02brzEI70B42ASjtcnfrPimJ18z3ymb/bdeURXre5Hn13yn66zw2htD1T9IpGFcliYxKmHRNs1m+pN2cPrBPQTAWCcn1N08f0+yq+c3LNAWQROmdW7aaexcFTOMcfPDL27ut3yxZ2GYa5XmsNOhat9FcO3l47INNrj9/+IBpX75W/bLTKudo8rgaoCJtaS8OkQ7E06ujVVV/wzVpkZ4nBWOp/830RuMjRchzJXWQ5S3XTx4xtwRwKiXHmDugnT10wGRqW1SdeEektP4NzNBB0dK81Nw6I2WPE2gfSB3vnD9hli5uVynIc0hgQTryXDKwju/d/VSgJYuLRHXa46IAeJMMgPKpM9UoQ9Jy/kEomo67Ji3S8yIvlvp7gUjyOHorEqNcDIqju6VTmcI1bY/OGruBxfRP+BbXEIDBSAGkZHqRj6CAku8XixT8TMoeuWxlrKxZVlLPNSvXaWI3ejfP4XkMQp7P99OrGm3u7BgHiaoZco8yABYVg9UTUyptvkGEA+gi6auhWPofuKYt0vOgj2Lpr9p9+63Our17s3TGxTEDdCQD+L6uzerH1IV9Ap6p0rkNcxabxOSZdgm4cKlI9WO7d41Z6o1kleYyI1A2AOJdIhW1ZvacRWZGdaM+D9AiadeTeP6Mz9MBcuui2bW1Tw2wgDDtGIolPde0RXoeFIikUuhgSFeSWm6PU1ILEqh3Q7dOyX/pTTeTp8+WqfSgdPIls7+/X9dzfUO+R08+sgvAPltuLfefObhP1Jk6fR4SlhUJ5uZF0V2P6D4JPA+pvmZlx7ikRqImoYdnaptVkusZvbHUYs/zvtU1b5HGk95Opb5dGngp6gBSqbFpke2IZ5Su8ANRCdD5Vi5bY2bObDWHBgetioGbSQYE0rdW1IXuzk3mPtePR1K21Jt9EWrFONrUsdF6B9RDcd4c27PbzJq10Cxd1G6unzii9chbxhhYpay8E8vYmUkIIogU74rHa4qbHD8PSgHYSHL5Q8Au1o4YL3eTD06f/e99x7zPz6p++Py4cnO/Hw+wwj5gFypg2aNrFttvdnve1O9xTVykcabPie7lVIKkmTK9wXoEpFPzddDTMCAaDZDjBdSR/LjnjYskd+w/h5mCiBhuwaJK8Jzpo1j1V2NTrNGFYdLT2WWd7M8JTK8LA1b0433b2WcrI4alNbqkDYtG1/MkL1r9IzKNObeWXePP0ml1axEtGjG1vsmsIEWloF2Ej+/dY6ZVNao6xbabRbfWC6LcwAERHNZskeByZPcuc/nokLn/HCJSrxqr8SaAZf8Etl1iVxk2ugOsGjgQdSAYy8RckxbpeZLntXyHF042JaY2mpKyWlUN8FcCXOLoTU1LzPVTYlm/oaDlvW+fO64hZXaFoV38je0Y5GXTGvHFrvSmFo2tF0be5PrvEwMsU1pep7oYqXMfRewOL98MzDDty9eoRfysEalXjdUTIOpR17pN6sO1kbqUDmzUqGgFnoF06ze86X/XNWWRXhRh3X4Uqf590cN6Qona6zLFaRSHoEK0otac3LdHQZuvY19XJiJ26chBnWk+kHagPYKiApTEa27J5/5AOPVfSB5yTVikl0EtLS2fD8drviwSd4gYOZ2EijBnziKrz4o+l69znweroYM/1/GLNAD9wMPCBW3qtqIdSG4Xnf+SGKq/IwO8CNSJRCRzk4VER2nyihgYPeu7n7uUtdGpC9a9Jp/vXTilu3qzY7aCSD0Yws9Zp+YZO7f0aS4EKzBoB9SAQCy1xzVRkSYSBaOZ+Xp4GtOgMG4vTlwhSwm3Tr5OflpWkJIFJXzj1FFzYGDAdIveuHzJKtM8b6luyTlv3hINrRJ2xf95lRCru2e8pT6D8sLhg5oDgSfAb4MIgI0mN7kmKtJEIi+SriI+jtvG7zBUAxK6r586pkDJ19ljYStNz6sEHdq5QwE5o9pudoyRQ0ogho7Pmt8qRiB1IZm6df5yTaa5zaJI5zfO95yxMGV8KvVhESLeAP/dYT1MLpKa75qoSBOJZCoM4BD3AYtaoCl6Apz5LcvNXde5+Tr9SewD9VMBWn/PFlM/c4E+gyQSGJcR07DmtY5g/V74A722SqfsdG2z2bqpR1c3IB2fVuLqffJOy5eu0rL9d84FrBdLzXBNVKSJRDL1/Rn7FMD4GwlB+h3INLly2WrNyhoLaH0dlLVdpP8hrdnRm0Hg64rsA8AzwuV1pnx6gx75Xl3Xaipr5puKGXNssjR14B65ns++BK5KztXNjz9l3wT03DEkuvAezBrrV6/XgeG/q313f7+GmbixPnBNVKSJRMFo6j9KJ32GhGUdU0NLm4lPsXvEkiCNTrty+WpzF8/BE9QDtfKRfAJY9M/6Wa1ajkpIKQvgYdQB0lR9q1mwvNN09Gw3mwf36kEgbCgM8z+n2LS2rdcjQtnQgvseAtcuFEzXtJgdYjDpujGVuI8HLvV/IIDtFLBaCW7PUOC9GxesEqDiHQCwMlhi1V91TVSkiUQy9f2ygOBTzlRleTMbSKzo6FYVgU6lQ5mWW1qWmSsnDluJRsdrhpYPUjGIZOoHOJw9wIkzJNrY9f72WCJOJ2QPBI7PXNPdp+cpsLUlO62wPdBItjuw2N8BddPCVXoWgb8k3QKXo4+SZtbshWavDBBdPYuO68CbrSNS9cYFVSVYC2YHo303eMHydboDDmUC2DBuvmjyd1wTFWkikRhdPyEddZOoF9MvZ7XuOHjELJC/wbhdp++Dg8PZtnVv1li7rgMT4N4Rw4WFjNt7ek3DnEUCdAtUXxoiGTkPC6CyXxVbWT7u2MyRzHV6z54DZmPfTtO0aJXOAFbiWsD5A6N+1gJVFViVgN5M/eDrp46awd6teiqiSnu51gdsY2u77nzjb+ZMIEU3z4jU/gvXREWaSPROZPoPiB57kWmac6saRZKxGRobxC1u36DTJZscAwh0WiJirJ8CnAQZWIDIokaAkAsG7qHjZ85drlvR+3vQ5gNlocz9dqO2Ad3LlimcOqvElOeyuhXwshEIq3ipH1zpjhj1XVdIaf5yyreWue+gHu5MvdFjGcDFjKwJSuxoIh20F08BUqt+3vLslAw4OHR4SnWTk2hORZDPeiSRMAB5KO0sUOn0TMNis3ojU7/dIDgfAGH/WUhQn/n/cRLYXndQVQW2WUKCZ4FLHQSQ1MuvIzqvL425LiaAXty+UcvgWTAnlXMvUa5AJH2clEzXREWaSPS1r039K4FYqhPLGMmTnrVIDx32AcP03dO/W3VIpmKVtAKGXOY+VIHEtFlmVvMKAerWLFA5EXwk4LRcBzqexZGdDAx0Zw47RnXgbFp+h/PdD/tlrBPgIi0nVTWplwPgjawj3yGRa5uWms7eAR2M/jtS1/qmZQp454PtD4dr/5ZroiJNJDLGfC4YTTUTjqTDpmdaFCy5Es6CDx1yh+q2nBlbVTtfeIFa8ZwNwPmx7PzHtblgGMl8z++AtHnJWj3gmEOIMfJgggmoEpxNO1f0VdQJBk3u0Zoj2QL7gNYb4M9duNrUiISvEnWFI/GR9vOWrFFgb5VycgcBA4o6c1QpA08XGUbSayoqmv+qa6IiTTQKxVLTSDdECuED5TREOjEXFLAPRk5a6RPg+eCzB1lYUI0mUWFAxV8O//APXgYkPJfpGj0z+1m+R72ITp6phpaVuI/XgakP1/h1svWxdYSp/8iBxP/w1OQ8rY9N0k7Nk6H8Odc8RZpoFIpl3o9NaVCgkEfAadr5AJvLfkfn+y0fA6Segd0mIxIZSQ44UC/wpxIKxmDDFebrx+ih/O5fi6TkpO/HqQgjuZA68juDoVwGKoMkMb0Jl1aVa5oiTURiG3nd7EwAwrlVOO2fBNixMJIOUCTrF6o+6QMVUBK16ljVafb0bTOHBneYvdu3m/Vr1mt0DIlrgStALqnUvVu7tu8a57od0GPuE9PsDMPKAtFhS1zTFGkikhev+V10N9FlVYds6+x94vRbKCPBAMWcBe0OrFaKshCyZ32X3YUGfylphgQl+Cv/40dlw4wK5zLDDcX9dWI0qTqys3Dp/jjmPVdv6rPRLXl/Nbqiya+5pinSRCQvlvol6axPnA9SIz8YOvk6eKzMFM6RmBhSSDAkJn7Swzt3WoBeeXTFbm50ipPE2V4JkKOycEJj27rN41Y/dN0lqzfpCgM9+yGavisD+N+7pnmEvv71sr8WLav/FTbYc1+9NPJi6S9EJ9f/ytfetE093i+p/KIA9QDSBX2xrmmZGlb5OnisjARrmN+moVkGAw7+QfbDEjAWsnYMULPhsN0XwLrUahuXFqSfFsID+w+pD5ZyCZ5IHS944dRPuaYZRl5p8hdKE7Ud0UmzbothduCDUOan3U8vnLxI5sekrrtlZrwtgmZjaaz6n7ufXn96q6Xl84FYaiWJ3HQcJ1v3Dj70xT4t2/uxwOfqQMCZP2tWq435iwQdCc58ANZcBWE2LCaShZQmu6u7/9l1Wd9VlpxpTzDXlQbR1EDq7dS3u6bJ0ofhyi+HEpnTrM4guFAmxpnUJel+fuEUjCXLqQN1oU4lZTVng7HMr7ufX3/yosnSSIUNDBCORa/DFTSyk8fCABYXWZkADAuclbmr29bq7ob+WiqbOON0V5JWcj+jFgBY+c7fJRHAol5s2rbjmQGL9CfMG5tcr+qGPd6outo1SZa88tRPhRI1R/ylRKglLodYpHH1z7jLXhi9XzLtS1KPM7qxh9SFOrGzjwyoU6Fo8mfdZa83BeOp/1OMrnvosfg/m5esUcA+zq/6JAawWZeRSMd3ApW62kDVAQHitRNHNA2R3FSOumdlweKFK826VZ1md982c+X4kEhdC1i+8wFLxGpTAa63JzHvt2jlBnWdaXqlGF6heOp3XZMoeZ73HYFYckFiml1G5PuNLUjwrKTL3KUvjAKRtIffnEQd32dNfZgh5f+lf/EXFa9/0IPIjkjXXTZEmxS1YK6C7VnUAj+KREQMwOKm4vRs9m6dO2+JJs3glcCgYqt5n4n9AyCMM5JXOtrXacINQKFzcPJzrhhRq3zPLYSpG8xxT5RpUwozR8TgGrb3QFgGstTlM5ly9brMzEXqniMnwUo40XlfYN6Bl5jxg4FI8iizAWpMdd0CPcGRPkPYkCYq7fQb7vLXm8TY+MhOezYLn3Drs6oFeAkWtpHd/9DoApCAFF8sIPaDAz5zrfXB2gwrzQLDQyBS5P1QlZm3aLWWm+95hTLvRRgXvzNl666E0XSla4osBaPJJLot12CUHTl53mzfeVABy47cGsqNpcLu8udOgWjy6/aZ1j24edsec+LMJXXLUUc9pimWzrjLX2/6QPQfAcVlm2pYrZIRCfssUhYJS4SLHIX3ZUoHnL6kRELwPzokiSvTxNjjNMK4SFbfI8B1XA9zP7+jDjyTn9hJfnIiNA1SdPZgPH27JFrzb1xTKHle57eJvrqd6fc9kfwNzSvN7Xufmas3bptqaRsGEjOSSOCj75fV/LC77blRJDLrB2TQ74lOYpVvlbbX5WufmNt3PzNzW1dp+1g/cmovW1O5215vEqDUEaZFmqHQL13TZTh7NW/HF8jWuBlUdxQ5BGR94YkgNRAdcm1Xn+kWUHMtUz1JKotXbTKzmts0usVKBe4hiWXd5u1m295n112Rrup3FqkEINn0mUQg1wxKXmzW3xPpeTQsIACw7et6zX25SPBhNm3ZqYOa2Ui3Mo2nv+lue24kBtWfUhd0VyJ/6zZtN3ekLvekTh3y+Z3AdFVTOOmypKTyi+6215u8ePIXBKzXfSlLLqxNhnl6KQsj0dAZkY5kffkJNn7ijC/JYQCuySvyF+nM9TDlPJNkFeaZ/J1RM1+ndav3Ze7JQP23rgmy9EGo5idFWp0EBEh7AAI4PhHEXrxyw0xPsbjS6rLBSOqwV576m+7WcSevvv47xfjbhnpCv0yqbDRnL15RiS+YNZt6d5p3ZVCxb5qoMRe98LS8vuTXkoKR9BTfhUPjsLzFegyeDbTcD2AsP1nVsEbbw3ue/flI10OmZcna7NIfp7s2ep73be71s1RamvwhaYMhDBzAsGJ1jwL2xu27KtnWdw/oNIyByFTsxdL/y9067hSIpP9QhMh9Bth7wUqV9nc+e2BufnrP3H1gzOrOrSphbYg5fdZL1P+gu/X1p5KSGT8s085BFHgUeTqENU9IvXxAeFUYsK7auEWNJ3RnOjcUT5/zwjX/0L36MGLjPDFgelAZAGbdnKXmiuivt+7cV8l27vI1mYHmqvRVQyia3Ime6W4fN2IjOlFdOlHVECBl0xrMybOXzKf3P9O6XLv1qZnZtFx0aqfDxtL9b7311ufd7W8GiU73n0oStfeJpOCSQofs6N6mkjYfGCY6U+8NokdXyFRKpyOpnDT67+6V85L8HrURMBz0GbP30AmVrkhZlWzr+xSwzEYWLJk/dreOG8kU/++kvg8QHAycpe2bBKxWuvL30NHT+j4YqgwcMVDL3a1vFsmLT0G60FDoauhNRIZeNdBS365tu3R1A2AFXJqoHU01vfVWy2MlEfkDAlZdBg9YFi7rVOkKWLDOz1y4YspF4lGuC+1uGU/HvWggn5N+aGO282eFoyfPO8De1b9L2jbqoNHknXjm7ofh6n/lbn+z6Jux1PfK9LKKzgW0NApuJdZEvSrqAWAljMuOMj5YnRekDx3VveqohG4biKUWo9Pb6Xi2OX3+YzW8fAm3cu1m9SIg5UIiCb1Y9e+525+ZvGj6V0OxzKfMdDyjVQaM/2wGztmLV1WQIFDiGnlLtb/RW4SWlNR9URqsj8ags2mYihkNogtuVdA+qyH0vJh6UT/WhNnkGztta0gznjmMz9m94hNJDLQ/EL33M+tOwlvQr+oAagGAPX76gkmwV0IY0DTgIluDD9fd/tSEDh2MZpowDJGu4bJac+DIqWEqyabeHU66shau7kEgnP7/3O1vLoVC1T8ejKcH41ORTKgH9qDg1hXrH1nUNxGY+uD+Wrq6S6Z+6wayknU2UvCwF0/+U/dqBZEYPd8nRs9upmXUgtTMhebytVsq6SxojVm0fL3+hpQNl9fe8SKZ33K3PzUFI6l/JuXd8NWRpgWr5Jn3VRXgLwZgbcMS/c3p40NeReb73e1vNnmRGT8WSmQ2hctxXJMEYhcLpmfjzLd67bP6SJ+VcX0hVVnyUj93ebae/MVXKlJo11jB6pMYNAHf+CLqtmPv4ayk+/TeA3P4xFld/cvzUDkE4AvdrU9NgUg6w4xAO/MOew4eN3dEovuSnf9xzcF25khH3K1FgqLRqr8hjbORjqMBaSikF5Eo9i3AuW+l2+OXZY8n+xKeAdO9fZdpXrpW12dRL6JYPlilrrufJfrzQbzmJ8VIu4YuiUSb27paXUrokjCfWxavVT1TtzqKpe4EI8l/6W4fM7HzjNgPH1N3/K6z57WZ67fv6HPsIPlMntchdSH4Uct5DNc+iNb+nLv9zSW1Ur367/xGvOavfxhOflkAMIQfEyBkE1pIVBGAJGT6ZffDNV19GmJl1QK+T+v0zw+4MbMLJlAu0pSdDtnIjQFTPt2ufPWlKn+pHyATVeYsG7xxqDFGCe/lXrFgkgHQgAGqUnSSWOunxFoX4Kg+KdIWlxfZZ0hElbKxZL27dcwkYJ+EPoyrincY2HXood4szyThBX8s7e4WkM5H53W3vxlUUpb+koDvN2Rkf1WkSUBGeWUwnmqWzyvFUt4gLCNel5Fop1XMaFRl30pbCxAAw3fkAMxpbdeMLyTv1l02WoXa4EthPvtRLMu5kbDRryW8u6KjR0C6Wq1/JIwPVOpGfdC1cTdJnRVArt7X5bcN8j4rhJt5Py9cHdD3jaV/04vW/n3XFHkpWJr8HSnnDnoqUnZlR28WRLfuWEnbIJJQpSwqSCx92QtX/iN3e8H0fsnUH5W6nkO68pya2UvMtU8eSlee2bFpm/xmPRMi0e99FE295W5/PYnYdChe9ZMl8drflw5LedHk1lC85rgA7xMaqmxak0ytjWr1oh+hBjDVAQg6ZO7CNZpql6yzuaEWtBYc/GXk+9YrkhcfKMkuLHBkEWFH93b16QJmdoxhOie/gL8s5eZ7EmbYP2tlZ6/uJcs2SGx8zJRPR1E+z+aZ/nOpB9/hGTh8/KxZKIYhESAklX/uFu/De/F+vCfvKwC+LfeeEO6TQZoORTN/FA6nfqqi4qFPlW2daCfuZypmUJ6/cl3dSwAJnXZwz+FsO/AMMZwS7vaCCX2ZZ1ghUG22DuzL6ssYepfE4KuqZVmPGFuTdPPlnV4q9V3u9teLvFjmn4vUeVfAuVIa9iaJy0RosICxNEvxJdLx0lDSiU5aWaYj3pNRTZrdlRufqKU6a+4K/Y7fcbuo9AGswprv6qSuLwFRHyiHvbjYxK18RoP6dknKJl0OoPE/qxTQjQG8BaQrS8r1y8rmywpzHacX0slIpWRdq7klEu+G6H3Ni9bod5ST+z76flIW71sat5EvIkW0h9N7b0q5qwQQ73mx9C9q+0WTbzsVQwdG38D+LJiQsoRJkYiAyZVxNhZLf0EbvwAKT8n8HbnnGHVgoFULMD++nuuReGAGdw9l25H6BsOZd9ztrwe9G5ZGKMt8RSTpGgHUJV9qMpXKtCVSQHRRAV0gNF07MSSNVVI5T//6oKVxkKyz5q0wl67e1GmJKRDjg+8BTqqmWU+fWbe609TUiSRkrZTcpwdvCGC4hsRsyuL7LAizgM5lC25fcnIf93OABqsSVIIJ4HkmKxiO7d5l5sxZqAsdGUCABgDRwVdvfmrmST0BLWX5YA0JQEsqm03INyJLXBvI82kX2seXxqFEzccyGJZLPT4Ug+qKlfCVGsP3wcpfdNkt/fukrsw6JMXMEuMv877riieSPOMbvlFLGaQx+moH7Y2QaJzPHg+VVjePZy6E4tU/7m5/ten9RPJHBRgflSQy+xntNL4aTICGBoXlc8n0uaZ0TruJLNti4hsOmLJdF0188xH5vsleK50LKOkc0uoAAQ14TxqSuPa7gekiDapNZbLJnrN13R6XxEbHHMbBkaAcacTvSEFfMo6FuY9lMiyZaVu22mzr7tWNi/UQPHkefzn0Q7c9EmDObV0j9fSNFAHtjdvqx8yClvee2mDimw6Zsj2X5e9BE12xzYSb1piSqmYBtBhu0j7aTnIt7QaQCH/K/Q8AFIMKNenA0dPZNkES4qOtqlmgz9IVANH0vnffnfrE3RAjkek/IAPJ+ntl4KFy0N650hX3GTMPg1qNLTXsXvF9wP4yNvULoUSmRPg41irTC1MmkgNJGiyrMSWpBSaytNck+o6bsn1XTcWJe2bSOWMmXTSmXDpQOy1stxUCrHVzlpkLHwNWCwKYZObOrn4d7eisrME6vX+vroS1x7i7FbHCHBx39fhhc1ZAzCYaO3q3mp7OLl1cuFIAzVldbOfOX/7n+275nZ2zD+/cYc4KOK/I/RydlF1Zy44xPEeex3lbHGpMPWDCpT6I4NsC2o9FjZkj0smCVqSsvF9oeqNJ7Div7z3pvDEVJz8zZQeuS7ucEgD3mZLMQhNCdxfpC4C1HZHQjpHmi9s2ZtUCGIm4vmdAVQauAegc/+m6Z1TiXIWsdBXAruuyCdqUSbCAzxh69AcDRaT+HZmFnjlA8dLI81LfxTY70qhDSFOAytSHlAiUVpqSGXNNZFGXdMYJU37srqk4LZ10VjpJ/lacfGAqTgkfvWNKpZN0epR76VyiKRc+vjYMrDANiD7F9MiOLkzTHJIBmPLuLwCAWb4NAzb+16XcPss1/me+d9vSZ+/hf7nmkbJFwg7t2Klqg1Ujkmqo5AIW5v+Pr3+iOjgWNu/HezI4yw/dlHaQ9xfADmuX4/dMYvtpE1myWdUH25YCRKQ0wJLPk6uaNAkmV8qev3xdv0cSKmBjqW2PM4xc323nWgacJmhfuqoJNpSJYUeZdpfF7B4Km1OpR/dQeCWoxCZJrOcUPwWqNGZAJJ9OfckFJtaxy5Tvv2YmCSa0M+iYE/eHMd8nNh+1nSFTIp2BLnju0rVhEsRnOubU+Y+z/kB0yzVtHQouthsaCayRzMYZ/sEZSOSH7L4bcX0+5jpz9ayeqIg6AFgZQMdOXcha77kMqC6LEYMjXiUg7yqDOb7pgKmQthnZJtpOrs3KD94wsc69MqAXabuqYSrtjHHUvXWXttFNeQa6Js8hqRppiBqBvhmKJv/IddcjFIin/1ClplzLPas6t2hUi/JsvY0OQtqZZ9o9JDJ/5m5/dYiMKi+aLhWpeovpnykrwFQuncG0TwOXH/nUVPgSY2SH5DCdEpm/QYGONc7W6uhM6KojOx6mY/ibnrVYp7D35Zl1okfqgRh5JOHzYFQC/mJwoevSoVU180WPvJnV/UYyU/apcx+bChdoYKoPN7a7mebRgZxlfqcdZXaKr99nQljoAlzenaXWeAh84wvAnjh7yaUesk09K11TXUhS13VZ0uUvkVQnxh1CgntOniNB20ps2hmVoL5xmQ6OMMczRVMn2VvLFfFqUCha/XNiJXbEJtvtc5CKTHEhUcajqwdN+eFPVC/VqT5fB+SydEa56G54BwAsutns5jadknxgjmS+R4qtEkmCHotKUJrIWD1WpvKR4HoejOpw6cgh9UhgBL0bmGGWrtwkYLVh09HqTbZ+69L1ajCqV0DAUrb3irRDYW2Fvhtd1qteBaQ6gmLPwWMiZR+qIXxetqpb1Sp+D1fU3w9Eav5f131Z8sLJ/1v67z7XcC2GrJ8zYMsxZv/hU+o25B0xtrxI9TR3+6tBRDZKErUn1eWCVJWRyfQWmdchVq9IjwIkai4jXeNdh6yhJR2A5Onuk2luhN46kpmq9g+dVDcQHYeUw62FWpAPYOPN6Mub13ep58HXX/t3HcquvRqN+Z39BWwkTAa6vG9s7S47wPO0z0imvcoGzpkQvla5lwFOripS0R8oGHrHz1wyrNagPfXQ5Uhq9zvvTM8uo/G8qd8jumgfOilgjFb4Id+H0pXBtUQGoTW28AGnb3G+miti4lMgkv5muKzutlqUznAIEZXaKHoY0jSfLvY4ZhqU+8ICdlUHpHFZjn3m4tVRp1WfkWQYMplZi1Q6ANiq1FzzCfu+ivGUD2TjxQ+k/DsXHrqzkPK4gi58fL2geuNPxohhGsZ7UtqwUo2sgmYkabNJpz4z4Tnt2maoIuQy2LVWuWATy14TvO0BzPSZDJDsJnKBaHq69mMsowsd8Tgwa+WCHoOOrfx5BnsSCMBXvxJ5Ayy9kMpOxqgKZ/2plaZ09oqHUhVrP18DP46lg3DlMC0GZZTTuGQC0Wh+/PpxbGPb2xWwWOpIigG21Lz+qLdgPBnvAEfYB5DuGIkCnGWruvIaiPkYYLC8RLerl3qHpE3Ldl4seMBjwMa7h6zhJkxQY0PPYBaw9hkPdLHiNBkY/I5BiJQUyV4SjKY/wMgiQEHbTRJQnjp3edj9fCZ4wKAC1EQmS8RAc5CYuIRiLiM0g75KTJxpCMBGF/eoi4rGy9eohTDTW2zdHjsAAJyM5G07DmQjLE9iOp5lI2yDSdY90aba+vnm9nkxvvJsqzkebI26M6apcbE+j2mdfFTyG/J5B/IxYCDDSqNpwhhf0VUDDrCPMb58loFefvi2KUnOV1UKCUgo1V9Z6z+HAbRjz5D6Tpm9AC0gpR/5zHe42PoGDwwbbH6oNz1zkRp2CKpANHlgwh/J9DY+ukiy3oZTa7RxOFYztnan1VPHoKs+wqoO3LdTm0yLNAzTJK6sQjsepvMxMJAiND46Zf/m3uemyyK99/f36zRLmJfpdP6SdQoUfzp9EqM2oBaQd8B7YweU1ix62C4j22okc42AO7Zyu7ad6sJSF1IBhwPvvm520bVll/4OY3fAgBzAEoBBGufWHYGxc98RuQ77ICXGlsyA0XSpg8XEJFZ1etF0lUpWwCqNGpIpJbHp4NOrADmsxoNMg7hocIfhNmldtl4AWJh09RnAkqOZmDJbgwjosoRiOZAYP2k+0D0tI7Vvnz+pUhzpSoejIrHcuVB1wGeub3fRI1ULpG3Ltp8pfMaS62i/oOiWeBsISMyetyKrTgFCBv7BI6dN4/xVxP4VsAw033uAGsHgyZXKfEbPnte6RuumKmA0feW90vTPO2hMTPookgqjaDOFKFgr6ky857ACrSAp8ASmY2JrdqqEoMNoyJ37jioAczv2SUwHaeevk853UhbdkK0ybSBhfPyyGigQ3RXPAINCnyPPW7Rig9R5dBfcaEyd9x8+qbkKAD8o7RBdtrVgb4H2gVQp3LxOjV+krADLDOweEplqzFmZqdCTUQeoJ/VFzweEbHW0c99hbetcsMJI1137jymgKZPZVYztBQ4WE5Okov+1tLzuM1XSpTFDAtp4z5BtzHEAq1rDYhWX1i/TwcD0ND3VYi5fvWU+GdGAhTCShPAhHcEUi/EFEI7v2T1uqgHlnD90wJTrKlVWOlSp7nxSjBWkWb56PY4B+PVP7mb1RCx+8gfwYRfkLYBl0CcGzmrOAXYAdSL5pXvrbs3fBZy+ugBo2eITXyvGGMAkKJBbJ2Y3PB2UQZ00AhbL3A3G6/61g8bEI7HWfy2UyFzX5GJGvrxsbP2+cZOsytL/ZTsuZBsaPbBt7WYF3khJxfSEJBipZ41kJBYhRMCKIYOUra930a9nNMDMlTPmrvxtalqibiwAQIdu2Dyozx2tXnxPvQFCPncX78VGbwpYKZO2Lus7WbhaoFL2geZpBEptbjAAhRECfj1RlcgfJghAG+ezEXgPjLaGlnb11lCW7qMQTaYdNCYelZTrXgB7NDlXXlqtV1Hs1XodL7AKA/7o8j41NjyV4ERrjg/zDgBUGpERv0WAyO8AgO9yG9pnprabYt36ebIqVaSz1j2jasB9qgps6M6qApRPyuO1W3fyAhEGjLzDAQFJ7/a9mlBC3XOv5xp2U+FsB0Cm7b2wa2zGrAC2/OinYrQttkEcARp1pDyk6tTqufL8PSrN8w0u6iNjSr0tgNqqD277o2hqYPLk+u+z6Jhg5LHTSCTZSPhNX1r0oojoR5NOSqMUOkUVwhhrZGbRwPIMjAWmRd8l44MSt8qW/r26ITG6FzoV1jgGFsAGDLkNDwMA4ug4u61kYROIGnN01y4FXT5APokB+5kD+0x8sj0mHyYvlGUw+QxE3oH64XS3OqR1H7F5G35NVkzwO64j3uH6J3c0IYZBAGAJUVccvl1wmyONUSPCdUvVeKXvfOnaurxTvS6CyWG6qr+/APUg+MJu2lOqmrK6LmXoVvbxzOZ3w0/Op30p5EVTfyI66wP1CKBPpVtN+dCtZ/Kz5mOka2LbKWkMNvXFqq8yq9Zt0ZCltKl25C4xvtixj4bXaJCTGBhVbNnT2T1gOz6PxKATkMh2akTKVptUZp65efromL0G6hUQlWLmrFaV1tQDPXFj76OqAJ+pDwMNN9LkyiYFIYPNv493Sc9cqCFc7qEMeWWzcbPdRcU3PhPdzl7I037DmL45dFPAii1gp3G8LYRke/v3aT7GSP0aiUo7XxCdf33PoLrW/IFIPXWgy2ddtUBIN5ruLq2Y+X84mEwM8qL1PxKIpU9oriNTdHmd5mKq+ypfQz0to1aceeCSN6xBwHR4/MxF9RcOidSat3CNNpaOdpzqdLhIYqQPOp52vDQqmVq79h/VTvHj3zCSBMONzdN8iQHQly1uNw8EgJwikw+cI1lVAZGueBsAAdMkAGxcsMrcEAmVK7HQCZG2+4ZOamaTDjSpo0aiROpp/VkOJP/bslKmobldcyEYqOxTpcEPQBOabiLz15tJmgzzGDUMteHoXRNusH5swEpeASoAriwrxXOlqh1QrEpgf1kkPm1JGzGw1SXo2pV8Wj6LeqjLdKS+qz1v8sRRDaRhazSZRV6akGu0bfv4Glk+n2L6um1KqlvUoKPBmA7JbV2xpsewOBBQ0IB0MJI+NLXBRJf2mvCsFdYIBACu4wlitC7tNCfPXh6mHwIgdF8sZb9DYFYb4Pgv9CTEAwODbr2/TeWbXNloQ5gyQNAJfT377KUrYn136fSfnVapq7xfqUzV0WVb7LIf6izfE3BgEHE9brHTFz42zYvW2tlE3i8k15a5HOL87ShgPvWZiSzcpN4FBgblzUi36OAfKf2tpP3M7Nh7RCUqdaTtqSeDhNmD3OI1G/p0hiC1E9ByHaqYNb5SdS0tj99x8YXQh3q8Ts2nhOtoUCIuKPHjqrf6LB2Q6D2m0gDJCRDYL4oIF42j/khpRCRSSFSTsEiast2X7eA5dlcjbCWceq0Sy96PRUvyB05w9GC/s5Amuw8ccyFIm81VIeoES1qe5OoiRfHaySNmRrV0mnSmeh6kXtt3HMyqITwH/bOnb7dub48uznXZVEsxXNVgdTnBLAfCmtcsKySilMf1SEWy/NHjaRcL9ipd6zUqYKU8QtoaJpfrGbwA7Nip8ypZfaDawWsXQyIQVGWQdtZlOvKZ9iPXoGPjNs3TZZYA2JRx8OhpBTEDlTbkjAO5/s8dbF4OEc2Syq/COaxeARlNiS3HrW6Ur6GekQFeRECIFFfQukYDqHSULy3CDStVz9Vpj7og6WUAcX85Hb9gg43cuOt9KZGR6QyQ+pKP3M7Voh/7Ug+XVFPTYnOHBYSjZHSpyiC8qLVNV9xyH/eTZoekolxAgPWPpwBJ5UsrrY+8E9lnZbsu2YHGwFf3k1EAlg2e0wWH+v5yfUAAzvvTDn6bIJnDjase3pvbhpSBS5B9AQTYvHtUPqOOjAQrRihG1yyZxaxAkGfwHHkmz+FeVnZcvnpTdelcqUxZhGfD5XYZkhphscwNL1b5Sw4+L56C0fR/KE3U3iOaxaiPtKzTqWbcVQFYOkwTtatYn/QQsJyGotO8fFeSXmjiXUN6/agqiXTYJCkrsfWEKaldYnVbX02QTmEKY0e/U+cvq158Q6QgCxl90DLtsqxFXV15AIs3ob+nVwHE1M19TKOs0Zc+FABcNctXdatT3S/TTv/WUI33HLFAyzfo5X1Uasrf+Oajqi74qgMDL9sm8l1oymxTTmJ37kzHZ5lpSmcuVymuYJd6skzGgvUh4JCW6MYpkdz4uW095TkY1WLw6nPlWUhQ3g+1JNfr4c8i+JoBNiqVboMkRpg3Y8Z3Owi9OPqLioq/KoBdhe6KvsheAGU7zo+/oeUYqze+kURtO435HaN66vS5msScXVLzpDwFgIy0PXpHw7vouUGnJmj4UYCEawvrG2lLNIpdYGh4XF3RCjH09j4aBeP/C0MHTPnUmapCIPkwCjEGyeLfvH2PGjVq/fvSivqLsYrej35u6/+EAe/qr0teOve6QWwHnraLtA//x1bvGOYtYBDH1u4WgNs2RJ0gHRPjargR+MCwTLtm9mIFq5Yp9USdYhl9vPuwCXEkqEp4a0yimhEtRCr75Wi5Alz0a18Y6PLxyPM/aukRYvGg6CZ6OgjSjTVVz0sVUMkijR1d2W8CH03RjlY9j44Wg4qcWJWogpm894/GMrPT8SwxibR0an4qnYDURpIC0No5S82QGBFdW3Zq5yBpUA3YcAOXlR8FQ0W4J6qCpg26aBagZC8pMvFZtgOAkUg64Jgl5C/TO/spKADHXH+n5hy6JYDfpvsVWP1cJJo3WYyqLrsEnGsJEIghhvEGmKnHpBmN6vDPBZmGth3I3guyQYkDa3K+1pMBQJkJVi3MmJtVYwAt+yegl+eGxyn7jEhf3HS0qQsonH8nkv4JB6UXQ/Iijaq7os+QKTQo0vV5ARY+80AbrJQcTpR4UT/INnoqoI5k6i1loH8TkLBqgnMjiWQIl9epE51cA19XJNuqY1WnGFg2CmajWX5ii00dxCuAekGgAKltp1U7hZemFmgSdXb6f5JUfRxL3WkHkuEjrRu1P1ganxg4o0DVAS/PYMMRqwpYvZ1BOFJvFazZ3bGljkzjqmpVtdh1Y7Q1z6OuAlzNQ2Cal3fifRkEpBuiGozUZzEufVvDuroePW70uZFXkfmxQIQdAa3FGp67Vl6CF3nCVPysLJ1LVAbDSX2M4zlAnBRHrYiuGrQdkWONoyrgRtLpUZjv0EOP7NppzCeXdTeXxJSZCgT/Gq63RqGAXMqxs8JM3ehCF1oCgGcB6kh2wEeSInV1IAPmiwJm+c6ulrVSHgPz6s3hCduoArj47PJ3O2hDMoUjTbNgzWFV0zaJmoYUFsHFu8fkertUPVdqk6hzx9SLLcCzSYoKJWquhkKZn3aQer4k1t47WJa6+RojhrTBHF3puTISiY4Yz47OZV9NQFo1r7PgEymDZEBy+mCE35PpkCjW1TPHTPO8peZdUQVyf/dVCJ3+BbjhptUyK1x4uum/UGbgCXC1P+QzzyP5qLShXcFKMAVja3D3YTUqH0rCe+ofxq/L9K5ql3B83R47sPI+y/ZFBM+NrxrIIJ8verH1aduy2aOAZ+GB4RokN14D+bv6o3Dqv4SiNf/YQWv8CWNLXnidinWmi+QCkUqFx65fGUZayTvFe8UaTy+0oGM6zwGkz3X17PWqe1cN/40psHSGqjGs7J3EIBvPWSEfuwGNWw/3HhvHqc7sDDI76FIaETx+miCBzWJD10TXRn1BUgLA0lkrpMzHL25UN9nej926OmtoRirqzNCxM9my8RYQkJi/pCOnDjbfQJfcJGquiEHWJgbtrzmYjR95pcl/KoXfVFeWNEJ06ebRR+CrzgCMdxM1IdY+YFc3IElE8vigpPHxHAwDK9JJrsNzEl2+VXMqtJwXoDJRZwIOwUTGGpAMMh04TPHCzodKsIATZPoG9ytYAdXq9XbHFwW4XJPYerygvuUacKBtI/eyZ0Lbmh4tE52YdXbkcGAPUC6qFMYXuQaAFhtBl1GV1dwOxjMBEqkc3J6dvFjmf7pQmzw8YxL9otg/b6nxspnpWzqlbPcl3T8BCeVPgY8wwGD6n7NKHfTPdfrPZQbXKQHr0l5XB+u60oEjAMEII2SbDZhIXQmW8Jf0RaZuju1XHVzux8eL26ygmVPeD9VDtzmV51LG9HSLuSI6ct/APsPaLsDKLKTY4RyFWOqIPHtIWHf+QQCi27oTEaeMWxg3EEsv1fXoMmpxdYwlle2VZn86l3dN9BwRNaHVSq9csNImYlHH2O/Kv56/+cobT+YZMjDYh8xflWzrllF3Y6LvpBpdWPoacJhj9VnfUCIHo21tj0g91SsF0DM0jF3wzKmD5YEJz2pTsDPbAEDCuXoOGANApChLwwWoDV6k+re9aPWPlJRXfjEYr/k1ub5a6noXSavSV+wjUTu/7iD39MQx5QLYM9Y7MF2TJ3y3Sd4XeR1Z3pWORG+PLO7RTldJJp1CyPeFTf+5rBLuog23qnSVOknHx9fvf2iAIeWFrTF2X1SVLfY6qTuejKxKI581CDR4bmyqnjwn1kFQwkptmDIpGxAKgO/Kd6PmEnwUqf79YDR9HSnLwBFwXwtFM//E/fx0VBKt/bdSCT3cQSMpLH15Ud6BicbSmYkd53SKpZOZZpFkuJDyXv/cGOkmlnozu9+gfwoIpT7Z7YvyzX4K3gcywDa6QInzZvBX/scXXTHGBCbATaRTQ7d+WfJXo1syI3ux9CQHo1EpEEn+cUlZ7WckLmkENZqZ7356OgqGM3+JdMWdRZQJx7HGtvO8wGvP0umJ/tPDAdt77MUPYGl/gKL6o6gBgFZ3NCSn43GAk/vYhlM30cuViuSEsFJkrO8h7cFetSWp1mHlYVyJGnDYK5v9tx2MHkvBWLIJnVYXsEZTn3C2hftp7CSIr+EEEyqEO6tiaAwrNF83niCA5XnRtj4b5JB6IOFI7ClkOudevB+q9wIwEUR8JrAxJnUARlViz665a1VdzAIWfTSWDDoIPZGCicy/KolnbqDzsqdFIJ6Ou5/GRhydIxVYoxk3MorZF8tK1zdIf83liQBYhMXRO5qczvMRJGxarL8VYlfIO5BnG8SIBuxM5cIk1DzNzKlbeS7tNQFyEASsqI4i5O6OJTDAZnGBSKoTN5f6+mOpjWVls/+a+7lw8uLT/65UYpcmL0jDYHC9seoAPBEAizoglr867QGc9AvLh6hb3utHMqBmfwcA76JxKqF7j1oPR757HsMqsX1PhQDfJrqkt3NIs4NRQSQgD6B66lYB0dT5cFntz7ifCqdQLP0PRBc5h8XHi7H5WBGwLxewtH+Z2BEKNKSjAEUjaoX2C4CV91CpiMFGOdK/uh6vUNDnMGqE7oro2sQaTunZAp8xnRZTmqj7DxhrYE3zMaJVv+p+KpxKYqlfkka5R0E0Tmzjwacaha8NTxDA6tkOPmAj1VKnM2PSP6lvvGO31TsVsHUmMXju6QBLfVjRjGSUsjitUQRdwfqrT6Xxul8Qg+s+vlxUUC9c/f+4nwqnYCzz64TRWGiIfoJiXwTsy1cJdPdxgAZLv+AxGBNgRe9kQ2kfsLrXLBG6pwAs96jHwunEGE3BSOZ/OAgVTJFI+idkNr/HOkHdmyv+6Hb1TyQR7f+XhtUYydJJTzsKXxueKIBlCgasLoBBXvKYAbt+nzWUfMDuvvT0gJV7/UM/FLCx1JgB64Vr/qEMvixgvWjmD9xPhZMXTf6BTdgWwIpiziK5ImAngErQd9IB1uqwiS1Sh0JnPlxRcm20vd+5xapFOtbr2jmCEXnveRwDWIxAlhxJXcpY3RBLeg5CBVMwnvw1AewDVAK7VX3mt91PhVMgkvlKLmDL2eq9CNiXDlgkGoaSglZAEls9WLiqhtElHJnfqfXnfgIJT50uKm1C8jinAakBOEX+xtMzzRiNLqQy0pXggeDttherHnvwgK2IhgGWJRNFwL5clQCAaHRpgY0uCbMjuYINMOa7J5dFiurGJHrcqU1BDDeutgd8FHL/SKa8AwJYFihKedg8Yjzt8bzM9zsYFUSCtXmxSbNVugYiyb2lkxp+yP1UOBUBO4InAmCZ0tnBhUP1MJoEJCzv1vVXBfSNqhRbjquxRr+iFrDSVpN38lz/RB4BWDxKGjyIpX/TweiJRAZXIJo+jg83gaQW8LqfxkZFwI7giQBYYZ5n11VJv1CPUraK2vbkeiBB5R1YtqNBAwEY7qixGm3DeARgGQhOSi52MHoiBWPV/5ul4DY/thYd+Cvup7FREbAjeIIAlumfhZN6jmy4SqNMJVMa7BZNo9UFySy/kdfL/mK2/tMVvJNO2d/z3vckzgNYJKzoop+GYunfc1Aald4vSf5oUKWrjXIFoskdsVjqe93PY6MiYEfwRAEs4BKJyFkF2VxU1pHVLxP99JatTy4ATz5QVxZL5lmF4OfPsipBI1yFGmz5OA9gYc3YimdOfhiZ8S8cnB4hzh6Wa1coxriH3N5Y+unUAagI2BE8gSQsa87IntOp3YGERZMsc0n0n9WtmZjmdaoX8LLKuaRyrjXUpD81pXDJ5idv0fkkHkXC2pzYmfw9FohX/+Hbbw8/eh4vgFy7ClVAI6kKcvII0kMA2V02NioCdgRPFMDi2ho8Z6NLvlST+vAXALNqltWz0SU9JrKoWyTvUltnH6zB6aZ09krdtklXj+R7RqE8ErCibgSiKV2wChCtpNXvurxYaobUsVz+LhV14bIPVv9a1V/lXi+W/kUHwbFREbAjeIIAFqmZ2Cy6qPSJAhWJhjvJTfUAh7rpiln5Tj9nv+ec2vaHm27kKX9MPAKwGhmNJMsFeNVEvdBLASI4YsoHwHz2v1dAx9LXgrHUbfXBxtL3BLBjzyOAioAdwRMIsJpPgGQVULKui3xW3bJI+onpHmAibZX1f7cB3Yo+U3EMyTpOdR4BWCJdXiz556gAXjgVkLa6BHA5BwPvAQyo+V8Ae5sFAqFo5o8CsdQFB95x9BKwXRAKOgr9m8j4MAfODAfsluNq0OS9/jmx5gJ0DWUBGyQXYOCcfo8RRd4yuiwrnFm+UjqrTU/gwYug/QdY85T7VCxllR+8Phyw4ar3HIS+5QNSVOPpUtFr2wPR9E6p855QomZjIJJKsV6Qa7zS9M8HYumrPmBD0fR/1pvHSkXAjuCJAliR6Ej2oOh+Cth4je4xy/dqaMnfcpGi5AewhgtJqHXUvnMRsfHiPIANRKrfdRDK0lstb32+tDT5QzLdf+HrI1YTeJHMbwlg77oo2X3B2n90P42NhgFWOom1O5HWTbq0+Y1keXc2y1DJRpsIaEtnt+m27nmvf14sEpSDNVhpqvWQ+pTWLdOtNu01G/UaDC6t2/PsM9pkXodmfFGX0QD7OArEMl9hRxjWdEkZYnSlftn9NDbyosk/1QxyOkgYpR6p8iZz1u/pM477PNc9b1bJOqwe1tB6KYxrzQ2c8hlzjeDmAwehgigQTcZZ6KrLY0SXTSTqf9D9NDbSfFiRsFhz+NaKXOTHMTghF0AA+GcOQgWR4CyJZAZrouduYlGi+2ls5Hmp7xK1IBZMZA6KFSecPFDkIufn1EExrg4FI6kZYw2teon6nxfA7wvFM2eD8eSX3dej0Ld8y/8P1/+JMFnNiywAAAAASUVORK5CYII=;" parent="1" vertex="1">
          <mxGeometry x="536" y="56" width="50" height="50" as="geometry" />
        </mxCell>
        <mxCell id="27" value="&lt;div style=&quot;text-align: left; padding-right: 0px; margin-right: 2px;&quot;&gt;&lt;font face=&quot;Comic Sans MS&quot; style=&quot;color: rgb(51, 255, 51); font-size: 14px;&quot;&gt;AÇÕES PROFISSIONAL&lt;/font&gt;&lt;/div&gt;&lt;div&gt;&lt;ul style=&quot;padding-left: 10px; line-height: 100%;&quot;&gt;&lt;li style=&quot;text-align: left;&quot;&gt;&lt;font style=&quot;color: rgb(51, 255, 51); line-height: 100%; font-weight: normal;&quot;&gt;Criar.&lt;/font&gt;&lt;/li&gt;&lt;li style=&quot;text-align: left;&quot;&gt;&lt;font style=&quot;color: rgb(51, 255, 51); line-height: 100%; font-weight: normal;&quot;&gt;Editar.&lt;/font&gt;&lt;/li&gt;&lt;li style=&quot;text-align: left;&quot;&gt;&lt;font style=&quot;line-height: 100%; font-weight: normal;&quot; color=&quot;#33ff33&quot;&gt;Recuperar Senha.&lt;/font&gt;&lt;/li&gt;&lt;li style=&quot;text-align: left;&quot;&gt;&lt;font style=&quot;line-height: 100%; font-weight: normal;&quot; color=&quot;#33ff33&quot;&gt;Cadastrar Fotos.&lt;/font&gt;&lt;/li&gt;&lt;li style=&quot;text-align: left;&quot;&gt;&lt;font style=&quot;line-height: 100%; font-weight: normal;&quot; color=&quot;#33ff33&quot;&gt;Cancelar | Reativar Assinatura.&lt;/font&gt;&lt;/li&gt;&lt;li style=&quot;text-align: left;&quot;&gt;&lt;font style=&quot;line-height: 100%; font-weight: normal;&quot; color=&quot;#33ff33&quot;&gt;Permitir | Negar Agendamentos Automáticos.&lt;/font&gt;&lt;/li&gt;&lt;li style=&quot;text-align: left;&quot;&gt;&lt;font style=&quot;line-height: 100%; font-weight: normal;&quot; color=&quot;#33ff33&quot;&gt;Bloquear | Liberar Horários na Agenda.&lt;/font&gt;&lt;/li&gt;&lt;li style=&quot;text-align: left;&quot;&gt;&lt;font style=&quot;line-height: 100%; font-weight: normal;&quot; color=&quot;#33ff33&quot;&gt;Consultar Agenda.&lt;/font&gt;&lt;/li&gt;&lt;li style=&quot;text-align: left;&quot;&gt;&lt;font style=&quot;line-height: 100%; font-weight: normal;&quot; color=&quot;#33ff33&quot;&gt;Ativar | Desativar Notificações.&lt;/font&gt;&lt;/li&gt;&lt;li style=&quot;text-align: left;&quot;&gt;&lt;span style=&quot;background-color: transparent;&quot;&gt;&lt;span style=&quot;font-weight: 400;&quot;&gt;&lt;font style=&quot;color: rgb(51, 255, 51);&quot;&gt;Consultar Avaliações dos Clientes.&lt;/font&gt;&lt;/span&gt;&lt;/span&gt;&lt;/li&gt;&lt;li style=&quot;text-align: left;&quot;&gt;&lt;span style=&quot;background-color: transparent;&quot;&gt;&lt;span style=&quot;font-weight: 400;&quot;&gt;&lt;font style=&quot;color: rgb(51, 255, 51);&quot;&gt;Cadastrar Serviços Ofertados;&lt;/font&gt;&lt;/span&gt;&lt;/span&gt;&lt;/li&gt;&lt;/ul&gt;&lt;/div&gt;" style="label;whiteSpace=wrap;html=1;image=img/clipart/Gear_128x128.png;align=center;fillColor=#000000;strokeColor=#33FF33;movable=1;resizable=1;rotatable=1;deletable=1;editable=1;locked=0;connectable=1;arcSize=15;" parent="1" vertex="1">
          <mxGeometry x="888.5" y="340" width="291.5" height="270" as="geometry" />
        </mxCell>
        <mxCell id="56" style="edgeStyle=orthogonalEdgeStyle;html=1;exitX=1;exitY=0.5;exitDx=0;exitDy=0;entryX=0;entryY=0.75;entryDx=0;entryDy=0;strokeColor=#FFFF00;strokeWidth=1.9685;startArrow=classic;startFill=1;" parent="1" source="29" target="54" edge="1">
          <mxGeometry relative="1" as="geometry" />
        </mxCell>
        <mxCell id="29" value="&lt;div style=&quot;text-align: center;&quot;&gt;&lt;span style=&quot;font-size: 14px; font-family: &amp;quot;Comic Sans MS&amp;quot;; background-color: transparent;&quot;&gt;&lt;font style=&quot;color: rgb(255, 128, 0);&quot;&gt;AÇÕES DO PERFIL DO CLIENTE&lt;/font&gt;&lt;/span&gt;&lt;/div&gt;&lt;div&gt;&lt;ul&gt;&lt;li&gt;&lt;span style=&quot;font-size: 10px; background-color: transparent;&quot;&gt;&lt;font style=&quot;color: rgb(255, 128, 0);&quot;&gt;Editar o Cadastro.&lt;/font&gt;&lt;/span&gt;&lt;/li&gt;&lt;li&gt;&lt;span style=&quot;background-color: transparent;&quot;&gt;&lt;font style=&quot;color: rgb(255, 128, 0); font-size: 10px;&quot;&gt;Visualizar seu Perfil;&lt;/font&gt;&lt;/span&gt;&lt;/li&gt;&lt;li&gt;&lt;font style=&quot;font-size: 10px; color: rgb(255, 128, 0);&quot;&gt;Recuperar Senha.&lt;/font&gt;&lt;/li&gt;&lt;li&gt;&lt;font style=&quot;color: rgb(255, 128, 0); font-size: 10px;&quot;&gt;Cancelar | Reativar a Assinatura.&lt;/font&gt;&lt;/li&gt;&lt;/ul&gt;&lt;/div&gt;" style="label;whiteSpace=wrap;html=1;image=img/clipart/Gear_128x128.png;align=left;strokeColor=#FF8000;fillColor=#000000;glass=0;shadow=1;fontColor=#FF8000;spacingLeft=31;" parent="1" vertex="1">
          <mxGeometry x="-2590" y="510" width="310" height="170" as="geometry" />
        </mxCell>
        <mxCell id="30" value="&lt;div style=&quot;text-align: center;&quot;&gt;&lt;span style=&quot;font-size: 14px; font-family: &amp;quot;Comic Sans MS&amp;quot;; background-color: transparent;&quot;&gt;&lt;font style=&quot;color: rgb(0, 255, 255);&quot;&gt;CADASTRO SISTEMA (ADMIN)&lt;/font&gt;&lt;/span&gt;&lt;/div&gt;&lt;div&gt;&lt;ul&gt;&lt;li&gt;&lt;span style=&quot;background-color: transparent;&quot;&gt;&lt;font style=&quot;font-size: 10px; color: rgb(0, 255, 255);&quot;&gt;Validar Clientes e Profissionais.&lt;/font&gt;&lt;/span&gt;&lt;/li&gt;&lt;li&gt;&lt;span style=&quot;background-color: transparent;&quot;&gt;&lt;font style=&quot;font-size: 10px; color: rgb(0, 255, 255);&quot;&gt;Editar o Cadastros (CRUD).&lt;/font&gt;&lt;/span&gt;&lt;/li&gt;&lt;li&gt;&lt;span style=&quot;font-size: 10px; background-color: transparent;&quot;&gt;&lt;font style=&quot;color: rgb(0, 255, 255);&quot;&gt;Alterar Nivel de Acesso.&lt;/font&gt;&lt;/span&gt;&lt;/li&gt;&lt;li&gt;&lt;span style=&quot;background-color: transparent;&quot;&gt;&lt;font style=&quot;font-size: 10px; color: rgb(0, 255, 255);&quot;&gt;Cancelar Assinatu&lt;/font&gt;&lt;font style=&quot;font-size: 10px; color: rgb(0, 255, 255);&quot;&gt;ras, Bloquear ou Liberar Acessos.&lt;/font&gt;&lt;/span&gt;&lt;/li&gt;&lt;li&gt;&lt;span style=&quot;background-color: transparent;&quot;&gt;&lt;font style=&quot;font-size: 10px; color: rgb(0, 255, 255);&quot;&gt;Visualizar Perfis;&lt;/font&gt;&lt;/span&gt;&lt;/li&gt;&lt;li&gt;&lt;font style=&quot;font-size: 10px; color: rgb(0, 255, 255);&quot;&gt;Reset Senha.&lt;/font&gt;&lt;/li&gt;&lt;li&gt;&lt;font style=&quot;font-size: 10px; color: rgb(0, 255, 255);&quot;&gt;Cancelar | Reativar a Assinatura.&lt;/font&gt;&lt;/li&gt;&lt;li&gt;&lt;font style=&quot;font-size: 10px; color: rgb(0, 255, 255);&quot;&gt;Editar Agendas (CRUD).&lt;/font&gt;&lt;/li&gt;&lt;li&gt;&lt;span style=&quot;font-size: 10px; background-color: transparent;&quot;&gt;&lt;font style=&quot;color: rgb(0, 255, 255);&quot;&gt;Gerenciar Agendamentos (CRUD).&lt;/font&gt;&lt;/span&gt;&lt;/li&gt;&lt;li&gt;&lt;span style=&quot;font-size: 10px; background-color: transparent;&quot;&gt;&lt;font style=&quot;color: rgb(0, 255, 255);&quot;&gt;Visualizar Perfil Profissional.&lt;/font&gt;&lt;/span&gt;&lt;/li&gt;&lt;li&gt;&lt;span style=&quot;font-size: 10px; background-color: transparent;&quot;&gt;&lt;font style=&quot;color: rgb(0, 255, 255);&quot;&gt;Visualizar Comentários | Pontuação.&lt;/font&gt;&lt;/span&gt;&lt;/li&gt;&lt;li&gt;&lt;span style=&quot;font-size: 10px; background-color: transparent;&quot;&gt;&lt;font style=&quot;color: rgb(0, 255, 255);&quot;&gt;Gerenciar Comentários.&lt;/font&gt;&lt;/span&gt;&lt;/li&gt;&lt;li&gt;&lt;span style=&quot;font-size: 10px; background-color: transparent;&quot;&gt;&lt;font style=&quot;color: rgb(0, 255, 255);&quot;&gt;Gerenciar Funcionalidades.&lt;/font&gt;&lt;/span&gt;&lt;/li&gt;&lt;/ul&gt;&lt;/div&gt;" style="label;whiteSpace=wrap;html=1;image=img/clipart/Gear_128x128.png;align=left;strokeColor=#00FFFF;fillColor=#000000;glass=0;shadow=1;fontColor=#FF8000;spacingLeft=31;" parent="1" vertex="1">
          <mxGeometry x="-170" y="280" width="330" height="340" as="geometry" />
        </mxCell>
        <mxCell id="33" style="edgeStyle=orthogonalEdgeStyle;html=1;entryX=0.5;entryY=0;entryDx=0;entryDy=0;rounded=1;strokeColor=#FFFF00;strokeWidth=1.9685;align=center;verticalAlign=middle;fontFamily=Helvetica;fontSize=11;fontColor=default;labelBackgroundColor=default;endArrow=classic;exitX=1;exitY=0.25;exitDx=0;exitDy=0;startArrow=classic;startFill=1;" parent="1" edge="1">
          <mxGeometry relative="1" as="geometry">
            <Array as="points">
              <mxPoint x="-780" y="213" />
              <mxPoint x="-780" y="30" />
              <mxPoint x="-305" y="30" />
            </Array>
            <mxPoint x="-830" y="212.5" as="sourcePoint" />
            <mxPoint x="-305" y="120" as="targetPoint" />
          </mxGeometry>
        </mxCell>
        <mxCell id="34" style="edgeStyle=orthogonalEdgeStyle;html=1;entryX=0;entryY=0.5;entryDx=0;entryDy=0;rounded=1;strokeColor=#FFFF00;strokeWidth=1.9685;align=center;verticalAlign=middle;fontFamily=Helvetica;fontSize=11;fontColor=default;labelBackgroundColor=default;endArrow=classic;exitX=0.25;exitY=0;exitDx=0;exitDy=0;startArrow=classic;startFill=1;" parent="1" source="31" target="12" edge="1">
          <mxGeometry relative="1" as="geometry">
            <Array as="points">
              <mxPoint x="-1047" y="-40" />
              <mxPoint x="300" y="-40" />
              <mxPoint x="300" y="195" />
            </Array>
            <mxPoint x="-960" y="50" as="sourcePoint" />
          </mxGeometry>
        </mxCell>
        <mxCell id="31" value="&lt;font face=&quot;Comic Sans MS&quot; style=&quot;font-size: 14px; color: rgb(255, 128, 0);&quot;&gt;CADASTRO DE USUÁRIO&lt;/font&gt;&lt;div&gt;&lt;ul&gt;&lt;li&gt;&lt;span style=&quot;font-size: 10px; background-color: transparent;&quot;&gt;&lt;font style=&quot;color: rgb(255, 128, 0);&quot;&gt;Campo Nome;&lt;/font&gt;&lt;/span&gt;&lt;/li&gt;&lt;li&gt;&lt;span style=&quot;font-size: 10px; background-color: transparent;&quot;&gt;&lt;font style=&quot;color: rgb(255, 128, 0);&quot;&gt;Campo User Login;&lt;/font&gt;&lt;/span&gt;&lt;/li&gt;&lt;li&gt;&lt;span style=&quot;font-size: 10px; background-color: transparent;&quot;&gt;&lt;font style=&quot;color: rgb(255, 128, 0);&quot;&gt;Campo E-mail;&lt;/font&gt;&lt;/span&gt;&lt;/li&gt;&lt;li&gt;&lt;span style=&quot;font-size: 10px; background-color: transparent;&quot;&gt;&lt;font style=&quot;color: rgb(255, 128, 0);&quot;&gt;Campo Telefone;&lt;/font&gt;&lt;/span&gt;&lt;/li&gt;&lt;li&gt;&lt;span style=&quot;font-size: 10px;&quot;&gt;&lt;font style=&quot;color: rgb(255, 128, 0);&quot;&gt;Campos senha e confirmar senha;&lt;/font&gt;&lt;/span&gt;&lt;/li&gt;&lt;li&gt;&lt;span style=&quot;font-size: 10px;&quot;&gt;&lt;font style=&quot;color: rgb(255, 128, 0);&quot;&gt;Campo Endereço de Recuperação;&lt;/font&gt;&lt;/span&gt;&lt;/li&gt;&lt;li&gt;&lt;span style=&quot;font-size: 10px;&quot;&gt;&lt;font style=&quot;color: rgb(255, 128, 0);&quot;&gt;Campo Foto do Perfil;&lt;/font&gt;&lt;/span&gt;&lt;/li&gt;&lt;li&gt;&lt;span style=&quot;font-size: 10px;&quot;&gt;&lt;font style=&quot;color: rgb(255, 128, 0);&quot;&gt;Habilitar Localização;&lt;/font&gt;&lt;/span&gt;&lt;/li&gt;&lt;li&gt;&lt;span style=&quot;font-size: 10px;&quot;&gt;&lt;font style=&quot;color: rgb(255, 128, 0);&quot;&gt;Validar Conta (E-mail | SMS);&lt;/font&gt;&lt;/span&gt;&lt;/li&gt;&lt;li&gt;&lt;span style=&quot;font-size: 10px; background-color: transparent;&quot;&gt;&lt;font style=&quot;color: rgb(255, 128, 0);&quot;&gt;Botão Cadastrar | Atualizar | Cancelar&lt;/font&gt;&lt;/span&gt;&lt;/li&gt;&lt;/ul&gt;&lt;/div&gt;" style="label;whiteSpace=wrap;html=1;image=img/clipart/Gear_128x128.png;align=left;strokeColor=#FF8000;fillColor=#000000;glass=0;shadow=1;fontColor=#FF8000;spacingLeft=38.1889;imageWidth=42;arcSize=12;" parent="1" vertex="1">
          <mxGeometry x="-1120" y="140" width="290" height="250" as="geometry" />
        </mxCell>
        <mxCell id="35" style="edgeStyle=orthogonalEdgeStyle;html=1;exitX=0.5;exitY=1;exitDx=0;exitDy=0;entryX=0.5;entryY=0;entryDx=0;entryDy=0;rounded=1;strokeColor=#FFFF00;strokeWidth=1.9685;align=center;verticalAlign=middle;fontFamily=Helvetica;fontSize=11;fontColor=default;labelBackgroundColor=default;endArrow=classic;" parent="1" source="5" target="10" edge="1">
          <mxGeometry relative="1" as="geometry" />
        </mxCell>
        <mxCell id="41" style="edgeStyle=orthogonalEdgeStyle;html=1;exitX=0.5;exitY=1;exitDx=0;exitDy=0;entryX=0.5;entryY=0;entryDx=0;entryDy=0;rounded=1;strokeColor=#FFFF00;strokeWidth=1.9685;align=center;verticalAlign=middle;fontFamily=Helvetica;fontSize=11;fontColor=default;labelBackgroundColor=default;endArrow=classic;" parent="1" source="6" target="11" edge="1">
          <mxGeometry relative="1" as="geometry" />
        </mxCell>
        <mxCell id="46" value="&lt;font style=&quot;font-size: 14px; color: rgb(0, 255, 255);&quot; face=&quot;Comic Sans MS&quot;&gt;GEOLOCALIZAÇÃO&lt;/font&gt;&lt;div&gt;&lt;font style=&quot;color: rgb(0, 255, 255);&quot;&gt;BARBEIRO | CLIENTE&lt;/font&gt;&lt;/div&gt;" style="label;whiteSpace=wrap;html=1;image=img/clipart/Gear_128x128.png;align=center;strokeColor=#00FFFF;fillColor=#000000;glass=0;shadow=1;fontColor=#FF8000;" parent="1" vertex="1">
          <mxGeometry x="-170" y="125" width="210" height="50" as="geometry" />
        </mxCell>
        <mxCell id="47" style="edgeStyle=none;html=1;exitX=1;exitY=0.5;exitDx=0;exitDy=0;entryX=0;entryY=0.5;entryDx=0;entryDy=0;rounded=1;strokeColor=#FFFF00;strokeWidth=1.9685;align=center;verticalAlign=middle;fontFamily=Helvetica;fontSize=11;fontColor=default;labelBackgroundColor=default;endArrow=classic;" parent="1" source="6" target="46" edge="1">
          <mxGeometry relative="1" as="geometry" />
        </mxCell>
        <mxCell id="48" style="edgeStyle=orthogonalEdgeStyle;html=1;exitX=1;exitY=0.75;exitDx=0;exitDy=0;entryX=0;entryY=0.5;entryDx=0;entryDy=0;rounded=1;strokeColor=#FFFF00;strokeWidth=1.9685;align=center;verticalAlign=middle;fontFamily=Helvetica;fontSize=11;fontColor=default;labelBackgroundColor=default;endArrow=classic;" parent="1" source="6" target="30" edge="1">
          <mxGeometry relative="1" as="geometry" />
        </mxCell>
        <mxCell id="52" value="&lt;div style=&quot;text-align: center;&quot;&gt;&lt;span style=&quot;background-color: transparent;&quot;&gt;&lt;font face=&quot;Comic Sans MS&quot; style=&quot;font-size: 14px; color: rgb(51, 255, 51);&quot;&gt;FUNÇÃO AGENDAR HORÁRIO&lt;/font&gt;&lt;/span&gt;&lt;/div&gt;&lt;div&gt;&lt;ul&gt;&lt;li&gt;&lt;span style=&quot;background-color: transparent;&quot;&gt;&lt;font style=&quot;color: rgb(51, 255, 51);&quot;&gt;Visualizar a sua Agenda e Definir os Atributos de Agendamento:&lt;/font&gt;&lt;/span&gt;&lt;/li&gt;&lt;ul&gt;&lt;li&gt;&lt;font style=&quot;color: rgb(51, 255, 51);&quot;&gt;Agendamento por Data;&lt;/font&gt;&lt;/li&gt;&lt;li&gt;&lt;font style=&quot;color: rgb(51, 255, 51);&quot;&gt;Permitir Agendamento Futuro;&lt;/font&gt;&lt;/li&gt;&lt;li&gt;&lt;font style=&quot;color: rgb(51, 255, 51);&quot;&gt;Permitir Cancelamento;&lt;/font&gt;&lt;/li&gt;&lt;li&gt;&lt;font style=&quot;color: rgb(51, 255, 51);&quot;&gt;Confirmar o Agendamento;&lt;/font&gt;&lt;/li&gt;&lt;li&gt;&lt;font style=&quot;color: rgb(51, 255, 51);&quot;&gt;Ver Pontuação do Cliente;&lt;/font&gt;&lt;/li&gt;&lt;li&gt;&lt;font style=&quot;color: rgb(51, 255, 51);&quot;&gt;Ver Históricos dos Agendamentos;&lt;/font&gt;&lt;/li&gt;&lt;li&gt;&lt;font style=&quot;color: rgb(51, 255, 51);&quot;&gt;Liberar Agenda Mensal;&lt;/font&gt;&lt;/li&gt;&lt;/ul&gt;&lt;/ul&gt;&lt;/div&gt;" style="label;whiteSpace=wrap;html=1;image=img/clipart/Gear_128x128.png;align=left;strokeColor=#33FF33;fillColor=#000000;glass=0;shadow=1;fontColor=#FF8000;spacingLeft=31;" parent="1" vertex="1">
          <mxGeometry x="880" y="20" width="300" height="270" as="geometry" />
        </mxCell>
        <mxCell id="54" value="&lt;h5&gt;&lt;font&gt;&lt;font style=&quot;color: rgb(255, 128, 0);&quot; face=&quot;Comic Sans MS&quot;&gt;&lt;span style=&quot;font-size: 14px;&quot;&gt;AÇÕES DO CLIENTE LOGADO&lt;/span&gt;&lt;/font&gt;&lt;/font&gt;&lt;/h5&gt;" style="label;whiteSpace=wrap;html=1;image=img/clipart/Gear_128x128.png;align=center;strokeColor=#FF8000;fillColor=#000000;glass=0;shadow=0;fontColor=#FF8000;rounded=1;verticalAlign=middle;spacingLeft=52;spacing=2;fontFamily=Helvetica;fontSize=12;fontStyle=1;gradientColor=none;" parent="1" vertex="1">
          <mxGeometry x="-1830" y="450" width="210" height="50" as="geometry" />
        </mxCell>
        <mxCell id="58" value="&lt;h1 style=&quot;margin-top: 0px;&quot;&gt;&lt;font style=&quot;font-size: 12px; color: rgb(255, 128, 0);&quot;&gt;Verifica a existência de cadastro, se NÃO permite a criação, se SIM permite recuperar a senha OU Direciona para Tela de Login.&lt;/font&gt;&lt;/h1&gt;" style="text;html=1;whiteSpace=wrap;overflow=hidden;rounded=0;align=center;fillColor=#000000;strokeColor=#d6b656;" vertex="1" parent="1">
          <mxGeometry x="-1570" y="180" width="382.5" height="70" as="geometry" />
        </mxCell>
        <mxCell id="60" value="&lt;h1 style=&quot;margin-top: 0px;&quot;&gt;&lt;font style=&quot;font-size: 12px; color: rgb(255, 128, 0);&quot;&gt;Após atendimento permite indicar a um amigo, consultar a pontuação de Fidelidade aplicada pela empresa e Agregar pontuação de Avaliação do Estabelecimento.&lt;/font&gt;&lt;/h1&gt;" style="text;html=1;whiteSpace=wrap;overflow=hidden;rounded=0;" vertex="1" parent="1">
          <mxGeometry x="-2270" y="810" width="490" height="60" as="geometry" />
        </mxCell>
        <mxCell id="61" value="&lt;h1 style=&quot;margin-top: 0px;&quot;&gt;&lt;font style=&quot;font-size: 12px; color: rgb(51, 255, 51);&quot;&gt;Verifica a existência de cadastro, se NÃO permite a criação, se SIM permite recuperar a senha ou Direciona para Login.&lt;/font&gt;&lt;/h1&gt;" style="text;html=1;whiteSpace=wrap;overflow=hidden;rounded=0;fillColor=#000000;strokeColor=#82b366;align=center;gradientColor=none;" vertex="1" parent="1">
          <mxGeometry x="-440" y="-120" width="350" height="70" as="geometry" />
        </mxCell>
        <mxCell id="65" value="" style="shape=image;verticalLabelPosition=bottom;labelBackgroundColor=default;verticalAlign=top;aspect=fixed;imageAspect=0;image=data:image/jpeg,/9j/4AAQSkZJRgABAQEAYABgAAD/4QAiRXhpZgAATU0AKgAAAAgAAQESAAMAAAABAAEAAAAAAAD/2wBDAAIBAQIBAQICAgICAgICAwUDAwMDAwYEBAMFBwYHBwcGBwcICQsJCAgKCAcHCg0KCgsMDAwMBwkODw0MDgsMDAz/2wBDAQICAgMDAwYDAwYMCAcIDAwMDAwMDAwMDAwMDAwMDAwMDAwMDAwMDAwMDAwMDAwMDAwMDAwMDAwMDAwMDAwMDAz/wAARCAFqA2MDASIAAhEBAxEB/8QAHwAAAQUBAQEBAQEAAAAAAAAAAAECAwQFBgcICQoL/8QAtRAAAgEDAwIEAwUFBAQAAAF9AQIDAAQRBRIhMUEGE1FhByJxFDKBkaEII0KxwRVS0fAkM2JyggkKFhcYGRolJicoKSo0NTY3ODk6Q0RFRkdISUpTVFVWV1hZWmNkZWZnaGlqc3R1dnd4eXqDhIWGh4iJipKTlJWWl5iZmqKjpKWmp6ipqrKztLW2t7i5usLDxMXGx8jJytLT1NXW19jZ2uHi4+Tl5ufo6erx8vP09fb3+Pn6/8QAHwEAAwEBAQEBAQEBAQAAAAAAAAECAwQFBgcICQoL/8QAtREAAgECBAQDBAcFBAQAAQJ3AAECAxEEBSExBhJBUQdhcRMiMoEIFEKRobHBCSMzUvAVYnLRChYkNOEl8RcYGRomJygpKjU2Nzg5OkNERUZHSElKU1RVVldYWVpjZGVmZ2hpanN0dXZ3eHl6goOEhYaHiImKkpOUlZaXmJmaoqOkpaanqKmqsrO0tba3uLm6wsPExcbHyMnK0tPU1dbX2Nna4uPk5ebn6Onq8vP09fb3+Pn6/9oADAMBAAIRAxEAPwD8G6KKK888sKKKKACijFbPgXwHqXxG8QxabpcBmuJPmZjwkK92Y9gM/UnAGSQKmc4wi5SdkjqwOBxGMrxwuFg5zk0kkrtt9EjIHPvXYeEvgJ4u8bxLJYaLdGFlDiWcCFGU9GBYjcPpmvrr9n79ifSPh3a299q6JfatgN5ki58s5DDYDkJjA5HzdeQDtHullo9rpqbLe3jhXp8q4J+pr5vE8QO9sPHTu/0R/WXBn0X516McRxHXcG9fZwtdeUpO6T8kn6nwfpv7A3ji/gWTy7Ebhk/63j8dmPypuqfsFeNtOt3k2WL7RkAeblvYfLj86+/CMD2o7ccZrz/7axe9193/AAT9U/4lv4N9nyclS/f2jv8AlY/Mbxh8A/F3gVHk1DRbtYYwWaWECZFUdS20naP97Fch0r9X7/SrXU4mjuIY5o27MOn0/wDrV4f8ef2H9D+I8U97pGNP1Q/NvRPmkOSTkcB85P3vm6fNgYr0MLxA72xEfmv8v8j8r4y+jBUo0pYjh2u5tf8ALudk35KS0v5NL1Pg6itz4g/D3VPhl4lm0vVoDDcQn5WGdky5wGU9wfzHQgEEVh19JCcZxUou6Z/JuOwOIweInhcVBwnBtNNWaa6NBRRRVHKFFFFABRRRQAUUUUAFFFFABRRRQAUUUUAFFFFABRRRQAUUUUAFFFFABRRRQAUUUUAFFFFABRRRQAUUUUAFFFFABRRRQAUUUUAFFFFABRRRQAUUUUAFFFFABRRRQAUUUUAFFFFABRRRQAUUUUAFFFFABRRRQAUUUUAFFFFABRRRQAUUUUAFFFFABRRRQAUUUUAFFFFABRRRQAUUUUAFFFFABRRRQAUUUUAFFFFABRRRQAUUUUAFFFFABRRRQAUUUUAFFFA5oAs6RpFxr2q29jaxtNdXUiwxIOrMxwBX6Dfst/s6WXwh8DW8k0cUmqXQEs0uDlm9c9cDJCjsOerGvn7/AIJ7/CFfFPjK58Q3cZMGnZt7c+rlfnPXPCso5GCHPcV9uZ24UYHGK+SzzGOdT6vH4Y7+b/4H5n9yfRv8O6WFy/8A1mxcb1at1Tv9mGzkvOTur9l5jfLxx69qCOfrTiOf880bcjHvn614R/UwfMg6DrRs3D070FtvB4z0pRgH0/CmMQDP49qFQD/61A6UY7DH4UAeZftH/s86X8b/AAjNG0Kx6lbgvb3CD94rY6j1916MBjggEfnh4k8PXfhPXbrTb6Iw3dnIYpEPYjuD3B6gjggg1+rmza3+ea+Mv+Chnwej0TWLPxNZQrGl0fJucDrnO1jx2wRknoUHavbyTGOnU9hLaW3k/wDg/mfzB9Izw7pY7LXxFg4JVqNuey+KG133cbrX+V+SPmKiiivrj+EwooooAKKKKACiiigAooooAKKKKACiiigAooooAKKKKACiiigAooooAKKKKACiiigAooooAKKKKACiiigAooooAKKKKACiiigAooooAKKKKACiiigAooooAKKKKACiiigAooooAKKKKACiiigAooooAKKKKACiiigAooooAKKKKACiiigAooooAKKKKACiiigAooooAKKKKACiiigAooooAKKKKACiiigAooooAKKKKACiiigAooooAKKKKACiiigAoFFC8tQVTjzSUT9Av2HvCP8AwjHwN09mjjSS8jE7FRgv5hMgJ9TtZR/wEelez54/+vXK/Bvw4vhX4aaVYKhX7NCsZHJyVUJ/7LXTkNnj+VfnNWfPUlPu2/xP9auFcvjgcmwuDirclOC+6Mb/AI3JNo/r9KOh9qZvz8vWlHHAqD6BDm5XH5UYwvTFNYnHQ0DO3/61Ahw4Aoxx9f1pGBxSbjnGD+XWgYpOD3FeZftbeDF8Z/BPWIfLaR44i6Kv3mYfMn/j4XivTcZ42msnxxZNeeDNSTaeIC/Tpt+b+lONRwamumv3anm5zgIY3AVsHV+GpCUX/wBvRa/U/Kw9aKfOuyd1P8LEUyv0g/yJrR5ako9mwooooMwooooAKKKKACiiigAooooAKKKKACiiigAooooAKKKKACiiigAooooAKKKKACiiigAooooAKKKKACiiigAooooAKKKKACiiigAooooAKKKKACiiigAooooAKKKKACiiigAooooAKKKKACiiigAooooAKKKKACiiigAooooAKKKKACiiigAooooAKKKKACiiigAooooAKKKKACiiigAooooAKKKKACiiigAooooAKKKKACiiigAooooAKKKveHfDd74s1qDT9Ot3ury5bbHGvfueegAHJJ4AGTSlJJXexth8PVr1I0aMXKUmkkldtvZJFGgV9GeEv+Cc3iHW9PWW91W3s5m52JAZEx/vEqc9e2OOprQ/4do61/0HIP8Avyv/AMcrzJZ1g07c/wByb/Q/WsN4D8cVYRqwwTV9VecIv5pyTXzR5RB+1f4+t4VjXXmCrwP9Fh/+Ip4/a0+IGP8AkPN/4CQ//EV6kf8AgmnrnbW7f8YlH/tSk/4dqa4emt2//fpf/jlcf1zKd+Vf+AP/ACPto8B+MMVyqday/wCoiP8A8sPLP+Gs/H+P+RgY/wDbtD/8RQP2sPHw/wCY83/gLD/8RXqh/wCCauuD7utQ+v8Aqk/+OUD/AIJp62f+Y5B/35T/AOOUfXMp/lX/AIA/8iv9RfGH/n5W/wDCiP8A8sPKx+1l4+H/ADHj/wCAkP8A8RQP2svH4H/Ifb/wFh/+Ir1T/h2lrh6a1B/35T/45Q3/AATT1sdNbgP/AGxT/wCOUvreU/yr/wAAf+QLgTxi/wCflb/woj/8sPLR+1p8QB/zMDf+AsP/AMRTR+1h4+X/AJjx/wDAWH/4ivVD/wAE1daz/wAhyH/vwv8A8coH/BNPW2HGuW/r/qU/+OU/reU/yr/wB/5B/qL4xf8APyt/4UR/+WHlo/a1+ICjjX//ACUh/wDiKH/a1+IEiMra9uVgQQbSA9f+AV6kP+CamtMP+Q5b/Xyl/wDjlA/4Jqa3/wBBqH/vyn/xyj63lX8q/wDAH/kH+ofjC1Z1K3/hRH/5M+Z5JGlcuxyzEk/Wmivpwf8ABNHWmHy67bn/ALYr/wDHKL3/AIJo63FayPDrkU0iqSi/Z1+Y9h/rM/jg/Q11rOsHtzfg/wDI+LqeAfHSTnLB36/xKbf3c12fMdFbvxC+HOqfDHxFJpurQeTMnKOvMcy9mU9x9cEdCAeKwq9OE4zipRd0z8mx2BxGCxE8LioOFSLs4tWafZoKKKKo5AooooAKKKKACiiigAooooAKKKKACiiigAooooAKKKKACiiigAooooAKKKKACiiigAooooAKKKKACiiigAooooAKKKKACiiigAooooAKKKKACiiigAooooAKKKKACiiigAooooAKKKKACiiigAooooAKKKKACiiigAooooAKKKKACiiigAooooAKKKKACiiigAooooAKKKKACiiigAooooAKKKKACiiigAooooAKKKKACiiigAxX13/wTl+GNq2l6h4imj3XEkhijdsHEa4A28ZHz7ieeqJ6c/IgPFfdX/BPc7/gymO0kgP/AH9f/wCtXi59JrC2XVpM/fvo34ChieMIzrRT9nTnKN+ktEn8rux7+xyMfLSeWDxigrjtTgM/LXx5/ocNYAL6UNCmfu04nFKTxz+tADCmPX8DQ0angfSnBc0hGePyoATZj2pSu7NL3xTQNy0AAUZ6HmgRL/d9vrQQc/rTujU7AN8tSelDRqe2M96djJ/Shh2pAg2gew+tNCAHGAKdjn2z1oyaAZ8+/wDBQL4d2eufCSTWFtx9u0+RXRwo3dQGyeuNm7I7kL6V8L4r9FP2ylx8Ata2jjy3zx/0zevzsIr63h+TdCUX0f6I/gn6UGBo0uI6FemrOpSTlbq1JpN+drL5ISiiivdP5pCiiigAooooAKKKKACiiigAooooAKKKKACiiigAooooAKKKKACiiigAooooAKKKKACiiigAooooAKKKKACiiigAooooAKKKKACiiigAooooAKKKKACiiigAooooAKKKKACiiigAooooAKKKKACiiigAooooAKKKKACiiigAooooAKKKKACiiigAooooAKKKKACiiigAooooAKKKKACiiigAooooAKKKKACiiigAooooAKKKKAF6g190/wDBPbD/AAYX2kkB9/3r/wD1q+FelfRn7N37X2k/Bb4bw6TNY38t0rOZHjiDK2ZGYY+YdmHbtXk51RnUoKNNXd1t8z9x8AeIctybiSWLzStGlT9nJXlortxsvU+3eq4oz8+Pzr5oH/BSXQ1UD+x9Q/79D/4qlb/gpNoQHy6PqX4xD/4qvl/7PxP/AD7f3H9o/wDEYODbf8jCn/4F/wAA+lyvG3t2oIJG3t246V8yH/gpLo5HGk36/SEf/FUrf8FJdFI/5BGof9+h/wDF0f2fif8An2/uBeL/AAb/ANDCn9//AAD6a69/xpCNzfWvmT/h5Lo//QIvh/2yH/xVO/4eT6P/ANAe+/79/wD2VH9n4n/n2w/4jBwb/wBDCn/4F/wD6ZIyf64pADtxXzOf+Ck2jYx/Y+oY/wCuQ/8AiqP+Hkuikf8AIHvx/wBsx/8AFUf2fiv+fbD/AIjBwb/0MKf3/wDAPphTk07bkY9a+ZD/AMFI9FI/5A9//wB+/wD7Kl/4eS6Of+YTff8Afn/7Kj+z8T/I/uH/AMRf4N/6GFP/AMC/4B9NA/w9aAMn+XFfMh/4KS6P20e+H/bL/wCyp/8Aw8l0MD/kD33/AH6/+yo/s/E/8+39wv8AiL/Bv/Qwp/8AgX/APpjbkFf50gHFfNA/4KTaHj/kD3//AH7/APsqUf8ABSfRdv8AyB75fpCP/i6PqGJ/59v7gfi9wb/0MKf/AIF/wD0b9sMY+AWt8dYnB/79SV+c5NfUfxz/AG49H+KHwy1LRbfS9QguLyMqjMoCgkFck54wCa+XD0r6TI6FSlTkqsba9fRH8g/SH4oyrOs3w1bKq8asY07Nxd0nzN2+4SiiivaP57CiiigAooooAKKKKACiiigAooooAKKKKACiiigAooooAKKKKACiiigAooooAKKKKACiiigAooooAKKKKACiiigAooooAKKKKACiiigAooooAKKKKACiiigAooooAKKKKACiiigAooooAKKKKACiiigAooooAKKKKACiiigAooooAKKKKACiiigAooooAKKKKACiiigAooooAKKKKACiiigAooooAKKKKACiiigAooooAKKKKAA8UoGR92kooGnYdjP8P61658MP+Cf/AMePjd4HsfE/gv4I/Fzxd4a1PzPseraL4P1HULG78uRon8uaKFkfbIjodpOGRgeQRXkNf1z/APBsHz/wQ1+CH/ce/wDT/qVaU4qTsa005u1z+ZT/AIdU/tQf9G2/Hz/w3+rf/I9H/Dqn9qD/AKNt+Pn/AIb/AFb/AOR6/tkxRitvYo39j5n8Tf8Aw6p/ag/6Nt+Pn/hv9W/+R6P+HVP7UH/Rtvx8/wDDf6t/8j1/bJijb9aPYoPY+Z/E3/w6p/ag/wCjbfj5/wCG/wBW/wDkej/h1T+1B/0bb8fP/Df6t/8AI9f2yYoxR7FB7HzP4m/+HVP7UH/Rtvx8/wDDf6t/8j0f8Oqf2oP+jbfj5/4b/Vv/AJHr+2TFGKPYofsfNn8Tf/Dqr9qD/o234+f+G/1b/wCR68z+M/7P/jz9nHxTb6H8Q/A/i7wHrV1arfQ6f4i0e40u6mt2d0WZYp0RjGXjkUMBglGGcqcf1ef8Ffv+C+/wp/4JYaDc6DHJD47+LlxBusvCtjcgLY7hlZr+UZ+zx4IITBlcEbVCkuv8uv7c/wC3b8SP+Civx+vfiR8UNYj1XXriBbK1ighENppdmju8drbxj7kSNI5GSzEuzMzMxY41IxjsY1LR0TPH8Z/ho6dv1pooqDHnf9XHHj+Gm5oozSE3fcKKKKBBRRRQAUUUUAFFFFABRRRQAUUUUAFFFFABRRRQAUUUUAFFFFABRRRQAUUUUAFFFFABRRRQAUUUUAFFFFABRRRQAUUUUAFFFFABRRRQAUUUUAFFFFABRRRQAUUUUAFFFFABRRRQAUUUUAFFFFABRRRQAUUUUAFFFFABRRRQAUUUUAFFFFABRRRigAoooNABRRjiigAooooAKKKKACiiigAooooAKKKKACiiigAooooAKKKKACiiigAooooAK/ro/wCDYQ/8aNvgh/3Hf/T/AKlX8i9f10f8Gwn/ACg2+CH/AHHf/T/qVbUfiOjD/EffFFFFdR2BRRRQAUUV4n+3X/wUI+FX/BOT4NzeNfil4kg0ezO5NP0+LE2pa1MBnybWDIaR+Rk8IgILsq80bbg3bVnsHiHxDYeEtBvNU1S+s9M0zToHubu8u5lhgtYkBZ5HdiFVVUEliQABmvwb/wCCz3/B1/gat8NP2Wbzn57TUviE8f1DJpkbD8PtLj1Ma/dlr4D/AOCv/wDwX5+Kn/BU/XrrQIpJ/Anwit591l4Vsrglr8KcrNfyjH2iTIDBMCJCFwpYGRvgvPFc063SJyVK99IlzxD4h1Dxbrt7qmrX15qmqalO9zd3l3M01xdSuSzySOxLMzMSSxJJJyap0UVgcwUUCgDNABRRRQAUUUUAFFFKg3OB6mgqMXKSiuovXv8ApR07/pX2JoX/AATw0HW9DtbxNU1OMXEe/YZgSOSOuzHap/8Ah2/opP8AyFtQ/wC/w/8Aia8f+3sN5/cfvUfo48YSipKFP/wYv/kT4zx8+dzdMY7Uuf8Aa/Svs4/8E3NDz/yF9Q6dfNA/9lo/4duaKf8AmLah07zf/YUf29hvP7i/+Jb+MP5af/ga/wDkT4x6d/0pOPX9K+zf+Hbui/8AQW1D8ZR/8TR/w7e0Vjxq2of9/h/8RR/b2G8/uF/xLfxh/LT/APA1/wDInxkcY6/pSV9k6j/wTZ0qWJhbavqCPjgtMrD8tgrhPF//AATg8TaVH5ml6lbaiuSWDxlNo7cqWJ/75FXTzrCydnJr1TPJzPwB40wkOdYZVEv5JRk/u0b+SPnGit7xv8Mde+HNyItZ0u6sSx2h2G6NjjOA4ypI7jORWDXpwnGa5ou6PyLHYDE4Os8Pi6bhNbqSaa+TCiiiqOQKKKKACiiigAooooAKKKKACiiigAooooAKKKKACiiigAoooFA0ruyHZ/2v0ozn+L9K+rPhb+whovxA+H+k6t/aOpwy3lukkieYu3cVBOPl6ZPT9a6A/wDBN7RTnGrajx6zf/YV48s8wybWv3H7rhPo78XYihDEU40+WaUl762aTX2ezPjPt1/Sm19LftHfsZaR8GPhXe61DfahcXULRrGrTBozudQc/IOxPfrXzTXdhcZTxMOente2p+c8acE5lwvjI4HNFFTlFSXK+ZWba3suqYUUUV1Hx4UUUUAFFFFABRRRQAUUUUAFFFFABRRRQAUUUUAFFFFABRRRQAUUUUAFFFFABRRRQAUUUUAFFGOa7n4Ufs7+KPjDcx/2XYSLayf8vMoKxkcjK925BGQCAepFZ1a0Kceeo7I9TJ8kx+a4lYTLqUqlR7KKbf8AwF5nD9qXZkcDJ9jX2b8O/wDgnRo2mwo2vXk2oSYIZdxRc54IVCMED1ZhXsfhT9nnwj4JTbp+kxRttCMwAQsP9raBn8c14tbP6UdKUXL8F/n+B/Q3D/0Yc/xcVPM60KCfTWcl91o/+TM/N/TfCGrawm+00zUbpf70Vs7j8wKbf+FNU0pS11puoW4XqZbdk/mK/UZPBmlQrtXT7XHqyZP60P4L0mQFW02xOf8AplXJ/rFO/wDDX3/8A+2/4lRw/JZZhLm/69q3/pR+VezHb8zimiv068TfAvwr4ufN7pNrIyjClo1k2/QOD+leTePv+CePhnXEmk0e4n0y4YMQoYhSx6cHIwPQBRjuK6qPEFJ6VItemv8Ak/wPjs8+i9nmGi55diIVvJ3hJ/fzL8UfD1Fep/GP9kbxZ8IJZZpbV9Q0+MFvtECchRk7ivPGASSpYADkivLMV7NHEU60eem7o/nzPuG8zyXEvCZpRlSmuklv5p7Nea0CiiitjwwooooAKKKKACiiigAooooAKKKKACiiigAooooAKKKKACv66P8Ag2F/5QbfBD/uO/8Ap/1Kv5F6/ro/4NhP+UG3wQ/7jv8A6f8AUq2o/EdGH+I++KKKK6jsCg1i/EX4jaD8IvA+qeJvFOtaX4d8O6LbtdX+pajcpbWtnEvV3kYhVH1PXiv56/8Ags9/wdZa38ZP7W+Gv7Mt3qHhnwm2+11DxwVa31TVl+6VslOGtYjz+9OJmyMCLB3TKSjuTKairs/QT/gst/wcf/Df/gm1b6l4J8E/2f8AEb4zIjRNpkU27TfDrkYDX8qHO8Hn7Oh8w4+YxAqx/mV/az/bC+I/7cfxk1Dx58UPFGoeKPEV8dqyTtthsoskrBbxLhIYlycIgAySTkkk+b3N1JeXEk00kk00zF3d23M7Hkkk8kk85qOuSdRyOGpUcgoooqDMDSrVnRtEuvEOpRWdjby3V1McJHGu5m7/AKdc9hX1Z+zp+wYsa2+reLAsrMFkjtescZ68jo56Dn5ev3uo48ZjqWHXv79F1f8AXc++4F8N854qxPssvp2gviqSuoR9X1fZLVnzHfeANY03wxDrFxYzW+n3EixxSyDaZCwJBA6lSB1xisXFfZP/AAUP0y30T4ZaHb2sKwx/bQT3LYVsZNfG/YVOXYuWIpe0mras6/FLgnD8LZ1/ZWHqOolCEnJ2V5STvZLZdhKKKK7j82CiiigAp0f+sX602nR/6xfrQbYf+LH1X5n6m/D9tvgzTxxt8r8uTWxtz271j/D/AAfBem/9cf6mtkj9a/NY7I/1/wAOv3UfRCEDNPwMYrB+IfxC034ZeGJtW1aRobO3++wGcZ6frXmJ/b8+HpY/6dL/AN+Zv/iK2p0ak9YRb9E2eRmnE2UZbUVHMMTTpSaulKcYtrvZtaHtTelG0E7R614r/wAN+fDvH/H9L/34l/8AiKfB+3z8O5Hw19KFP/TKX+qVf1WuvsS+5/5Hm/8AEQOGW7LH0f8AwZD/ADPaO31pytx6d/pXGeCP2gfCPxAdY9P1a1kmdd4QyqSoyPvYJ28kD5sV2RBHHvWEk07Pc+kwmMw2LpqrhpxnF9YtNferoxvHHw80j4j6PcWOrWcFxFcDazGMFvXn19fY9MGvhr9rH9lG5+COrNqWmRyTeH5mzuBLfZSTgAk87eQOckHAJOVLffy8HH9KyPH3g21+IXhS+0q8hWaO6hdACepIPGffp+NdeCxk8PU5o7dV3/4J8D4keGuW8VZdKlWgo10nyVLe8n0TfWLejXzWqPysorc+Ivg6TwD431LR5GZmspiiscZdDgqx+qkHFYdfdwkpxU47M/zJx+BrYPE1MLXVpwk4tdmm0/xQUUUVRxhRR1ooAKKKOtABRRRQAUUUUAFFAGTRtoAKKMUUAFFFGMUAFFFGKCqfxI/Sj9lttnwI8O/9ekX/AKLSvQen0rzz9l7b/wAKJ8O9MfY4v/RSV6ERxX5xP45er/Nn+t/Df/Iowr/6dU//AEiB4n/wUEb/AIsDeD+9JGT/AN/Y6+A6++v2/wD/AJIFeZ/vp/6Njr4F619Vw/8AwJf4v0R/En0ov+Smw/8A15j/AOlzCijGaK90/mkKKKKACiiigAooooAKKKKACiiigAooooAKKOhoFABRRRQAUUUYoAKKMUdKACiijHFABRRRQAY4pyKzsFUFmJwAO5pBX1Z+xF+yjDqsUPivxBCWXh7OFxgL6MfViDkf3Rg9T8vJjMZDD0+eW/Rd2fccAcCY7ivNI5fg9FvOT2jHq359EurIv2W/2GjrMVvrni6Fo4ywkhsnHGB03j+I+x4HQ7jkD600XQ7Pw9YLa2dvHDCoC4AALY6Z+lW0gWKNUVVVVGAB0A9KXGPxr4jE4qpXnz1Hr+C9D/SLgzgXKeGcEsFltNLRc0n8U33k/wAlsuiEPf0oIH3fX3pl1dR2Ns01xIkMa9XdsAV5f8Qv2w/Bfw6uHt7i+jmulyPJTLuCOxCglf8AgWKxjGU5csE2/LU9/M84wGW0fb5hVjSh3lJRX4nqnf8AXpR/Fj36elfNdz/wUk0HcVj0nUduevkA5/8AHxU2kf8ABRvw1czrHdWN9bRnrK8B2r/3yzH9K6fqGJSv7N/cfGQ8XODpT9nHMKV/8X67fifRyuOn44o4I471w/gD9o/wf8RkU6fqkDMy79jN8yjOMsOqjOPvAda7YPuXcp+VuQc9a5pRadnufdYPMMLjaarYScZwezi0196G31nDqdq8FxGksUnBVh/L0PuK+Xf2pP2HLe/t7nX/AArGIrgDfLagBUkPv2Un+8OMj5sZLV9TL+W7tTgg8sj+8O/QitsPiKlGftKbs/z9TweLeDsr4iwMsBmdJSj0f2ovvF9H+D6pn5N31jNpt7LbXEUkFxA5jkjkXa8bA4IIPQg1DX0h/wAFBvB3hnSvEtnqWlX1t/alwfKubaPBaRAD+8JHHykbQe+cfwV84Zr7jB4lV6KqpWuf5mcdcKy4czqtlMqiqKD0kuqeqv2dt10YlFFFdR8gFFFAGaACijFFABRRigDNABRRRQAUUUUAFFFFABRRRQAV/XR/wbCcf8ENvgh/3Hf/AE/6lX8i9f11f8GxKeX/AMEN/gfxjjXT+evajW1H4jow/wATPvavm/8A4KQf8FUvhF/wS7+FJ8RfEjXB/at7Gx0bw5YlZdW1tx2iiJG2MHhpXKxrwC24qp+Kv+Cz/wDwc9+Cf2JRq3w7+CraX8QvitDvtbzUA/naJ4XkHDCRlP8ApNwp48pDsRs72ypib+bb4/ftDeNv2p/itq3jj4h+JtU8W+Ktak8y71C/l3yN6Io4WONRwsaBUQYCgAYrSpUS0RtUrKOi3PpL/gq3/wAFsPi5/wAFW/HDf8JLeHw18PbC4Muj+DtNnb7Da4yFlnbg3NxjjzHAC5bYkYYg/HdHegjFczberOOUm3dhRR1qS3tpLu4WKFGkkkYKiKMs5PQAUgjCUpKMVdsjruPg18A9e+NWrJFp1u0dkJNkt26/JH3OB/EcenAyMkZzXrX7Of7Cd94vaPU/FMb2tiyhktslWJJ/jIwc4/hB78kYKn7C8MeEdO8HaTHZ6fbR28EQCgIoXPtxxgdh0FeBjs6jH93h9X36L07/AJH9Q+GH0d8XmXJmPEd6VHRqntOS8/5U/wDwJ+W5wfwM/Zd0H4L6ZGUt47jUWH7yaQB2Y9eWxzjA4GFGOhPJ9OZcnmnGMdB9BQevSvmJylKXNJ3Z/bOU5Rg8tw0cHgaUadOKsoxVl/w/d7vqfM//AAUnG3wDoeF+9eD+TV8Y5wFr7M/4KTnHgfRB/wBPY/k9fGfZa+tyL/dvmz+AfpJf8ljP/r3T/JjaKKK9k/AQooooAKdH/rF+tNp0X+tX6ig2w/8AFj6r8z9TPAP/ACJmm9R+4A6e5raAz/npWP4C/wCRL0vn/lgP5mtgfLX5rHZH+wWH/hR9F+R4r+3q2z9nnUsZw0kWf+/iV8A19+ft9N/xj1f9OZI8/wDfxK+A8V9bw/8AwJf4v0R/B/0o/wDkpcP/ANeV/wClyAUUUCvdP5nLGnancaRex3VrPJb3EDb45IztZD6giv0F/Y6+M9x8XvhbC+oEm+08m2mcjh2XHI/AqfYkjoBX55g8Gvs3/gmvpE0XgnWLx93kSXbKmR8vRRkfXBH4V4me0oOgpvdNfif0h9GjOsdR4meX05N0akJOUel4pNSt0d9L+dj6cxj/AOtRGNjL25oB6dfwojXLj6+tfJH9/HwB+3hokGkfHGZoYwjT2oeQj+JhI6g/98hR+FeLN1r2L9uLxPB4g+OV0sJ+a1hEcnH8Rdn4/wCAsteOHmvustv9Vp37H+WvivKi+L8wdHb2stu+l/xuJQBzUlpaS39zHDDHJNNMwRERdzOx4AAHUmve/gj+wP4i+ICw32tMdG05xuCn/XP7ei/qRjBArbEYqlQjzVXb82eLwtwXnPEOI+r5TQdR9XtGP+KT0R4Eoyf/AK9Hlsx+VSfpzX6D+Cf2IfA3hCBfMsFv59oDSTDzNx9fnyAfdQtd/pfwn8PaLarb2umwxQx/dRSdq/hnH5V41TiCK+CDfq7f5n9C5T9FfM6sFLMMZCm+0YuX4txR+XRhk/uv/wB80gXjt+dfqnJ4E0lxt+wxrn+6xBrnvEP7O3hHxS5a80i1kkYbd7xpIwH/AAIH3rOPETv71P8AH/gHo4r6KNZQvhswTl2lTaX3qT/I/MykzX2r8SP+Ccuh6paySeH7qbTZlX5UJMkbHryrMeT04YDivlf4o/BTxF8H9Re31ixeOPdsS5jBaGQ84AbHBOCcHBwM4xXq4XMqGIfLF2fZ7/8AB+R+G8a+EfEfDMfbY2lz0v54e9H56Jx+aOSoooxXoH5iC9adt/3f++q739mDTLfWPjdotvdQxz28nnBkkXcp/cuelfeLfs6+D42ZV0e364zsH+FePj82WGqKny30vufunhp4JYni/LZ5lRxUaSjNws4tvRJ30a7n5o7f93/vqkYYr9L/APhnjwlg/wDErhXn+4v+FfH/AO3D4Tt9D+MVlp2mWoUPZoI44oxudjIwAAAyewAqcFnCxFX2XJbfW/Y7/EDwDxXC+USzWeLjVtKMeVRabcnZbtniAPFLsLfdX8jmvqj9nf8AYB/t3TIdU8YeZHHMA6WiOVCqR/EVwSeR0IAx1bOB9HeE/gP4V8F2vlafpcEWQFcqoj346Z2gZ/HNTiM9pQfLTXN57L+vkdvCH0bM8zXDxxWY1Y4aMldRacp2e146Jejd/I/MloXQcqwHuKaDiv048eeEtM0/wXqU0donmRRZUkk9WA5z25r8yZeJW+proy3MXiua8eW1ut97+S7Hynir4Uf6l1MMlifbe25vs8tuW3m73ufpJ+y9z8BvDv8A16xjr/0ySvQgK88/ZfG34DeGx/06RH/yElehFc/dyK+NqfHL1f5s/wBD+Gv+RRhf+vVP/wBIgeIft+H/AIsHfDr86HP/AG1ir4Hr74/b3/5IHf8AfDx8/wDbWOvkT4I/s8698dNW8vTYTFZxsFmunUlU6ZC/3iBz1AHGSMjP0mS1oUsNOdR2XN+iP43+kVkmOzbjLC4HLqTqVJUY2SX9+evku7eiOEAz/nFHlMx+VW/AZr70+GH7CXhPwRaxyajGurX23DvMBIvYnAYbR07DIzjJr1PTPhfoOk2qW8OnokcahVG48D0wDgfhTq8QQT/dQb9Xb/MMj+ixmleiqmZ4uNJtfDGLm15N3ivuuflwYmQ/MrD6jFBGP/15r9TLj4daPcIytZqqt1w1cL41/Y48D+MrYq2k29rJklXhXyyCe5K7W/Mke1RT4iTfv02vR3/yOnNPop46nTcsvx0Jy7Si4/inL8j86z1or6B+OH7B2t+A45r7QZJNYsYySYSP3yKPQ9GPXjCnoBuNeASxNBKySKyOp2spGCD6EV7mHxVKvHmpu/5r5H86cVcF5xw5ifq2bUXBvZ7xku8ZLR/1cbRRQa6D5UKKKktLSS/uo4YY5JppmCIiLuZ2PAAA6k0FQhKclGKu2MXrShc//rxX0B8Dv2Cde8fpDfa5I+kWLAMIh/rnB9W5CnpwAx6ghTX0h4F/Y38EeCbZV/s2G8mypMkq+YxYDrufLDP+ztHtXj4jOqFJ8sPeflt9/wDkfvHCH0e+Jc5prEYlLDU3que/M135Vqvm0fneImcfKrH6DNBiZD8ysPqMV+pcHw70W3hCLYxqqjA+Y8D6Zpmp/DHQtZtGt7nTYJIZPvoRlW+oOR+lcP8ArE7/AMP8f+AfpUvony5LxzFc3/XvT/0u5+W5G0//AF6aetfoR8QP2I/Bfja3zDYR6bcKCEa3UQ47/wAIGf8AgQbFfMPxz/Yn8R/CkNeWO/WNNyTlE/fIPoOGxx056naAM16GFzmhWfK/dfn/AJn5Xxl4B8S5FSeJpxWIpR1bp3bS7uLV7eaujxWigjBor1j8QaadmKoyaUL/ALv/AH1Xd/szWMGp/GzRYbiKOaFzLuR13Kf3T9q+92/Z/wDCRkb/AIk9mvPURr/hXkY/Nlhqns3G+l9z9z8M/BLE8X5ZPMqOJjSUZuFnFt6JO+jXc/M3b/u/99UjDH/66/TH/hnrwmT/AMgu3+uxf8K+Xf8AgoR4P0/wXqnh+10+3ihRvOJKoATxEcZx2yePessJnSr1VS5LX8/K/Y9jjj6PeK4byatm9TGRqKnb3VFpu8lHdt9z5wHBpdpPRfyNfQ/7Mf7D958Rlj1bxJHNY6WSDFBko8/Q/NjkDHYYPPUcZ+pfBP7OPhHwDarHY6bCJFTYZANjMvuRy3/AiarF53SpS5Ka5n+H3nPwT9HbPM7w8cbjZrDU5apSTc2u/LpZPpd/I/NU28mN3lyfXaajxX6k6z4L0uDRbopZrH5cLspVmGCAcd6/Nj4sRpD8TPECxqFRdSuAoHb5zWmW5o8VNwcbWV97/ojzfFfwbXBuFoYmOK9t7WTjbk5bWSd/id9zqP2Wvgm3xr+JlvaTIW02zxNdnJGRzhc++CT04VuQcV+i2l6fHo+mQ2cH+rhXaM9W9SfcnJrxP9gX4W/8Ib8JI9UuIwt5q7GfnB+VsFefTaE4PQlq902Zr57NMV7au+0dF+v3s/rPwN4Jp5Dw3SqTj++xCU5vrqrxj6KLXzbHY+bb/e71g/ELx/pvwz8MXOq6pcJb29spYljj6f56kkAZJArcmdYIWeRgkcYLMx6ADnNfAP7aHx6uPin8QZtLt5GXSdHlMYUMcSyjgkj/AGeQPfceh4wwODliavs1t1fl/mfQ+KHH9DhLJ5Y+a5qsvdpx7ytu/Jbv7upH8fP2xde+LOpzQadLLpWjgsiIjYmlXjlj/D9Fx1IJavGy248802ivuMPhqdCPJSVj/NziXizNc+xbxmaVnUk9rvRLtFbJeSHde360EY/h/Wm0VsfPczJrHUJtMu4ri3mkgnhYPHJG210YcggjnIr6Y/Zb/beuNEvLXQfFknnWbYjhvHP3DngP2HpuGB/e7tXzDmiuXFYOliIcs16Pqj7Tgrj7NuGMbHF5dUfLdc0H8Ml1TX5Pddz9WtV8U6boWi/b7y5jhtfLModmHKgZJ/Duegr5R/aS/b3ku5LnRvBrCOFWMcl8QGD467c5DfX7v+9kEfOuv/FjxB4n8NWmj3mqXMmm2SBI4A21WAxjd/exgYznGK5015WDyOMHzV3zeXT5/wCWx+18ffSRx2ZYf6nkMHQUkuabfv3a1UbaRXnu/IsanqVxq99Jc3U0txcTNukkkbczn1JqvRRXvrRWR/MVWrOpN1Kjbb1berb8wooo2knHf0oISbdkGOacBk9vx4r2j4K/sReKfikVuryKTR9P6lpV/et7YP3e/XnodpFfTXw8/Yg8E+Co0a4sU1S627WkuP327nPRvlyOmVVeB9a8nE5zh6T5V7z8v8z9s4P8BeJs9prETisPSeqdS6bXdRSvbzdkfn6sLOflVm+gzT3tJk+9HIPqpr9QtL+E/h/RrRLeDT0WKMYVdxCqPoMAfhV0+AdGZdv9nwrnuMg15/8ArFK+lP8AH/gH6zT+if7n7zMfe8qen4zuflbtwOg/E0hPFfpb4v8A2avB3jhJvtmj27SXC7GlCBpMezMCw/AivEfiz/wTit545bjwvevAyglbaTc6HjgDcSw56nLew7V1UM+oz0qJx/Ff5/gfF8R/Rn4hwMHVy6pDEJdFeMn8ndN+SlfsfH9Fb/xA+GWtfDHWGs9Ys5LZ8kJJjMUwGOVbv1GR1GeQDWBjivahOM480XdH88Y7AYnBV5YbFwcJxdnGSaafowoooqjkCiiigAooooAM19faF/wXA+PPgf8A4J2aB+zP4V1jS/B3gXRBeRS6lo0M0GuapBdXU91JbzXJlYLH5k7jEKRMyAKxYFg3yDRmi7WxUZNbBRR0NGKCQoHWlAzXuP7Pn7Fut/E66jvNYhn03SeWKsCksnpn+6O/9446AENXPiMVToQ56jt+vofTcK8IZrxFjFgsrpOcur+zFd5PZL+keZfDT4T658WdbWx0azeZtwWSQj93Fnpk+vU4GScHjg19q/s//saaL8KLeO8vkW+1bqZpcblzxgDkKOvAyeTliOB6b8Ovhdo3wu0OGw0q1jhWNAu4KASP/r985JPJJNdCUyPavkcdmlTE+6vdj27+v+R/eXhn4HZXw1GOLxiVfFfzNe7B/wBxP/0p69rDdioAqgKqjAA6D6CnbQRR1+X19qA3NeafuisthSCKQjI+79KMc96Dzx+NA0fMv/BSjjwRof8A19L/ACevjI/dFfZ//BSUKPAej/3lvUB59RIen4V8YH7or6/If91+bP8APD6SLT4yn/17p/kxKKKK9k/AQooooAKdH/rF+tNp0X+tX6ig2w/8WPqvzP1P8Bj/AIozS+P+WA/DrWvjArI8AYPg3Tv+uIHH1Na+SK/NY7H+wND+FH0X5Hif7d8L3PwA1AIjSFXQnaD08xD/AI18C+U391vyr9XL/SLfVLZobiGOWNuqtzms9vh3ojNzpdn6/cr1svzR4aDhy3u7727LsfhXil4J/wCuGZU8x+t+x5YKFuTmvZt3vzLufln5Umfut+VOW3kY/KkhPstfqS3w90Ryc6bbflUq+AtHX/mG2v8A3yf8a7v9YH/z7/H/AIB+aR+ier65l/5T/wDtz89fhV+y34s+KerwxR6bdWNkxHm3NzEUCKe4U8t7dvcV9+/Cn4aWPwk8D2eiWA/c26/Mx6sT1Pvzk57kk8ZrobSyitIvLhijhX0VMVJt2jBry8bmFXEtc+iXRH7n4ceE2U8IRnPCt1K01aU5WvbsktEr69W+rCuX+MHxFs/hZ4C1DVLybyljibaARuJxjgEjnnA9SQO9T+P/AIl6P8M9Bn1DVbuO1hhTcd3U+nHv+ZzgZNfB37T37TN58dNcFvD5kOi2rZiRuGmIzhmHYDJwPck89JwOBniZ2Xw9X+nqHih4nYDhTLpNyUsTJNU4dbvaTXSK387WR5z4s8TT+L/Et7ql1t86+maVgM4XPRRnsBgD2FZ8SiSRVZlUMcFmzhfc45ptFfdRiorlWx/mfiMVUxGIliK75pSbk79W3d/efef7Kv7LHhjwT4ZtdZ86317UrpRKLsKCqAjgJycDaex5zySMAe8Fgq7fugcAdhXwx+w5+0dJ4A8UQ+G9Umkk0vUJAlruPy20hJ+X1wxPGO/b5iR9vy6jDb2jTSyJFDgEuzYUZ6f/AKq+GzKjVp137V3ffuv66H+lXg7nmSZlw5Slk1KNJQVpwW8Zpatvd33TerT8ifG7j8qPlz04zXi/xT/bg8JfD29ks45W1C6jOGjtx5jJ1BzyFBGOhYH2rx7X/wDgpVqUski6foaxop+R5Zxkj1K7D/6FU0cvxNVXhB289PzPQz7xe4Ryio6OMxkedbxjebXry3t82j7JIH+T0oUDG3pXxhpv/BS3XLdv9K0G1nXPG252kf8AjhzXr/wZ/bk8N/E7UYdOu1l0vUJsKiTLtErHspyQfp1PYU62XYmkuacdO+j/ACMch8ZOEs3rrDYTFr2ktEpJwbfZc2jflc9x9vWsL4h/DjSviZ4duNM1S1hnhnTYd69v58HnjkEAjBAraSRZEVo2DKwDKwPBGOtOAyMY/SuNaao/SK+GpV6cqVaKlGSaaaumnumux+aP7QnwSvPgb49m02ZZHs5MvazN/GvHyk9Cy5H1BBwM4rhAcV9+/tz/AArTx98IrrUI0H2/SQJ0bHULk/jxlcerD0r4CPFfbZXjHiKPvfEtH/mf5s+NHAMOF8+dLCr9xWXPDy1s4/8Abr28mj0X9k//AJL5oP1m/wDRL1+kUmN5/GvzZ/ZWbHx30PtzNz/2xev0nbAc+/pXhZ9/vS/wr82f019F3/kl63/X6X/pMBNvavK9d/Z8tfGH7Qy+KNTVWs9P09IYEDHe8pZyzdePlIHcck8ECvVNobjmgRqzdOfWvIjKUb8va33n9AZplOGx6pxxUeZQlGaXTmjezfezd/Wwq4jTaPlC8DA6UuAwAxiqep61a6JbeZd3EdvGvTecZ/xrznxn+2L4F8GTGOfV4ZpNxXbbnzSpHXIXJH4ilGnKb5YK78tQzHOMBl0PaY6tClHvKSj+bR0/xi1EaZ8MdXmbnZGp/J1P9K/MJuSfzr7Q+MP7aXgrxt8L9d0uwvWW8uLZhBujlG5sHAHyY59zXxexz+Qr6jIaM4Kbmmtt1Y/if6SXEmXZpjcDHLq8asYxk24SUkm5LezetkfpJ+y8P+LEeHfa0i/9FJXoO3HrXn37Lwx8CPDoz/y6Rf8AopK9BIxxn6cV8xP45er/ADZ/aXDX/Iowq/6d0/8A0iBxnxu+EkPxn8DyaHNcNaxzSRs7gclVdWIHuQuB6ZzW54I8D6X8PPDlvpOj2sdnZW6hQqjlsdz6nvz656mtZY81Dc3kdjaNNPIsMMYyXboKOeSjy303+Z0f2XhI4yWYci9q4qLl15U20vJXbb/HYnEakYNLhVO08eleFfFj9vLwr4Fv5rHT/M1S6hyri3XeiH0JJA/IkgjkV5tc/wDBTK9WfbD4f3wg8FplViPpsP8AOuinl+JqLmhB2+782fDZt4wcH5bXeHxeOhzrRqN5Wfnypo+v+n0pOv8As189/Dz/AIKGeGfEl3Db6rBcaW8mFDyL+73E4xuBI79TtHFe8aRrNrr2nx3VnMk9vMoKOpyDnn/69Y1qNSk7VE0/M+p4f4syjPKTrZTiI1Ut+V6r1W6+aLckKzRlWXcrcEHvXzb+1/8AsgW3i/Sp/EXh+LydVt1zLF2uVHYn19GPsDxgr9KDkenFMlgWWNkdQyOMMD0YU6FadGaqU3qv6sZ8VcKZfxBl88tzGClCS0fWL6Si+jX/AAHdH5NyRNFIysrKykgqRyCKbXu37c/wV/4V18QRq1pEwsdXY7yB8qy9c9OrL+JKse9eFV93hMRGvSVWPX8+p/l/xlwviOHs4r5TidXTej/mi9YyXqrMlsLGbU7yG3t45JridxHHGi7mdicAAdyTX29+yZ+yBZ/D/SYNb1yGO51idNyhuRACOi/hxnvz26+b/wDBP74Ax+KtVl8VanDutrMmOzDZAZuQzdOf7oOezcdDX2YF24HAGPTpXzuc49yk8PDZb+b7eiP6y+j74U0aGEhxNmkOapPWlFr4Y/z2f2n07LVavRVCqqqvAHAGOlIcdxSHgHnaF5J7eteGftCftvaL8KLmTTNMh/tXVVALBHwsXI+838PHI4P0wQa8WnRnUlyU1d9j+luIOIstyPCPHZpVVOmur6vslu35LU92C5+XH0ph4PcV8Ear+3546v52aFrG3j3ZCgSEge53jP5Ctrwh/wAFF/E+nX6/2tY2t5a8ArAzKw9T85bPHbI+td8slxaV7L0v/wAD9T8lw/0jODKtf2LqTir25nB8vztJu3yPuBQu7vUN1aR39rJDPGskcgwysMg1wfwU/aE0P426QZdPuNtxHgSwsMNGSM4IPPr6g4OCcGvQOvr+FeZKLi3GSs+qP2rL8wwuPw8MXhJqpTkrqSd016nx3+2v+ygnh+GXxVoNu3lZ3XsKLnPcyfUDk9iATwQSfls9K/V7WtGj8QaTcWcyrtuEK5x0PY49jivzZ/aH+F7fCT4p6jpaxeXalzPbDPHlkngck/KwK5PJxnvX0+SY5z/2efTb07fL8j+KPpGeGdDLKseIstjy06rtUitlN6qS7KWt/NeZa/ZY5+O2hA92lH/kJ6/SYjDt9TX5s/stDd8ddBH+1L/6Kev0mf7/ANTXBn3+9L/CvzZ+o/Rd/wCSWrf9fpf+kwAYBryv4ufs9wfGD4reH9S1Lyn0nR/NkmjY5M0hEe1SOm0bc+/QjGa9UK9RTXhXOcbe5ryadSUJc0d/89D+gc2yfC5lQ+rYyPNC8ZNPZuLUlfurpaBbQR2dtHBCqxxRgKqgYxS7VHGO1RXl5DYWzTXEiW8Kjl3bCivPfHH7VvgnwGZEvNWg86N9jRRnzJFPuoyw/EURjKTtFXfkGYZpgcvp+1xlWNOPeUlFfi0dz4ndY/DGpN1K20mMeu04r8z9XtP+E9+MF1DE4jXVNXdFb720PKeffAr7D8Qft5eA9S0m6ghvJlZ42ABhl+f2Hyd/evlP9mTT49a+PGhxzruVpZJOefmETsp/A4Ne9ldOpQhVrTi1ZaXVtrs/lXxszzLOI8zyfKcvrwqqVX3uWSla7hHWzdrq5+jHhPS10Lwzp9oirGsMK/KBgAn5j/PH4Vo9WpDhX2+nSgtk/wCNfOpH9b04KEFGOyR5v+1h8RW+G3wZ1S8hZluJEKRsoBwThVPPGN7Ln2zX5wu+9ix5Lckn1r7F/wCClfiZbfw3o2l+YyyXE4lKjjeqhi2fxKV8cg9K+uyGio0HU6t/gtP8z+CPpNZ7PFcSQy5P3KEFp/en7zf3WQlFFFe4fzcHWitjwL4W/wCE18X6fpYmFv8AbZhH5hG7YOSeO/Svob/h2frPbXrf/vyv/wAcrjxOYUMPJRquzfk3+SPvOFPDXiHiShPE5PQ9pGD5W+aMbO1/tNdD5hor6c/4do61j/kOW/H/AExX/wCOU0f8E1daP/Mbh+vkoP8A2pXP/bWD/m/B/wCR9T/xAHjn/oD/APKlP/5I+ZaK+nD/AME0taz/AMh6DHvAv/xylH/BNPWP+g5Gf+2Cj/2pS/trB/zfg/8AIf8AxADjn/oD/wDKlP8A+SPmI0V738X/ANhq7+Efw/vteudcjuEs1BES24G8kgYzvOOvoa8FHBrtw2KpV481J3W3VfmfA8VcG5tw5iY4TN6Xs5yXMleMrq9r+631QsaNI6qoLMxAAAySa+yP2SP2MrfRLK18Q+JIVl1CQCWCJhxb9xgf3h3bsenTJ85/YR+AI+IPitvEGoRn+z9MbEGQCHl7t/wHgDjqc9Vr7iSJYkVVChVGAo6CvAznMJOX1em9Ovn5f5n9SfR98JqEsNHibN6alKX8KLWiS+211bfw9rX7DreFbS3WGNVjjj4VQOAPanMBnpxmmgZ9q5f4n/GLQfhLpD3msXkcCJhduecnkD6nrgAnA6GvnlFvRH9bYrFUMLSlXxElCEVdttJL1b0OpHX+VBOf/wBfSvlfxr/wUstbO4Mei6HJdRhiPMmbygw9QcE8+6isLTf+Cl2oPeKLrQtluTy0c6uyj2Gxc/mK7o5Xi2uZU3+H5XPzHEeOPBNKt7CeOjfa6jJr/wACUWvnc+xs0FVH8+nWvK/gx+174V+L862sdx9i1Bhn7PMNjd+x68DOQTjvivUhuB28hh61xzpyg+Was/M/RMpzjA5ph1isvqxqU39qLTX9eTOV+K3wc0X4v+HZ9P1S1jkaTlZCPmDY4Ofb1HIz6ZB/P39oD4E6h8CvGD2Nzvls5iWtpyOSP7rdsgY5HBBz6gfpYvNcP+0H8HLH4y/D68sbiFWuo0LwSBcuhGSMdPmHUdM8g8Ma7svx8sNPX4Xuv1X9an5b4ueFeF4py+VajFRxdNNwltzW+xLunsuz8rn5n0Ve8Q6BceGNcutPulC3FnK0LgHIJB6j2PUGqOK+3jJNXR/m/iMPUoVZUaqtKLaafRrRoKKKKZiFFFFABRQRiigArX8G+BtV8f6wthpNnJeXDDcwXhUX+8zHhR9fpXf/ALP/AOyjrnxpvobiSOSw0fcC87DDyr32A9u248dcBiCK+3/hD8ENE+Dvh+Gz022jEi/M0pHzM3c56k+59gMAADxsdnEKP7ul70vwXr/kf0B4Y+A+ZcROOOzO9DC73a9+a/up7L+8/kmeUfs6fsNaf4Eji1PxCFvtU+V0Urhbc9cKD0Of4j83A+7yD9D29rHZWywxxrHEowFUcCn4B47UYzXylatOrLnqO7/r7j+7OG+FssyHBxwOWUlTgu27feT3b838rA3Py0Y+Ug/SjpQeQazPoQYYPA9h7UEYXFA59RWd4g8R2fhjTZbq+uI7e3jUszMccAZP6Z9h7UXJlUjGLlJ2S3Zosdq9QoxnNeO/tAftg6H8HoHtYW/tDVGBKQREbhxkEk/dXp8x9eA2DXjX7R/7eVxrJuNI8It5NvkK98RndzyFBHzduTx1wDw1fMd9ezaldyXFxLJPPM5kkkkYs0jHkkk9STXuYHJZVPfr6Lt1f+X5+h/LHid9IjDZfz5dw1apV2dTeEX/AHf5n5/CvM6f4r/GTXPjFrQvNYuNyx/6qCP5YovXA6knuTk9ugAHJ5ozzRX1NOnGnFQgrJH8V5pmmLzHEzxmOqOpUk7uUndsKKKKs88KKKKACnRf61fqKbTof9av1FBth/4sfVfmfqd4BbHg7Tcd4Rn8zWwDhfw4rI8AAf8ACGab2/cD+ZrXH0+lfmsdkf7BUP4cfRA442/jSZIOPTmvOv2n/ijqXwi+Fd3rWmrC11bsgUSAlTllXnoehPTFfKp/4KG+Oj/yx0kf8Al/+LruwuArYiLlTSsnbc/N+MvFnIOF8XHBZrKanKPMuWPMrXa35l1TPu4Zz6fhSg/L/nivgz/h4L47/wCob/3xJ/8AF0J/wUF8dK3P9n7fTY/9WNdH9i4vsvv/AOAfIx+kjwY9Oep/4L/+3PvMElfSlDY7V8l/Dj/gpCZruO38R6a0MJwGuIm8wA55JGAQPpuPtX074Q8Y2HjrQ4dQ0u5jubWZdyuhDY/pXDiMLWoO1WNvy+8/TOE+PMi4kg55RiFUcd46qS9YvX56rzPJv2jP2QIPjWft0Oq3kOoW6FYVc/u+Tk/L0P5r257V8V/Er4Va18J9cax1i1aFmLCOQcxygdcHr3HBwRkcciv1CCe2K4/41fBnSfjX4Sm0/UIVabbmGUcMjDoQeuR2Pv3BIPbl+aTw/uS1h27en+R+b+Kngjl3EtOpj8F+6xdr813yzfaS19E1t1TPzJora8f+Cbr4eeML7R74YuLGQoT2Zeqt+IIOOo6HmsWvs4SU4qUdmf5547BVsHiJ4XERcZwbi09007NArFWDDgryD6V6H40/af8AF/jrwpa6Peah5drAhSQwZR7gEYO85+uQuAdxznjHnoGTxXrvwl/Yx8XfE/y5pLdtJszyXnjJlA5/g4xyOjFTgggGubFyw8EqmItptf8AQ+u4MwvFGNlVy7hz2j9qkpqDaTX957JebaPIyefX8KMc9vzr7W8Hf8E6PDmnRxtq15c37BAHVpWCFu5G3bj6ZNd9pX7Gnw90eLbHocUm05zLiRv/AB4H8s1508+oJ+6m/wCvU/XMv+jHxPiIqeKq0qbfRtya+5W/E/Ovp2H50I2xtynawOQRX6KX/wCxp8PdTBV9DhjZu8YEePyArlfEn/BPXwXqVmV08Xmny5yHEzsx9uSRj/gJPHWiOfUH8UX+H+Zpivow8TUVz4avSm1qleSb++LX3m5+xZ8XLj4pfCOE3zmW+092t5XI++y45691Kk+7N2xXsTDFeT/sz/s7P+z9banajVW1GC8nM0eYtuwYA55OTwOcCvWGH1/CvmsR7N1ZOl8N9D+yeBqWaUsiw1HOVbERgoz1Tu1dJ3WjukmZvjG0W+8J6lGeV8hjj6fN/Svy58XaOugeKdRsVbctpdSwqx7hWIr9UNYjWXR7xezW8gPv8hr8v/izgfEzXtvT+0Z8f99mvY4fk/azj5L82fzt9KzCweX4Cvb3lOa+XLF/mdB+yzj/AIXroWemZc/9+nr9KG4kYe/Ffmv+ywu7466GPeX/ANFPX6USDEp+prHPf95X+Ffmz6L6Lv8AyS9b/r9L/wBIgH3Rj8qxfHXjW18A+Fb3VL2RY4bONpCW9gT259+PStk5zj7tfMn/AAUf8cSaV4L0/Q45Co1GVWkGPvovzH3+8ErzMPRdarGkurP2rjbiKOQ5Hic2au6UW0u8tFFfe1fyufPvx6/aW1r4za7cbZ5rPRydqWyuQZFzkF/XoPl6DA6nJPmrHI/+tSZ5pM195Qw9OjDkpqyP8t+IOJMwzrGTx2ZVXUnJ31e3klskuiQCg0UVseND4kfpP+y4MfAfw9/16Rdf+uSV6D+WOtee/stjHwJ0D/r0h/8ARSV6Fj5a/Oqnxy9X+bP9cOG/+RRhf+vVP/0iAAD/AHQOc+lfG37c/wC0zdajrk3hHRZmgs7dQLyRCQ7lhnYD6EEEkdQQP7wP1b8SfEEfhjwFql5KwjjigO5jn5Qep/AZ/Kvy/wDEGsTeIdbvL64Ia4vJnncgYGWOTj869bJcLGrVc56qP5v/ACPwX6SHG+JyjKaWV4GbjPEX5mnZqCtdL/E3Z+Sa6lTqfWkxg0UV9efwQ5N7iivdf2M/2i734e+MbTQL64eTRtQlEcYbn7PIT0Hs2SMdmIPALZ8Jp0cjRyKynaynII7GufFYaFem6c/+Gfc+o4N4rxvD+bUsywcmnFq6vpKN9Yvumv8APofrFDKt1bxyRtlJFDKfY1JznB+tcX+z/wCLj43+D+iag23zbiAFwvQEgMQPoSR+Fdoec9cevrXwDi07Pc/1YwGMp4vDU8VS+GcVJejSa/Bnjn7cfgUeMPgnfThV87T189WYfd2fPx7kBh/wKvgCyspL+7igiVpJZnVEUDlmbgCv0/8AjFpaaz8NtVtZF3RzIqMPUFgp/ma/Oz4CaM2vfGLQbYMFZboTZI/55qX/APZa+jyWvyUat/s6/h/wD+P/AKRfDccXxPljpr3sRam/O00l+EvwP0M+DHgS1+HPw10nS7VAscMIYkqAWJHU47kcn3JrqsDP60yNPKiSP+4oH0wKeeTj8a+bcm3dn9gYPC08NQhh6KtGKSSXRJJJfcjyv9rz4vyfCD4SXk9owXUL0i3tyRnDN7YI4GWweDtI71+eN3dSX11JNNLJNNMxd3c7mdjyST3zX6LftAfs9WXx7gs4b3ULuzjs3MgWE8O2MA8g8jLf99GvMT/wTg8P441nVOP9tf8ACvcyvH4fD03z35m+3TofzD41eGvFvFObwlgeX6tTilFOdtXrJ2s9dl6I+MwcfxfpRn3/AEr7LH/BOLQiP+QxqX/fYH/stOP/AATg0H/oNap0/vL/AIV6n9u4bz+4/Gf+Jb+Mf5Kf/gxf/Iny58GPihdfCXx7Z6pbyOsW4R3KKM74iRu/EdR7gdq/Szw1rg13QrW6VlcTxq25eVb3H16/jXzuP+CcHh/Hzazqh4/vDkf981794I8KxeCPClhpMTs0djAkKsxzu2gDJ/Af/WFeHmuKoV5RqUr32en3H9JeBvBfEvDNDEYDOeX2MmpQtLmtLaXRWTVn6o2gPlx0r5H/AOClPgdYH0XW02qWcwPx8z7hkc+2z82r66FeD/8ABQnTY7v4FyXDxq0lvKhRj/CfMQZH4EiufL6jhiYS87ffp+p9p4u5VDMOEMfRn0puS9YWkvyZ8n/ssj/i/Gg/70v/AKKev0lcZkb61+bX7LXPx00PtzLz/wBsnr9Jm+Zm9TXZn3+8r/CvzZ+afRd/5Jet/wBfpf8ApMAYbjVPWtah0PSri8nYLDbqXYnj6Vcx+teG/t9eM28MfBGa0hleKbVJBDx/GCRkf987/wDOK8ulTdSoqa6tI/eeJs6hlGVYjM6mqpQlK3ey0Xzdl8z5v/aY/ax1T4t67NZabdTWmhwsyII2Km5HTJ7hSO3Gep7AeNltw6/pTaM199h8PToQ5Ka0P8seKOK8yz/HTx+ZVHOUnoukV0UVskvIK9K/ZHVW+Pug7vWX/wBFPXmuK779mK+XTPjjocrMECvIAT3JifA/E4FZ45Xw1RL+V/kd/h3UUOKMvnLb21P/ANKR+ljD52GCMHpTSRjuKdNw7fU96Qr83T9a+BP9WYnxt/wUzO3xb4fUfdVJsf8AfMJr5fr62/4KXeGpJBoep5zHHI0LZ9XUY/8ARdfJXQCvtMlaeEil5/mz/Nv6QGHnT42xTkviUGvTkiv0YlFFFeofi51nwNU/8Lb0LH/P0D+hr9OCNr47ZxX5k/Asbvi1ov8A18Z+nytmv0oXxNp7Kd19ag9z5g618nxA/wB/H0/U/ub6LEoxyPFuT/5er/0g0O9APy9O/Ws0eLtM5/4mFnjt+9FOXxTprHb/AGjZ/wDf4V4d0f1D7an/ADL7zQPzDFGCf89KSKVbiFXQqyN8wIOQRS54P8PvR6Gm6PH/ANug+X+z7qihRhiuc/7wr8/YYGuZ0jRSzSEKoA5JPSv0A/bpLP8AALUvwJ/MV8UfBDSW1z4s6Dbx7d32tJvm6YQFz/6DX02S1OTDVJvo7/gj+I/pE5e8dxll+ChvUhCP/gVRr9T9BP2e/h/D8NPhTpOmwqvyxBnbBG8nndyT1OW/4FXbn2+Wo7WzWys4YB92GNU/IAVITn+dfN8zlrLd6n9o5fgaWEw1PC0FywhFRS7JJJfkc/8AE7x/ZfDDwVfazeuI4bVCw6ZY4yAATgnsB3JA71+b3xY+KWo/FrxdcapfyOFkY+RAXLLAh7D37k9zX03/AMFJvHUlnoek6HGzrHeSmSXacK6oFYqR35ZD/wABr4+PQV9NkWFioPES3ei9F/mz+JfpLcb4jEZrHh2hJqlSSlNfzTkrq/lFWsu7bA9OlIOtFBr6A/lq5NZXs2m3kdxbySQXELB45I22sjDkEHsRX3R+xP8AtIP8WfD39i6vIrappoCBv+eyY4bH4HgcAg9AQB8Ig4r0X9lnxbN4P+NmjyxzNCly5tnx/EWBKj/vsLXmZthY1aDl9qOq/wAvmfsXgnxxisi4io0VJ+wryUJxvp7zspesW1r2uj9I0PFO4B9KaPmX2YZH07Up64r4o/0n0Pgj9vL4fR+Dviwt5EqqmpRnJySXZMYJ/wCAMi8f3a8OPWvr3/gpNosLaTpN4V/fLOqBvZg+f5L+VfIPavtMnqOeEjfpdfc/8j/Nfx4yenl/GeKjSVo1OWp85xTf43YUUUV6h+OhRRRQAV9Qfsefsj6X470K18Tayy3cch3RWzj92uGPJH8R478c4wetfL+a++v2CW3fASx/2Xfv0+dq8bPK06dBcjtd2fpZn7/9HTh/Ls04kmsxpKoqdNyipapSUopNrZ2v10PaNO0230ezWC3iWOJewH8/epmGOooxSkce/vXx67H+hcYpKyF/ippG75TS9fxNIBn8aZYdP/1UvU455qK5uEs7eSSaRI40G5nc4VR6188/tIftxWPgHz9J8P7L7VASkjBvkgPOdxHOc/wg56528Z0o0Z1Z8lNXf9bnz3EvFOWZBg5Y7NKqhBd92+0Vu35I9N+M/wC0FofwY0h5tQu4/tGCIoV+Z5GH8IXqT09hkZIFfDXxt/aW8QfGm9kW5ne10wni1RuG5yC5wN3bjgDA4zkni/FXi/UvG2rvfapdy3l1J1ZzwoyThR0Ucngcc1m19Zl+UQofvKnvS/Ben+Z/Bfif45ZnxLKWCwN6OE/lT96f+Nrp/dWne4UUUGvYPwcKKKMUAFFFFABRRRQAU6P/AFi/Wm06L/Wr9RQbYf8Aix9V+Z+p3gB93gvS/wDrgP61sA7cg1keA/l8Gabj/ngP5mtccf4V+ax2R/sFh/4Ub9keKft8/L+z3ff9dIgT/wBtEr4Cr78/b7bb+z/fL/ekjP8A5ET/AOvXwHX1nD/8CX+L9Efwf9KP/kpcP/15X/pcgooxRiveP5nFXk19Gf8ABPj4t3GhfEA+G7i43WOooWgjb+CTIyB7Hrjp8p9Tn5zxmvU/2M9BuNb+P+jtApZbXfNIR/CuCgP/AH0wrhzOnGWFnzdFf5rY/SvCHMsXg+LsDLCt3lUUXbrGWkk/K2vyP0TLHP6GlKZH4UHn8TR046/jXwp/qIfGf/BRvwD/AGf4l0zXIYSsdwDbytn+986AD6iTn6V8yE5r7T/4KSgHwBo7Y+b7UmfoN+P5mvlT4MeDE8f/ABN0fSZF3RXVwDIpJG5FBYjjnkDH419dlGItguee0b/ctT/PPxw4c9t4gPBYJe9iPZaf3ppR/NX+8+g/2J/2TI9WtofFniCHcrAPZQMPu9w/+8QQR6DHf7v1xb2sVpCsUcaxxqMKoHQVDo2lro2l29pGq7beMKcDGW7n881a25x9c18xiMRKvUdSe7/Bdj+3OCeDcBw1lVPLsFFaJc0rayl1k/nt2Vkg69en1qOW7jgX95JHGPVmC15/+0V8e7X4FeCmvpFaa8uD5dtEv3mc5x1yB0PJ6Ad+Afhrx/8AtMeMfiFqDzXOsXVpGxO2G1cxqBwME53H8SepxiunB5bVxPvR0Xd/ofJeInjJknCdRYWupVa7V+SNtE9nJvRX6KzZ+i6+M9LRtv8AaFkGz085asWeuWd8xWG6gkbsoYbvyr8pZLyWaQu0kjMxySWJJrS0Hx3rXhh86fquoWW7qIbhlB+oBwa9KXD8raTV/T/gn45h/pWUHUtWy9qPdVE39zjY/VIRjGF/A0u7n+VeEfsP/GvWvi54NvBrUiz3GnzGLzwu3zFwpGQOM/Mc4x249fdwPqD0rwq1GVKbpz3R/UXDPEGGzzLaOaYO/JVV1dWa3Vn80yDUznTbrH/PB8e3ymvzB+LZz8TvEH/YSn/9DNfp9q/Gl3WP+eL/APoJr8wPi2f+Lna//wBhKfp/vmvY4f8A40/Rfmfzh9Kv/kU4H/r5L/0hHQ/sq4/4XxoOfu7pc/Tynr9JpuZWweM96/Nf9lo4+Oeh845m/wDRL1+k2Pnb3JrPPf8Ael/hX5s9j6Ln/JL1v+v0v/SYDsYFfG//AAUzOPFfh9ewSb/0GKvsYD9a+N/+CmBz4v8AD/8A1zl/9Bhrmyr/AHyHz/Jn2Xj5/wAkPjP+3P8A05E+X6KKK+4P81AooooKp/Ej9Jv2Xf8Akg/h0f8ATpF1/wCuSV6Ew29c15/+y5x8CPDv/XpF/wCiY69AwMV+c1Pjl6v82f64cNf8ijC/9eqf/pEDg/2lYGm+BviIKrMxtJMADr8jV+arn5vwH9K/VbxZpY1jwze24QMZIiVXH3sc4/HBH41+XvjfwpceCfFuoaTdKVmspmj5BXev8LDPYjBHsa+g4fqK86b30f6H8o/Ssyurz4HMUvctOD8ndSX3q/3GTRRiivpj+OwooxirmhaJceItZtbC1TzLm8lWGJc43MxwOaUmkrs2w9CdarGlTV3JpJLq27I/QD9ie3li/Z80lZlZflyoPoeQfxBFeuA1zfwo8HJ4C+Hek6Wm7/RrdF+f7xwABkeu0DPvXSbP8+lfnlSalOUu7b+9n+tnDOBlgspw2Dqb06cIv1UYp/imY/xImEPgbUGbsqY4/wBta/PT9loj/hfuiH/bmOfT909fc37Tuvr4b+COvXDSLE3kMI2J/i2kr+uB9TXwV+z3qq6L8Z9BuGXcrXHk495EZB+rCvXy2m3hq7XVW/B/5n86+N2ZUqfGGQUpv4Kik/R1IL9D9NJU2yY/Kkzn2701m8w/eBDcj3HWlbrjGRXiH9SR1VxpCtxj8qaUXHsea+ef2y/2i/E3wO8Q6ZHo4s2tb5XyJRJkFdp7MBzu/Q14qf8AgoN46J/1elf98zf/AByu/D5XiK0FUglZ+f8AwD8j4m8buGshzGplePdRVIWvaF1qk1Z8yvo+x947F+noaBGOK+Dv+HgvjoHppv8A3zL/APHKT/h4H45z93Tfpib/AOOVr/YmL7L7/wDgHg/8TJcGfz1P/Bf/ANufeflrRsFfB/8Aw8K8d54TSv8AviX/AOOUD/goV47z9zSv++Zf/jlP+w8V2X3/APAD/iZPg3+ap/4L/wDtz7y5Ix/SvFf2+nz+ztqIPP72HB9P3if/AFq+ef8Ah4b46H/LPSf++Zv/AI5XOfFf9sDxV8YfCU2i6otiLOZldvLWTd8rBhjc5A5A7VthsnxMKsZSSsmnv2fofO8XfSC4TzDJMXgcNKo6lSnOMbwsryi0rvndtzM/ZZ4+Ouh9Os3X/ri9fpKzYcgjgE1+bP7Lgz8c9D+s3/ol6/Scryw9Tmpz7/eV/hX5s6Pou/8AJL1v+v0v/SYA3B/Gvmf/AIKUSZ+H2jj/AKfEP6S19MEdq+Zf+ClK7fAekY/5+4/5S1w5f/vVP1/zP0zxg/5I3MP+vb/OB8YnrRQetFfen+XYZ4rX8Da+vhjxlpeoSKzR2d3FO4XqVVsnH4VkUDrUyipRcX1OvA4ueGxFPEU94SUl6pp/ofq94Z1H+2PDdhdZy0sK7/8AeHDfqDVrr9TXkH7EXxNj+IXwetYZG3Xun/upRuJ+YAAn8flbj+/XsAXPH9a/O6lN05OEt07fcf6z8P5tRzPLaGYUHeNSEZL5pO3yd18jyj9sb4Yn4l/BrUEhj3X1mong+XcxZecAep+7/wACNfncwx+FfrNdWkd7byQyqrxSjaynuK/Pv9sT9n24+DvxAnu7WFv7F1KUvEyphIXPJXjgA8kdO4/hzXvZFilGToS66r16/wBep/MP0muBa2IpUuJMJG/s1yVLfy392Xom2n2ujxyiijGa+oP4rHQzNbyrJGzI6nKspwQfUGrx8Takx5v74/Wdv8az80dTUuKe6Oijiq9JWpTcV5Nr8i6dfv8A/n8vOOn75qQeIb4f8vt5/wB/mqnUtraSX11HBDG8k0zBERRuZmPAAHqaOSC3R1UcfjJVIxjUk22ur/zP0m/ZquWu/gX4ZkmkZ5Gsosknr+7T/Gu86LgVyXwK8NTeE/hNoOn3Cqs1raRo+OQSFAz+ldeVGPrX53J3k2u7/Nn+sXD9KdPK8NTqq0lTgnfuoRT/ABueOftyD/iwOqfQfzFfHP7L3/Jc9D+s2Pr5L4r7C/bsZl+AOpf7RX8ty/418X/APVf7E+MGg3A53XIg69PMUpn8N2a97LYt4GtFef8A6Sfyl40YiFHxFyirU0UfZN/+DT9OJVHmtxwCcU0n1z/jTRKlwokVvllUOp9QwyKeORXz5/YsdVdHxp/wUwjaLxfoI/g2zkfXbD/9avmGvtL/AIKQfD19V8G6fr0cbO2ny4lYH7qNhTx7/J+Ck18W4r7LJJqWFUV0bX43/U/zi+kJltbDcZ16tRaVIwlF91ypfg0wooor1j8QFHQ10vwgBPxR0DAz/wATGA/UBua5oDmvXP2LPh/ceOfjdYyIv+jaerSzNtyBuVlAz0BwWYZ/umuXG1FDDzk+zPsOAstq5hxFgsJRWsqkPklJNv5JNn6D6XGU022VsbhCgPHfaKl9ulKo4oxz/vd6+B8j/VuK0sfMX/BSaRT4M0cDr9qTn6iT/CvjTstfT3/BSLxf9t8QaPpccysse6WVO4KgBT9Pmf8AI18v9K+yyOLWFTfVt/if5zfSHx0MRxpXjD7EacX6qN3+YUUUV6x+GhRRRQAuMGvvf9gb5vgJZf8AXRx/4+9fA4r75/YHOPgHY44/ePn/AL7avB4g/gR/xfoz+lfou3/1mrv/AKcv/wBKie4Af/WocUHG6kY4/wATXylz+90G3PHPNYXxC+I2lfDTQ5r7VLqO3hhTeQxwSPf+XqTwATXn3x//AGttD+DlnJbwyLealIhMUMZyxPb2Az/EeODgMRivh/4qfGTXPi/rRvNXumdVP7uBMiKP6Dufc89ugAHo4HLauJ97aPfv6f57H4l4m+NmVcLwlhcPativ5E9I+c2tv8K1fkj079oj9tTVviXcTabosslhpKtgSplJZcf3f7oPr9446gErXhBOeTz70lFfYYXC0sPDkpK35v1P4I4q4xzXiLGPG5pVc5dF9mK7RWyX9O4UUUV0Hy4V1Hwb+C3iz9oX4k6V4P8AA/h3VvFXifW5vIstN023ae4nbqeB0UDJZjhVUEkgAmvqD/glR/wRE+MX/BVfxfHN4bsT4X+HdpP5WqeMtUgb7DBg/PHbrwbqcD+BCFU43vGCCf6fv+CbH/BJf4O/8Etvht/Y/wAO9DE+v30SprHifUQs2rawwwcPJgeXECMrDGFQYzgsSx0hTcjanRcteh/N/wD8FIv+DfXxr/wS+/YJ8H/F74heNNJm8VeJvEtv4fuvCWnWJmj0nzrS7uQ7X/m7ZJFFrsZEi2ZclZGCgt+fOK/pu/4PO5Sn/BLvwKv974o6eD/4KdXNfzJDk0VI2dkFaKi7ISiiiszEKKKKACnRf61fqKbTov8AWr9RQbYf+LH1X5n6n+BuPB2m9/3C1qjgY49Ky/Ao/wCKQ03/AK4LWtjH+Ffmsdkf7A0P4cfRHiX7fKNL8AL37xxIhJx28xK+Bse361+rGu+HrPxJYNa3sC3ELdUboaw5Pgr4XYf8ge0Uden417GXZp9Vg4ct7u+/p5H4J4reCdbjDNKeYU8UqSjBQs4t3s273TXc/MPGf4f1oxx0/Wv02PwK8Lv10m3PfoDj9KdB8CvCtvLuXR7VW7MFAOfyru/1hX/Pv8f+Aflv/EqOLvpmEf8AwB//ACR+bvhTwDrPja8WHS9Ourx2YJlI/kUnpljwPxNfbX7Hn7LknwXtJNW1J45dXvFA+VfliXnCqSM45yT3OOBjJ9o0rwtp+ikfZLSCFhwGVfm/PrV8rx/jXnY7NquJjyW5Y9t7/M/XPDnwJyrhfFLMatR166+FtcsY30uo66+benQaF2j/AAoJyaAOMVkeNvF9r4G8N3WpXUixJBGzAt0yFJyfYAZJ9BXmH7pVrQpQdSo7RSbbeyS3b+R8wf8ABSbxrE91pOixssjK/mvhhuTYCeR7mTH/AAE15x+wlax3HxwgMiqTHbgqSOmZoxn9a4D4zfEuf4r+P7zVpWkMLsUgV+qRgkjPuSSx92PatL9m3xs3gL4w6Tdeb5cM0n2aTpg7uVznsHCE/Svro4SVPLpU/tWb+e9v0P8APXG8cYXNPE+jnEn+4jVhGLf8sfdUvm3zfM/Sv7zeuaUMT/SobS5jv7WOaJsxTKHRvUHkVL1OK+RP9DIyTV0fH/8AwUw026/tvQLjbI1ookQvjhWITAz7hTj6GvlftX6d/GX4Q6X8Z/Ccml6pGrL1jccNG3Yg9QR6/UcgkH5L8X/8E6fFek6kV0u8s9QtTysjgow9sKG/M4+lfSZTmVGnS9jVdmr+j6n8WeOPg/xBj8+nnWU0nXhVUbqPxRaSjtu07XTXzPnjFOjVpZFVQWZjhQByTX0B4e/4J3eLr++VL690+zhbrIgeQj8CF/nXu3wU/Yh8PfC69iv7tn1TUYwNsk2GCH/ZHRc/ie27Gc91fOsPBe4+Z+X+Z+dcM/R94rzLERWNo/V6V9ZT3t1tHdvtsvMP2GfhPffDj4VCbUo5Le61SVrgwuuCgOAB+Sr9Dkdq9yI25/yKjghVFVVAVVGFA7DtinAZGPUetfI1qkqk3Ulu3c/v7hvIqGTZbQyvDfBSioq+7t1fq7v5keooH0+4XHWJh/46a/MD4vAf8LQ1/AwP7RnwP+Bmv1BvAzWs3qyNjA9q/L74wD/i6PiDt/xMZ/8A0OvZ4f8A40/T9T+b/pVL/hHwX/XyX/pCN39lsZ+Omh/Wb/0S9fpPL8sjbfUivzY/ZXG747aGPeb/ANEvX6USf61h/tHms8+/3lf4V+bPW+i7/wAkvX/6/S/9JgGcV8a/8FMOPFfh/wD3JT/47DX2QCeP8K+Nv+Cl5/4q7QPTZKf/AB2GubKv97h8/wAmfZePf/JEY3/tz/05E+YKKKK+4P8ANUKKKKCqfxI/Sb9l3j4D+Hh2+yxf+iY69C+6cfpXnv7LfPwF8P8A/XtF/wCiY69Dxge2K/OZ/HL1f5s/1w4bv/ZGF/69U/8A0iAmNnTivm/9sT9kr/hP7dvEGgQqmqQJiSPdhZ19CT09j26HjBX6ODZP/wBagKuOmM960o1p0pqpTeqMeKuGMBxBl1TK8yhzU5/en0kn0a/4GzPyl1jRLzQNQktb61mtLqL78cylGXuOD+dVMZP/ANev1A8YfBzw349iEep6VZzqucExK2Ce+CDzXCSfsK/Dsz+YNLlX5s4MrbR+GcfhX0NPiCFv3kHfy/4Nj+Qc2+ivmka7/s7FwlT6c6kpJedk0/wPgLTdKudXvo7a0t5rm4mO1IoVMjsfYDmvrf8AYy/Y+uvD99H4m8SQ+TcbSLW2yMxg8EkjuRxx0BI5JO333wV8D/C/gFQNN0m3h4GT5ajdjpuCgZ79c11SJtG1V4HAAHFcGOzideLpwXLF793/AJH6d4b/AEe8HkGMhmmZ1VXrQ1ikrQi++usmul7JPWw5/mbmkPTjv60ZxWJ4+8aWngLwzdajeSpDHbxs+5ugwM5PfA68V45/RlatClB1KjtGKu29klu2fPn/AAUd+J0en+GrPw1DLukvXDyjg/IpDk+oOdgH/AvSvj7SdTm0bU7a8gYpPayrMjejKciuj+NPxPuPi38Qb7WJmk8mRyluj9UiBO3PJ5OSx56k9q5PNfcZbhPYYdQlu9X8/wCrH+ZPitxx/rBxRUzLDP8Ad02o0/8ADB6P5u8vmfqF8IvGlv4/+HemajbyeYk0K4JxuAwMZ99uM++a6Y818c/8E+/jzFoepN4T1ObZDMWezZj8oByzL+By30ZvQV9i9O4+v9a+PxeGeHquk+m3p0P9AfDvjChxJkVDMqTXM0lNLpNK0l5a6ryaPLP2uvgj/wALm+GkyW+1dSsCLiBiO4B6+2CR9CTgkCvz11XSrjQtRmtLyGS3ubdykkbjDKa/V/v6V5R8av2SPDPxiTzmhay1CNSEmjbYQPTODxx0IIGTjGc13Zbmn1f3J6xf4H5p4zeC74pazTLJKOKirNPRTS2V+klsns1o+5+duKK+iPFf/BOfxVpd0Bpl9Z6hBjJeRTGwPpgbs/XiqOif8E9fGmo3yR3M1jawk4aQB2Kj6Mqj9RX0X9rYS1+dfr9x/JVTwV41hW9g8BNu9rqzj/4Fe1vO54Nnj+len/Bv9lPxF8YdMuLyFGsbVI8wSSxFvtDdu42p/tc+wPOPo74Xf8E9dC8LTwXGt3DatcRkNtYfu85yMJ09sMWFfQWm6fb6VYx20MSRwxjAAH6n3968vGZ5f3cP97X5L/M/bfD/AOjRUcvrXFMrK2lOEtbvrKS0Vu0b+b6H5c+O/h/q3w18QS6ZrNnJZ3UfIDD5XGcblPcf/q61i9K/Tr4vfBHQ/jRoLWerWcckn/LOUDDq3GCGHP5duOmRX58/HX4QyfBrxm2m/a47y3kUywP92TbnGHXsc9xwe3cDuy7NI4h+znpL8H6H5p4s+CuL4U/4UMLL2mEbsm/ig3spd/JrfqkXv2Wv+S56H/22/wDRL1+k0v8ArGX3PFfmz+y1/wAlz0PtzN1/64vX6UTH96R7+leNn3+8r/CvzZ/Qf0Xf+SXrf9fpf+kwG7cL/hXzL/wUnB/4QPSf+vuP/wBBlr6aUc/54r5l/wCCkw/4oHSev/H5H/KauHL/APeqfr+jP0vxg/5I3Mf+vb/9KgfGJ60UHrRX3p/l4FFFFAHsH7G3xsb4S/E2KG4kC6fqrLFIWPyxychT+OdvYcgk8V+glndR6jZxzQvujmUMhHcGvybzivsD9ib9q3+1Yk8L+ILjddKP9GnkPzSqPX1YDr3I+bkhifm86wDb+sQ+f+f+Z/Xv0dfFClQS4XzKVk3elJ7Xe8H6vWPnddUfVW04xWL8RPh/pvxQ8Lz6VqtutxbzLtw46f5PPHIIBByK2ExIoKsrKwBBBzketOHJ6e9fNp22P7IxFCnXpulWipRkmmmrpp6NNdj8/wD44fsWeI/hpfyTaZbzatprMSnlrmZBngY/j6jlRnrkAV4zNA9vI0ciNHIhwyt8rA/Sv1jmgjuIWjkVZFbqpGRXGeN/2dvCHj9W/tDR7ZpGTZ5gUFgPYtkj8CK9zC59UguWsubz6/5fkfy1xj9GPBYyrLE5DX9i3rySTcPk1ql5O9j8y6XGTX3fqP8AwT58E3Ev7mGSAf8AXWY5/wDH6uaJ+wL4F06aOSazaZ42DAl5GU/UM5B+hFeh/rBQtpGX4f5n5jD6MHFDqcsq1FR780vy5T4W8M+EdS8Y6mtnpdnPeXDY+WMZCjIGWPRRyOTgV9bfss/sRL4XurXXvEwWS8UCSG3/AIIT/U+/QduzV9B+D/htovgW1WHS9Pt7ZUOQVRQVPqMAAfgK3M7v/r15OOzerXXJH3Y/i/mfuvh79H3KuH68cwzCf1ivHVXVoRfdLVtro3t2uJtG0KvQcAD9KVvT1oxzt9Peob2/h0uwkuLiRY4YVLsx7D/H+teTsf0G5KKuzx39u9gfgHqCDbvbDHPoHSvgS1upLK6jmhZo5IWWRGU4Kkcgivbf2x/2lH+K/ieXSdJm26HZttYo2RdOp9e6g88cE884Ujw3PNfZZNhZ0qD9p9p3t5H+dPj1xhg854nVTLZXjQioc3RyUm215Ju1+tj9NPgB8QofiZ8LNK1KFhuaBQyg52EZBGe+CCv/AAE12jHJwOvUZFfDX7Cvx+/4QDxX/wAI/qEjfYNSf9wScCOQ9V+pwCBnqCAMtX3BDOs0ayRyK8cgDKynhh2INfMY3DPD1XTe3T0/rQ/tPwv42ocS5DRxsX+8ilGouqmkr/J/EvXyKnizwza+NPD11pl9GslvdIUYMPUEf1IPqCa/PX9of9mnV/gf4hm/czXWiyNugugu7YueFc9j2B6H2OQP0a6jv+IqrrWh2niCya3vIY5o29eo+hq8Djp4aV46p7o5vEzwwy/jDCRpV37OtC/JNK7V+jXWL7aW3R+UZ4b0/Wg8981+gni39hnwH4muJJo9NFpNIOsbvGB7gIwX9Pzrn9F/4J3eEbG73XT3N4vZJJ3x/wCOla96Of0GtYu/y/zP5TxH0YuJo1vZ0qtKUf5uaS+9crf4nxj4M8Cap8Qdbj0/SbOS6uJOu37qD1Y9AP8APWvv79l/9nmH4EeEFSRY21i8G+5lx82T2/DpjsPcmuy8C/CzQvhvYrbaTp9vaqvO9Y1Vs468Ae1dCq9u/XpXi4/M54n3bWj27+v+R/RHhX4K4LhOTx2In7bEtW5rWjFPdRW+vVvW2lkJ1qG9v49MsZrmU/ubdC7Z/i9B+PT8anRS7dOegr5v/bm/aNXwd4cbw7pNwy6hqAO9kbDRL0LHv6henOT1WuOjRlVqKnDd/wBX+R+n8V8TYTIMqq5pjXaFNXt1b6RXm3p+PQ+ZP2kviD/wsX4taldxyLJa27/ZYGUhlZVPLBh94FyxB9CK4GlJzSV99RpRpU1TjslY/wArM+zitmuY1sxxHx1ZOT+bvb5bfIKKKK0PJCiiigAFfff7ByY+Adjt7u+f++mr4ExX2h+zX8ZNE+D/AOzLYX2pXSRIS4VerO+9xgAc9Qenp9TXhZ+m6MFFX979Gf0d9GfGYfCZ/icRipqEI0ZNuTSSSlHqz6O1bVrfQrF7i8mWGGPqzHr3496+T/2lf28WnM2j+EHUqrMkt4wDJxx8vZv1X/ezkeT/AB9/ar1z4z3k9qsslnopf5YRxJMB03kcY77Rx0zuIBrynrWGAyX/AJeYn7v8+/pt6n1Hil9ImpiefLOF24w1Uqu0n/gX2V/e3fSxY1DUJ9Xvpbm6mkuLidi8kkjFndj1JJ61Xoor6RWSsj+TalSdSbnUbberb1bCiivfv+CfX/BM34vf8FMfiuvhf4X+HJL6G2ZP7V1u73Q6TokbdHuJ8EAkAkRqGkfB2o2Dgs3sZpN6I8N0DQL/AMV65Z6XpdjealqWoTJbWtpawtNPcyuQqRoigszMSAFAJJOBX7nf8Ecv+DTO68RjS/iN+1LDNp9idtzYfD+3mKXFwOCp1GZDmNe/2eM7+RvdCGjP6Of8Ekf+CB3wi/4JYaJb61DBH46+K00Oy88W6jbKHtSww8djCSwtoyCQSCZHBIZyuFH3VXVCjbWR2U6CWsjK8EeBtF+GnhHTvD/h3SdN0LQ9IgW1sdP0+2S2tbOJRhY440AVVA6AACtXFFFbHQfkZ/weeH/jV54EGOvxS0/8P+JTq9fzJV/TZ/ween/jV54DHr8UtP8A/TTq9fzJ1y1viOLEfEFFFFYmAUUUUAFOh/1q/UU2lRtrg+hzQa0JJVIt90fqj4GGPCGnD1gWtbHHtXzDov8AwUY8P6TpNraroupbbeMJkx5JI7/fqyP+Clei/wDQDvBx/wA8v/s6+Cjl+JW9N/cf6cUfGDg1U4p5hT2XX/gH0uUyPT096QjH9Oa+aD/wUo0P+HRb/wDGL/7Okf8A4KT6KyjGj334w/8A2yn/AGfif5H9xr/xGDg3/oYU/v8A+AfTO3C//XoxuGM/jXzOf+Ck+iEf8ge9z/17/wD2yk/4eTaLj/kE3y9uLf8A+2UvqGJ/59v7g/4jBwb/ANDCn9//AAD6ZXkYpqjPGetfK+v/APBS21htT/Z+i3EkvbzUEQP47n/lXnPjf/goR4y8RRSQ6bHa6TDIuA2BLIh7kHCr7YKmtaeU4qf2berX/BZ4Oa+PvBeCg3HE+1l2hFu/zfLH8T7I+InxY0X4Y6PLdapfQwCEElSwznBOPqew6nsD0r4e/ab/AGq9Q+Nd+9haSSW+hRt9z7pucHIJHZc4IHcgE84C+Z+K/G+reONQ+1atf3F7NkkeY3ypnrtUcKPYAVlV72AyeNFqpUd5dOy/rufzB4m+PmP4ioyy3LYuhhpaS19+a7NrRLyW/VsOhoB2tkcUZor2j+fIyad0fcn7GX7Tdv478LxaNq11GmrWI2sXbBlHZ+ex7kdGJzgFc/QmeO/PQ+tfk7YahPpd5FcW00lvcQsHjkjYqyMOhBHSvoL4Pf8ABQLXvCcMVj4ghOqWi8edGoEqDn+Hoew4Kjjua+Vx+SzUnPD6rt1Xof2p4W/SIwP1SnlnEsnCcEoqrq4yS0XN1T89U93Y+4CvHT8aPLXHT9a8M8L/ALfvgrWUjFxM9jNJxsmRk2fU42/jmt8/tk+BjbmQaxZ/KM83KZ/Lr+leTLDVouzg/uZ/ROH464cxNNVKWNpNf9fIfqz1QRAD+dQXl5Fplm811NHDFH9536D/AOv7V4P4t/4KGeD9KiP9nfatRkyRiOBsj/vraMfQmvmn41ftaeJfjCWtmmk0/TSCPIjky0gIwQzADIPPAABzznANdOHy3EVn8PKu7/y3PhOMPHLhfJMO3RrLEVekKbT185L3UvvfZH1x8N/2obH4n/HC48M6SVnsbe1Z2uRyHkDgYX1AyeQSM9M4yfXz8qla/Nn9mf4xQ/BP4lR6xcwyzQ+Q0TeUu5lO5WBAyM8rjr3r6O/4eR6GP+YTqPT/AJ4Dr/33WuMyupTqctGLkrLXz6ng+HXjjlOOyyWJ4gxcKNZzn7rdrRuuVLuktL7t3Ppa6VhaTY+VhG2Pbg1+X/xoXZ8V/EI/6iM3/oVfVTf8FJtFeIj+yL4bgQT5H/2fpXyX8TfEtt4w8f6rqlpHNFb31w0yLLjeM4znBIHOeM8V3ZLha1OrKVSLSt19T81+kVxtkOd5ThaWVYqFWcajbUXdpONr/edJ+yyD/wAL10Pb6y/+inr9KZk/fuP9oivy++C/jS3+H3xJ03VrpZmt7XzA4iTc43RsowCR3I719Vf8PKNC2/8AIG1At6mHr7/fqM5wtapiFKnFtWW3qzu+j5x5kGS8PVcNmmKhSm6smlJ2duWKv96Z9KqML/Wvjj/gpouzxZ4d/wCuc2frtirsW/4KUaHt40e+X/t3zn/yJXhf7WH7QNj8etR0m4s7e6haxEok86IR7twQDGGb+6fTtXPluDrwxUJTg0lfV+jPp/GTxI4ZzThLFYLAYyFSrLktFPV2nFvp2R5BRRRX15/BwUDrRQOtBUNJI/Sb9l0bPgN4e/69ITn/ALYx16IRxXyJ8I/279F+Hnw30nR5NN1Caayt445H8kEFlVVOPnHHFdH/AMPJ9F/6BF8frb//AGyvhamAxPPK1N7v82f6VZD4scIUctw9Krj6alGnBNX2ahFNbdGmerftG/Fm4+C3w6bW7a3juDbzRiSJv4kMiK2D2OGOD2Pr0rW+E/xd0b4weGIb/SblZGkXLRZ+dD3Hrx39OPUZ+Vf2kP2ytI+MvwyvNHtbHULe4m2bS8IVOJEY5O89l9O9eGfDv4o618LtW+16PdtAWZWkiPMcu05GR+YyMEAnB5rsw+T1KlBuS5Zp6X6qyPz/AIi+kHl+WcSwjhqixGCnTjzOGrhPmldq9r6WuvSzR+o+Mf407bkfTkV8ofDv/gpJDNaxw+ItNkhmXAae3XzFb1Y9Cv0wxx3Nei2H7engO/H/AB/CJ8chhIoH/fSD9K8+pgcRB2lB/df8j9dynxW4TzGmquHx1NX6SkoSXqpWf5+p7VnA9iaZ0Hpzxz1rxrV/27fAmmSMov1c9toaQH6FFavM/iF/wUj2WskPh/S3aRtyiacbFHow6kj2wp96KeCxFR2jB/db8x5x4qcKZbTdTEY6m/KMlOT8ko3f5ep9LfED4g6X8ONDmvdTuo7eOFN53OFwOnPpkkD6nAycCvhT9p79qS8+M2pSafYySQ6FG3TlWuyDkEjqEB5CnqfmPOAvCfEj4v6/8V9Sa41m+eddxZIV+WKPJPRe5GcZOWx3rma+jy/KFRfta2sunZf5s/kHxW8esTxDSlleUJ0sM/ib+Oa7O20fJXb6voFFFFe2fzmTWd7Npt5FcW8kkM8Lh45EbayMOQQexBr7K/ZY/bXtPEtla6F4mkS31OPEUUxGEuPQj0P+yO/TIOF+L6UNiuLG4GniY2lutn2P0Lw98SM04Sxv1jBPmpytz038Ml+jXRr8VofrHa3cd9axzQyLNDJyrqcg1IFx/Svzr+En7Xni34VtHCt02pWEYC+TO5DBR2D/AKDcGwAAMV794N/4KQaHqEEQ1jT7mxkKne2zfGp9Mrkn67R1r5bEZTiaT+HmXdf5b/mf29wt4+cKZtTXt631ep1jU0V/KXwtfc/I+ltnOMc/yowfu+pryXSP23fh/rCfLqyQ9iJPk/8AQwtLqn7avgPS0ZjqlvIF67JhJ+i7jXH9Xq7cr+5n6EuNeHXD2n1yjbv7SH+Z6ztz/wDrqMuIomZmAVQSSTj8a+e/Fn/BRXwtp4I0u3u77cCdyQtgHsDv2/pmvC/iz+3R4s+IsDWtjt0WyYYYRtvkYcg84AHXIIXcCB81dNDK8TUekbLu9P8AgnxHEnjpwjlFJtYhVp9I0/eb+fwr736H0T+03+2Lpfws0ybTNJljvdacYCq/+qzzlsdFwQfVug4O4fDPiXxLfeL9cuNS1G4e6vLpt0kjd+wGOgAHAA4AFVLi4ku53kkdpJJGLM7nczE9STUdfU4HL4YZXWsnu/66H8S+JXipmfF+JXtv3dCD9ymnovOT6y8+mySPQf2W/wDkueh/WX/0S9fpTPxI3bntX5e/Bnxpb/D74j6fq10sjwWvmbhGu5vmjZRgZHcjvX1W/wDwUo0Nmz/Y98fX9x1P/fyvHznC1qmIUqcW1ZberP3n6PfHWQZLw9Vw2aYqFKbqtpSdnblir/emfSpPOP8AIr5m/wCCk67fAGk+n2uLj8Jqf/w8k0TH/IJv/wDwH/8As68q/aw/am0n48eFrGzsbS/t5be4WRvOiCrtAfuGPPzjtXJgcDiI4mEpQaSe/wB5974neJ3C2P4WxuDweNpzqTg1GKerd46L7jwI9aKD1or7M/z4CiiigAqS0u5bG6jmgkkhmhYOkiNtZGHIII6EVHRQVCpKElKLs0fU37M/7db6XHb6L4sk3xgiOK8J2rz/AHz/AAkev3Tnnbgsfrbw94isPFGmJdWFxHcQyKHUo2TtPI4/zn3r8o8113w1+OPiX4UXSto+oyxwq2427ktE34dVz32kZr5/G5IpPnw+j7dPl2/I/qLw5+kbisupxwHEUXWprRVF8aX95PSS87p+bP066NSsMdP0r5J+H3/BSVjbJD4g0uRXUAGeD94HPckHBA9vmr1fwt+2v4F8VblGqR2zqMnzj5Y/DeFJ/AGvBqYLEU3acH+a+9H9T5H4pcK5tFSweNhd/Zk1CXpaVn91/U9g7/XpxQGIIHqa5Ww+NPhnVYFkt9Vt5Y253J8wP4jiquq/Hzwjob7bjWrWBuwdlTP/AH0RXLa7sfXyzfAqHO60Ld+ZW/M7Mfd69TmkUM3HPNeN+Kv26vAvhySWOO9+1TKMqI8yK30Kbh+Zrx/4mf8ABR28voXt/Dumm3Dc+dOSmOeRtUliMf7S/SuqjgcRUdowfz0X4nxOfeLXCmUQcsTjINr7MGpyflaL/NpH1J8Qvibo/wAM9GmvNVvIrdIV3FS/Pt9M9u56AE4FfFX7TH7Y2pfFm4n0nR5Gs9ByVLKCj3Xrx1VTnHPJHXGSo8o8a/EbWviJfi51nULi+kUkqHOETOAcKMAE4GSBzisOvosDksKT9pW96X4L/M/kfxM+kBj8+pyy7J4uhh3o3f35rs2vhXkt+rYGiiivcP5zHKzIyspKspyCO1fWH7KX7bEccMOg+LJljK8Q3jHCyf73YN+IDezfe+TaK5MZg6eIhyz36PsfccB+IGacKY765l8rxek4P4ZLs/Ps1qj9ZNM1C31i0Wa1ljmjbkFT0+o9akK8Y9P0r82PhV+0z4q+EhSOxvmuLRBhbe4JZU6fdIII+mdvJ4r6G8Ff8FI9Ou7eNdZ0u5tZMkMyL5qKOxLDBP8A3z+dfK4jKcTSei5l3X+W/wCZ/bvCn0guF81pJYup9Wq9Yz2v5TWlvWzPqPvt9aCMH0rx3Rv24fAOsj5dSjix2lPlf+hgUal+3X4B092X+0Nzeoy6/mgb9K4vq9W/wP7n/kfpa464d5PafXqVu/tIf5nsWdpqOSZYIGkkkWOOMZZnIVVHqTXzf44/4KOaBp0Ui6NZ3F9JtyjiMqjH0JfaR/3ya8H+LH7aHi/4nFoY7g6RY5OI7d8yY46vxgjHVAp5IOa6qGVYmq/h5V3en4b/AJHwXE3jzwllFN+zr+3qdI0/e++Xwr72/I+kP2l/2z9L+GlpcaTpDLfawyY2qTtjz03kcqO+M7iMdAd1fD/iLxHe+LdauNR1C4e6vLpt8kj9z7DoABgADgAYFUncyNubkk5JPekBxX1GBy+nho6aye7/AK2R/FPiP4pZpxfiVLE+5Rh8FNPReb/ml5v0SSCiiivQPzIKKKKACiiigAzxT2neSNEZ2ZY+EUnIXJycelMooKjNxvZgetFBooJAjFAr0b9ln9kv4iftq/F/T/Avwx8K6n4s8S6gdwt7RP3dtGCA008rYSGJcjMkjKoyBnJAP9J3/BHL/g2S+Hf7BC6X48+Kv9mfEz4uQ7biDfF5mieG5Bgj7LE4BmmU8+fKoIIUokZBZrjTcjSnTcj82f8Agjl/wa3eOv2xjpXxA+OS6t8N/hjJtubXSink694jj6jajD/RYG/56ON7D7iAMsg/o6/Z2/Zt8C/smfCfTfA/w58L6T4R8K6SuLewsItiljjdI7HLSSNgFpHLOx5JJruKK6o01HY7YU1FaBRRRVlhRRRQB+Rf/B54f+NXngP3+KWn/wDpp1ev5k6/ps/4PPf+UXngP/sqWn/+mnV6/mTFclb4jixHxBRRRWRgFFFFABRRRQA7p2/Wj/gP602igvnY7j+7+tGc/wAP603NGaBczHYz/D+tHT+H9abRTDnf9XHEY/h/WmiiikTe4UUUUAFFFFAAKUUlFAC96UnPf9KbRmgd2LjikoooC4CndP4f1ptFA4yaHY/2f1pp4NFFAOTYo5NLj/Z/Wm0UApNDgM/w/rSHjtSUUBzN7hRRRQSFFFFADsZH3f1ox/s02igrmY49On602iigTbYDilzzSUUDuKT/AJxSE0ZooFcKKKKBBRRRQAUUUUAFKOnSkooHewoP+cUE/wCcUmaM0CFHPakzRRQO4UUUUCAdacB/s/rTaKClJrYd/wAB/Wkbp0pKKAcmwooooJCiiigAooooAKKKKAFFKpx/+qm5ooK5hzN/nFAbA/h/EUm6k3YoK9tO1mxxOT6/himmiigi4UUUUCCiiigAooooAKXHHSkNFA7ig89vypDRmigQvXtSDmg0ZoC4UUUUAFFFFABRRRQAUUV7Z8Df2Mrz44eC4dXtdYjtfMZwYmhB24dlHJYf3T+YrnxGKp0Ic9V2W3X9D6ThfhPNOIcX9Ryin7SpZytdR0W7vJpde54nRX08f+CZuuHONbh4/wCmKf8Axym/8Oz9c/6DcH/flP8A45XD/beD/m/CX+R+gf8AEAeOf+gP/wAqU/8A5I+Y6K+nh/wTL1wn/kNQ/wDflP8A45TR/wAEz9cP/Mah/wC/Kf8Axyj+28H/ADfg/wDIf/EAOOf+gP8A8qU//kin+xX/AMFbv2gP+Cd3gvVvD/wc8c2vg3Tdevf7QvwvhvSb6e6mCLGN091bSy7FVBtj37FLOQoLsT7R/wARPX7cv/RcP/LO0D/5BryNf+CZ2uH/AJjUP/flP/jlN/4dpa7njWocevkp/wDHKr+3cJ/O/ul/kWvAPjtaLB/+VKf/AMmevf8AET1+3L/0XD/yztA/+QaP+Inr9uX/AKLh/wCWdoH/AMg15Gf+CZ+ug/8AIZh/79J/8cpP+HaWuE8axH/35T/45R/b2E/nf3S/yD/iAfHf/QJ/5Up//Jnrv/ET1+3L/wBFw/8ALO0D/wCQaP8AiJ6/bl/6Lh/5Z2gf/INeRD/gmhrp6a1D/wB+U/8AjlA/4Joa43/Mahx/1xT/AOOUf29hP5390v8AIP8AiAnHn/QH/wCVKf8A8meu/wDET1+3L/0XD/yztA/+QaP+Inr9uX/ouH/lnaB/8g15Gf8AgmfruONah/GJP/jlIP8Agmhruf8AkNQ/9+k/+OUf29hf5390v8g/4gJx3/0Cf+VKf/yQv7Z3/BY79pD/AIKEfC6x8F/GD4jf8Jd4Z03VI9atrP8AsDS9P8u7jimhSTfa20TnEc8o2lip35IyAR8x19Or/wAEzdcb/mNQ/wDflP8A45Sp/wAEzNbfprkP/fhP/jlH9uYR7z/B/wCRL8AeOnvg/wDypT/+SPmGivoD4sfsH33wo8B3uuXWvRzR2iFhGLYDecEgZ3nGcHnBr5/rsw2KpV481J3Xo1+Z8FxVwXm/DmIjhc4peznJcyV4y0va/utrcKKKK6D5YKKKKACiiigAooooAKKKKACiiigAooooAKKKKACiiigAooooAKKKKACiiigAooooAKKKKACiiigAooooAKKKKACiiigAooooAKKKKACiiigAooooAKKKKACiiigAooooAKKKKACiiigAooooAKKKKACiiigAooooAKKKKACiiigAooooAKKKKACiiigAooooAKKKKACiiigAooooAKKKKACiiigAooooAKKKKACiiigAooooAXPWvun/AIJ8Mw+DMXTl5B9R5r/4mvhWvur/AIJ8t5nwWi/2ZJF/8iua8TPv93X+Jfqf0V9GX/krJf8AXqf5xPfi27jsKdnnjvRswMdaMf59K+QP9AbIQcj60uMdOPXmgrkfdpx4HTnvQx2GkdO2abt5H86cFwaXbxjpRoAxl429KCu3tT8c49+lIRj2/CgBCOaXAP5daAMmjZxigAPT/PNNKA8baeF5/wAikKY9qAG4GOlL6UpBJ9qQdPrQB5R+2c279n7WFPK4J/8AIUlfnca/RL9s1hH8ANX/ANoP/wCinA/nX52mvq+H/wCFL1/RH8KfSmt/b2Ft/wA+v/b2JRRRXvn8vBRRRQAUUUUAFFFFABRRRQAUUUUAFFFFABRRRQAUUUUAFFFFABRRRQAUUUUAFFFFABRRRQAUUUUAFFFFABRRRQAUUUUAFFFFABRRRQAUUUUAFFFFABRRRQAUUUUAFFFFABRRRQAUUUUAFFFFABRRRQAUUUUAFFFFABRRRQAUUUUAFFFFABRRRQAUUUUAFFFFABRRRQAUUUUAFFFFABRRRQAUUUUAFFFFABRRRQAUUUUAFFFFAC+tfZv/AATm8b2t34JvNHZlW4s5yMc/dbLqT25+cDH9018Yg4rc+H3xD1T4Y+JodV0m4MFxFwynlJlyCUcdwcD3BAIIIBHBmWEeIoOEd916n6R4VccQ4W4gp5lXi5U7OM0t+WXVeaaT89j9Tg2P6Ufdr5U8D/8ABSS1bS411vSrhbpRtdol3o3+1nr+GOPU10if8FFvCr5/0e7X6wvz+lfISy/ExdnB/df8j++sH4v8H4mkqsMfTSa2lJRa9U7NH0P29KMY9fQ189H/AIKKeEif9TdAZ/55P/8AE0p/4KLeEv8AnjdY9kf/AOJqfqOI/kl9zOteKXCf/Qwpf+Bx/wAz6ExgY5HfNOxu+Uivnj/h4v4TP/LC4X6I/wD8TSn/AIKL+Edv+ouv++H/APiaPqOI/kf3Mf8AxFLhP/oYUv8AwOP+Z9CHgU5l5+nQ187j/gov4TAP7i4/74f/AOJpf+HivhPp5d1/37f/AOJp/UsR/I/uYv8AiKXCf/Qwpf8Agcf8z6GPI5pM549vSvnk/wDBRjwng/ubg/VH/wDiaf8A8PF/CIH+puP++H/+JpfUcR/I/uY/+IpcJ/8AQwpf+Bx/zPoT6UjDcK+eT/wUX8JjP7m59iI3/wDiaD/wUU8KA8Q3H/ft/wD4mj6jiP5H9zD/AIilwn/0MKX/AIHH/M+hgOcU1Rx7dq+fD/wUU8KGM4hufXHlOf8A2Wua8Y/8FKLRdLddH0e6a5bhTKojUe+7LfkF/EVUMvxMnZQf3W/M5Mb4v8H4am6lTH03bpF8z+SjdnUf8FBfiFBoXwmXSBcL9s1KQKIxjdg4ySOuNm7p03L6ivhfrW/8RviVq3xT8Ryanq9wZpnJCKM7IlznCj+pyT3JrAr67LcG8NR5JbvVn8HeLnH0OLM9eOoRcaUIqEE92k27vzbd7dFYKKKK9A/LQooooAKKKKACiiigAooooAKKKKACiiigAooooAKKKKACiiigAooooAKKKKACiiigAooooAKKKKACiiigAooooAKKKKACiiigAooooAKKKKACiiigAooooAKKKKACiiigAooooAKKKKACiiigAooooAKKKKACiiigAooooAKKKKACiiigAooooAKKKKACiiigAooooAKKKKACiiigAooooAKKKKACiiigAooooAKKKKACiiigAooooAUUuP8AZ/Wm0DrQaQ1aR0Nv8KPEtzbrMmga00cgDKws3wQehHHenn4R+Jh18P63/wCAb/4V+hXwIuIfEfwf0O6khh3TWsZb5BxlVYDp/tV1x8P2R4+x2v4xg18pLiCsm1yLr1Z/aGX/AEX8qxOFp4j69U9+MZfDH7ST7+Z+Yx+EviYH/kX9b/8AAN/8KT/hUviUf8y/rX/gG/8AhX6d/wBgWOP+PO29v3S/4Uh8PWIH/Hja+x8sUv8AWCtb4F97Oz/iVXK/+g6p/wCAx/zPzHb4R+Jh/wAy/rX/AIBv/hTT8J/EoH/IA1r/AMA3/wAK/Tr/AIR+wB2mztcZ/wCeS0Hw9p7H/jxtfxiFH+sFb+Rfew/4lVyr/oOqf+Ax/wAz8x2+EfiZPveH9bH1s3/wpp+Evib/AKF/Wv8AwDf/AAr9Ov8AhH7En/jztsf9cxSDw7Y/8+dv1x/qxR/rBX/kX3sP+JVcq/6Dqn/gEf8AM/Mf/hUnib/oX9b/APAJ/wDCkb4T+JVB/wCJDrX/AIBv/hX6dHw/Y4/487f/AL4HSsnx1BaaJ4L1K4WG3jMcJCt5Y+UkgA/gTR/rDW/kX3szrfRZymnTc5Y6pom/hj0V+5+XZQqxUqQynBB7Uh+lPvLhru7klc7mkcux9STmo+1fWI/imslGcoxeibCiiigxCiiigAooooAKKKKACiiigAooooAKKKKACiiigAooooAKKKKACiiigAooooAKKKKACiiigAooooAKKKKACiiigAooooAKKKKACiiigAooooAKKKKACiiigAooooAKKKKACiiigAooooAKKKKACiiigAooooAKKKKACiiigAooooAKKKKACiiigAooooAKKKKACiiigAooooAKKKKACiiigAooooAKKKKACiiigAooooAKKKKACiiigAooooAKKKKAPvv9hbxkPE/wOs7dpFabTx5LBf4NpKAH32hD/wACr20j/PpXw1+wL8X18G+N7jRLqXbb6kPNgDH5d4Hzj6lQGyT/AMssdTX3KcMo2nhuVI9PWvgsxoOjiZRfV3Xo/wCmj/Tvwb4mp51wpha0X79OKpzXaUFbX1jysCMilPA+p4oA+WlA/LtXGfqIdvTsBikYY9qAMjsKEHGPbikAhGD/APWo5Jo6DFC84H9KOgw249q8r/bJ8WR+D/gVqx+bN1G0a7Tzk/Ip/BnU/hXqqLuGF6nj618Zf8FEPi9HruuWfhu0mWSOzPnTlTnGMhR17kscEdAh7114Gg62IhBd7v0Wp+deKvElPJOGMXi5O0nBwj5ymnFW9Lt/I+Y6KCcmivvz/Lhu7uwooooEFFFFABRRRQAUUUUAFFFFABRRRQAUUUUAFFFFABRRRQAUUUUAFFFFABRRRQAUUUUAFFFFABRRRQAUUUUAFFFFABRRRQAUUUUAFFFFABRRRQAUUUUAFFFFABRRRQAUUUUAFFFFABRRRQAUUUUAFFFFABRRRQAUUUUAFFFFABRRRQAUUUUAFFFFABRRRQAUUUUAFFFFABRRRQAUUUUAFFFFABRRRQAUUUUAFFFFABRRRQAUUUUAFFFFABRRRQAUUUUATWGoTaXfQ3NvI8NxbuJI5EOGRgcgj3FffX7Jv7Ttn8XPDEVjeNHb6rZqI5ISfwBU9Sp7Z5H3ecAn8/60PDXie+8H61DqGm3Elrd25yjr+oIPBB9DxXnZll6xMNNJLZ/o/I/VvCnxOxPCGYuo054epZVIflKP95fitGfqwfkHcc96cf7vvXzP8BP2+dP8S28On+KPL02+X5RKT+5l9wzdO/DH0+ZicV9FaP4k07Xk3W15DJuwQpba/wD3yea+Mr0KlGXLVVn/AFt3P9EOGeL8p4gwqxeVVlUj1S+KPlKO6fr+JdYEcetByaR0fG3aw9MjrQqsDtw35VifScwoGP8ACkUnIz3qnqfiCz0VCbu6ht8dAx+Y/Qda8F+O37eWh+D7e4sfDbDVNQIKrJGf3aZxglug69snII+XrWlGjOrLlpK78v1Pn+IuLMqyPDPFZpWjTil1er8ordv0O4/aX/aE0/4J+EJ98yyalcqY4bdG+dyR09uvJ7A+pUH88fEOv3finWrnUL6Zri6u3MkjnjJ9AOwHQAcAACr3jzx9qfxI8RTapq1w1xcS8AfwRL2VR2H6kkkkkknFzX2eW5esNG8tZPf/ACX9an+e3i54qV+L8co0U4Yalfki92+speb6LotO7CiiivTPx4KKKKACiiigAooooAKKKKACiiigAooooAKKKKACiiigAooooAKKKKACiiigAooooAKKKKACiiigAooooAKKKKACiiigAooooAKKKKACiiigAooooAKKKKACiiigAooooAKKKKACiiigAooooAKKKKACiiigAooooAKKKKACiiigAooooAKKKKACiiigAooooAKKKKACiiigAooooAKKKKACiiigAooooAKKKKACiiigAooooAKKKKACiiigAooooAKKKKACiiigAFdB4V+KHiDwUiLpuq3lvHGxZYt++EE9T5bAr+lc+OtFTOnGa5Zq68zuwOY4vB1PbYSpKnLvFtP700etaN+2p460mDy2vre5/wBp0ZCPwQqP0qXV/wBt/wAe6pbtGl9b2u7vEjMfydmH6V5GnSkP3K4/7Mwl7+zX3H2H/EUuLfZ+y/tCrb/G/wA9zovF/wAWvEfjsN/amrXVwkmN0YIjibHTKKApPuRXOE5pKVvvV2U6cYLlgrLyPkMwzPF46r7bGVJVJd5Nt/e2xKKKKo4AooooAKKKKACiiigAooooAKKKKACiiigAooooAKKKKACiiigAooooAKKKKACiiigAooooAKKKKACiiigAooooAKKKKACiiigAooooAKKKKACiiigAooooAKKKKACiiigAooooAKKKKACiiigAooooAKKKKACiiigAooooAKKKKACiiigAooooAKKKKACiiigAooooAKKKKACiiigAooooAKKKKACiiigAooooAKKKKACiiigAooooAKKKKACiiigD/9k=;" vertex="1" parent="1">
          <mxGeometry x="-400" y="-400" width="335.3" height="140" as="geometry" />
        </mxCell>
        <mxCell id="69" value="&lt;font style=&quot;color: rgb(255, 128, 0);&quot;&gt;SIM&lt;/font&gt;" style="text;html=1;align=center;verticalAlign=middle;whiteSpace=wrap;rounded=0;" vertex="1" parent="1">
          <mxGeometry x="-1300" y="520" width="60" height="30" as="geometry" />
        </mxCell>
        <mxCell id="70" value="&lt;font style=&quot;color: rgb(255, 128, 0);&quot;&gt;NÃO&lt;/font&gt;" style="text;html=1;align=center;verticalAlign=middle;whiteSpace=wrap;rounded=0;" vertex="1" parent="1">
          <mxGeometry x="-1290" y="260" width="60" height="30" as="geometry" />
        </mxCell>
        <mxCell id="71" value="&lt;font style=&quot;color: rgb(51, 255, 51);&quot;&gt;SIM&lt;/font&gt;" style="text;html=1;align=center;verticalAlign=middle;whiteSpace=wrap;rounded=0;fontColor=#33FF33;" vertex="1" parent="1">
          <mxGeometry x="-750" y="550" width="60" height="30" as="geometry" />
        </mxCell>
        <mxCell id="72" value="NÃO" style="text;html=1;align=center;verticalAlign=middle;whiteSpace=wrap;rounded=0;fontColor=#33FF33;" vertex="1" parent="1">
          <mxGeometry x="-700" y="-70" width="60" height="30" as="geometry" />
        </mxCell>
      </root>
    </mxGraphModel>
  </diagram>
</mxfile>
